<?xml version="1.0" encoding="UTF-8" standalone="no"?>
<svg xmlns:xlink="http://www.w3.org/1999/xlink" height="116.55px" width="43.95px" xmlns="http://www.w3.org/2000/svg">
  <g transform="matrix(1.0, 0.0, 0.0, 1.0, 21.0, 116.15)">
    <path d="M20.95 -26.95 Q-1.9 -11.85 -20.8 -26.95 -20.8 -16.15 -15.55 -8.3 -9.7 0.35 -0.25 0.4 11.6 0.45 17.45 -12.85 19.3 -17.1 20.3 -22.25 L20.95 -26.95" fill="#b52910" fill-rule="evenodd" stroke="none"/>
    <path d="M8.95 -116.15 Q7.95 -113.9 7.85 -111.0 L7.55 -105.55 7.35 -103.0 Q7.1 -101.6 6.05 -101.6 L4.35 -101.85 3.8 -105.0 3.75 -100.85 Q3.45 -98.7 1.8 -98.1 0.15 -101.8 -0.55 -106.5 -1.65 -114.25 -1.9 -115.3 L-1.9 -108.45 Q-1.9 -105.7 -2.95 -101.75 -4.05 -97.55 -4.15 -95.0 L-4.1 -90.3 Q-4.3 -87.8 -6.15 -87.05 L-6.9 -90.45 Q-7.3 -92.5 -7.85 -93.85 -8.55 -90.6 -9.0 -83.55 -9.4 -77.75 -10.8 -73.55 -11.95 -70.15 -13.15 -60.1 -14.2 -51.3 -14.2 -48.4 -14.2 -46.4 -14.9 -43.75 L-15.9 -39.05 Q-18.0 -39.05 -19.4 -37.35 -20.7 -35.7 -20.7 -33.45 -20.7 -30.15 -19.0 -27.05 L-19.5 -26.6 -19.85 -26.05 Q-19.85 -24.2 -18.05 -22.9 L-14.45 -20.8 Q-10.8 -18.35 -6.9 -17.6 L1.5 -17.1 Q5.1 -17.1 8.3 -18.65 10.0 -19.5 14.35 -22.5 L20.05 -25.8 Q22.95 -27.7 22.95 -30.6 22.95 -35.1 15.85 -36.7 17.25 -39.1 17.25 -40.15 17.25 -42.5 16.15 -46.1 15.0 -49.7 15.0 -52.05 L15.0 -69.9 Q15.0 -70.7 15.35 -71.75 L15.85 -73.55 14.7 -71.0 Q13.55 -71.8 13.3 -73.4 L13.2 -76.6 13.5 -88.15 13.25 -85.0 Q13.0 -83.95 11.3 -83.05 L9.7 -88.3 Q9.3 -90.1 9.3 -93.65 L8.95 -116.15" fill="#b52910" fill-rule="evenodd" stroke="none"/>
    <path d="M3.65 -96.55 Q2.5 -94.1 0.2 -93.3 L0.2 -100.95 Q-0.95 -98.35 -2.4 -91.75 -3.55 -86.45 -5.9 -83.0 L-6.8 -83.6 -7.25 -84.75 Q-10.65 -68.65 -11.6 -62.0 -13.05 -51.75 -13.05 -39.25 L-13.05 -37.6 -15.1 -37.9 Q-16.85 -37.9 -19.0 -36.4 L-19.0 -27.1 Q-19.0 -25.2 -17.15 -24.0 -16.65 -23.65 -13.35 -22.2 L-7.45 -19.6 Q-4.45 -18.5 -1.25 -18.5 L4.25 -18.5 Q7.25 -18.5 9.95 -19.75 11.1 -20.3 15.0 -22.8 L19.35 -26.0 Q21.25 -28.0 21.25 -30.6 21.25 -32.55 20.1 -34.0 18.85 -35.55 17.05 -35.55 L16.05 -35.65 15.0 -35.9 Q15.0 -41.35 14.3 -49.6 13.55 -57.9 13.55 -63.3 L13.2 -68.8 Q13.1 -70.3 13.3 -71.7 12.8 -70.7 11.95 -70.7 11.1 -70.7 10.65 -72.55 L11.8 -81.55 10.75 -81.05 Q10.15 -80.7 9.65 -80.7 8.4 -80.7 8.4 -82.55 L8.15 -91.6 Q7.75 -91.35 7.5 -90.45 7.25 -89.7 6.7 -89.6 6.95 -92.3 6.3 -95.6 L5.25 -101.6 3.65 -96.55" fill="#de8429" fill-rule="evenodd" stroke="none"/>
    <path d="M3.2 -95.0 L2.5 -88.25 Q1.9 -84.85 -0.4 -83.0 -1.2 -85.55 -1.2 -89.0 L-1.95 -84.6 Q-2.4 -82.3 -3.05 -80.45 L-3.85 -77.95 Q-4.4 -76.65 -5.45 -76.65 -6.2 -76.65 -6.85 -77.55 L-8.1 -79.0 -11.45 -42.6 Q-10.65 -36.15 -10.1 -34.4 -11.8 -35.55 -12.9 -35.55 -15.0 -35.55 -16.5 -34.15 -18.05 -32.7 -18.05 -30.6 -18.05 -27.15 -17.25 -24.2 L-10.25 -18.85 Q-6.35 -16.25 -2.5 -16.25 19.65 -16.25 19.65 -28.6 19.65 -30.9 18.7 -32.55 17.65 -34.4 15.85 -34.4 L13.5 -33.9 11.15 -33.3 12.3 -35.75 Q12.85 -37.05 12.85 -38.4 L12.35 -46.3 Q11.85 -51.2 11.85 -54.2 11.85 -59.3 11.15 -63.25 10.55 -66.65 8.9 -72.1 L7.85 -70.7 7.85 -77.65 8.1 -78.9 8.35 -80.15 7.55 -78.45 6.75 -78.7 6.25 -80.45 6.25 -85.6 5.5 -84.25 Q5.0 -83.55 4.35 -83.55 L3.25 -83.85 3.2 -95.0" fill="#ffde29" fill-rule="evenodd" stroke="none"/>
    <path d="M2.75 -81.55 Q1.85 -77.25 0.85 -74.6 -0.3 -71.7 -2.45 -68.45 L-2.45 -74.4 Q-6.3 -66.7 -7.35 -59.05 -7.95 -54.5 -7.95 -42.65 -7.95 -37.8 -7.3 -34.35 -6.65 -30.85 -4.9 -26.45 -7.0 -27.0 -9.25 -29.5 -11.2 -31.65 -13.75 -31.65 -15.05 -31.65 -16.15 -30.3 -17.25 -29.0 -17.25 -27.6 -13.65 -22.0 -8.85 -20.5 L-4.05 -19.75 1.6 -19.65 Q4.5 -19.65 7.3 -20.55 L12.75 -22.8 17.2 -24.35 Q19.45 -25.4 19.45 -27.6 19.45 -29.25 18.1 -30.2 16.9 -31.05 15.2 -31.05 13.15 -31.05 10.4 -29.65 7.4 -28.1 5.55 -27.9 8.4 -32.8 9.05 -38.0 L9.3 -49.05 Q9.3 -53.6 8.7 -57.75 L7.05 -66.45 Q6.6 -64.75 5.2 -63.05 4.35 -64.0 4.35 -64.6 4.35 -66.5 4.85 -68.25 L6.0 -71.85 4.7 -69.6 Q3.85 -68.55 2.75 -68.7 L2.75 -81.55" fill="#ffffff" fill-rule="evenodd" stroke="none"/>
    <path d="M0.05 -15.4 Q7.0 -15.4 11.65 -16.75 16.35 -18.1 20.35 -21.25 21.15 -24.1 21.45 -27.45 L21.55 -30.5 Q12.65 -24.6 3.95 -23.2 -9.6 -21.1 -21.0 -30.2 -21.0 -26.05 -20.15 -22.2 -15.75 -19.2 -10.2 -17.3 -4.6 -15.4 0.05 -15.4" fill="#ffde29" fill-rule="evenodd" stroke="none"/>
    <path d="M0.05 -12.3 Q6.9 -12.3 11.15 -13.6 15.3 -14.9 19.35 -18.15 20.95 -23.75 20.95 -26.8 -1.8 -11.55 -20.8 -26.8 -20.8 -22.85 -19.85 -18.55 -15.6 -15.65 -10.05 -13.95 -4.75 -12.3 0.05 -12.3" fill="#ce8421" fill-rule="evenodd" stroke="none"/>
    <path d="M4.1 -2.75 Q5.9 -3.8 5.9 -5.3 5.9 -6.75 4.1 -7.8 2.3 -8.85 -0.25 -8.85 -2.8 -8.85 -4.6 -7.8 -6.4 -6.75 -6.4 -5.3 -6.4 -3.8 -4.6 -2.75 -2.8 -1.7 -0.25 -1.7 2.3 -1.7 4.1 -2.75" fill="#940000" fill-rule="evenodd" stroke="none"/>
  </g>
</svg>
