<?xml version="1.0" encoding="UTF-8" standalone="no"?>
<svg xmlns:xlink="http://www.w3.org/1999/xlink" height="137.2px" width="51.05px" xmlns="http://www.w3.org/2000/svg">
  <g transform="matrix(1.0, 0.0, 0.0, 1.0, 25.0, 136.85)">
    <path d="M10.05 -103.85 L10.05 -112.55 Q10.05 -115.1 8.85 -117.2 L5.8 -121.25 Q7.1 -113.45 1.75 -108.75 L-2.8 -105.6 Q-5.2 -103.8 -5.2 -101.4 L-5.2 -97.65 Q-10.5 -97.4 -11.95 -90.2 -15.35 -90.2 -17.85 -88.05 -20.45 -85.8 -20.45 -82.6 -20.45 -80.45 -19.4 -78.2 L-17.5 -73.95 -20.05 -74.2 Q-20.75 -74.15 -20.75 -72.55 -20.75 -71.65 -19.1 -70.3 -17.95 -69.35 -18.7 -69.4 -22.05 -69.5 -23.8 -65.9 -25.0 -63.4 -25.0 -60.8 -25.0 -59.35 -24.1 -58.65 L-22.15 -56.85 -14.85 -54.95 -8.65 -53.1 Q-1.75 -51.15 4.9 -51.15 14.4 -51.15 18.85 -52.45 26.05 -54.55 26.05 -60.5 26.05 -61.8 24.8 -62.55 L22.2 -63.65 22.2 -71.45 Q22.2 -73.55 20.05 -75.35 16.95 -77.9 16.4 -78.75 15.8 -79.65 15.35 -82.55 15.0 -84.8 13.55 -85.3 13.85 -86.6 15.2 -88.95 16.4 -90.95 16.4 -92.6 16.4 -94.3 15.4 -95.8 L13.25 -98.25 Q10.05 -101.35 10.05 -103.85" fill="#b52910" fill-rule="evenodd" stroke="none"/>
    <path d="M21.65 -51.0 L24.85 -58.15 Q4.1 -45.6 -23.3 -58.45 L-21.0 -51.45 Q-6.5 -45.0 7.1 -46.55 15.35 -47.5 21.65 -51.0" fill="#de8429" fill-rule="evenodd" stroke="none"/>
    <path d="M21.65 -49.85 L23.85 -56.0 Q4.1 -43.45 -23.3 -56.35 L-21.0 -50.35 Q-6.5 -43.9 7.1 -45.4 15.35 -46.35 21.65 -49.85" fill="#efad31" fill-rule="evenodd" stroke="none"/>
    <path d="M13.5 -6.25 L23.0 -53.65 Q5.25 -41.1 -22.15 -54.0 -13.3 -12.8 -11.6 -6.55 1.25 3.5 13.5 -6.25" fill="#ffffff" fill-rule="evenodd" stroke="none"/>
    <path d="M13.5 -6.25 Q1.25 3.5 -11.6 -6.55 -13.3 -12.8 -22.15 -54.0 5.25 -41.1 23.0 -53.65 L13.5 -6.25 Z" fill="none" stroke="#ffff39" stroke-linecap="round" stroke-linejoin="round" stroke-width="1.0"/>
    <path d="M7.1 -43.1 Q15.45 -44.05 21.65 -47.55 L22.85 -53.7 Q5.1 -41.15 -22.3 -54.0 L-21.0 -48.0 Q-6.5 -41.55 7.1 -43.1" fill="#ffff39" fill-rule="evenodd" stroke="none"/>
    <path d="M13.85 -6.55 Q9.45 -4.35 -0.8 -4.95 L-7.85 -5.7 -11.6 -6.55 Q-12.25 -6.85 -11.25 -6.05 L-8.6 -4.3 Q-3.8 -1.6 0.2 -1.95 11.05 -1.95 13.85 -6.55" fill="#ffde29" fill-rule="evenodd" stroke="none"/>
    <path d="M13.85 -5.95 Q2.9 1.45 -11.35 -5.65 -11.95 -5.95 -11.05 -4.95 L-8.5 -2.75 Q-3.8 0.65 0.2 0.3 3.85 0.3 7.85 -1.4 12.2 -3.2 13.85 -5.95" fill="#b52910" fill-rule="evenodd" stroke="none"/>
    <path d="M-5.25 -16.85 Q-7.5 -16.5 -8.4 -19.9 L-9.15 -22.95 Q-9.7 -24.7 -10.65 -25.65 L-10.95 -22.6 Q-10.95 -19.55 -9.8 -17.4 -8.45 -14.85 -6.0 -14.85 -5.75 -14.85 -5.6 -15.75 L-5.25 -16.85" fill="#ffff39" fill-rule="evenodd" stroke="none"/>
    <path d="M9.4 -14.9 Q11.75 -14.9 12.5 -17.75 12.95 -19.4 12.95 -23.25 12.95 -23.75 12.25 -24.55 L11.25 -25.7 Q10.9 -24.7 10.05 -20.35 9.45 -17.5 8.1 -15.45 L9.4 -14.9" fill="#ffff39" fill-rule="evenodd" stroke="none"/>
    <path d="M8.3 -100.4 L8.65 -107.45 8.65 -110.5 Q8.5 -112.05 7.5 -113.05 L5.0 -108.2 Q3.55 -105.75 1.45 -104.2 L-1.45 -102.95 Q-3.05 -102.3 -3.05 -101.05 -3.05 -100.35 -1.95 -98.5 -1.15 -97.1 -1.95 -96.4 L-4.5 -94.6 -8.15 -91.65 Q-10.3 -89.55 -10.3 -86.8 -10.3 -85.75 -9.6 -83.4 -14.65 -86.35 -16.15 -84.45 -17.65 -82.55 -14.2 -78.05 -12.5 -75.8 -12.5 -72.5 -12.5 -71.8 -13.65 -71.55 -15.0 -71.25 -15.35 -70.8 -15.75 -70.3 -15.7 -69.0 -15.65 -67.8 -16.2 -67.35 L-18.2 -66.1 -20.2 -65.1 Q-22.45 -63.85 -22.45 -61.95 -22.45 -60.2 -11.85 -57.8 -1.45 -55.4 5.45 -55.4 L10.25 -55.0 Q12.75 -54.8 14.7 -55.75 20.65 -58.75 20.65 -67.75 20.65 -69.8 19.15 -71.6 L16.1 -74.8 Q14.95 -76.15 14.15 -78.55 13.2 -81.2 12.35 -82.45 L11.35 -83.1 Q10.65 -83.4 10.65 -83.9 10.65 -85.55 11.95 -87.95 13.25 -90.35 13.25 -92.05 13.25 -93.0 12.75 -93.75 12.2 -94.55 11.35 -94.55 10.7 -94.55 9.95 -94.1 L8.55 -93.3 Q8.05 -96.55 8.3 -100.4" fill="#efad31" fill-rule="evenodd" stroke="none"/>
    <path d="M7.25 -99.45 L7.25 -102.55 7.0 -104.3 Q6.8 -105.2 6.15 -105.4 5.6 -105.5 5.55 -104.5 L5.3 -102.85 Q4.2 -101.1 1.3 -101.7 2.1 -99.45 3.95 -99.45 L7.25 -99.45" fill="#ffff39" fill-rule="evenodd" stroke="none"/>
    <path d="M0.75 -95.35 Q-2.35 -95.35 -4.45 -92.75 -6.45 -90.3 -6.45 -87.0 -6.45 -86.1 -5.6 -84.85 -4.75 -83.55 -4.75 -82.65 L-4.75 -79.2 Q-7.2 -79.2 -8.9 -78.3 -11.0 -77.2 -11.0 -75.25 L-10.55 -73.15 Q-10.1 -71.85 -10.1 -71.0 -10.1 -69.65 -11.95 -68.05 -13.8 -66.4 -13.8 -65.05 -13.8 -63.75 -12.15 -63.4 L-9.0 -62.9 Q-9.95 -61.15 -11.4 -61.15 -13.15 -61.15 -14.75 -62.15 L-17.8 -64.35 Q-16.95 -60.35 -13.05 -58.4 -10.85 -57.3 -4.75 -56.05 L-5.45 -57.7 Q-5.85 -58.6 -5.85 -59.45 -5.85 -60.3 -4.45 -60.6 -2.8 -60.95 -2.4 -61.45 -1.8 -62.15 -1.9 -63.25 L-2.1 -65.35 -0.8 -63.15 Q0.0 -62.0 1.1 -62.0 L2.75 -62.0 3.0 -63.7 Q3.0 -71.45 -0.95 -71.45 -2.5 -71.45 -3.7 -69.7 -5.35 -67.4 -6.15 -66.9 -6.7 -68.3 -6.7 -69.0 L-6.2 -72.7 Q-5.7 -74.85 -5.85 -76.4 -3.95 -76.85 -2.4 -76.4 L-1.8 -78.25 -2.2 -81.5 -2.65 -84.7 Q-2.65 -87.0 -1.65 -88.7 -0.5 -90.55 1.45 -90.55 3.35 -90.55 4.5 -88.85 5.55 -87.25 5.55 -85.15 5.75 -87.1 7.0 -88.25 L10.25 -88.25 10.25 -83.95 Q10.25 -81.5 8.4 -80.3 L13.65 -73.45 Q16.05 -69.7 16.05 -65.55 16.05 -61.35 14.1 -58.3 L14.1 -64.35 13.25 -65.2 10.7 -61.85 Q9.25 -60.0 9.25 -58.15 9.25 -57.45 9.65 -56.4 L10.1 -54.6 13.45 -54.6 Q16.75 -54.6 18.7 -57.9 20.35 -60.75 20.35 -64.75 20.35 -68.45 17.35 -72.4 L14.8 -75.75 Q13.4 -77.8 12.65 -79.75 12.1 -81.2 11.6 -83.6 L10.8 -87.25 Q9.65 -91.35 6.7 -92.8 5.9 -93.25 3.6 -95.3 1.9 -96.75 0.15 -97.05 L0.75 -95.35" fill="#ffff39" fill-rule="evenodd" stroke="none"/>
    <path d="M4.2 -89.55 Q3.3 -91.35 1.75 -91.35 -0.45 -91.35 -1.65 -89.15 -2.65 -87.25 -2.65 -84.6 -2.65 -83.0 -2.1 -81.4 L-0.95 -78.2 Q-3.4 -78.7 -5.35 -76.95 -7.3 -75.25 -7.3 -72.75 L-7.3 -65.9 -5.85 -65.9 Q-5.0 -66.3 -2.8 -68.2 -1.2 -69.6 0.45 -69.6 L1.7 -69.1 2.75 -68.2 2.75 -63.95 1.0 -63.95 -2.4 -65.35 Q-2.85 -64.05 -4.9 -62.05 -6.7 -60.4 -6.7 -58.7 -6.7 -53.7 3.6 -53.7 L9.15 -53.75 Q12.1 -54.2 12.1 -56.4 12.1 -56.85 11.55 -57.35 10.95 -57.85 10.95 -58.25 10.95 -59.6 11.75 -60.9 L13.25 -63.35 13.8 -59.9 Q13.95 -57.95 14.95 -56.85 16.95 -60.55 16.95 -64.5 16.95 -67.8 16.4 -69.9 15.8 -72.3 14.1 -74.8 L11.45 -77.3 Q9.85 -78.65 9.85 -80.2 9.85 -81.05 10.4 -82.35 10.95 -83.6 10.95 -84.45 10.95 -87.95 9.0 -87.95 7.3 -87.95 5.85 -86.2 L4.2 -89.55" fill="#ffffff" fill-rule="evenodd" stroke="none"/>
    <path d="M10.95 -66.25 Q12.1 -67.3 12.1 -67.65 12.1 -70.1 9.55 -71.35 10.95 -67.9 10.95 -66.25" fill="#ffde29" fill-rule="evenodd" stroke="none"/>
    <path d="M1.7 -60.5 Q-1.0 -60.5 -1.0 -58.9 -1.0 -56.85 2.95 -56.85 4.4 -56.85 4.4 -58.95 4.4 -60.55 1.7 -60.5" fill="#ffff39" fill-rule="evenodd" stroke="none"/>
    <path d="M-6.75 -106.25 Q-6.75 -108.65 -8.15 -111.35 -9.3 -109.95 -9.3 -108.65 -9.3 -107.65 -8.55 -106.95 -7.8 -106.25 -6.75 -106.25" fill="#b52910" fill-rule="evenodd" stroke="none"/>
    <path d="M-7.0 -117.25 L-7.55 -115.55 Q-7.55 -113.3 -3.3 -112.85 -2.95 -114.0 -4.7 -115.05 -6.7 -116.3 -7.0 -117.25" fill="#b52910" fill-rule="evenodd" stroke="none"/>
    <path d="M-3.6 -125.15 L-1.9 -124.85 Q-2.15 -125.25 -2.7 -125.3 L-3.6 -125.15" fill="#b52910" fill-rule="evenodd" stroke="none"/>
    <path d="M5.0 -136.85 L4.15 -135.15 6.7 -135.4 5.95 -136.15 5.0 -136.85" fill="#b52910" fill-rule="evenodd" stroke="none"/>
    <path d="M16.5 -111.65 Q15.8 -109.75 15.8 -108.5 15.8 -107.45 14.5 -106.55 12.8 -105.45 12.4 -104.85 13.55 -104.85 14.75 -104.0 L16.95 -102.55 Q18.7 -104.75 18.95 -107.8 L18.9 -113.8 Q18.9 -115.2 17.5 -116.75 17.2 -115.7 17.2 -114.75 17.2 -113.55 16.5 -111.65" fill="#b52910" fill-rule="evenodd" stroke="none"/>
    <path d="M6.4 -120.55 L6.4 -123.5 Q6.2 -125.1 5.0 -125.1 4.05 -125.1 3.45 -123.8 2.6 -122.1 2.15 -121.7 L1.85 -119.7 Q2.7 -121.95 3.7 -121.95 4.3 -121.95 6.4 -120.55" fill="#b52910" fill-rule="evenodd" stroke="none"/>
    <path d="M14.7 -121.4 L16.45 -122.0 Q17.55 -122.35 17.55 -122.95 L17.3 -123.6 16.95 -124.25 Q15.55 -123.45 14.7 -121.4" fill="#b52910" fill-rule="evenodd" stroke="none"/>
  </g>
</svg>
