<?xml version="1.0" encoding="UTF-8" standalone="no"?>
<svg xmlns:xlink="http://www.w3.org/1999/xlink" height="144.3px" width="57.3px" xmlns="http://www.w3.org/2000/svg">
  <g transform="matrix(1.0, 0.0, 0.0, 1.0, 29.5, 143.95)">
    <path d="M5.6 -123.2 Q2.0 -125.35 -0.3 -126.2 -3.25 -127.25 -6.8 -127.25 -8.95 -127.25 -10.45 -125.95 -11.6 -124.95 -12.8 -122.75 L-14.85 -118.8 Q-16.2 -116.5 -17.8 -115.25 L-23.65 -110.35 Q-26.3 -107.45 -26.3 -103.8 -26.3 -101.6 -24.45 -98.45 -22.6 -95.3 -22.6 -93.1 -22.6 -91.0 -24.7 -88.1 -26.85 -85.25 -26.85 -83.1 -26.85 -79.85 -25.2 -76.85 -24.2 -75.0 -21.6 -71.8 -18.95 -68.6 -18.0 -66.75 -16.35 -63.75 -16.35 -60.5 -16.35 -58.45 -17.8 -56.75 L-21.05 -54.15 -24.3 -51.5 Q-25.75 -49.85 -25.75 -47.8 -25.75 -46.3 -24.05 -44.4 -22.35 -42.45 -22.35 -41.0 -22.35 -40.2 -23.3 -39.1 -24.3 -38.0 -24.3 -37.15 -24.3 -36.5 -23.75 -35.6 -23.2 -34.7 -23.2 -34.1 -23.2 -32.55 -25.15 -30.6 -27.15 -28.65 -27.15 -27.05 -27.15 -23.25 -24.55 -19.7 L-22.1 -16.55 Q-20.45 -14.55 -19.5 -13.0 -14.85 -5.55 -11.0 -2.45 -5.4 2.05 0.2 -0.7 L-0.95 -1.3 6.65 -1.3 Q11.5 -1.3 14.8 -5.45 17.15 -8.45 19.3 -14.7 L22.9 -25.15 Q24.4 -30.45 24.4 -35.95 24.4 -40.55 23.75 -44.25 23.15 -47.4 21.55 -52.35 21.2 -53.5 19.25 -55.3 17.6 -56.85 17.6 -58.35 17.6 -60.65 20.0 -62.25 L22.2 -63.6 24.4 -65.25 Q27.8 -68.7 27.8 -74.2 27.8 -78.65 25.85 -82.35 24.4 -85.05 20.7 -89.25 21.1 -89.65 23.4 -90.8 24.95 -91.6 24.95 -92.8 24.95 -94.7 23.1 -97.3 21.25 -99.95 21.25 -101.8 21.25 -102.9 21.7 -104.6 22.1 -106.3 22.1 -107.35 22.1 -109.7 20.75 -111.55 L17.65 -114.5 Q14.95 -116.6 14.15 -117.45 12.25 -119.3 11.55 -121.5 L10.05 -120.95 8.55 -120.65 Q7.7 -120.65 6.95 -121.65 L5.6 -123.2" fill="#efad31" fill-rule="evenodd" stroke="none"/>
    <path d="M1.45 -120.5 Q-1.8 -123.8 -6.45 -123.8 -10.1 -123.8 -12.55 -120.25 L-14.45 -116.8 -16.4 -112.95 Q-17.2 -111.5 -18.75 -110.05 L-21.35 -107.7 Q-24.4 -104.95 -24.4 -101.95 -24.4 -99.45 -22.25 -95.8 -20.1 -92.2 -20.1 -89.65 -20.1 -87.3 -22.05 -83.9 -24.05 -80.5 -24.05 -78.1 -24.05 -75.65 -22.5 -73.55 -21.55 -72.3 -19.05 -70.2 -16.6 -68.05 -15.65 -66.8 -14.1 -64.7 -14.1 -62.25 -14.1 -60.1 -15.45 -58.2 -16.25 -57.05 -18.35 -55.1 L-21.3 -52.0 Q-22.65 -50.05 -22.65 -47.9 -22.65 -44.95 -21.7 -42.5 -20.95 -40.6 -18.95 -37.6 -20.95 -36.4 -20.95 -34.8 L-20.5 -33.75 -20.1 -32.65 Q-20.1 -30.95 -22.05 -28.8 -24.05 -26.6 -24.05 -24.9 -24.05 -20.0 -20.95 -16.1 -19.05 -13.65 -13.55 -9.35 L-7.65 -4.35 Q-4.45 -1.9 -0.9 -1.9 11.9 -1.9 16.7 -12.75 17.85 -15.45 17.8 -18.6 L17.55 -24.75 Q17.55 -25.15 18.25 -25.3 L19.25 -25.6 Q21.25 -27.8 21.9 -30.55 22.4 -32.55 22.4 -36.35 22.4 -41.65 21.55 -44.4 20.25 -48.5 16.85 -48.5 L13.8 -47.9 Q12.35 -54.8 12.35 -58.15 12.35 -59.5 13.5 -60.7 L15.55 -62.95 20.05 -69.45 Q22.1 -72.9 22.1 -76.65 22.1 -79.05 20.65 -81.8 20.55 -81.1 20.75 -80.15 L20.95 -78.5 20.4 -76.4 Q17.8 -76.9 16.4 -80.1 L15.55 -78.35 Q16.1 -81.0 18.5 -87.25 20.4 -92.05 20.4 -96.1 20.4 -105.2 19.45 -108.9 17.75 -115.5 12.35 -115.5 10.5 -115.5 8.75 -114.55 L5.55 -112.4 Q4.45 -117.5 1.45 -120.5" fill="#ffde29" fill-rule="evenodd" stroke="none"/>
    <path d="M7.2 -50.7 L4.85 -50.2 2.5 -49.85 Q8.2 -53.55 8.2 -58.2 8.2 -60.05 5.35 -60.05 5.9 -58.25 4.75 -56.45 3.55 -54.65 1.65 -54.65 -1.55 -54.65 -1.55 -60.6 -1.55 -61.85 -0.95 -63.65 -0.35 -65.45 -0.35 -66.65 -0.35 -68.35 -1.3 -69.65 -2.3 -71.0 -3.8 -71.0 -4.9 -71.0 -5.75 -69.65 -6.85 -67.9 -7.5 -67.5 L-7.5 -69.35 Q-7.5 -72.4 -4.65 -76.55 -1.85 -80.75 -1.85 -83.75 -1.85 -87.4 -3.35 -90.0 -5.05 -93.0 -8.1 -93.0 -12.3 -93.0 -15.1 -89.6 -17.8 -86.35 -17.8 -81.9 -17.8 -79.75 -15.9 -78.25 -14.8 -77.45 -11.75 -76.1 L-14.95 -73.15 Q-16.4 -71.45 -16.4 -69.4 -16.4 -67.45 -14.9 -66.05 -13.95 -65.15 -11.5 -63.8 L-8.15 -61.6 Q-6.65 -60.15 -6.65 -58.2 -6.65 -53.35 -10.05 -52.4 L-10.1 -55.9 Q-10.2 -57.65 -10.9 -59.2 -12.0 -55.85 -13.4 -53.85 -14.85 -51.75 -17.5 -49.85 L-16.65 -53.25 -17.8 -53.5 -20.15 -50.9 Q-21.2 -49.5 -21.2 -47.85 -21.2 -45.85 -19.05 -43.15 -16.95 -40.45 -16.95 -38.4 -16.95 -37.65 -17.95 -36.65 -18.95 -35.7 -18.95 -34.9 -18.95 -34.45 -18.35 -33.8 -17.8 -33.15 -17.8 -32.65 -17.8 -30.9 -20.05 -28.7 -22.35 -26.5 -22.35 -24.7 -22.35 -20.55 -20.4 -17.05 -19.25 -14.95 -15.45 -10.4 -11.9 -6.15 -10.25 -4.85 -7.2 -2.45 -3.55 -2.45 4.3 -2.45 9.95 -6.4 16.15 -10.75 16.15 -17.65 16.15 -22.7 10.15 -24.7 12.3 -26.3 13.15 -27.4 14.45 -29.0 14.45 -30.95 L13.95 -33.9 Q13.55 -35.55 14.15 -36.7 15.85 -34.6 18.85 -29.25 21.25 -33.0 21.25 -36.05 21.25 -39.9 20.05 -42.45 18.55 -45.55 15.55 -45.55 L12.5 -45.0 9.6 -43.8 9.45 -48.3 Q9.05 -50.7 7.2 -50.7" fill="#ffffff" fill-rule="evenodd" stroke="none"/>
    <path d="M3.6 -119.35 Q0.45 -121.0 -4.1 -121.0 -10.45 -121.0 -13.8 -110.8 -14.1 -109.9 -15.5 -107.95 -16.65 -106.45 -16.65 -105.05 -16.65 -104.1 -15.5 -102.45 -17.8 -103.45 -17.8 -107.6 L-18.9 -108.15 -22.8 -104.0 Q-24.65 -101.75 -24.65 -99.05 -24.65 -96.3 -22.7 -94.25 -21.25 -92.75 -18.05 -91.05 -18.05 -95.2 -15.5 -96.8 -14.25 -94.75 -10.9 -95.2 L-7.95 -95.6 -4.95 -95.35 Q-3.3 -94.85 -2.35 -93.4 -1.7 -92.45 -0.95 -90.2 L0.35 -85.45 Q1.1 -82.45 1.75 -80.9 3.65 -76.2 7.7 -76.2 9.1 -76.2 10.1 -76.75 11.25 -77.35 11.25 -78.45 11.25 -80.15 9.0 -82.15 6.7 -84.15 6.7 -85.8 6.7 -86.8 7.6 -87.4 8.4 -87.9 9.55 -87.9 11.1 -87.9 12.4 -85.55 13.8 -83.05 15.25 -82.75 L15.85 -84.45 Q15.85 -85.9 14.15 -87.8 12.4 -89.65 12.4 -91.1 L12.4 -92.8 Q15.3 -93.45 16.3 -96.6 17.0 -98.65 17.0 -102.9 17.0 -106.25 15.85 -108.55 14.45 -111.35 11.85 -111.35 10.4 -111.35 8.9 -110.55 L6.15 -109.1 Q7.3 -111.2 7.3 -113.75 7.3 -117.4 3.6 -119.35" fill="#ffffff" fill-rule="evenodd" stroke="none"/>
    <path d="M8.55 -70.5 Q6.15 -72.8 5.3 -74.4 L3.7 -72.0 Q3.0 -70.7 3.0 -69.3 3.0 -67.1 6.15 -64.55 9.25 -62.0 9.25 -59.75 12.65 -62.4 14.2 -65.2 15.85 -68.25 15.85 -72.3 15.85 -74.1 15.25 -75.3 14.05 -73.85 13.35 -70.9 12.6 -67.9 11.55 -66.45 10.75 -68.3 8.55 -70.5" fill="#ffffff" fill-rule="evenodd" stroke="none"/>
    <path d="M23.9 -77.9 Q23.55 -78.65 23.6 -77.2 L23.6 -74.45 Q23.35 -72.75 22.35 -71.35 L20.2 -68.7 Q17.25 -65.25 13.05 -61.6 17.8 -62.1 20.95 -65.2 24.2 -68.4 24.2 -72.9 L24.4 -75.4 Q24.45 -76.7 23.9 -77.9" fill="#ffffff" fill-rule="evenodd" stroke="none"/>
    <path d="M-14.45 -74.65 Q-16.4 -77.0 -16.4 -80.2 -16.4 -89.25 -10.4 -91.0 -11.85 -91.55 -12.7 -91.55 -16.45 -91.55 -18.9 -88.35 -21.2 -85.3 -21.2 -81.2 -21.2 -78.05 -19.9 -75.0 -19.15 -73.15 -17.1 -69.85 -15.05 -66.5 -14.3 -64.65 -13.0 -61.6 -13.0 -58.45 -13.0 -56.2 -13.6 -53.95 L-14.95 -49.6 Q-13.15 -50.15 -11.7 -51.35 L-9.0 -53.95 -9.0 -49.65 Q-9.0 -49.1 -9.35 -48.1 -9.65 -47.15 -9.55 -46.5 -6.45 -48.5 -6.45 -51.85 -6.45 -53.95 -7.45 -55.95 -8.1 -57.15 -9.7 -59.25 -11.35 -61.35 -12.0 -62.55 -13.0 -64.55 -13.0 -66.65 -13.0 -68.15 -11.65 -69.55 -9.8 -71.6 -9.45 -72.2 -12.45 -72.2 -14.45 -74.65" fill="#ce5a18" fill-rule="evenodd" stroke="none"/>
    <path d="M3.85 -75.55 Q3.25 -75.55 2.4 -76.15 L0.9 -76.7 Q-0.65 -76.7 -1.75 -75.3 L-3.5 -72.45 Q-3.0 -72.6 -1.55 -73.5 -0.45 -74.15 0.45 -74.15 L2.4 -73.75 4.3 -73.3 Q5.1 -73.3 5.35 -74.25 L5.6 -76.15 3.85 -75.55" fill="#ce5a18" fill-rule="evenodd" stroke="none"/>
    <path d="M1.1 -63.6 L5.8 -67.0 5.35 -68.3 Q5.1 -69.0 4.55 -69.0 2.25 -69.0 0.4 -65.85 L-1.5 -66.95 -2.75 -67.45 -3.4 -66.55 -3.75 -65.45 Q-3.75 -62.25 -1.55 -59.05 -1.3 -61.65 1.1 -63.6" fill="#ce5a18" fill-rule="evenodd" stroke="none"/>
    <path d="M5.55 -62.4 L5.55 -60.65 6.95 -58.8 Q4.8 -58.1 3.45 -54.85 2.0 -51.35 0.3 -50.4 L-0.5 -51.4 -1.3 -52.4 Q-2.1 -53.15 -0.7 -50.7 0.15 -49.3 2.4 -49.3 3.2 -49.3 3.8 -49.8 4.4 -50.3 4.4 -51.05 L4.4 -56.65 9.0 -56.65 9.0 -60.3 Q9.0 -61.9 8.15 -62.4 L5.55 -62.4" fill="#ce5a18" fill-rule="evenodd" stroke="none"/>
    <path d="M10.5 -50.0 Q10.5 -47.75 14.0 -47.15 L17.1 -46.6 Q18.85 -46.15 19.85 -45.35 L16.1 -49.1 Q13.9 -51.05 13.9 -53.3 13.9 -55.4 14.95 -57.4 L17.3 -61.05 12.65 -56.0 Q10.5 -53.2 10.5 -50.0" fill="#ce5a18" fill-rule="evenodd" stroke="none"/>
    <path d="M6.55 -88.1 L5.3 -87.55 6.6 -85.65 Q7.3 -84.6 7.3 -83.55 7.3 -82.95 6.25 -81.55 5.45 -80.5 6.15 -80.15 7.4 -79.55 8.65 -80.7 9.85 -81.8 9.85 -83.3 9.85 -85.2 9.05 -86.55 8.15 -88.1 6.55 -88.1" fill="#ce5a18" fill-rule="evenodd" stroke="none"/>
    <path d="M12.75 -89.9 Q13.85 -90.65 13.85 -91.2 13.85 -93.9 9.6 -95.3 L8.2 -95.3 Q8.9 -94.05 10.4 -92.6 L12.75 -89.9" fill="#ce5a18" fill-rule="evenodd" stroke="none"/>
    <path d="M20.15 -86.75 L23.3 -81.9 23.85 -83.6 22.7 -86.9 Q22.05 -88.7 20.6 -88.7 L19.95 -88.5 19.3 -88.15 19.3 -86.15 20.15 -86.75" fill="#ce5a18" fill-rule="evenodd" stroke="none"/>
    <path d="M18.75 -77.6 L18.15 -75.15 Q18.0 -73.9 18.45 -72.75 19.85 -74.65 19.85 -76.2 19.85 -76.6 18.75 -77.6" fill="#ce5a18" fill-rule="evenodd" stroke="none"/>
    <path d="M19.3 -106.7 L19.45 -104.0 Q19.7 -101.65 21.05 -100.45 L21.75 -103.3 21.95 -104.0 Q22.7 -106.15 22.7 -107.8 22.7 -113.55 14.75 -116.1 L17.4 -113.1 Q18.6 -111.5 19.0 -109.55 L19.3 -106.7 M21.0 -100.15 L21.85 -99.9 21.05 -100.45 21.0 -100.15" fill="#ce5a18" fill-rule="evenodd" stroke="none"/>
    <path d="M8.3 -124.4 L6.05 -124.5 Q4.8 -124.65 4.75 -123.85 4.65 -122.5 5.8 -121.55 6.45 -121.05 8.3 -120.15 8.05 -121.15 8.15 -122.3 L8.3 -124.4" fill="#ce5a18" fill-rule="evenodd" stroke="none"/>
    <path d="M-22.25 -108.4 L-18.55 -112.05 Q-15.9 -114.3 -14.9 -115.65 -13.25 -117.9 -13.25 -120.5 L-13.25 -124.7 -14.35 -121.95 Q-14.9 -120.45 -16.1 -120.45 -16.65 -120.45 -17.5 -121.3 L-16.35 -119.5 Q-15.8 -118.5 -15.8 -117.45 -15.8 -115.5 -18.0 -114.4 L-22.35 -112.75 Q-29.5 -109.65 -29.5 -102.9 -29.5 -97.1 -23.9 -93.95 L-23.9 -103.55 Q-23.9 -106.15 -22.25 -108.4" fill="#ce5a18" fill-rule="evenodd" stroke="none"/>
    <path d="M1.55 -39.0 Q2.0 -40.15 3.4 -41.25 L5.55 -43.3 Q4.05 -44.2 1.95 -44.1 -0.25 -43.95 0.15 -42.55 L-1.3 -37.9 -0.15 -34.45 Q-2.75 -34.3 -3.55 -32.2 -6.8 -33.9 -9.1 -33.9 -11.35 -33.9 -12.65 -30.8 -15.45 -31.4 -17.45 -28.8 -18.35 -27.65 -18.95 -26.0 -19.35 -25.75 -19.55 -25.1 L-19.8 -23.05 -18.95 -26.0 -18.4 -26.15 Q-17.45 -26.15 -16.55 -25.45 L-14.9 -24.2 -12.6 -27.1 Q-11.15 -28.45 -9.4 -28.45 L-5.2 -27.9 -1.0 -27.3 1.7 -27.85 1.45 -30.5 Q1.3 -31.9 1.7 -33.05 3.85 -31.4 4.75 -28.55 5.25 -27.0 5.75 -23.15 6.2 -19.65 6.9 -18.0 8.0 -15.45 10.45 -14.25 L10.7 -16.0 Q10.7 -18.1 8.7 -20.9 6.65 -23.7 6.65 -25.75 6.65 -26.7 7.15 -28.15 L7.6 -30.5 Q7.6 -33.95 5.8 -35.3 L4.95 -32.75 Q5.6 -36.9 1.55 -39.0" fill="#ffde29" fill-rule="evenodd" stroke="none"/>
    <path d="M-5.0 -23.6 L-3.0 -20.7 -1.3 -17.6 -0.45 -18.45 -0.45 -21.95 Q-0.45 -23.2 -2.0 -23.5 L-5.0 -23.6" fill="#ffde29" fill-rule="evenodd" stroke="none"/>
    <path d="M-5.0 -129.85 Q-2.95 -130.05 -1.15 -131.85 -2.2 -132.1 -5.0 -133.25 -4.75 -131.0 -5.0 -129.85" fill="#ce5a18" fill-rule="evenodd" stroke="none"/>
    <path d="M3.6 -135.3 L4.45 -135.3 Q5.7 -134.45 6.3 -134.45 6.75 -134.45 8.4 -135.0 L7.0 -136.45 3.6 -135.3" fill="#ce5a18" fill-rule="evenodd" stroke="none"/>
    <path d="M16.15 -133.95 L15.85 -135.3 12.05 -135.25 Q11.25 -135.2 11.6 -135.0 L12.7 -135.1 13.6 -135.0 Q14.35 -134.0 14.0 -132.35 L13.45 -129.35 14.45 -130.2 15.6 -132.0 Q16.15 -132.95 16.15 -133.95" fill="#ce5a18" fill-rule="evenodd" stroke="none"/>
    <path d="M-15.25 -125.6 Q-14.05 -129.1 -16.1 -131.3 -16.7 -130.2 -16.15 -128.6 L-15.25 -125.6" fill="#ce5a18" fill-rule="evenodd" stroke="none"/>
    <path d="M-19.85 -132.75 L-18.15 -133.05 Q-18.2 -134.2 -19.85 -135.85 L-20.7 -133.3 -19.85 -132.75" fill="#ce5a18" fill-rule="evenodd" stroke="none"/>
    <path d="M-6.95 -142.75 Q-5.75 -142.8 -4.7 -143.85 L-6.05 -143.95 Q-6.95 -143.5 -6.95 -142.75" fill="#ffde29" fill-rule="evenodd" stroke="none"/>
  </g>
</svg>
