<?xml version="1.0" encoding="UTF-8" standalone="no"?>
<svg xmlns:xlink="http://www.w3.org/1999/xlink" height="141.25px" width="64.3px" xmlns="http://www.w3.org/2000/svg">
  <g transform="matrix(1.0, 0.0, 0.0, 1.0, 34.1, 140.9)">
    <path d="M11.85 -140.6 L9.7 -139.55 Q8.6 -139.0 7.55 -139.2 -6.45 -142.15 -13.7 -136.5 -15.6 -135.0 -17.55 -132.3 -19.0 -130.25 -19.55 -130.3 -25.4 -130.95 -29.8 -126.5 -34.1 -122.15 -34.1 -116.05 -34.1 -111.05 -30.75 -106.35 L-27.55 -102.25 Q-25.4 -99.55 -24.15 -97.5 L-28.9 -93.2 Q-31.0 -90.75 -31.0 -87.65 -31.0 -83.75 -27.85 -80.05 L-21.6 -73.75 -19.25 -71.1 Q-18.4 -69.8 -18.4 -67.75 -18.4 -65.75 -20.4 -64.1 L-23.9 -60.95 Q-26.0 -58.2 -26.35 -54.6 L-26.45 -47.45 Q-26.45 -35.45 -22.95 -23.55 -16.7 -2.1 -1.9 0.2 2.2 0.8 5.75 -1.1 8.7 -2.7 11.85 -6.35 19.35 -15.05 21.9 -19.85 25.5 -26.65 25.5 -35.15 25.5 -38.8 24.05 -42.55 L21.2 -49.8 Q23.3 -51.05 24.05 -53.35 24.6 -55.05 24.6 -58.2 24.6 -61.05 22.05 -65.1 19.5 -69.15 19.5 -71.95 19.5 -73.65 22.05 -74.45 25.3 -75.5 26.1 -76.35 28.3 -78.8 29.2 -81.4 30.05 -83.85 30.05 -87.35 30.05 -91.15 27.8 -94.55 L22.9 -100.9 Q27.05 -102.25 28.65 -106.65 29.8 -109.8 29.8 -115.6 29.8 -123.6 22.9 -127.5 L19.8 -128.15 Q17.9 -128.25 16.95 -129.2 16.05 -130.1 15.75 -132.05 15.4 -134.3 14.8 -135.2 L13.8 -132.35 Q13.15 -130.9 11.85 -130.9 10.6 -130.9 10.25 -132.5 10.1 -133.15 10.1 -135.5 10.1 -136.55 11.0 -138.05 11.85 -139.6 11.85 -140.6" fill="#efad31" fill-rule="evenodd" stroke="none"/>
    <path d="M1.4 -138.7 Q-12.4 -138.7 -18.7 -128.4 L-22.1 -128.7 Q-27.3 -128.7 -30.55 -124.0 -33.55 -119.7 -33.55 -113.85 -33.55 -108.4 -29.6 -104.05 L-25.55 -100.25 -20.95 -96.4 Q-25.8 -94.25 -27.65 -92.8 -30.7 -90.35 -30.7 -86.8 -30.7 -83.45 -28.5 -80.9 -27.1 -79.25 -23.5 -76.9 -19.55 -74.3 -18.1 -72.9 -15.4 -70.3 -14.65 -67.0 -19.35 -64.95 -21.6 -62.85 -24.6 -60.05 -24.6 -56.2 L-24.6 -42.7 Q-24.6 -37.95 -23.65 -33.6 L-21.25 -24.65 Q-14.55 -1.7 -0.75 -0.05 4.05 0.5 9.9 -4.3 14.9 -8.45 17.8 -13.8 L21.9 -21.9 Q23.45 -26.0 23.45 -30.65 23.45 -34.5 21.75 -40.3 20.05 -46.15 20.05 -49.95 20.05 -51.75 21.65 -54.25 23.2 -56.8 23.2 -58.55 23.2 -60.7 22.15 -62.7 L19.8 -66.05 Q18.05 -68.2 17.4 -69.4 16.35 -71.4 16.35 -73.5 16.35 -75.6 19.0 -76.65 L21.4 -77.5 Q22.9 -78.05 23.75 -78.7 28.1 -81.9 28.1 -88.85 28.1 -92.2 25.8 -95.1 L20.9 -100.35 Q25.25 -104.7 26.9 -107.45 29.2 -111.3 29.2 -116.0 29.2 -123.5 24.7 -126.35 23.75 -126.95 19.85 -127.65 17.0 -128.15 16.35 -130.1 L14.25 -128.9 Q13.15 -128.4 11.95 -128.4 10.35 -128.4 9.35 -129.8 8.4 -131.1 8.4 -132.95 8.4 -134.35 9.65 -135.9 11.2 -137.75 11.55 -138.7 L9.85 -138.9 1.4 -138.7" fill="#ffde29" fill-rule="evenodd" stroke="none"/>
    <path d="M3.85 -133.35 Q1.25 -135.75 -2.05 -135.75 -8.05 -135.75 -12.35 -131.95 -16.65 -128.2 -17.6 -122.15 -17.95 -124.3 -19.9 -125.5 -21.65 -126.55 -24.15 -126.55 -28.15 -126.55 -30.65 -122.95 -33.0 -119.65 -33.0 -115.15 -33.0 -109.65 -30.0 -105.7 -26.75 -101.45 -21.75 -101.45 -19.75 -101.45 -18.85 -103.0 -18.2 -104.1 -17.8 -106.75 L-17.0 -111.05 Q-16.3 -113.45 -14.8 -114.55 -14.3 -110.2 -16.7 -104.75 -19.55 -98.2 -19.9 -94.9 L-18.55 -94.6 Q-15.85 -94.6 -13.8 -97.6 L-12.1 -100.3 Q-11.05 -101.95 -9.95 -102.85 -10.45 -101.3 -12.45 -97.75 -13.95 -95.0 -14.2 -92.55 L-10.85 -92.55 Q-10.1 -92.55 -9.45 -93.15 L-8.25 -94.25 Q-9.8 -90.85 -12.0 -90.85 L-22.1 -90.85 Q-24.45 -90.85 -26.2 -89.6 -28.1 -88.25 -28.1 -86.1 -28.1 -83.9 -26.65 -82.55 -25.55 -81.5 -23.15 -80.65 L-18.7 -79.15 Q-16.05 -78.2 -14.5 -76.85 -13.75 -76.25 -13.5 -74.85 -13.25 -73.25 -12.8 -72.6 L-10.3 -70.55 Q-8.8 -69.5 -8.8 -68.15 -8.8 -66.25 -10.3 -65.1 -11.25 -64.35 -13.65 -63.45 -16.4 -62.45 -17.4 -61.8 -19.3 -60.65 -19.9 -58.9 -21.0 -55.55 -21.25 -52.15 L-21.3 -45.2 -21.3 -35.75 Q-21.15 -31.0 -19.9 -26.4 L-17.95 -21.3 Q-16.75 -18.5 -16.5 -16.1 L-15.25 -19.3 Q-14.45 -20.95 -13.0 -20.95 L-10.5 -20.95 -13.55 -18.4 Q-14.8 -16.9 -14.8 -14.95 -14.8 -10.15 -10.35 -7.15 -6.3 -4.4 -0.8 -4.4 L5.25 -5.0 Q8.0 -5.7 10.4 -7.8 18.35 -14.7 19.8 -28.1 17.6 -27.3 16.3 -25.8 15.5 -26.95 15.3 -28.4 L15.2 -31.3 Q15.2 -32.4 16.65 -33.05 18.55 -33.95 18.95 -34.4 20.05 -35.6 20.3 -37.35 L20.35 -40.8 Q20.35 -44.8 18.65 -49.8 L17.55 -45.5 Q15.65 -46.15 15.25 -48.55 L14.9 -53.25 16.7 -53.8 Q17.55 -54.0 17.7 -55.2 L17.8 -57.5 Q18.0 -58.65 19.1 -60.65 20.1 -62.4 20.1 -63.75 20.1 -64.9 18.45 -65.7 16.5 -66.7 16.05 -67.45 15.15 -68.95 14.2 -71.1 L12.7 -74.45 Q10.9 -78.25 8.0 -80.3 9.7 -82.0 11.65 -82.0 13.0 -82.0 14.2 -81.2 L16.3 -79.45 Q17.8 -81.8 17.8 -83.25 17.8 -84.9 15.75 -87.15 18.55 -87.7 20.4 -84.9 22.15 -82.2 21.5 -79.15 L22.8 -78.6 Q25.5 -78.6 26.9 -81.4 28.05 -83.7 28.05 -87.1 28.05 -89.7 26.35 -92.15 L24.7 -94.25 24.65 -94.35 24.65 -91.7 Q22.6 -92.45 19.35 -94.2 16.35 -95.85 14.05 -96.6 L16.95 -96.6 15.8 -98.95 Q14.9 -100.2 14.9 -101.3 14.9 -102.9 17.3 -103.55 20.4 -104.3 21.2 -105.15 23.6 -107.55 24.95 -110.5 L27.2 -116.85 Q26.2 -115.7 24.05 -114.3 23.75 -115.5 24.15 -117.1 L24.65 -119.95 Q24.65 -122.5 22.65 -124.3 20.75 -126.0 18.1 -126.0 16.75 -126.0 14.65 -125.0 12.6 -124.0 11.2 -124.0 10.1 -124.0 9.45 -125.45 L8.3 -128.0 3.85 -133.35 M24.65 -94.35 Q24.65 -95.05 24.1 -95.65 L22.9 -96.6 24.65 -94.35" fill="#ffffff" fill-rule="evenodd" stroke="none"/>
    <path d="M4.15 -104.65 Q-1.3 -104.1 -1.3 -101.35 -1.3 -99.8 1.75 -98.6 4.75 -97.45 4.75 -95.85 4.75 -92.6 0.95 -90.55 L-2.55 -88.75 Q-4.6 -87.65 -5.85 -86.4 -3.9 -85.8 -1.7 -86.45 L2.45 -87.8 Q6.1 -88.8 7.65 -89.75 10.1 -91.25 10.1 -93.75 10.1 -95.1 8.7 -96.45 7.05 -98.05 6.7 -98.95 6.45 -99.6 6.35 -101.1 6.3 -102.4 5.85 -103.2 L7.55 -103.8 13.25 -103.2 Q11.2 -105.9 9.75 -107.05 7.7 -108.6 5.15 -108.6 1.9 -108.6 1.9 -106.75 1.9 -106.0 2.7 -105.5 L4.15 -104.65" fill="#ffde29" fill-rule="evenodd" stroke="none"/>
    <path d="M12.95 -65.75 Q11.7 -66.6 10.95 -66.6 9.05 -66.2 7.9 -63.5 L4.8 -65.05 Q3.2 -65.75 1.5 -65.75 L-1.8 -65.95 Q-3.6 -65.9 -3.6 -64.65 -3.6 -63.75 -2.35 -63.35 L-0.2 -62.65 -0.2 -60.95 Q-5.3 -60.45 -7.3 -57.55 L-5.6 -56.7 Q-7.65 -54.3 -11.85 -48.1 L-12.7 -48.95 Q-12.7 -51.5 -13.45 -53.95 L-15.25 -58.8 Q-15.25 -57.0 -16.85 -54.45 -18.45 -51.9 -18.45 -50.1 -18.45 -48.45 -17.85 -46.25 -17.15 -43.7 -17.0 -42.4 -16.6 -38.1 -16.1 -36.7 -15.15 -33.8 -12.7 -33.8 -7.3 -33.8 -7.3 -36.45 L-7.6 -38.7 -11.0 -38.7 -11.0 -40.5 Q-11.0 -42.05 -10.1 -43.2 -9.15 -44.4 -7.7 -44.4 -5.75 -44.4 -4.3 -43.25 -2.75 -42.05 -2.75 -40.3 -2.75 -39.75 -3.05 -39.15 L-3.6 -38.1 -1.5 -39.55 Q-0.5 -40.45 -0.5 -41.55 -0.5 -43.85 -1.3 -45.4 -2.2 -47.25 -4.05 -47.25 L-8.15 -46.4 Q-6.4 -49.6 -5.9 -52.35 L-0.35 -52.35 Q-0.65 -56.15 -0.35 -57.55 1.3 -56.7 2.4 -54.95 L4.35 -51.5 5.2 -52.35 5.2 -55.05 4.75 -57.2 3.8 -59.25 5.4 -59.25 Q6.7 -59.25 7.55 -58.05 8.3 -56.95 8.3 -55.5 8.3 -54.7 7.2 -53.8 6.05 -52.85 6.05 -52.05 6.05 -50.7 5.05 -48.6 4.05 -46.5 4.05 -45.1 4.05 -44.7 4.35 -44.05 L4.65 -43.0 Q4.65 -40.7 2.95 -39.0 1.8 -37.95 -1.05 -36.4 L2.85 -36.4 4.75 -36.65 Q5.8 -36.85 6.6 -36.65 5.6 -35.3 4.1 -34.35 L0.95 -32.7 6.85 -32.7 Q8.95 -32.7 10.55 -34.55 L13.2 -38.35 11.55 -34.55 Q10.7 -32.4 9.55 -31.0 12.5 -32.95 13.85 -34.8 15.5 -37.1 15.5 -40.05 15.5 -42.05 13.1 -44.6 10.65 -47.1 10.65 -49.1 10.65 -49.8 11.8 -50.4 12.95 -51.0 12.95 -51.65 12.95 -52.35 11.8 -53.15 10.65 -53.9 10.65 -54.65 L10.95 -55.55 11.25 -56.4 Q11.25 -57.05 10.1 -57.6 8.95 -58.2 8.95 -58.8 8.95 -62.85 12.95 -65.75" fill="#ffde29" fill-rule="evenodd" stroke="none"/>
    <path d="M6.1 -56.05 Q4.5 -56.05 2.4 -57.8 0.25 -59.5 -1.35 -59.5 L-3.85 -59.35 -6.4 -59.4 -5.6 -57.95 Q-5.0 -57.2 -5.0 -56.5 -5.0 -50.6 -12.15 -47.55 -13.0 -50.25 -13.85 -51.8 L-14.5 -50.25 Q-14.7 -49.2 -15.0 -48.7 -15.5 -47.95 -17.8 -46.55 -19.55 -45.45 -19.55 -44.05 -19.55 -43.25 -18.75 -42.3 L-17.55 -40.65 Q-16.5 -41.3 -15.9 -44.05 -15.4 -46.35 -14.0 -46.35 L-12.7 -45.8 Q-11.95 -45.2 -11.45 -45.2 -9.45 -45.2 -8.05 -46.95 -7.2 -48.0 -6.0 -50.8 -4.8 -53.55 -3.95 -54.6 -2.55 -56.35 -0.55 -56.35 L3.05 -55.65 Q5.25 -54.95 6.65 -54.95 L6.5 -55.65 6.1 -56.05" fill="#de8429" fill-rule="evenodd" stroke="none"/>
    <path d="M-1.8 -44.9 Q-5.3 -46.7 -5.3 -44.35 -5.3 -42.3 -2.8 -41.55 L2.1 -40.65 Q1.7 -43.1 -1.8 -44.9" fill="#de8429" fill-rule="evenodd" stroke="none"/>
    <path d="M15.6 -37.9 Q16.35 -38.9 16.35 -39.7 16.35 -43.05 14.05 -47.15 11.25 -51.95 10.7 -54.6 10.55 -52.1 8.7 -49.5 6.15 -45.95 5.6 -44.65 7.1 -45.3 9.0 -46.95 8.65 -44.25 7.55 -40.95 L9.6 -41.05 Q10.7 -41.7 11.25 -42.95 L11.15 -39.95 Q11.0 -38.2 11.25 -36.9 L14.65 -39.55 14.65 -36.05 Q14.8 -36.8 15.6 -37.9" fill="#de8429" fill-rule="evenodd" stroke="none"/>
    <path d="M5.55 -64.35 L0.7 -65.2 0.4 -63.5 Q0.4 -62.4 1.95 -62.15 L4.8 -62.1 Q6.5 -62.1 7.5 -62.95 L6.6 -63.65 5.55 -64.35" fill="#de8429" fill-rule="evenodd" stroke="none"/>
    <path d="M0.25 -78.65 L1.5 -79.2 -1.6 -82.1 -5.0 -84.6 -3.05 -80.65 Q-1.6 -78.65 0.25 -78.65" fill="#de8429" fill-rule="evenodd" stroke="none"/>
    <path d="M8.3 -91.5 L9.25 -93.25 Q8.15 -93.7 6.25 -95.8 4.7 -97.5 3.05 -97.5 1.55 -97.5 -0.15 -96.55 -2.5 -95.2 -3.3 -94.95 L-3.85 -97.2 Q-4.25 -98.35 -5.15 -98.35 -6.8 -98.35 -8.0 -97.4 -9.3 -96.45 -9.3 -94.95 -9.3 -93.8 -8.15 -92.65 L-7.0 -94.05 Q-6.4 -94.65 -5.6 -94.65 -4.85 -94.65 -4.0 -93.65 -3.15 -92.65 -2.45 -92.65 -1.25 -92.65 0.55 -93.65 2.3 -94.65 3.5 -94.65 4.85 -94.65 6.1 -93.55 L8.3 -91.5" fill="#de8429" fill-rule="evenodd" stroke="none"/>
    <path d="M-11.7 -102.1 L-11.9 -100.6 Q-10.1 -101.45 -8.35 -102.25 -6.5 -103.1 -5.05 -104.3 -6.3 -105.45 -7.5 -105.45 -9.15 -105.45 -10.35 -104.55 -11.7 -103.55 -11.7 -102.1" fill="#de8429" fill-rule="evenodd" stroke="none"/>
    <path d="M6.95 -106.9 Q7.35 -106.9 7.75 -106.35 8.15 -105.75 8.5 -105.75 10.35 -105.75 10.35 -107.35 10.35 -112.85 7.8 -112.85 6.9 -112.85 6.35 -112.05 5.8 -111.35 5.8 -110.3 L5.85 -108.1 Q6.05 -106.9 6.95 -106.9" fill="#de8429" fill-rule="evenodd" stroke="none"/>
    <path d="M-27.65 -81.0 Q-30.15 -83.55 -30.15 -86.75 -30.15 -91.65 -25.6 -95.5 -28.2 -93.5 -29.35 -91.75 -30.75 -89.65 -30.75 -86.9 -30.75 -84.05 -29.0 -81.55 -27.95 -80.1 -25.2 -77.5 -22.4 -74.95 -21.4 -73.45 -19.65 -70.95 -19.65 -68.1 -19.65 -66.95 -20.55 -65.65 L-21.9 -63.25 Q-20.5 -63.15 -18.9 -64.2 L-15.95 -65.8 -11.85 -66.85 Q-9.75 -67.5 -8.5 -68.95 -17.15 -72.8 -22.2 -76.7 L-27.65 -81.0" fill="#de8429" fill-rule="evenodd" stroke="none"/>
    <path d="M19.85 -74.65 Q15.3 -73.85 15.3 -71.1 15.3 -69.2 17.1 -67.65 L20.4 -64.7 Q18.7 -68.05 18.7 -71.15 18.7 -71.8 19.2 -72.9 L19.85 -74.65" fill="#de8429" fill-rule="evenodd" stroke="none"/>
    <path d="M-17.5 -131.45 Q-18.05 -131.0 -18.8 -130.7 L-22.15 -129.5 -19.6 -126.1 Q-19.35 -128.6 -17.5 -131.45" fill="#de8429" fill-rule="evenodd" stroke="none"/>
    <path d="M-24.05 -100.1 L-21.9 -98.1 Q-21.9 -99.15 -21.0 -100.25 L-19.65 -102.35 Q-21.15 -102.5 -22.2 -103.35 -23.3 -104.3 -23.3 -105.7 -23.3 -107.05 -23.6 -107.8 -25.3 -106.4 -26.25 -106.4 -29.25 -106.4 -30.85 -109.5 -31.7 -111.2 -32.75 -116.05 L-32.5 -113.0 Q-32.5 -108.0 -28.15 -103.75 L-24.05 -100.1 M-21.9 -98.1 Q-21.9 -97.4 -21.15 -96.85 L-19.9 -95.8 -21.9 -98.1" fill="#de8429" fill-rule="evenodd" stroke="none"/>
    <path d="M27.5 -125.5 Q26.35 -127.2 24.3 -128.4 L20.55 -130.15 Q15.85 -132.15 14.95 -135.35 14.1 -130.1 11.5 -130.1 10.7 -130.1 10.1 -130.8 9.55 -131.5 9.55 -132.4 9.55 -134.45 10.55 -136.7 L12.35 -140.9 Q9.9 -139.5 8.45 -139.5 L5.65 -139.95 2.85 -140.35 -2.2 -140.05 Q0.25 -138.85 3.35 -138.35 L9.25 -137.5 Q7.45 -135.9 7.45 -133.1 7.45 -131.25 8.45 -129.85 9.55 -128.4 11.25 -128.4 12.3 -128.4 13.8 -129.1 15.35 -129.8 16.35 -129.8 23.0 -129.8 25.95 -122.25 26.95 -119.55 27.9 -114.85 L29.0 -109.55 Q27.95 -107.5 27.85 -106.65 L29.5 -106.95 29.0 -109.55 29.1 -109.75 Q30.2 -111.8 30.2 -112.85 30.2 -117.55 29.9 -119.5 29.35 -122.65 27.5 -125.5" fill="#de8429" fill-rule="evenodd" stroke="none"/>
  </g>
</svg>
