<?xml version="1.0" encoding="UTF-8" standalone="no"?>
<svg xmlns:xlink="http://www.w3.org/1999/xlink" height="154.75px" width="64.15px" xmlns="http://www.w3.org/2000/svg">
  <g transform="matrix(1.0, 0.0, 0.0, 1.0, 34.1, 154.4)">
    <path d="M24.35 -131.7 Q23.2 -134.1 21.25 -135.05 L18.0 -135.95 14.65 -136.45 Q10.95 -137.15 10.95 -139.75 10.95 -140.85 12.55 -142.05 14.1 -143.25 14.1 -144.3 14.1 -146.0 11.1 -146.4 12.65 -144.95 12.65 -144.0 12.65 -142.15 9.7 -142.15 8.6 -142.15 7.5 -143.25 L5.55 -145.0 6.45 -143.8 Q7.0 -143.15 7.0 -142.5 L7.0 -140.75 2.45 -142.45 -2.25 -143.3 Q-6.7 -143.3 -10.2 -141.35 -13.2 -139.7 -16.65 -135.9 -17.2 -137.25 -17.2 -138.45 -19.15 -136.25 -22.4 -134.0 L-27.75 -130.45 Q-30.65 -128.45 -32.05 -126.5 -33.85 -123.95 -34.1 -120.65 L-26.4 -101.4 -29.6 -96.85 Q-31.3 -94.35 -31.3 -91.8 -31.3 -88.65 -29.95 -85.85 -28.95 -83.85 -26.7 -81.2 L-22.9 -76.55 Q-20.8 -73.7 -19.85 -70.8 -21.35 -70.8 -22.45 -69.7 -23.55 -68.6 -23.55 -67.1 -23.55 -64.05 -26.0 -59.65 -28.45 -55.25 -28.45 -52.2 -28.45 -48.25 -25.55 -42.4 -22.7 -36.6 -22.7 -32.6 L-22.7 -28.15 Q-22.7 -26.1 -21.65 -23.85 L-19.85 -19.7 Q-13.25 0.35 1.6 0.35 12.05 0.35 16.65 -10.25 17.3 -11.9 16.85 -14.45 16.35 -17.35 16.65 -18.85 17.2 -21.3 20.3 -23.45 23.75 -25.8 24.65 -27.7 25.2 -28.8 25.0 -30.6 24.75 -32.7 24.95 -33.65 25.25 -35.1 26.65 -37.95 27.8 -40.3 27.8 -42.25 27.8 -44.9 25.55 -48.7 23.25 -52.5 23.25 -55.1 23.25 -57.9 24.4 -62.2 25.5 -66.5 25.5 -69.25 25.5 -72.1 22.85 -74.2 L17.5 -77.85 Q23.6 -80.5 25.75 -82.2 29.5 -85.1 29.5 -89.4 29.5 -92.95 28.25 -98.4 26.95 -103.85 26.95 -107.35 26.95 -109.85 28.5 -113.6 30.05 -117.3 30.05 -119.8 30.05 -121.8 28.8 -123.65 L26.35 -127.1 24.35 -131.7" fill="#b52910" fill-rule="evenodd" stroke="none"/>
    <path d="M22.1 -131.35 Q20.55 -132.9 17.05 -133.6 13.4 -134.3 11.8 -135.65 L7.1 -139.9 Q4.45 -141.9 1.5 -141.9 L-3.5 -141.9 Q-7.6 -141.9 -11.3 -139.15 L-18.1 -133.35 Q-19.7 -132.1 -22.75 -131.4 -26.05 -130.65 -27.6 -129.65 -32.4 -126.5 -32.4 -119.95 -32.4 -114.15 -29.85 -109.65 -27.7 -105.8 -22.7 -101.4 -29.85 -98.25 -29.85 -90.85 -29.85 -87.45 -28.3 -84.55 -27.15 -82.5 -24.6 -79.7 L-20.3 -74.9 Q-18.0 -71.95 -16.95 -68.8 -20.5 -68.05 -22.1 -64.4 -22.9 -62.55 -23.85 -56.8 -24.0 -55.8 -24.85 -53.95 -25.55 -52.35 -25.55 -51.05 -25.55 -48.25 -22.85 -44.25 -20.15 -40.3 -20.15 -37.45 -20.15 -35.75 -21.1 -33.2 -22.1 -30.6 -22.1 -28.9 -22.1 -27.9 -20.25 -26.15 -18.45 -24.4 -18.45 -23.35 -18.45 -13.85 -12.55 -8.15 -6.7 -2.5 2.85 -2.5 6.6 -2.5 9.3 -5.5 11.25 -7.65 13.25 -12.3 13.85 -13.75 14.3 -17.65 14.6 -20.8 16.05 -22.55 18.05 -25.0 19.8 -29.1 21.85 -33.9 23.25 -36.0 L25.8 -39.75 Q26.95 -41.8 26.95 -43.95 26.95 -46.6 24.4 -50.2 21.85 -53.8 21.85 -56.4 21.85 -58.2 22.3 -61.0 22.7 -63.8 22.7 -65.55 22.7 -70.05 20.65 -73.25 18.45 -76.65 14.35 -78.0 21.2 -82.5 23.55 -85.05 27.5 -89.35 27.5 -94.95 27.5 -98.05 25.7 -100.5 24.45 -102.2 21.25 -104.8 L26.55 -110.1 Q28.95 -113.0 28.95 -116.55 28.95 -118.6 27.85 -120.4 L25.25 -123.7 Q24.3 -124.85 23.8 -127.6 23.3 -130.2 22.1 -131.35" fill="#ce8421" fill-rule="evenodd" stroke="none"/>
    <path d="M20.65 -129.0 Q20.4 -130.75 19.95 -131.5 19.35 -132.55 18.0 -132.55 L12.1 -132.55 Q10.9 -132.55 10.2 -134.15 L8.65 -136.8 Q7.45 -137.8 3.8 -139.0 0.2 -140.2 -1.5 -140.2 L-7.55 -139.9 Q-10.55 -139.35 -12.75 -137.4 -15.7 -134.65 -19.0 -132.2 -20.65 -130.95 -23.4 -129.85 L-27.85 -128.05 Q-32.7 -125.9 -32.7 -121.85 -32.7 -117.85 -31.2 -114.4 -30.25 -112.05 -27.3 -107.65 -26.65 -106.7 -23.35 -104.05 -20.95 -102.15 -20.95 -99.95 -20.95 -99.0 -22.2 -98.45 L-24.35 -97.4 Q-26.7 -95.35 -27.7 -93.8 -29.0 -91.75 -29.0 -89.25 -29.0 -85.9 -26.9 -83.0 -25.65 -81.3 -22.25 -78.3 -18.9 -75.35 -17.65 -73.6 -15.55 -70.7 -15.55 -67.35 -15.55 -66.4 -16.9 -65.85 -18.6 -65.15 -19.0 -64.55 -20.65 -61.95 -21.2 -59.1 -21.55 -57.15 -21.55 -53.1 -21.55 -50.65 -20.25 -46.9 -19.0 -43.15 -19.0 -40.7 L-19.05 -32.5 Q-19.05 -30.45 -18.05 -28.55 L-15.85 -24.85 Q-15.15 -23.55 -14.5 -20.4 -14.0 -17.75 -12.75 -16.25 -10.9 -14.1 -7.8 -13.7 L-1.7 -13.7 Q5.45 -13.7 10.75 -17.7 16.4 -22.0 16.4 -28.55 16.4 -31.05 17.6 -33.45 18.3 -34.85 20.25 -37.4 22.15 -39.95 22.85 -41.4 24.05 -43.8 24.05 -46.3 24.05 -48.35 21.95 -51.05 19.8 -53.75 19.8 -55.75 L19.8 -72.5 Q19.8 -74.55 17.3 -75.55 L14.95 -76.35 Q13.5 -76.85 12.6 -77.4 14.1 -79.7 16.7 -82.2 L21.0 -86.15 Q25.75 -90.8 25.75 -96.0 25.75 -103.3 20.35 -105.65 L22.75 -109.0 25.4 -111.8 Q28.3 -115.1 28.3 -118.55 28.3 -120.4 26.35 -121.6 L22.65 -123.7 Q21.65 -124.45 21.2 -126.05 L20.65 -129.0" fill="#ffffde" fill-rule="evenodd" stroke="none"/>
    <path d="M0.45 -141.0 Q-3.55 -141.0 -7.0 -140.05 -9.4 -139.35 -14.1 -137.35 L-19.15 -134.85 Q-21.55 -133.2 -21.55 -130.65 L-21.25 -127.45 -21.0 -124.25 -19.85 -124.0 Q-18.9 -124.0 -17.45 -124.7 -16.05 -125.4 -15.1 -125.4 -11.35 -125.4 -8.55 -123.2 -6.5 -121.6 -4.1 -117.95 L0.05 -111.7 Q2.75 -108.25 5.85 -106.5 6.75 -110.0 4.2 -113.75 L1.8 -117.05 Q0.35 -119.1 -0.4 -120.8 1.95 -121.25 4.65 -122.35 L9.55 -124.25 8.75 -124.45 7.9 -124.55 5.05 -124.3 2.15 -124.0 Q0.7 -124.0 -1.3 -125.65 -3.3 -127.25 -4.8 -127.25 L-11.9 -127.6 -19.0 -127.25 -19.0 -129.3 Q-19.0 -131.55 -16.85 -133.0 -15.75 -133.75 -12.4 -135.05 L-6.1 -137.15 0.45 -137.9 Q3.75 -137.9 7.25 -135.65 L7.85 -136.2 8.1 -134.0 Q8.1 -131.35 5.55 -130.25 7.7 -129.75 9.6 -131.05 11.55 -132.4 11.55 -134.5 11.55 -137.95 7.9 -139.65 4.95 -141.0 0.45 -141.0" fill="#ffff39" fill-rule="evenodd" stroke="none"/>
    <path d="M21.0 -130.65 Q18.5 -133.05 14.95 -133.05 12.7 -133.05 10.75 -132.2 L7.0 -129.95 Q8.45 -129.65 10.85 -129.95 13.2 -130.3 14.65 -129.95 18.45 -129.0 20.65 -125.9 22.7 -122.9 22.7 -118.8 22.7 -116.55 21.9 -115.0 20.95 -113.1 19.2 -113.1 17.95 -113.1 16.35 -114.85 14.8 -116.55 13.5 -116.55 9.35 -116.55 8.1 -108.7 L10.75 -111.9 Q12.1 -113.7 13.8 -113.7 14.85 -113.7 16.35 -112.85 17.9 -112.0 18.9 -112.0 21.3 -112.0 22.55 -114.55 23.55 -116.65 23.55 -119.7 L23.55 -124.75 Q23.55 -128.25 21.0 -130.65" fill="#ffde29" fill-rule="evenodd" stroke="none"/>
    <path d="M-20.75 -127.75 Q-20.75 -128.45 -21.1 -129.7 L-21.6 -131.65 Q-23.0 -130.7 -25.6 -129.45 L-29.5 -127.5 Q-33.55 -125.05 -33.55 -121.2 -33.55 -116.8 -31.85 -113.35 -30.4 -110.4 -27.0 -106.8 L-25.55 -109.55 Q-24.75 -111.0 -24.75 -112.4 -24.75 -113.9 -25.3 -116.25 -25.85 -118.55 -25.85 -120.1 -25.85 -121.9 -23.3 -123.95 -20.75 -126.0 -20.75 -127.75" fill="#ffde29" fill-rule="evenodd" stroke="none"/>
    <path d="M-25.05 -104.2 L-21.85 -100.0 -15.3 -100.0 -11.65 -95.9 Q-9.55 -93.95 -6.95 -93.95 -5.6 -93.95 -5.0 -95.5 L-3.95 -98.5 Q-3.55 -99.25 -1.75 -100.05 -0.2 -100.7 -0.2 -101.7 -0.2 -103.4 -0.7 -105.35 L-1.6 -108.95 Q-1.6 -106.25 -3.85 -102.75 -6.25 -99.0 -6.5 -96.55 -10.15 -97.3 -12.4 -99.65 -14.75 -102.15 -14.75 -105.6 L-14.85 -107.35 -14.75 -109.1 -16.9 -105.75 Q-18.15 -104.0 -19.85 -104.0 -21.95 -104.0 -23.35 -105.75 -24.7 -107.4 -24.7 -109.65 -24.7 -115.45 -23.4 -118.9 -21.7 -123.35 -17.6 -125.05 -22.45 -125.05 -24.8 -119.7 -26.65 -115.45 -26.65 -108.95 -26.65 -106.5 -25.05 -104.2" fill="#ffde29" fill-rule="evenodd" stroke="none"/>
    <path d="M3.55 -107.15 Q2.1 -106.3 2.1 -104.85 L1.7 -103.5 1.25 -102.2 Q3.45 -105.05 5.4 -105.05 6.8 -105.05 9.2 -103.6 11.35 -102.35 12.9 -102.75 12.4 -105.15 10.65 -106.55 8.9 -107.9 6.5 -107.9 4.8 -107.9 3.55 -107.15" fill="#ffde29" fill-rule="evenodd" stroke="none"/>
    <path d="M16.9 -104.0 Q14.55 -107.15 14.35 -109.35 18.9 -109.35 22.1 -111.7 25.4 -114.1 26.35 -118.4 27.85 -117.45 28.9 -115.6 L28.9 -118.2 Q28.9 -120.0 27.85 -121.3 26.7 -122.7 25.05 -122.7 23.55 -122.7 23.0 -121.1 22.65 -120.15 22.45 -117.6 22.25 -115.0 21.9 -114.05 21.3 -112.45 19.8 -112.45 L12.7 -112.55 Q11.75 -112.55 11.05 -111.9 10.35 -111.25 10.35 -110.3 10.35 -108.1 13.2 -105.3 16.05 -102.55 16.05 -100.3 16.05 -99.75 15.65 -99.2 L14.9 -98.2 13.5 -99.3 Q12.4 -96.0 9.7 -94.2 7.1 -92.5 3.5 -92.5 1.1 -92.5 -1.0 -93.6 L-5.05 -96.2 -4.2 -94.8 Q-6.8 -95.05 -10.55 -97.85 -14.15 -100.45 -16.95 -100.45 -22.2 -100.45 -26.0 -97.6 -30.1 -94.55 -30.1 -89.8 -30.1 -86.85 -28.15 -84.4 L-23.85 -79.95 -18.1 -74.05 Q-14.8 -71.4 -10.85 -71.4 -8.8 -71.4 -7.25 -72.55 -5.6 -73.75 -5.6 -75.6 L-5.6 -80.8 Q-6.8 -80.1 -8.45 -77.05 -9.8 -74.55 -11.7 -74.55 -13.5 -74.55 -14.55 -76.4 L-16.1 -80.2 -17.55 -76.8 Q-20.55 -77.45 -22.4 -79.1 -24.4 -80.95 -24.4 -83.65 -24.4 -95.35 -18.1 -95.35 -12.6 -95.35 -7.9 -90.25 -6.85 -89.15 -5.9 -86.15 -5.05 -83.5 -3.6 -82.5 -2.2 -85.15 -2.2 -88.25 -2.2 -90.85 -3.05 -91.95 L-0.55 -91.95 Q1.25 -91.95 4.05 -91.1 6.85 -90.25 8.65 -90.25 10.5 -90.25 12.0 -92.25 L14.9 -95.65 17.65 -96.8 Q19.15 -97.4 19.15 -98.6 19.15 -100.95 16.9 -104.0" fill="#ffde29" fill-rule="evenodd" stroke="none"/>
    <path d="M20.55 -102.5 Q25.55 -102.5 25.55 -93.45 L25.25 -90.8 Q24.6 -92.1 23.0 -92.85 L19.95 -93.8 Q18.05 -94.3 17.25 -94.8 16.05 -95.6 15.9 -97.1 L12.25 -95.1 Q10.4 -93.85 10.4 -92.05 L10.4 -90.2 13.85 -89.5 17.1 -88.65 Q20.45 -87.4 20.45 -84.55 20.45 -83.5 19.65 -82.55 L18.15 -80.85 Q23.15 -81.35 25.7 -86.3 27.8 -90.4 27.8 -96.55 27.8 -100.05 26.05 -102.6 24.15 -105.3 21.0 -105.6 L22.3 -105.2 19.7 -105.6 Q17.15 -105.6 15.9 -101.65 L18.25 -102.15 20.55 -102.5" fill="#ffde29" fill-rule="evenodd" stroke="none"/>
    <path d="M12.05 -70.25 L15.65 -67.45 Q17.45 -65.8 17.45 -63.7 L17.45 -56.75 Q17.45 -55.75 18.75 -54.45 20.05 -53.2 20.05 -52.15 20.05 -50.2 18.05 -48.35 15.45 -46.0 14.9 -44.85 13.1 -41.1 10.3 -37.35 L4.95 -30.3 Q7.05 -31.45 9.75 -34.1 12.45 -36.8 14.5 -37.95 14.5 -34.4 11.65 -31.15 L9.05 -28.35 6.4 -25.1 Q12.0 -28.15 13.6 -29.3 16.85 -31.7 18.9 -35.4 19.35 -36.2 19.65 -38.05 19.9 -39.65 20.6 -40.5 L24.3 -43.85 Q26.35 -45.6 26.35 -47.75 26.35 -48.25 25.05 -49.1 23.65 -49.95 23.55 -50.45 22.7 -49.8 23.25 -48.05 23.85 -46.15 23.2 -45.4 21.85 -47.15 21.5 -49.95 L20.0 -48.45 Q21.5 -50.65 21.5 -52.35 21.5 -54.55 20.5 -57.95 19.45 -61.3 19.45 -63.5 19.45 -69.7 14.95 -74.05 10.5 -78.4 4.25 -78.4 L-1.55 -78.4 Q-3.8 -78.4 -5.9 -76.8 L-9.85 -73.65 Q-11.1 -72.85 -13.7 -73.1 -16.25 -73.35 -17.55 -72.55 -18.45 -71.95 -18.55 -70.1 -18.65 -68.05 -19.3 -67.35 -22.35 -64.2 -23.6 -61.85 -25.25 -58.8 -25.25 -55.15 -25.25 -52.0 -22.7 -47.4 -22.15 -48.25 -22.15 -49.1 L-22.15 -53.5 Q-22.15 -58.05 -18.1 -60.8 -16.2 -58.3 -15.75 -55.2 -15.55 -53.85 -15.55 -48.8 -12.1 -50.1 -11.4 -54.4 L-11.2 -58.5 -11.3 -62.8 Q-11.3 -67.55 -8.3 -71.0 -5.2 -74.5 -0.65 -74.5 3.45 -74.5 6.2 -73.65 9.25 -72.7 12.05 -70.25" fill="#ffde29" fill-rule="evenodd" stroke="none"/>
    <path d="M5.3 -63.05 Q4.3 -62.9 3.55 -61.85 L2.15 -59.95 -0.4 -60.8 -2.1 -60.8 Q-1.8 -59.3 0.55 -57.6 2.75 -56.0 2.75 -54.4 2.75 -53.65 1.85 -53.1 L0.45 -52.0 -0.75 -49.35 Q-1.35 -47.75 -2.4 -47.1 L-5.75 -45.8 Q-7.55 -45.15 -7.55 -43.7 -7.55 -42.45 -6.35 -41.4 L-4.15 -39.4 -6.1 -37.5 Q-7.15 -36.3 -8.3 -36.3 -9.95 -36.3 -12.35 -37.75 -14.75 -39.15 -16.45 -39.15 L-20.3 -39.15 -20.3 -33.05 Q-20.3 -31.85 -21.05 -30.05 -21.85 -28.3 -21.85 -27.05 -21.85 -25.95 -20.55 -24.65 -19.15 -23.2 -19.0 -22.25 L-18.05 -15.9 Q-17.4 -12.6 -15.5 -10.25 -11.85 -5.7 -6.95 -3.85 -2.7 -2.2 3.85 -2.2 8.0 -2.2 10.45 -6.05 12.65 -9.5 12.65 -14.3 12.65 -18.05 13.4 -20.4 14.3 -23.2 16.65 -25.35 17.15 -25.85 19.35 -27.15 20.95 -28.1 21.55 -29.4 17.4 -29.0 14.6 -25.2 L12.3 -21.45 7.1 -13.0 Q5.45 -10.8 3.15 -10.8 0.1 -10.8 -2.8 -11.85 L-8.4 -14.3 Q-11.6 -15.65 -12.95 -16.75 -14.95 -18.4 -14.95 -20.8 -14.95 -22.8 -10.85 -22.8 -11.15 -23.85 -12.9 -24.1 -14.95 -24.45 -15.5 -25.05 -17.05 -26.75 -17.25 -29.65 -17.65 -34.3 -17.8 -34.95 -16.65 -34.85 -15.25 -33.55 -13.85 -32.25 -12.7 -32.25 -12.0 -32.25 -11.55 -32.9 L-10.85 -34.25 -9.25 -29.95 Q-7.7 -30.5 -6.15 -33.4 L-5.25 -30.95 Q-4.65 -29.65 -3.6 -29.1 -2.9 -32.1 0.15 -36.6 2.95 -40.75 3.3 -44.1 1.6 -43.9 -0.1 -44.1 L1.9 -48.25 Q2.95 -50.65 4.45 -52.0 L6.75 -53.6 9.05 -54.95 Q11.55 -56.6 11.55 -58.95 11.55 -61.05 9.5 -62.3 7.5 -63.5 5.3 -63.05" fill="#ffde29" fill-rule="evenodd" stroke="none"/>
    <path d="M-23.0 -46.2 Q-21.95 -45.2 -19.15 -44.1 -16.7 -43.1 -15.65 -41.5 -15.45 -42.75 -13.9 -44.65 -12.5 -46.35 -12.5 -47.75 -12.5 -50.45 -14.5 -51.9 -14.7 -50.0 -16.8 -47.65 -17.85 -49.15 -18.2 -50.2 -24.85 -47.95 -23.0 -46.2" fill="#b52910" fill-rule="evenodd" stroke="none"/>
    <path d="M-13.05 -33.65 L-12.45 -35.35 Q-12.45 -36.1 -12.95 -36.75 -13.5 -37.35 -14.25 -37.35 L-16.15 -37.35 Q-15.85 -34.3 -13.05 -33.65" fill="#b52910" fill-rule="evenodd" stroke="none"/>
    <path d="M4.7 -58.3 Q4.7 -57.6 5.2 -57.1 5.75 -56.55 6.4 -56.55 10.1 -56.55 10.1 -58.35 10.1 -59.95 7.4 -59.95 4.7 -59.9 4.7 -58.3" fill="#b52910" fill-rule="evenodd" stroke="none"/>
    <path d="M0.35 -42.1 L-2.5 -42.8 Q-4.55 -43.35 -5.75 -44.85 -7.0 -46.45 -7.0 -48.55 -7.0 -49.7 -6.0 -50.65 L-4.2 -52.45 -5.05 -52.2 Q-6.85 -52.1 -8.45 -50.25 L-9.85 -53.9 Q-10.15 -53.15 -10.15 -51.3 -10.15 -49.45 -8.85 -46.6 -7.6 -43.8 -7.6 -41.9 -7.6 -40.25 -9.3 -37.65 L-8.15 -35.95 Q-7.0 -38.2 -4.45 -39.1 L-3.05 -39.1 Q-3.05 -35.45 -1.65 -34.25 L0.95 -34.25 Q-0.55 -35.2 -1.65 -37.1 -0.45 -37.75 0.7 -38.35 1.8 -39.15 1.8 -40.35 1.8 -41.6 0.35 -42.1" fill="#b52910" fill-rule="evenodd" stroke="none"/>
    <path d="M16.95 -52.75 Q18.7 -50.4 18.7 -49.4 18.7 -47.7 16.9 -46.3 L13.85 -43.7 10.5 -38.8 Q8.7 -36.2 6.75 -34.25 8.05 -34.4 9.8 -35.95 11.45 -37.4 12.8 -37.4 L15.25 -37.4 15.55 -36.1 Q15.55 -33.95 13.25 -32.6 L8.75 -30.3 9.95 -30.0 11.25 -30.45 Q12.0 -30.85 12.5 -30.85 L14.15 -30.85 Q13.55 -29.1 11.85 -27.9 L8.45 -25.65 9.5 -25.4 Q14.3 -25.4 17.2 -29.8 19.8 -33.75 19.8 -39.25 L19.75 -43.05 Q19.75 -44.3 20.2 -46.3 L20.65 -49.5 Q20.65 -51.95 19.5 -54.05 18.25 -56.4 16.7 -55.35 15.6 -54.6 16.95 -52.75" fill="#b52910" fill-rule="evenodd" stroke="none"/>
    <path d="M18.05 -87.75 Q18.05 -90.05 17.15 -91.65 16.1 -93.55 14.25 -93.55 L12.95 -93.0 13.5 -92.4 13.8 -91.7 13.25 -90.45 12.65 -91.0 Q12.3 -91.3 11.95 -91.3 8.4 -91.3 5.85 -89.5 3.0 -87.55 3.0 -84.4 L3.0 -79.15 -2.65 -79.15 Q-1.1 -77.15 1.75 -76.4 L7.25 -75.05 Q5.65 -76.1 5.1 -77.05 4.45 -78.05 4.45 -79.85 4.45 -81.25 5.75 -82.4 L8.1 -84.5 9.95 -86.9 Q11.05 -88.15 12.4 -88.15 13.9 -88.15 14.85 -86.3 16.2 -83.5 16.65 -83.0 18.05 -85.25 18.05 -87.75" fill="#b52910" fill-rule="evenodd" stroke="none"/>
    <path d="M-8.8 -95.75 Q-7.05 -95.15 -6.1 -93.7 L-3.5 -95.8 -0.9 -97.6 Q1.85 -99.7 1.85 -102.5 -0.05 -99.3 -4.25 -98.25 L-8.2 -97.5 -12.45 -96.55 -8.8 -95.75" fill="#b52910" fill-rule="evenodd" stroke="none"/>
    <path d="M-6.45 -89.9 L-10.7 -90.45 Q-12.4 -90.45 -13.6 -89.05 -14.7 -87.7 -14.7 -85.9 -14.7 -83.05 -9.3 -82.5 L-9.3 -85.9 -7.1 -85.9 Q-6.25 -85.9 -5.15 -85.2 -4.0 -84.5 -3.2 -84.5 -1.4 -84.5 -0.95 -86.85 -0.8 -87.7 -0.8 -91.3 -0.8 -91.8 -1.65 -92.75 L-3.85 -90.8 Q-5.1 -89.9 -6.45 -89.9" fill="#b52910" fill-rule="evenodd" stroke="none"/>
    <path d="M15.25 -113.85 Q14.4 -114.5 12.85 -114.15 L10.15 -113.85 Q8.65 -114.1 7.05 -115.1 L4.1 -116.75 5.35 -113.3 Q5.9 -111.5 5.9 -109.75 L7.9 -109.65 9.9 -109.75 9.35 -110.5 Q9.0 -110.9 9.0 -111.3 L9.3 -112.7 11.0 -113.0 Q12.4 -113.0 13.45 -111.95 L15.15 -109.6 Q16.15 -107.9 16.8 -107.25 17.85 -106.2 19.25 -106.2 18.45 -107.25 17.5 -110.3 16.7 -112.8 15.25 -113.85" fill="#efad31" fill-rule="evenodd" stroke="none"/>
    <path d="M-22.75 -100.5 Q-20.95 -99.65 -20.2 -99.65 -18.0 -99.65 -16.4 -101.2 -14.8 -102.75 -14.8 -104.9 -14.8 -108.2 -16.2 -109.6 L-16.3 -106.85 Q-16.5 -105.4 -17.35 -104.5 -18.0 -103.75 -20.55 -102.75 -22.55 -102.0 -22.75 -100.5" fill="#efad31" fill-rule="evenodd" stroke="none"/>
    <path d="M-24.8 -87.35 Q-26.55 -87.35 -29.05 -89.05 -25.7 -85.35 -22.95 -85.35 L-21.45 -85.65 -19.95 -85.9 Q-19.15 -85.9 -17.3 -84.5 -17.6 -85.7 -18.25 -86.8 L-19.65 -88.85 Q-22.55 -87.35 -24.8 -87.35" fill="#efad31" fill-rule="evenodd" stroke="none"/>
    <path d="M-8.75 -148.65 Q-8.75 -147.1 -6.45 -147.1 -5.8 -147.1 -6.05 -148.25 L-6.45 -150.2 Q-8.75 -150.1 -8.75 -148.65" fill="#b52910" fill-rule="evenodd" stroke="none"/>
    <path d="M2.1 -154.2 L-2.15 -154.2 -0.15 -151.05 Q0.45 -152.45 2.95 -154.4 L2.1 -154.2" fill="#b52910" fill-rule="evenodd" stroke="none"/>
    <path d="M-17.3 -140.5 Q-16.95 -140.5 -15.9 -141.65 -16.3 -142.2 -17.25 -142.35 L-19.0 -142.5 -19.0 -140.8 -17.3 -140.5" fill="#b52910" fill-rule="evenodd" stroke="none"/>
  </g>
</svg>
