<?xml version="1.0" encoding="UTF-8" standalone="no"?>
<svg xmlns:xlink="http://www.w3.org/1999/xlink" height="153.7px" width="65.4px" xmlns="http://www.w3.org/2000/svg">
  <g transform="matrix(1.0, 0.0, 0.0, 1.0, 34.05, 153.35)">
    <path d="M0.45 -143.55 Q-6.15 -144.25 -10.5 -141.45 L-12.8 -139.45 -13.3 -138.5 Q-24.8 -138.75 -29.65 -134.5 -34.05 -130.65 -34.05 -121.95 -34.05 -119.85 -32.95 -117.9 -32.3 -116.7 -30.55 -114.65 L-28.2 -111.35 Q-27.1 -109.4 -27.1 -107.3 -27.1 -106.2 -28.2 -104.7 -29.3 -103.15 -29.3 -102.05 -29.3 -98.5 -26.35 -93.4 -23.4 -88.3 -23.4 -84.7 -23.4 -82.0 -24.6 -79.45 -25.3 -77.9 -27.25 -75.1 L-29.9 -70.7 Q-31.1 -68.15 -31.1 -65.45 -31.1 -62.9 -29.85 -60.5 L-27.05 -56.5 Q-25.05 -53.95 -24.3 -52.5 -23.05 -50.1 -23.05 -47.55 -23.05 -45.8 -23.75 -43.0 -24.5 -40.2 -24.5 -38.4 -24.5 -34.3 -22.5 -27.95 -20.55 -21.6 -20.55 -17.45 -20.55 -8.9 -12.25 -4.0 -5.0 0.35 5.2 0.35 9.75 0.35 12.2 -4.25 14.3 -8.1 14.3 -13.7 14.3 -16.2 16.5 -18.4 L18.5 -20.3 20.45 -22.6 Q24.6 -28.6 26.2 -33.15 28.05 -38.25 28.05 -44.9 28.05 -47.05 26.65 -50.25 25.2 -53.45 25.2 -55.65 25.2 -56.7 26.4 -57.75 27.8 -58.95 28.05 -59.65 28.85 -61.75 28.9 -64.1 L28.8 -68.75 Q28.8 -71.15 27.7 -73.5 27.1 -74.9 25.35 -77.4 23.65 -79.9 23.0 -81.25 21.9 -83.6 21.9 -86.0 21.9 -88.05 23.4 -89.7 24.25 -90.75 26.65 -92.4 29.0 -94.05 29.85 -95.05 31.35 -96.7 31.35 -98.75 31.35 -100.6 29.35 -103.05 27.35 -105.45 27.35 -107.3 27.35 -109.85 29.2 -113.5 31.0 -117.15 31.0 -119.65 31.0 -127.9 24.65 -134.3 18.45 -140.55 9.9 -141.4 7.65 -142.45 5.3 -142.9 L0.45 -143.55" fill="#b52910" fill-rule="evenodd" stroke="none"/>
    <path d="M3.0 -142.8 L-3.7 -142.8 Q-6.5 -142.8 -9.25 -139.5 L-11.6 -137.0 Q-13.05 -135.7 -14.7 -135.25 -16.65 -134.75 -21.0 -135.35 -24.7 -135.8 -27.0 -134.55 -32.5 -131.4 -32.5 -123.45 -32.5 -121.05 -31.2 -118.85 L-28.3 -115.2 Q-26.25 -112.85 -25.45 -111.5 -24.15 -109.3 -24.15 -106.9 -24.15 -105.2 -25.55 -102.65 -27.0 -100.15 -27.0 -98.4 -27.0 -95.25 -24.15 -91.35 -21.3 -87.5 -21.3 -84.3 -21.3 -81.4 -22.6 -78.65 -23.4 -76.95 -25.45 -73.95 -27.55 -71.0 -28.35 -69.3 -29.65 -66.5 -29.65 -63.6 -29.65 -61.2 -28.15 -59.35 -27.25 -58.25 -24.85 -56.5 -22.5 -54.75 -21.6 -53.65 -20.1 -51.8 -20.1 -49.4 -20.1 -47.15 -20.65 -43.65 -21.2 -40.1 -21.2 -37.85 -21.2 -26.8 -20.65 -23.05 -19.7 -15.85 -15.8 -9.5 -12.9 -4.65 -7.7 -2.7 -3.55 -1.15 3.35 -1.15 7.2 -1.15 10.0 -3.7 12.9 -6.3 12.9 -10.05 12.9 -11.2 12.3 -13.05 11.7 -14.9 11.7 -16.1 11.7 -18.7 14.6 -20.8 L17.15 -22.6 19.45 -24.8 25.05 -32.45 Q27.8 -36.95 27.8 -41.1 27.8 -42.85 25.7 -45.55 23.55 -48.25 23.55 -50.05 23.55 -51.75 24.05 -52.65 24.5 -53.5 24.5 -55.25 24.5 -56.95 26.55 -60.2 28.55 -63.4 28.55 -65.1 28.55 -68.2 27.3 -71.2 L24.55 -76.2 Q22.55 -79.4 21.8 -81.15 20.55 -84.15 20.55 -87.25 20.55 -89.45 21.55 -91.15 22.2 -92.2 23.8 -93.85 L26.05 -96.5 Q27.05 -98.2 27.05 -100.4 L26.7 -106.85 Q26.7 -109.4 28.0 -114.5 29.3 -119.6 29.3 -122.1 29.3 -128.75 23.35 -133.35 18.9 -136.85 10.35 -139.6 6.65 -142.8 3.0 -142.8" fill="#ce8421" fill-rule="evenodd" stroke="none"/>
    <path d="M22.65 -129.4 Q19.05 -132.45 15.65 -134.4 12.8 -136.05 7.8 -138.1 L4.25 -139.8 Q2.25 -140.7 0.5 -140.7 -2.25 -140.7 -4.4 -139.2 -5.7 -138.35 -7.8 -136.0 -9.9 -133.7 -11.25 -132.85 -13.4 -131.45 -16.15 -131.6 -21.95 -131.85 -25.85 -130.2 -30.75 -128.15 -30.75 -123.8 -30.75 -120.8 -29.35 -118.4 -28.2 -116.4 -25.6 -114.15 -25.0 -113.65 -22.15 -112.7 -20.1 -112.05 -20.1 -110.55 -20.1 -108.45 -22.1 -105.5 -24.15 -102.5 -24.15 -100.4 -24.15 -97.45 -22.1 -93.1 -20.1 -88.7 -20.1 -85.8 -20.1 -83.1 -21.3 -80.45 -22.0 -78.9 -23.95 -76.1 L-26.6 -71.7 Q-27.8 -69.05 -27.8 -66.35 -27.8 -63.1 -24.35 -60.3 L-21.35 -57.95 Q-19.6 -56.5 -18.65 -54.95 -17.65 -53.45 -18.05 -51.2 L-18.65 -47.0 -18.65 -35.5 Q-18.65 -27.75 -13.35 -22.15 -8.0 -16.45 -0.4 -16.45 5.8 -16.45 10.5 -21.15 12.35 -22.95 14.5 -26.0 L18.35 -31.65 22.4 -36.6 Q24.5 -39.3 24.5 -42.15 24.5 -44.1 22.7 -46.75 20.9 -49.4 20.9 -51.3 20.9 -54.2 22.9 -58.65 24.85 -63.05 24.85 -66.0 24.85 -69.1 23.5 -72.05 22.7 -73.85 20.5 -77.1 18.35 -80.3 17.5 -82.1 16.15 -85.1 16.15 -88.2 16.15 -92.1 19.0 -95.2 L21.9 -97.9 25.2 -100.75 Q27.2 -102.55 26.8 -105.85 L26.3 -108.85 Q25.95 -110.75 25.95 -112.05 25.95 -114.1 27.25 -117.2 28.55 -120.25 28.55 -122.3 28.55 -124.55 26.6 -126.35 L22.65 -129.4" fill="#ffffde" fill-rule="evenodd" stroke="none"/>
    <path d="M7.15 -140.05 L-0.95 -140.7 Q-3.7 -140.7 -6.65 -139.0 -11.4 -136.3 -12.15 -136.0 -9.15 -134.8 -5.9 -132.8 L0.15 -129.1 -2.4 -132.05 Q-3.8 -133.7 -3.8 -135.45 -3.8 -137.85 0.5 -137.85 3.6 -137.85 5.75 -136.55 8.25 -135.1 8.25 -132.5 8.25 -131.8 7.55 -131.25 L6.3 -130.15 Q11.35 -131.6 11.35 -135.45 11.35 -138.9 7.15 -140.05" fill="#ffde29" fill-rule="evenodd" stroke="none"/>
    <path d="M23.3 -131.85 Q19.7 -135.0 14.8 -135.0 12.25 -135.0 10.65 -131.3 17.55 -130.4 20.9 -128.8 25.9 -126.45 25.9 -121.75 25.9 -119.2 24.7 -117.35 23.3 -115.25 21.1 -115.25 L17.15 -115.25 17.15 -119.65 Q18.35 -119.85 20.1 -118.9 L20.5 -119.7 20.85 -120.55 Q20.85 -122.2 19.55 -123.3 18.3 -124.35 16.6 -124.35 14.6 -124.35 12.25 -121.45 9.95 -118.55 7.9 -118.55 3.8 -118.55 3.8 -120.4 3.8 -123.0 5.55 -125.1 L9.55 -128.75 Q8.3 -129.35 6.5 -128.25 4.3 -126.9 3.2 -126.9 0.9 -126.9 -1.15 -128.85 L-4.95 -132.4 -9.25 -133.2 Q-11.8 -133.4 -11.8 -135.0 -11.8 -136.8 -13.5 -136.8 -15.05 -136.75 -17.25 -135.4 -19.5 -134.0 -21.05 -132.1 -22.75 -130.0 -22.75 -128.2 -22.75 -124.6 -19.8 -122.15 -17.2 -119.95 -13.1 -119.3 -15.75 -121.45 -16.8 -122.85 -18.35 -124.9 -18.35 -127.45 -18.35 -131.7 -10.8 -131.7 -7.8 -131.7 -5.6 -129.55 -3.45 -127.35 -3.45 -124.35 -3.45 -123.6 -4.15 -122.8 L-5.3 -121.4 -3.65 -120.2 Q-2.75 -119.45 -2.75 -118.55 -2.75 -115.1 -6.25 -112.9 L-9.65 -111.15 -13.3 -109.45 Q-9.2 -109.45 -2.95 -111.3 3.3 -113.15 7.35 -113.15 10.0 -113.15 14.1 -112.05 18.15 -110.95 20.85 -110.95 23.4 -110.95 25.2 -112.8 27.0 -114.65 27.0 -117.2 L27.0 -123.9 Q27.0 -128.6 23.3 -131.85" fill="#ffde29" fill-rule="evenodd" stroke="none"/>
    <path d="M-21.05 -121.05 L-19.45 -124.3 Q-21.95 -124.3 -23.35 -121.75 -24.6 -119.55 -24.6 -116.5 -24.6 -113.75 -22.65 -111.8 -20.75 -109.8 -18.0 -109.8 L-15.9 -109.8 Q-19.1 -111.95 -20.15 -113.05 -22.0 -115.05 -22.0 -117.6 -22.0 -119.2 -21.05 -121.05" fill="#ffde29" fill-rule="evenodd" stroke="none"/>
    <path d="M-23.9 -127.0 L-25.7 -129.75 -25.35 -131.3 Q-22.2 -131.3 -20.9 -133.4 -25.3 -132.85 -28.15 -130.1 -31.1 -127.2 -31.1 -123.05 -31.1 -117.8 -25.15 -113.8 L-25.35 -117.55 Q-25.35 -118.9 -24.2 -120.75 -23.05 -122.65 -23.05 -123.95 -23.05 -125.5 -23.9 -127.0" fill="#ffde29" fill-rule="evenodd" stroke="none"/>
    <path d="M11.35 -101.9 Q9.1 -97.75 5.0 -97.75 2.65 -97.75 0.85 -99.35 -0.95 -100.95 -0.95 -103.25 -0.95 -106.45 1.4 -108.65 3.7 -110.75 7.0 -111.0 L5.3 -111.6 3.15 -112.0 Q-0.75 -112.0 -3.25 -108.55 -5.65 -105.35 -5.65 -101.05 -5.65 -97.2 -1.95 -94.8 1.4 -92.7 5.9 -92.7 10.15 -92.7 12.55 -96.85 14.65 -100.45 14.65 -105.55 L14.55 -110.6 Q12.15 -103.3 11.35 -101.9" fill="#ffde29" fill-rule="evenodd" stroke="none"/>
    <path d="M-15.2 -105.85 Q-12.6 -105.85 -9.35 -104.4 -8.95 -106.75 -8.95 -108.7 L-6.1 -109.05 Q-4.85 -109.05 -3.7 -107.95 L-1.6 -106.1 -1.6 -110.5 Q-1.6 -112.0 -5.1 -112.0 -14.0 -112.0 -19.45 -109.75 -26.65 -106.8 -26.65 -100.35 -26.65 -98.15 -25.55 -96.1 L-23.05 -92.35 -21.8 -91.25 Q-22.35 -97.15 -21.8 -100.35 L-17.55 -90.7 Q-15.55 -85.85 -14.35 -80.7 L-11.3 -84.5 -8.1 -87.65 Q-4.55 -91.35 -4.55 -95.4 L-4.55 -99.95 Q-6.45 -94.35 -7.55 -92.6 -9.7 -89.15 -13.25 -89.15 -16.55 -89.15 -17.45 -93.85 L-18.1 -98.05 Q-18.55 -100.65 -19.4 -102.15 -17.95 -103.4 -17.3 -105.1 L-18.65 -105.45 -15.2 -105.85 M-9.3 -104.35 L-9.35 -104.4 -9.4 -104.25 -9.3 -104.35 M-9.4 -104.25 L-11.65 -101.6 Q-12.9 -100.1 -12.9 -98.5 -12.9 -97.6 -12.4 -96.65 L-11.4 -94.9 Q-11.15 -97.2 -9.95 -101.8 L-9.4 -104.25" fill="#ffde29" fill-rule="evenodd" stroke="none"/>
    <path d="M16.55 -105.95 Q17.4 -106.5 18.15 -106.5 20.3 -106.5 21.85 -105.0 23.4 -103.5 23.4 -101.35 L23.4 -98.15 20.2 -98.15 15.75 -101.05 Q14.5 -100.3 13.95 -98.95 13.65 -98.2 13.3 -96.0 L11.1 -96.75 Q13.2 -90.15 19.65 -90.15 23.35 -90.15 25.8 -93.3 28.15 -96.3 28.15 -100.35 28.15 -102.7 26.55 -105.0 L23.75 -109.35 22.15 -112.75 Q21.1 -114.45 19.45 -114.45 17.2 -114.45 15.75 -112.55 14.45 -110.85 14.3 -108.3 L14.95 -110.05 Q14.75 -108.85 14.95 -105.1 L16.55 -105.95" fill="#ffde29" fill-rule="evenodd" stroke="none"/>
    <path d="M-24.2 -72.0 Q-24.2 -76.0 -21.7 -79.65 -19.2 -83.25 -15.5 -84.7 -21.75 -83.0 -25.35 -78.15 -28.9 -73.4 -28.9 -66.9 -28.9 -65.0 -27.35 -63.75 -25.85 -62.55 -23.85 -62.55 -20.4 -62.55 -18.3 -66.15 L-16.7 -69.7 -15.7 -72.25 Q-17.75 -67.6 -21.8 -67.6 -24.2 -67.6 -24.2 -72.0" fill="#ffde29" fill-rule="evenodd" stroke="none"/>
    <path d="M12.05 -79.0 L10.05 -83.75 Q7.5 -88.7 3.05 -88.7 -4.75 -88.7 -10.5 -84.35 -16.6 -79.7 -16.6 -72.55 L-16.15 -70.7 -16.15 -59.7 Q-16.15 -59.05 -16.6 -58.4 L-17.35 -57.15 -13.1 -57.8 Q-6.05 -57.8 -2.45 -52.75 L-3.4 -54.6 -3.85 -56.6 Q-3.85 -60.0 -1.75 -62.5 0.4 -65.1 3.6 -65.1 6.1 -65.1 8.45 -63.85 L12.85 -61.1 9.25 -67.4 Q7.1 -70.55 3.95 -70.55 2.3 -70.55 0.9 -69.4 L-1.3 -66.95 Q-2.7 -65.1 -3.55 -64.45 -4.95 -63.3 -6.6 -63.3 -9.2 -63.3 -11.05 -64.9 -13.0 -66.6 -13.0 -69.05 -13.0 -75.4 -8.9 -79.95 -4.7 -84.65 1.4 -84.65 5.3 -84.65 7.9 -81.0 L10.0 -77.4 12.1 -73.45 Q12.8 -72.25 16.55 -67.55 19.05 -64.45 19.75 -61.1 L19.75 -64.5 Q19.75 -67.0 17.75 -69.45 L14.25 -74.0 Q13.35 -75.65 12.05 -79.0" fill="#ffde29" fill-rule="evenodd" stroke="none"/>
    <path d="M14.15 -77.0 Q15.15 -70.95 16.15 -68.7 16.9 -67.05 17.25 -64.25 L17.8 -59.8 Q18.55 -54.95 22.0 -54.95 25.2 -54.95 26.35 -58.8 27.05 -61.25 27.05 -66.25 L27.05 -72.75 Q25.1 -70.55 22.95 -70.55 18.55 -70.55 16.1 -75.05 14.05 -78.9 14.05 -84.3 14.05 -86.3 16.95 -87.5 L22.0 -89.1 Q16.4 -92.15 15.0 -92.75 11.55 -94.15 7.6 -94.15 5.85 -94.15 4.3 -93.4 L1.3 -91.55 6.55 -88.55 Q9.3 -86.9 11.1 -84.7 13.4 -81.8 14.15 -77.0" fill="#ffde29" fill-rule="evenodd" stroke="none"/>
    <path d="M6.95 -21.3 L1.2 -20.7 Q-6.5 -20.7 -11.65 -26.95 -16.6 -32.9 -16.6 -41.1 -15.05 -40.5 -11.9 -37.3 -9.2 -34.5 -6.95 -34.5 -5.9 -34.5 -5.35 -35.8 L-4.55 -38.15 -2.75 -32.35 Q-0.85 -33.85 0.45 -34.5 -0.2 -26.7 4.5 -24.75 4.5 -26.5 4.9 -28.35 9.85 -26.05 12.5 -22.9 L6.95 -21.3 M10.65 -49.7 Q14.95 -52.35 14.95 -58.4 14.95 -60.7 13.95 -62.45 L12.85 -63.55 13.2 -60.7 Q13.2 -57.45 9.9 -55.0 L6.85 -52.9 3.75 -50.45 Q-0.15 -53.8 -1.75 -58.25 L-2.1 -54.55 Q-2.1 -53.6 -1.35 -52.15 -0.65 -50.65 -0.65 -49.7 -0.65 -48.3 -1.35 -46.1 -2.1 -43.9 -2.1 -42.45 -4.35 -44.9 -5.65 -47.65 L-7.9 -53.75 -8.85 -53.15 Q-9.35 -52.8 -9.35 -52.25 -9.35 -50.65 -8.25 -48.3 -7.15 -46.0 -7.15 -44.35 L-7.15 -42.1 Q-10.5 -44.6 -12.8 -49.5 -15.9 -56.1 -17.35 -58.05 -19.5 -52.35 -19.95 -46.8 L-20.2 -35.2 Q-20.2 -26.7 -13.55 -20.9 -7.1 -15.3 1.75 -15.3 11.0 -15.3 17.05 -23.15 22.3 -29.9 24.15 -40.9 21.85 -40.4 20.1 -38.8 18.9 -37.75 17.35 -35.45 L14.75 -31.85 Q13.1 -29.95 11.0 -29.05 L10.55 -30.7 Q10.25 -31.6 10.25 -32.35 10.25 -35.3 12.7 -38.6 15.75 -42.6 16.4 -44.65 14.25 -42.15 11.05 -39.85 L5.25 -35.55 5.25 -40.25 Q5.25 -41.2 4.35 -42.45 3.4 -43.75 3.4 -44.65 3.4 -46.7 5.95 -47.8 L8.3 -48.65 Q9.8 -49.2 10.65 -49.7" fill="#ffde29" fill-rule="evenodd" stroke="none"/>
    <path d="M0.85 -11.2 Q-2.6 -10.7 -5.25 -11.2 -4.45 -8.35 -1.9 -8.35 -0.7 -8.35 0.1 -9.2 0.85 -10.0 0.85 -11.2" fill="#b54a29" fill-rule="evenodd" stroke="none"/>
    <path d="M-23.85 -56.0 L-16.95 -56.0 Q-17.2 -57.65 -18.75 -58.85 L-21.65 -61.05 -19.45 -63.75 -17.6 -66.4 Q-15.45 -69.25 -12.55 -69.8 L-14.2 -71.25 Q-15.15 -72.0 -16.15 -72.0 -17.9 -72.0 -18.55 -69.4 -19.45 -65.9 -20.15 -65.1 -20.95 -64.25 -24.4 -63.05 -27.05 -62.15 -27.05 -60.35 -27.05 -59.0 -26.0 -57.9 L-23.85 -56.0" fill="#b52910" fill-rule="evenodd" stroke="none"/>
    <path d="M-7.15 -49.75 Q-5.4 -47.6 -5.4 -46.0 -5.4 -44.7 -7.7 -43.55 -10.05 -42.4 -10.05 -41.1 -10.05 -40.45 -9.35 -39.9 L-8.15 -38.9 Q-7.75 -40.75 -7.75 -42.5 L-5.4 -42.5 Q-4.05 -40.5 -3.45 -38.35 L-3.0 -39.45 Q-2.7 -40.05 -2.7 -40.55 -2.7 -41.25 -3.05 -42.35 -3.45 -43.5 -3.45 -44.15 -3.45 -45.2 -2.75 -46.2 L-1.35 -48.0 Q-6.65 -49.35 -6.65 -52.25 L-6.3 -53.2 -5.65 -54.15 -8.15 -54.8 -8.6 -54.2 -8.95 -53.5 Q-8.95 -51.9 -7.15 -49.75" fill="#b52910" fill-rule="evenodd" stroke="none"/>
    <path d="M3.8 -70.9 Q2.35 -70.85 1.3 -69.8 0.25 -68.75 0.25 -67.3 0.25 -66.05 1.35 -64.2 2.45 -62.35 2.45 -61.05 L3.55 -59.95 6.7 -63.25 Q8.55 -64.95 9.2 -66.85 L4.55 -66.85 3.8 -70.9" fill="#b52910" fill-rule="evenodd" stroke="none"/>
    <path d="M17.0 -52.1 Q15.7 -50.75 12.1 -48.8 L6.85 -45.45 Q4.4 -43.3 4.4 -40.5 L4.4 -36.0 7.35 -38.9 Q9.0 -40.35 10.75 -40.0 L9.25 -36.7 Q14.55 -35.6 17.4 -41.65 19.7 -46.55 19.7 -53.7 19.7 -54.8 18.45 -57.1 19.05 -54.25 17.0 -52.1" fill="#b52910" fill-rule="evenodd" stroke="none"/>
    <path d="M24.85 -42.2 L24.85 -45.7 Q23.85 -45.55 23.05 -45.05 23.05 -42.3 21.65 -40.0 20.7 -38.4 18.4 -36.25 L14.7 -32.5 Q12.7 -30.15 11.85 -27.6 13.75 -27.6 15.1 -29.75 L17.65 -33.5 22.4 -37.35 Q24.85 -39.5 24.85 -42.2" fill="#b52910" fill-rule="evenodd" stroke="none"/>
    <path d="M18.35 -59.6 Q19.2 -63.4 17.1 -67.35 16.05 -69.35 12.2 -74.1 12.85 -71.7 15.9 -66.9 18.35 -63.0 18.35 -59.6" fill="#b52910" fill-rule="evenodd" stroke="none"/>
    <path d="M11.85 -118.15 Q9.75 -118.15 7.3 -117.0 4.2 -115.55 2.75 -115.2 4.3 -114.15 6.95 -113.3 L11.35 -112.1 Q16.15 -110.6 16.15 -107.05 L16.05 -106.2 16.45 -106.8 Q18.2 -109.45 20.55 -109.45 22.25 -109.45 23.7 -107.55 25.7 -104.85 26.35 -104.4 L25.05 -107.2 Q24.5 -108.6 24.5 -110.15 24.5 -112.2 25.25 -115.25 25.95 -118.35 25.95 -120.35 24.6 -116.15 22.3 -113.75 L17.4 -116.9 Q14.85 -118.15 11.85 -118.15 M16.05 -106.2 L14.9 -104.4 14.15 -103.4 15.15 -104.4 Q15.85 -105.25 16.05 -106.2" fill="#de8429" fill-rule="evenodd" stroke="none"/>
    <path d="M-20.05 -131.05 Q-23.45 -130.15 -25.4 -127.35 -27.45 -124.45 -27.45 -120.4 -27.45 -118.95 -26.65 -117.5 L-24.95 -114.9 -24.7 -120.0 -24.35 -125.0 Q-23.55 -130.0 -20.05 -131.05" fill="#de8429" fill-rule="evenodd" stroke="none"/>
    <path d="M-24.55 -106.5 L-21.85 -108.0 Q-20.4 -108.7 -18.85 -108.7 L-14.45 -108.35 Q-13.6 -108.35 -12.4 -108.9 L-10.35 -109.45 -7.1 -109.15 -3.9 -109.25 Q-7.1 -110.3 -8.3 -111.05 -10.35 -112.35 -10.35 -114.5 -10.35 -115.3 -9.85 -116.2 -9.35 -116.4 -8.9 -116.75 -8.1 -117.45 -7.85 -118.5 L-9.85 -116.2 -10.8 -116.05 Q-12.55 -116.05 -14.75 -117.15 L-14.05 -116.0 Q-13.65 -115.35 -13.65 -114.75 -13.65 -111.7 -17.7 -110.05 L-21.25 -108.65 -24.55 -106.5" fill="#de8429" fill-rule="evenodd" stroke="none"/>
    <path d="M-2.85 -132.8 Q-5.15 -134.15 -8.95 -134.9 -3.05 -131.7 1.6 -128.35 -0.3 -131.3 -2.85 -132.8" fill="#de8429" fill-rule="evenodd" stroke="none"/>
    <path d="M10.35 -138.85 L11.0 -136.0 Q11.0 -133.7 8.6 -132.35 10.35 -132.2 11.75 -132.95 13.3 -133.75 13.3 -135.25 13.3 -138.1 10.35 -138.85" fill="#de8429" fill-rule="evenodd" stroke="none"/>
    <path d="M10.4 -82.95 L9.0 -84.45 Q7.4 -86.15 7.4 -87.95 L7.4 -89.75 10.6 -89.75 Q11.55 -89.75 12.7 -88.7 13.9 -87.65 14.8 -87.65 18.5 -87.65 22.0 -86.55 L20.9 -90.15 19.4 -93.45 17.55 -91.95 Q17.95 -93.0 18.65 -93.8 L18.3 -95.65 16.1 -95.65 Q14.6 -94.75 13.65 -93.05 11.45 -93.7 11.45 -94.9 11.45 -96.3 11.95 -97.85 L12.9 -100.7 9.2 -98.05 Q7.15 -96.75 5.0 -96.75 2.95 -96.75 0.15 -98.1 -1.7 -99.05 -3.2 -102.1 -4.85 -105.4 -6.35 -106.45 L-5.65 -105.1 -5.65 -98.5 Q-5.65 -96.7 -6.4 -95.0 L-8.2 -91.8 Q-5.65 -92.0 -3.05 -91.8 L-3.05 -87.3 -0.8 -88.0 1.6 -88.4 Q4.65 -88.4 7.25 -86.2 L10.4 -82.95 11.8 -81.45 10.4 -82.95" fill="#ce5a18" fill-rule="evenodd" stroke="none"/>
    <path d="M2.9 -86.8 Q6.35 -86.8 9.6 -85.4 8.5 -87.6 7.5 -88.4 6.35 -89.35 4.2 -89.35 0.75 -89.35 -2.7 -88.35 -2.3 -90.4 0.15 -93.6 2.35 -96.4 2.35 -98.8 2.35 -103.05 -1.7 -104.3 L-1.0 -102.95 Q-0.6 -102.2 -0.6 -101.55 -0.6 -97.65 -3.7 -94.9 -6.45 -92.45 -10.75 -91.55 -6.35 -90.45 -6.35 -87.7 -6.35 -86.65 -6.8 -85.65 L-7.8 -83.7 -2.6 -85.9 Q0.1 -86.8 2.9 -86.8" fill="#b52910" fill-rule="evenodd" stroke="none"/>
    <path d="M-10.35 -148.3 Q-11.6 -147.4 -12.2 -146.5 -10.2 -145.55 -9.7 -145.45 -9.6 -146.0 -10.0 -146.9 L-10.35 -148.3" fill="#940000" fill-rule="evenodd" stroke="none"/>
    <path d="M-0.2 -151.6 Q1.95 -152.6 3.1 -152.7 L-0.05 -153.35 Q-2.2 -153.35 -3.45 -151.05 -1.95 -150.75 -0.2 -151.6" fill="#940000" fill-rule="evenodd" stroke="none"/>
    <path d="M14.65 -146.85 L13.45 -147.8 Q12.75 -148.3 12.1 -148.3 L10.0 -148.3 Q10.0 -146.9 9.65 -145.45 L12.95 -145.45 14.65 -146.85" fill="#940000" fill-rule="evenodd" stroke="none"/>
    <path d="M-22.3 -141.5 Q-20.3 -139.7 -19.0 -139.7 L-17.35 -139.7 Q-17.2 -141.6 -17.35 -143.55 -20.3 -143.55 -22.3 -141.5" fill="#940000" fill-rule="evenodd" stroke="none"/>
  </g>
</svg>
