<?xml version="1.0" encoding="UTF-8" standalone="no"?>
<svg xmlns:xlink="http://www.w3.org/1999/xlink" height="150.55px" width="66.25px" xmlns="http://www.w3.org/2000/svg">
  <g transform="matrix(1.0, 0.0, 0.0, 1.0, 34.65, 150.3)">
    <path d="M30.8 -135.85 Q29.75 -139.45 26.7 -141.5 24.15 -143.25 20.25 -143.5 L13.05 -143.75 Q8.7 -147.25 6.25 -148.5 2.6 -150.3 -1.65 -150.3 -6.95 -150.3 -11.45 -148.05 -14.3 -146.65 -20.05 -142.35 -20.9 -141.75 -22.9 -141.95 -24.9 -142.15 -25.75 -141.5 -34.1 -135.3 -34.1 -124.6 -34.1 -117.35 -27.85 -115.2 -27.9 -114.45 -28.6 -113.45 -29.25 -112.4 -29.25 -111.65 -29.25 -107.95 -28.8 -105.7 -28.3 -103.0 -26.9 -100.1 L-24.95 -97.5 Q-23.75 -96.15 -23.75 -94.75 -23.75 -92.6 -24.85 -90.55 -25.5 -89.3 -27.2 -87.1 L-29.6 -83.7 Q-30.7 -81.65 -30.7 -79.5 -30.7 -75.0 -30.15 -71.65 -29.6 -68.45 -28.1 -64.1 -27.75 -62.95 -25.95 -60.05 -24.6 -57.85 -24.6 -55.9 -24.6 -54.85 -25.45 -53.3 -26.35 -51.75 -26.35 -50.75 -26.35 -46.3 -23.8 -40.7 -20.9 -34.25 -20.35 -30.65 -15.45 0.25 2.2 0.25 8.55 0.25 11.8 -6.5 14.45 -12.0 14.45 -20.15 L14.45 -28.55 Q14.45 -30.2 16.0 -31.55 L18.75 -34.05 Q19.6 -35.25 19.35 -38.0 19.15 -40.6 20.15 -41.75 21.0 -42.7 23.0 -43.0 25.05 -43.3 25.85 -44.05 27.45 -45.45 28.0 -47.5 28.45 -49.05 28.45 -51.75 28.45 -53.85 26.45 -56.9 24.45 -59.95 24.45 -62.1 24.45 -63.3 25.8 -64.45 27.5 -65.85 27.85 -66.65 29.85 -71.0 29.85 -75.35 29.85 -80.85 28.25 -85.8 27.45 -88.35 24.15 -95.75 29.55 -98.65 29.55 -104.65 29.55 -107.0 27.7 -110.45 25.85 -113.85 25.85 -116.2 25.85 -117.15 27.05 -117.7 28.65 -118.45 29.0 -118.9 30.55 -120.95 31.1 -123.3 31.55 -125.2 31.55 -128.35 31.55 -133.3 30.8 -135.85" fill="#940000" fill-rule="evenodd" stroke="none"/>
    <path d="M30.45 -131.45 Q30.45 -135.8 27.3 -138.85 24.2 -141.85 19.8 -141.85 L11.4 -141.85 Q10.55 -141.85 9.85 -142.85 L8.45 -144.5 Q5.45 -146.65 3.65 -147.45 1.15 -148.6 -1.8 -148.6 -5.95 -148.6 -9.1 -147.4 -11.95 -146.35 -15.5 -143.65 L-17.9 -140.5 Q-19.1 -138.6 -20.75 -138.6 L-22.05 -139.05 Q-22.85 -139.45 -23.35 -139.45 -27.9 -139.45 -30.8 -135.3 -33.45 -131.5 -33.45 -126.35 -33.45 -117.95 -26.05 -115.5 -26.15 -114.3 -26.8 -112.15 -27.45 -110.2 -27.45 -108.8 L-27.2 -104.05 Q-26.8 -101.8 -25.45 -99.8 L-23.0 -97.7 Q-21.5 -96.65 -21.5 -95.3 -21.5 -93.85 -22.75 -92.4 L-24.9 -89.75 Q-26.9 -86.15 -27.65 -83.8 -28.6 -80.9 -28.6 -77.35 -28.6 -72.3 -27.05 -67.9 -26.0 -64.95 -22.9 -59.15 L-20.95 -56.85 Q-19.75 -55.55 -19.75 -54.3 -19.75 -52.75 -21.45 -50.7 -23.2 -48.65 -23.2 -47.05 -23.2 -45.0 -21.35 -42.15 -19.5 -39.3 -19.5 -37.25 L-19.5 -31.15 Q-19.5 -21.9 -14.2 -15.2 -8.6 -8.05 -0.1 -8.05 5.45 -8.05 8.15 -14.2 9.4 -17.2 11.1 -26.65 11.5 -28.95 14.65 -32.1 17.6 -35.05 17.6 -37.65 17.6 -38.9 15.95 -39.15 L12.9 -39.2 19.15 -45.65 Q21.85 -49.2 21.85 -53.45 21.85 -55.95 20.75 -58.6 22.1 -57.75 22.75 -56.1 L23.6 -52.75 23.85 -53.95 Q23.85 -56.2 22.45 -59.6 21.0 -63.0 21.0 -65.2 21.0 -66.8 22.7 -67.75 L26.15 -69.2 Q27.7 -69.85 28.15 -71.7 28.45 -72.8 28.45 -75.35 28.45 -81.0 26.8 -85.8 25.6 -89.25 22.15 -95.45 25.3 -97.5 26.55 -98.85 28.45 -100.95 28.45 -103.65 28.45 -106.35 26.6 -110.3 24.7 -114.25 24.7 -116.9 24.7 -118.0 26.25 -118.65 28.25 -119.45 28.7 -120.05 30.5 -122.25 30.65 -125.4 L30.45 -131.45" fill="#ffde29" fill-rule="evenodd" stroke="none"/>
    <path d="M2.3 -148.0 Q-0.15 -148.85 -2.65 -148.85 -6.0 -148.85 -9.0 -147.7 L-14.9 -144.85 Q-19.0 -142.8 -20.45 -141.55 -22.9 -139.45 -22.9 -136.4 L-22.9 -132.05 Q-20.8 -133.35 -17.6 -135.7 L-12.9 -139.0 Q-7.6 -142.3 -1.95 -142.3 1.1 -142.3 4.1 -140.8 L9.8 -137.75 Q9.2 -140.6 6.4 -142.0 4.85 -142.8 0.5 -143.75 1.6 -144.6 2.75 -144.6 4.5 -144.6 7.2 -142.9 9.7 -141.3 11.6 -141.45 11.0 -143.35 8.8 -144.5 L4.75 -146.65 7.05 -146.0 2.3 -148.0" fill="#ce8421" fill-rule="evenodd" stroke="none"/>
    <path d="M20.45 -127.75 Q19.75 -125.2 16.3 -125.2 14.2 -125.2 14.2 -126.45 L14.45 -127.7 Q13.2 -125.95 10.75 -124.9 L15.7 -122.4 Q18.25 -120.95 18.25 -118.65 18.25 -117.85 17.45 -117.4 L15.9 -116.65 18.55 -116.35 18.75 -113.7 Q18.75 -112.5 17.5 -111.55 L15.35 -109.8 10.85 -104.05 Q8.2 -101.25 4.9 -101.25 1.2 -101.25 -1.3 -104.1 -3.8 -106.85 -3.8 -110.65 -4.3 -108.95 -6.35 -108.1 -7.25 -112.35 -9.5 -115.8 L-5.2 -119.0 Q-2.8 -120.6 -0.35 -120.6 L-1.4 -122.9 Q-2.0 -124.15 -2.05 -125.35 L-5.0 -121.45 Q-6.7 -119.75 -9.05 -119.75 -13.0 -119.75 -14.9 -125.75 L-14.9 -119.75 -18.9 -116.9 -15.7 -117.75 Q-13.9 -118.35 -12.5 -118.35 -10.2 -118.35 -9.9 -115.15 L-10.05 -109.2 Q-10.05 -107.7 -9.05 -105.35 -8.05 -103.05 -8.05 -101.5 -8.05 -100.4 -9.65 -99.65 -11.6 -98.75 -12.05 -98.0 -11.3 -98.05 -10.1 -98.65 L-8.2 -99.15 Q-6.05 -99.15 -6.05 -96.0 -6.05 -94.5 -7.25 -93.35 L-9.9 -91.55 -12.55 -89.8 Q-13.75 -88.65 -13.75 -87.1 L-13.5 -84.05 Q-11.5 -84.8 -10.0 -86.95 L-7.85 -91.05 Q-6.65 -93.65 -5.65 -94.7 -4.15 -96.3 -1.95 -96.3 0.85 -96.3 2.9 -93.75 L6.5 -88.6 4.2 -95.9 Q5.8 -100.65 8.5 -100.65 11.0 -100.65 12.75 -98.7 14.45 -96.8 14.45 -94.15 14.45 -92.85 13.65 -91.75 L11.9 -89.75 Q13.9 -90.9 14.6 -90.9 18.55 -90.9 22.2 -87.85 L25.35 -84.95 29.0 -82.05 Q26.55 -89.6 22.45 -95.75 28.75 -99.55 28.75 -104.8 28.75 -107.85 27.2 -111.2 24.75 -116.5 24.45 -117.5 31.6 -119.8 31.6 -131.6 31.6 -135.95 27.5 -139.15 23.75 -142.05 18.75 -142.6 13.5 -142.6 11.9 -138.6 L16.25 -139.85 Q18.6 -140.6 20.6 -140.6 24.05 -140.6 25.85 -137.0 27.3 -134.0 27.3 -129.6 27.3 -126.8 26.4 -124.9 25.3 -122.6 23.15 -122.6 21.65 -122.6 21.05 -124.3 20.65 -125.3 20.45 -127.75" fill="#ce8421" fill-rule="evenodd" stroke="none"/>
    <path d="M-33.8 -127.6 Q-33.8 -131.65 -31.45 -134.65 -29.2 -137.6 -25.25 -138.85 -29.5 -138.05 -32.1 -134.85 -34.65 -131.7 -34.65 -127.3 -34.65 -124.85 -33.4 -122.5 L-33.15 -122.15 -32.6 -120.45 Q-31.5 -117.9 -29.5 -117.2 L-27.9 -114.8 Q-26.65 -112.45 -26.65 -110.0 L-26.65 -103.2 -23.3 -95.1 Q-23.95 -92.2 -27.0 -86.25 -29.5 -81.4 -29.5 -77.35 -29.5 -71.45 -28.75 -68.8 -27.55 -64.35 -23.9 -64.35 -20.65 -64.35 -19.25 -68.4 L-18.2 -72.2 -17.65 -74.05 Q-18.5 -72.05 -19.35 -70.95 -21.1 -68.65 -23.75 -68.65 -26.65 -68.65 -26.65 -74.2 -26.65 -79.45 -24.2 -84.4 L-18.7 -93.8 Q-21.55 -96.3 -21.55 -100.35 -21.55 -110.4 -13.25 -114.9 L-14.9 -114.9 Q-17.55 -114.9 -19.5 -112.9 -20.8 -111.55 -22.45 -108.35 -22.8 -107.7 -23.05 -105.55 -23.25 -103.9 -24.2 -103.2 -25.05 -105.25 -25.05 -107.9 -25.05 -111.65 -21.9 -114.6 L-18.85 -117.2 -15.55 -120.05 -17.25 -119.45 Q-21.15 -120.3 -23.3 -121.75 -23.5 -122.8 -25.25 -123.6 -26.05 -124.8 -26.05 -126.3 -26.05 -127.55 -25.4 -129.75 -24.85 -131.75 -24.95 -133.15 L-28.95 -131.15 -28.45 -129.9 Q-28.1 -129.15 -28.1 -128.6 -28.1 -128.2 -28.5 -127.55 L-28.95 -126.45 Q-28.95 -125.0 -26.1 -123.95 L-25.25 -123.6 Q-24.6 -122.55 -23.3 -121.75 L-23.3 -121.45 Q-23.3 -119.55 -24.6 -118.25 -25.95 -116.9 -27.8 -116.9 L-29.5 -117.2 -30.65 -118.65 Q-32.4 -120.8 -33.15 -122.15 -33.8 -124.45 -33.8 -127.6" fill="#ce8421" fill-rule="evenodd" stroke="none"/>
    <path d="M4.65 -29.5 L0.4 -26.9 -3.9 -24.3 Q-6.45 -23.15 -9.1 -23.15 -15.05 -23.15 -17.45 -29.8 -18.15 -31.75 -17.8 -34.95 -17.5 -38.25 -18.05 -40.05 -18.4 -41.2 -20.1 -43.4 -21.5 -45.25 -21.5 -46.9 -21.5 -48.3 -20.35 -50.35 -19.25 -52.4 -19.25 -53.75 -19.25 -54.85 -19.8 -56.5 -20.4 -58.2 -20.4 -59.25 L-20.1 -60.6 Q-18.15 -59.75 -15.2 -56.8 -12.6 -54.1 -10.1 -53.45 -10.35 -55.85 -12.75 -59.25 -15.05 -62.45 -15.05 -65.0 -15.05 -67.6 -14.15 -71.55 -13.25 -75.5 -13.25 -78.05 -13.25 -79.7 -13.55 -81.15 -15.9 -77.6 -16.4 -75.15 -16.75 -71.85 -17.2 -70.35 -18.0 -67.95 -19.8 -66.6 -20.5 -66.1 -23.75 -65.3 -26.1 -64.75 -26.1 -63.15 -26.1 -61.4 -24.35 -58.9 -22.65 -56.4 -22.65 -54.6 -22.65 -53.0 -23.65 -50.55 -24.65 -48.15 -24.65 -46.5 -24.65 -44.1 -21.95 -40.95 -19.25 -37.8 -19.25 -35.45 L-19.25 -29.6 Q-19.25 -19.35 -14.4 -13.45 -13.1 -11.85 -11.35 -10.7 L-7.85 -8.35 Q-6.05 -6.95 -3.7 -6.7 L1.0 -6.65 4.55 -6.6 Q6.35 -6.75 7.55 -7.75 9.7 -9.6 9.7 -13.15 L9.6 -16.35 Q9.55 -18.3 9.85 -19.75 11.05 -25.15 13.55 -29.25 10.95 -30.65 9.85 -30.65 7.2 -30.65 4.65 -29.5" fill="#ce8421" fill-rule="evenodd" stroke="none"/>
    <path d="M28.15 -74.75 Q28.15 -72.4 26.1 -70.45 L22.2 -66.9 Q20.95 -65.45 20.55 -63.35 L19.9 -59.2 Q18.35 -60.5 17.1 -62.25 L14.75 -65.75 Q16.45 -65.75 17.65 -66.45 19.05 -67.2 19.05 -68.6 19.05 -69.95 18.0 -70.95 L15.65 -72.45 Q13.9 -73.4 13.25 -74.0 12.2 -75.0 12.2 -76.3 12.2 -77.5 12.95 -78.65 L14.5 -80.75 Q9.35 -79.1 9.35 -75.75 9.35 -73.65 11.25 -71.9 L15.05 -68.9 13.5 -67.45 Q12.75 -66.6 12.75 -65.6 12.75 -64.6 13.75 -63.75 L15.35 -62.05 Q17.4 -58.7 18.1 -55.5 18.75 -52.75 18.75 -48.35 18.75 -44.0 17.9 -41.45 L22.85 -48.75 Q25.05 -52.65 25.05 -56.9 25.05 -58.05 24.2 -59.7 23.35 -61.35 23.35 -62.5 23.35 -65.45 26.05 -69.55 28.75 -73.65 28.75 -76.6 L28.5 -80.45 Q28.15 -82.35 26.75 -83.75 L27.05 -83.4 Q27.45 -82.9 27.25 -82.9 26.45 -82.9 26.95 -81.7 L27.8 -79.45 Q28.15 -77.3 28.15 -74.75" fill="#ce8421" fill-rule="evenodd" stroke="none"/>
    <path d="M13.05 -52.0 Q12.85 -50.3 11.15 -49.3 L7.6 -47.75 3.25 -45.9 Q1.05 -45.15 -1.35 -45.15 -2.95 -45.15 -4.65 -46.3 L-2.0 -49.7 Q-0.65 -51.55 -0.65 -53.5 -0.65 -61.0 -5.5 -63.7 L-6.2 -62.95 -6.65 -62.0 Q-6.65 -60.1 -5.35 -57.25 -4.05 -54.4 -4.05 -52.45 -4.05 -50.0 -6.95 -49.0 L-12.65 -47.75 -15.2 -47.55 Q-16.6 -47.3 -16.6 -46.3 -16.6 -43.1 -13.9 -40.4 L-11.35 -38.1 -8.65 -35.5 -7.4 -40.65 Q-6.3 -43.2 -4.05 -43.2 -2.1 -43.2 -0.7 -42.0 0.8 -40.75 0.8 -38.9 4.45 -41.2 8.75 -42.6 L9.9 -41.45 Q9.9 -39.8 7.95 -38.95 L4.2 -37.45 7.0 -38.0 9.75 -38.35 Q11.6 -38.35 11.6 -37.05 L11.3 -36.35 10.75 -35.75 Q17.3 -38.55 17.3 -47.05 L17.1 -51.85 Q16.75 -54.15 15.6 -56.3 14.7 -55.65 14.15 -54.35 L13.05 -52.0" fill="#ce8421" fill-rule="evenodd" stroke="none"/>
    <path d="M-12.7 -121.7 L-12.9 -119.95 Q-12.9 -117.45 -11.1 -117.45 -9.0 -117.45 -7.1 -119.75 -9.9 -119.85 -12.7 -121.7" fill="#940000" fill-rule="evenodd" stroke="none"/>
    <path d="M-6.65 -99.1 Q-2.6 -100.4 -0.4 -100.6 L-4.7 -103.75 -5.85 -105.35 Q-6.45 -106.3 -6.7 -105.7 -6.9 -105.2 -6.4 -104.55 -5.8 -103.75 -5.8 -103.3 -5.8 -100.9 -8.1 -99.4 -9.95 -98.2 -12.25 -98.05 -9.8 -98.15 -6.65 -99.1" fill="#940000" fill-rule="evenodd" stroke="none"/>
    <path d="M5.45 -99.9 Q6.45 -100.8 7.75 -100.8 L10.2 -100.35 12.45 -99.45 Q12.1 -101.25 10.45 -102.25 8.95 -103.15 6.9 -103.15 4.7 -103.15 3.1 -102.05 1.35 -100.85 1.35 -98.95 1.35 -93.35 8.2 -90.3 L7.35 -91.2 Q5.85 -93.15 5.3 -94.2 4.5 -95.75 4.5 -97.6 4.5 -98.95 5.45 -99.9" fill="#940000" fill-rule="evenodd" stroke="none"/>
    <path d="M25.1 -100.65 L20.75 -96.6 21.05 -96.1 21.45 -95.75 Q24.65 -95.75 26.85 -98.2 29.05 -100.6 29.05 -103.9 29.05 -106.3 26.75 -108.3 L26.95 -105.8 Q26.95 -103.0 25.1 -100.65" fill="#940000" fill-rule="evenodd" stroke="none"/>
    <path d="M-26.25 -124.3 Q-25.7 -123.35 -23.8 -121.15 -25.3 -118.9 -27.95 -118.9 -29.85 -118.9 -31.2 -120.8 L-33.25 -124.6 Q-33.25 -120.75 -31.15 -117.95 -28.95 -114.9 -25.45 -114.9 -20.35 -114.9 -18.4 -119.45 -23.0 -122.5 -23.65 -123.05 -26.2 -125.15 -27.25 -128.0 -27.25 -126.0 -26.25 -124.3" fill="#940000" fill-rule="evenodd" stroke="none"/>
    <path d="M-26.95 -63.45 Q-26.95 -61.75 -25.5 -59.2 -24.1 -56.65 -24.1 -54.9 -24.1 -52.85 -25.5 -50.65 L-21.55 -52.2 Q-19.4 -53.0 -17.45 -53.2 -18.3 -54.3 -19.85 -54.55 L-22.95 -54.65 Q-22.4 -56.3 -22.4 -57.2 -22.4 -58.75 -23.3 -60.65 L-24.65 -64.05 Q-20.7 -65.8 -18.7 -68.7 -16.5 -71.8 -16.95 -75.75 L-19.25 -71.55 Q-20.5 -69.25 -21.8 -67.45 -22.4 -66.65 -24.9 -65.65 -26.95 -64.85 -26.95 -63.45" fill="#940000" fill-rule="evenodd" stroke="none"/>
    <path d="M6.2 -65.15 Q5.25 -63.8 3.9 -62.95 L4.35 -62.25 Q4.6 -61.8 4.9 -61.8 7.55 -61.8 7.55 -63.5 7.55 -64.0 7.05 -64.4 L6.2 -65.15" fill="#940000" fill-rule="evenodd" stroke="none"/>
    <path d="M5.9 -59.15 Q4.0 -58.85 3.05 -57.45 4.1 -56.3 4.9 -56.3 5.6 -56.3 5.8 -57.35 L5.9 -59.15" fill="#940000" fill-rule="evenodd" stroke="none"/>
    <path d="M15.0 -52.45 Q13.4 -48.95 8.9 -46.75 L3.75 -44.5 Q0.55 -43.05 -1.5 -41.45 1.4 -41.45 4.55 -43.15 9.1 -45.6 10.5 -46.05 10.5 -43.45 9.6 -41.75 12.7 -42.8 13.75 -46.75 L14.5 -50.45 15.0 -52.45" fill="#940000" fill-rule="evenodd" stroke="none"/>
    <path d="M14.75 -39.5 Q12.6 -38.4 11.05 -36.6 9.65 -34.95 6.55 -32.85 3.65 -30.8 2.2 -28.9 3.35 -28.8 5.0 -29.4 6.7 -30.05 7.75 -30.05 L9.5 -29.6 Q10.55 -29.15 11.2 -29.15 14.3 -29.15 15.9 -32.45 17.25 -35.15 17.25 -39.1 17.25 -40.8 14.75 -39.5" fill="#940000" fill-rule="evenodd" stroke="none"/>
    <path d="M14.75 -74.0 L11.6 -74.0 11.35 -72.25 Q11.35 -69.95 13.1 -68.4 14.85 -66.9 17.2 -66.9 18.15 -66.9 18.85 -67.5 19.6 -68.1 19.6 -69.0 19.6 -71.05 18.2 -72.55 16.75 -74.0 14.75 -74.0" fill="#940000" fill-rule="evenodd" stroke="none"/>
    <path d="M28.75 -83.75 L27.45 -87.5 25.95 -91.0 Q24.35 -95.1 25.05 -98.3 L19.85 -97.2 Q17.05 -96.6 15.2 -95.15 23.85 -95.15 28.75 -83.75" fill="#940000" fill-rule="evenodd" stroke="none"/>
    <path d="M14.6 -126.2 L13.85 -125.9 11.6 -124.75 Q13.0 -124.0 15.45 -120.65 17.4 -118.05 19.65 -118.05 L21.3 -118.05 16.4 -124.0 19.3 -126.5 17.1 -126.6 15.05 -126.4 15.45 -126.6 14.85 -126.35 15.0 -126.4 14.6 -126.2" fill="#940000" fill-rule="evenodd" stroke="none"/>
    <path d="M-7.55 -58.85 Q-8.95 -57.75 -8.95 -56.95 -8.95 -55.1 -7.45 -52.8 -5.8 -50.2 -5.55 -48.6 -3.25 -50.15 -3.25 -53.85 -3.25 -55.35 -4.9 -56.55 -7.1 -58.15 -7.55 -58.85" fill="#940000" fill-rule="evenodd" stroke="none"/>
    <path d="M-3.55 -15.45 Q1.55 -15.45 3.05 -23.75 -0.3 -21.5 -3.3 -20.65 -6.25 -19.75 -10.35 -19.75 L-7.1 -17.05 Q-5.35 -15.45 -3.55 -15.45" fill="#940000" fill-rule="evenodd" stroke="none"/>
    <path d="M3.2 -130.05 L7.6 -133.45 Q5.75 -133.45 3.35 -135.2 0.85 -137.05 -0.95 -137.15 L-0.7 -139.8 Q-1.55 -138.15 -3.75 -138.0 L-4.1 -139.3 -3.55 -140.25 -2.95 -141.15 Q-7.3 -141.15 -10.1 -136.9 -8.85 -136.8 -7.5 -137.45 L-6.4 -136.6 Q-8.65 -134.75 -8.65 -133.05 -8.65 -130.6 -6.95 -130.6 -5.75 -130.6 -4.4 -132.45 -3.05 -134.3 -1.8 -134.3 -0.5 -134.3 0.7 -132.35 2.0 -130.3 3.2 -130.05" fill="#ffffde" fill-rule="evenodd" stroke="none"/>
    <path d="M13.9 -136.5 L13.35 -135.25 Q14.95 -134.1 17.2 -134.1 L19.15 -134.1 Q20.15 -134.2 20.15 -134.95 20.2 -135.95 18.95 -136.25 L13.9 -136.5" fill="#ffffde" fill-rule="evenodd" stroke="none"/>
    <path d="M5.1 -121.75 Q-1.1 -120.6 -3.25 -115.75 -2.0 -115.05 -0.4 -112.9 3.4 -116.6 7.55 -116.6 9.5 -116.6 12.45 -114.6 L11.55 -115.85 Q11.05 -116.55 11.05 -117.25 L11.05 -118.85 14.75 -118.85 Q11.3 -122.85 5.1 -121.75" fill="#ffffde" fill-rule="evenodd" stroke="none"/>
    <path d="M-12.95 -105.45 L-14.1 -103.5 -14.1 -101.8 -11.55 -101.8 Q-10.1 -102.9 -10.1 -103.65 -10.1 -104.3 -11.25 -104.7 -12.75 -105.25 -12.95 -105.45" fill="#ffffde" fill-rule="evenodd" stroke="none"/>
    <path d="M-13.8 -115.75 L-16.95 -115.5 -16.95 -113.75 Q-16.2 -112.3 -14.95 -112.3 -13.15 -112.3 -13.8 -115.75" fill="#ffffde" fill-rule="evenodd" stroke="none"/>
    <path d="M-25.55 -135.45 Q-28.65 -134.8 -28.65 -130.6 -28.65 -129.75 -27.4 -129.75 -26.05 -129.75 -25.7 -131.8 -25.55 -132.6 -25.55 -135.45" fill="#ffffde" fill-rule="evenodd" stroke="none"/>
    <path d="M7.45 -80.35 Q8.45 -81.65 10.0 -81.75 9.1 -82.95 7.3 -84.25 5.3 -85.6 4.45 -86.6 4.05 -87.1 2.75 -89.75 1.9 -91.55 0.45 -91.95 -1.4 -92.4 -3.25 -91.2 L-6.65 -88.6 -11.0 -85.8 Q-13.15 -84.25 -14.1 -82.05 -13.4 -82.1 -12.35 -82.7 L-10.6 -83.2 -8.4 -83.2 -8.4 -80.55 Q-8.4 -79.75 -9.5 -78.75 -10.65 -77.75 -10.65 -76.9 -10.65 -75.2 -9.25 -71.75 -8.55 -72.45 -7.0 -75.0 -5.9 -76.8 -4.4 -77.45 -3.85 -76.0 -3.25 -72.7 -2.75 -69.9 -1.8 -68.05 -0.4 -68.9 0.1 -71.15 0.75 -74.05 1.3 -74.9 L6.15 -65.5 Q7.6 -66.5 7.6 -68.5 7.6 -70.3 7.05 -73.0 6.45 -75.7 6.45 -77.45 6.45 -79.1 7.45 -80.35" fill="#ffffde" fill-rule="evenodd" stroke="none"/>
    <path d="M-10.1 -94.6 L-12.65 -95.1 Q-15.5 -95.1 -16.85 -91.65 L-17.9 -88.45 Q-18.6 -86.35 -19.25 -85.15 -18.2 -85.95 -17.25 -87.5 L-15.5 -90.0 -12.55 -92.1 Q-10.85 -93.1 -10.1 -94.6" fill="#ffffde" fill-rule="evenodd" stroke="none"/>
    <path d="M-22.95 -81.45 L-23.85 -79.7 -24.3 -77.85 -24.3 -76.0 -23.05 -75.75 Q-21.95 -75.75 -21.2 -76.45 -20.4 -77.2 -20.4 -78.25 -20.4 -80.35 -22.95 -81.45" fill="#ffffde" fill-rule="evenodd" stroke="none"/>
    <path d="M19.9 -86.3 Q21.6 -84.25 22.85 -80.9 24.35 -76.8 25.3 -75.2 27.0 -76.8 27.0 -78.15 27.0 -81.15 24.9 -83.4 22.95 -85.55 19.9 -86.3" fill="#ffffde" fill-rule="evenodd" stroke="none"/>
    <path d="M1.05 -52.9 L-0.4 -49.8 -1.75 -46.6 -0.45 -46.05 Q1.0 -46.05 1.9 -47.4 2.75 -48.65 2.75 -50.3 2.75 -50.75 2.05 -51.65 L1.05 -52.9" fill="#ffffde" fill-rule="evenodd" stroke="none"/>
    <path d="M0.6 -31.35 Q-1.25 -30.65 -2.65 -30.65 -3.75 -30.65 -4.6 -31.45 -5.3 -32.1 -5.45 -33.1 -6.55 -31.25 -8.95 -31.25 -10.5 -31.25 -12.05 -32.1 L-14.95 -33.7 -15.25 -33.05 -15.5 -32.35 Q-15.5 -27.75 -7.1 -27.75 -4.3 -27.75 -1.8 -28.8 -0.6 -29.3 3.05 -31.45 L3.9 -32.25 Q2.7 -32.1 0.6 -31.35 M-5.45 -33.1 L-4.95 -34.3 -5.5 -33.35 -5.45 -33.1" fill="#ffffde" fill-rule="evenodd" stroke="none"/>
  </g>
</svg>
