<?xml version="1.0" encoding="UTF-8" standalone="no"?>
<svg xmlns:xlink="http://www.w3.org/1999/xlink" height="153.2px" width="64.8px" xmlns="http://www.w3.org/2000/svg">
  <g transform="matrix(1.0, 0.0, 0.0, 1.0, 32.95, 152.65)">
    <path d="M1.05 -152.65 Q-4.8 -152.65 -9.75 -150.5 -13.25 -148.95 -19.4 -144.6 -20.3 -144.0 -22.1 -143.95 L-24.95 -143.5 Q-32.95 -139.55 -32.95 -130.85 -32.95 -127.95 -31.05 -125.0 L-27.65 -119.45 Q-29.9 -118.0 -30.5 -115.15 -30.85 -113.7 -30.85 -109.5 -30.85 -106.45 -29.4 -103.95 -28.5 -102.4 -25.7 -99.3 -29.6 -93.55 -30.75 -91.05 -32.7 -86.8 -32.7 -81.9 -32.7 -78.35 -30.55 -74.75 L-28.5 -71.6 -26.45 -68.05 Q-25.3 -65.8 -25.1 -62.65 L-24.6 -56.95 Q-24.0 -54.05 -21.15 -47.25 -18.95 -41.9 -18.95 -37.45 L-18.95 -33.75 Q-18.95 -24.05 -14.65 -17.1 -9.75 -9.25 -1.55 -9.25 7.75 -9.25 11.8 -16.0 13.6 -19.0 14.3 -23.0 L15.6 -30.5 Q16.35 -33.3 17.7 -36.45 L20.05 -41.65 Q22.75 -47.75 22.75 -53.0 L22.4 -56.65 21.75 -60.25 Q23.1 -59.95 25.35 -58.15 25.45 -60.05 23.85 -62.0 L26.05 -62.25 26.05 -63.7 Q23.85 -65.65 23.85 -69.2 23.85 -72.05 25.1 -74.85 L27.85 -79.5 30.6 -84.1 Q31.85 -86.9 31.85 -89.75 L31.85 -95.2 Q31.85 -98.95 29.9 -102.15 L25.1 -108.05 Q28.3 -110.15 28.3 -115.35 L27.8 -117.95 Q27.3 -119.55 27.3 -120.55 27.3 -122.4 28.55 -125.1 29.75 -127.8 29.75 -129.6 29.75 -135.85 26.85 -140.35 23.6 -145.4 18.2 -145.4 16.7 -145.4 13.8 -143.95 11.1 -148.2 8.5 -150.2 5.25 -152.65 1.05 -152.65" fill="#b52910" fill-rule="evenodd" stroke="none"/>
    <path d="M27.3 -130.2 Q27.3 -135.45 25.7 -138.85 23.75 -143.15 19.75 -143.15 L15.85 -142.55 11.95 -141.95 Q10.9 -141.95 10.15 -143.15 L8.6 -145.15 3.7 -148.3 Q1.15 -149.45 -1.9 -149.45 -5.05 -149.45 -7.5 -148.55 -9.7 -147.7 -12.4 -145.65 L-14.9 -142.75 Q-16.25 -141.05 -17.9 -141.05 L-22.8 -141.05 Q-28.4 -141.05 -28.4 -130.0 -28.4 -127.2 -25.75 -123.35 -23.1 -119.45 -23.1 -116.65 -23.1 -114.95 -25.3 -113.0 -27.55 -111.05 -27.55 -109.4 -27.55 -107.05 -24.7 -104.0 -21.85 -100.95 -21.85 -98.55 -21.85 -97.45 -23.4 -96.75 L-25.8 -95.25 Q-28.1 -92.35 -29.0 -89.5 -29.85 -86.8 -29.85 -82.95 -29.85 -77.6 -26.8 -73.0 L-24.4 -70.25 Q-23.1 -68.75 -23.1 -67.15 L-23.1 -62.8 Q-23.1 -59.4 -21.05 -54.3 -19.05 -49.2 -19.05 -45.8 L-19.05 -41.15 Q-19.05 -31.9 -13.3 -24.85 -7.25 -17.4 1.35 -17.4 4.95 -17.4 7.25 -19.9 9.1 -21.9 10.5 -26.05 L12.75 -33.85 Q14.15 -38.75 15.65 -41.45 12.55 -37.85 8.0 -37.0 L12.4 -40.4 16.5 -43.55 Q20.65 -47.25 20.65 -52.0 20.65 -54.1 19.65 -57.25 18.6 -60.4 18.6 -62.45 18.6 -63.6 19.1 -65.35 L19.55 -68.2 19.2 -69.85 Q18.85 -70.85 18.85 -71.5 18.85 -72.95 20.35 -74.05 L23.15 -76.05 Q26.85 -79.75 28.4 -82.85 30.15 -86.4 30.15 -91.0 30.15 -97.1 26.75 -101.5 23.45 -105.8 17.35 -107.8 18.2 -109.15 19.7 -110.65 L22.15 -113.0 Q24.85 -115.7 24.85 -118.75 L24.5 -119.75 23.85 -120.7 Q26.05 -122.15 26.8 -124.8 27.3 -126.6 27.3 -130.2" fill="#ffde29" fill-rule="evenodd" stroke="none"/>
    <path d="M-7.9 -146.05 Q-7.9 -147.7 -4.2 -149.95 -14.2 -149.35 -17.6 -139.0 L-16.85 -138.4 Q-15.8 -139.75 -14.9 -139.75 -13.6 -139.75 -12.35 -138.5 L-10.4 -135.9 -8.65 -133.8 Q-7.65 -133.1 -6.65 -134.0 -7.05 -135.95 -9.45 -138.05 -11.95 -140.2 -12.45 -141.95 -8.9 -143.3 -7.15 -143.45 L-7.9 -146.05" fill="#ce8421" fill-rule="evenodd" stroke="none"/>
    <path d="M20.45 -143.45 Q19.2 -143.45 17.3 -142.5 15.45 -141.5 14.15 -141.5 13.15 -141.5 12.5 -142.65 L11.3 -144.7 Q7.9 -148.25 1.35 -147.25 L2.35 -147.25 Q4.45 -146.85 5.95 -145.5 7.15 -144.45 8.6 -142.2 7.3 -142.2 6.0 -141.6 L3.5 -140.35 5.65 -140.35 7.75 -140.5 Q10.15 -140.5 12.15 -139.2 13.65 -138.25 15.6 -135.95 15.6 -137.1 16.45 -137.95 17.3 -138.8 18.45 -138.8 21.1 -138.8 22.8 -136.45 24.35 -134.3 24.35 -131.35 L24.35 -126.65 Q24.35 -124.0 20.4 -122.8 L19.55 -122.4 Q23.15 -121.45 24.1 -121.45 28.65 -121.45 28.65 -130.5 28.65 -135.65 26.8 -139.2 24.6 -143.45 20.45 -143.45" fill="#ce8421" fill-rule="evenodd" stroke="none"/>
    <path d="M9.6 -126.45 L12.75 -123.7 Q14.45 -122.15 16.25 -122.15 L16.25 -118.75 Q16.25 -115.0 12.95 -112.45 L13.95 -110.85 14.4 -109.1 Q14.4 -108.0 13.3 -107.35 12.35 -106.8 11.05 -106.8 7.8 -106.8 6.9 -110.7 5.3 -109.5 1.7 -109.5 -1.45 -109.5 -4.65 -110.85 L-10.8 -113.65 Q-9.6 -110.15 -5.85 -108.8 L1.85 -107.3 Q2.75 -107.15 5.8 -107.35 7.95 -107.45 9.35 -106.55 L10.9 -105.35 Q11.7 -104.7 12.55 -104.7 14.8 -104.7 15.1 -107.85 L15.25 -110.75 15.65 -113.65 17.05 -117.1 Q17.8 -119.0 17.6 -120.7 L24.35 -123.0 21.95 -122.85 Q16.7 -122.85 14.4 -129.9 13.3 -128.15 12.45 -125.45 10.6 -128.5 6.95 -129.4 L-0.45 -129.9 Q-5.4 -129.9 -8.9 -127.7 -12.9 -125.2 -12.9 -121.0 L-12.9 -118.7 Q-9.85 -123.7 -7.45 -125.75 -4.15 -128.65 0.25 -128.65 L5.15 -128.35 Q7.5 -127.9 9.6 -126.45" fill="#ce8421" fill-rule="evenodd" stroke="none"/>
    <path d="M24.85 -120.65 Q25.8 -116.85 25.8 -115.9 25.8 -114.0 24.35 -111.8 22.55 -109.1 22.2 -107.75 24.7 -108.3 26.2 -109.75 27.8 -111.35 27.8 -113.6 27.8 -117.75 24.85 -120.65" fill="#ce8421" fill-rule="evenodd" stroke="none"/>
    <path d="M27.95 -101.8 Q25.1 -105.3 20.85 -105.3 L14.65 -105.3 Q16.35 -104.1 22.15 -101.45 26.35 -99.55 28.65 -96.7 29.55 -95.55 29.85 -93.75 L30.55 -90.55 30.65 -93.9 Q30.65 -98.45 27.95 -101.8" fill="#ce5a18" fill-rule="evenodd" stroke="none"/>
    <path d="M-13.15 -133.7 L-13.3 -130.35 Q-13.4 -128.55 -14.4 -127.45 -16.55 -125.2 -19.65 -124.85 L-25.95 -125.25 Q-24.8 -124.05 -23.25 -123.7 L-20.0 -123.5 Q-16.45 -123.5 -14.0 -124.8 -11.1 -126.3 -11.1 -129.15 -11.1 -131.35 -13.15 -133.7" fill="#ce8421" fill-rule="evenodd" stroke="none"/>
    <path d="M-19.25 -140.5 L-18.85 -142.7 -19.5 -140.75 -20.0 -138.75 Q-20.45 -137.5 -22.45 -137.25 -25.05 -136.95 -25.85 -136.45 -29.65 -133.9 -29.65 -129.9 L-28.9 -127.7 Q-27.85 -128.5 -26.5 -130.25 L-24.1 -132.75 -21.0 -134.0 Q-19.25 -134.7 -19.25 -136.0 L-19.25 -140.5" fill="#ce8421" fill-rule="evenodd" stroke="none"/>
    <path d="M-21.9 -117.5 L-23.4 -117.9 Q-23.6 -119.0 -24.8 -120.25 L-27.0 -122.65 -24.95 -119.3 Q-24.25 -118.3 -23.4 -117.9 L-23.4 -117.5 Q-23.4 -116.45 -24.65 -115.75 L-26.9 -114.4 Q-29.4 -112.1 -29.4 -107.4 -29.4 -103.8 -25.9 -100.7 L-22.75 -98.05 -21.65 -97.0 Q-22.15 -97.8 -22.15 -98.6 -22.15 -100.25 -21.0 -101.65 L-18.6 -104.2 -16.45 -102.95 Q-15.3 -102.4 -14.15 -102.5 -17.85 -104.45 -17.85 -107.35 L-17.85 -109.25 -19.55 -108.1 Q-20.5 -107.5 -21.4 -107.5 -22.45 -107.5 -23.2 -108.4 -23.9 -109.25 -23.9 -110.35 -23.9 -112.7 -21.8 -114.3 -19.85 -115.75 -17.25 -115.75 -12.9 -115.75 -9.85 -112.05 -12.4 -119.95 -17.25 -119.95 -18.25 -119.95 -19.55 -118.75 -20.9 -117.5 -21.9 -117.5" fill="#ce8421" fill-rule="evenodd" stroke="none"/>
    <path d="M-12.7 -102.55 Q-10.35 -105.65 -9.85 -107.25 L-13.8 -102.85 Q-15.85 -100.5 -15.85 -97.85 L-15.85 -92.05 Q-15.85 -88.95 -17.8 -85.8 L-21.4 -79.95 Q-21.85 -79.05 -22.35 -75.85 -22.7 -73.5 -24.1 -72.45 -26.0 -75.3 -26.4 -80.1 -26.9 -85.6 -28.05 -88.2 -29.15 -86.8 -29.4 -83.45 -29.45 -82.55 -29.65 -81.75 L-29.65 -81.8 Q-30.6 -80.6 -31.1 -78.85 -30.1 -79.85 -29.65 -81.75 -29.65 -72.85 -21.4 -68.3 -20.6 -69.4 -20.6 -71.3 L-20.4 -74.55 Q-20.2 -75.45 -19.4 -76.35 L-18.1 -78.0 Q-17.55 -79.0 -17.7 -80.6 -17.85 -82.45 -17.6 -83.3 -17.15 -84.65 -16.1 -86.3 L-14.4 -89.2 -14.4 -87.05 Q-14.4 -86.45 -14.75 -85.55 L-15.15 -84.0 Q-15.15 -81.35 -13.7 -78.9 L-10.6 -74.2 -10.6 -81.75 Q-10.6 -83.45 -9.85 -85.5 -8.9 -88.2 -8.7 -89.2 -7.05 -86.95 -4.95 -85.15 L-3.8 -83.8 Q-2.25 -82.4 1.1 -80.95 L-4.25 -84.55 -4.95 -85.15 Q-5.95 -86.65 -5.95 -88.45 -5.95 -90.0 -5.0 -91.55 L-3.35 -94.45 -5.75 -93.25 Q-7.0 -92.75 -8.3 -92.75 -10.8 -92.75 -12.65 -94.05 -14.65 -95.45 -14.65 -97.65 -14.65 -100.0 -12.7 -102.55" fill="#ce8421" fill-rule="evenodd" stroke="none"/>
    <path d="M-19.55 -94.95 Q-19.85 -95.75 -20.6 -96.45 -21.4 -97.15 -22.15 -97.15 -24.65 -97.15 -26.5 -95.55 -28.4 -93.9 -28.4 -91.5 -28.4 -90.15 -26.8 -89.15 -25.5 -95.85 -21.55 -95.85 -20.95 -95.85 -19.55 -94.95" fill="#ce5a18" fill-rule="evenodd" stroke="none"/>
    <path d="M0.7 -75.2 Q0.35 -73.15 -1.1 -71.7 L-2.75 -70.8 Q-3.8 -70.35 -3.8 -69.6 L-3.45 -67.7 Q-3.1 -66.55 -3.05 -65.8 L-5.35 -66.05 -7.6 -65.8 Q-6.45 -63.95 -4.5 -61.95 L-1.25 -58.8 Q2.35 -55.1 2.35 -51.05 2.95 -51.75 5.5 -53.65 7.3 -55.05 7.95 -56.7 8.6 -58.35 8.15 -60.75 7.6 -63.7 7.7 -64.95 8.0 -68.05 10.15 -70.1 12.3 -72.2 15.4 -72.2 L15.95 -72.15 18.9 -81.0 Q20.65 -85.95 20.65 -90.3 20.65 -99.7 13.9 -101.2 16.1 -98.4 16.95 -95.85 17.85 -93.25 17.85 -89.7 17.85 -86.2 17.55 -84.75 17.1 -82.4 15.4 -80.6 13.9 -79.05 10.4 -78.25 6.85 -77.45 5.4 -76.0 4.5 -75.05 3.95 -73.05 3.3 -70.9 2.6 -69.95 L2.6 -75.55 Q2.6 -78.65 0.85 -79.4 L0.7 -75.2 M15.95 -72.15 L15.85 -71.7 Q16.7 -71.2 17.35 -71.2 16.65 -71.9 15.95 -72.15" fill="#ce8421" fill-rule="evenodd" stroke="none"/>
    <path d="M23.65 -75.85 L20.2 -71.0 Q21.95 -71.0 23.4 -72.25 L25.8 -75.05 Q28.45 -78.2 29.6 -80.7 30.9 -83.65 30.9 -87.35 30.9 -96.2 23.65 -100.25 24.0 -98.35 26.25 -95.35 28.2 -92.7 28.2 -90.45 28.2 -89.3 27.25 -88.05 L25.8 -85.75 Q25.45 -84.85 25.65 -83.55 L25.8 -81.2 Q25.35 -78.4 23.65 -75.85" fill="#ce8421" fill-rule="evenodd" stroke="none"/>
    <path d="M-22.55 -54.4 Q-21.7 -52.7 -19.3 -49.7 L-18.75 -52.7 Q-18.35 -54.4 -18.35 -55.7 L-15.45 -52.05 Q-14.0 -49.9 -12.05 -49.9 -10.5 -49.9 -9.5 -51.4 -8.6 -52.75 -8.6 -54.55 L-8.6 -61.15 -8.25 -63.25 Q-7.9 -64.5 -7.9 -65.3 -7.9 -67.25 -10.05 -69.2 L-13.65 -72.65 Q-15.05 -72.55 -16.05 -71.85 -17.1 -71.0 -17.1 -69.8 -17.1 -68.95 -16.4 -68.15 L-15.15 -66.75 -14.6 -68.3 Q-14.2 -69.05 -13.5 -69.05 -11.1 -69.05 -11.1 -65.55 -11.1 -64.2 -12.2 -63.3 -13.2 -62.45 -14.65 -62.45 -16.65 -62.45 -17.85 -64.75 L-18.85 -66.9 -20.05 -69.05 Q-23.85 -66.0 -23.85 -59.8 -23.85 -56.9 -22.55 -54.4" fill="#ce8421" fill-rule="evenodd" stroke="none"/>
    <path d="M16.6 -52.95 L15.6 -53.2 Q13.75 -51.1 11.2 -47.35 L7.25 -41.8 Q2.55 -36.0 -3.65 -36.0 -9.3 -36.0 -13.35 -38.9 -17.7 -42.05 -18.15 -47.2 L-18.7 -42.85 -19.1 -38.45 Q-19.1 -29.35 -13.05 -23.3 -7.0 -17.2 2.05 -17.2 6.9 -17.2 9.9 -21.6 12.65 -25.6 12.65 -31.15 L12.65 -39.25 Q12.65 -40.8 13.7 -42.1 L16.0 -44.2 18.25 -46.3 Q19.3 -47.6 19.3 -49.15 L18.8 -48.35 12.15 -43.25 Q12.8 -45.25 14.4 -48.1 15.95 -51.0 16.6 -52.95" fill="#ce8421" fill-rule="evenodd" stroke="none"/>
    <path d="M27.05 -51.0 L27.3 -52.05 Q27.3 -53.2 25.45 -54.45 L25.45 -51.25 27.05 -51.0" fill="#b52910" fill-rule="evenodd" stroke="none"/>
    <path d="M26.1 -46.25 L26.1 -44.0 28.4 -44.0 28.4 -46.25 Q27.0 -46.85 26.1 -46.25" fill="#b52910" fill-rule="evenodd" stroke="none"/>
    <path d="M20.5 -36.85 Q20.5 -36.45 21.35 -35.25 22.9 -36.3 22.9 -37.1 L22.9 -38.75 Q21.95 -38.85 21.25 -38.3 20.5 -37.75 20.5 -36.85" fill="#b52910" fill-rule="evenodd" stroke="none"/>
    <path d="M20.2 -26.75 L18.85 -25.65 19.25 -25.1 19.75 -24.7 21.9 -25.4 21.65 -26.95 20.2 -26.75" fill="#000000" fill-rule="evenodd" stroke="none"/>
    <path d="M29.9 -63.7 Q29.95 -63.05 30.6 -62.35 31.3 -61.6 31.8 -61.8 31.3 -62.9 29.9 -63.7" fill="#b52910" fill-rule="evenodd" stroke="none"/>
    <path d="M2.75 -109.75 Q-0.05 -109.75 -2.15 -111.1 -3.95 -112.25 -5.9 -114.8 L-6.75 -117.2 Q-7.05 -118.7 -7.9 -119.2 -8.35 -119.5 -9.35 -119.2 -10.4 -118.95 -10.9 -119.2 -12.3 -120.05 -12.9 -121.55 L-12.9 -121.3 Q-12.9 -120.75 -13.3 -120.0 L-13.9 -118.7 -10.0 -117.15 Q-8.15 -116.0 -8.15 -114.1 -8.15 -112.7 -9.85 -111.8 -12.25 -110.55 -12.7 -110.0 -13.6 -108.9 -13.8 -107.0 L-14.15 -103.6 -13.4 -103.0 Q-12.25 -106.55 -11.1 -108.15 -9.4 -110.5 -6.75 -110.5 -2.1 -110.5 2.1 -107.7 L5.8 -104.8 9.85 -101.5 8.95 -104.35 7.85 -107.05 7.75 -109.3 Q7.7 -110.5 6.85 -110.5 L4.8 -110.15 2.75 -109.75 M-11.8 -131.0 Q-11.8 -125.45 -18.6 -122.4 L-16.75 -122.85 -14.9 -123.25 Q-14.05 -123.25 -13.5 -122.7 L-13.15 -122.3 -13.4 -124.25 Q-13.4 -125.4 -12.4 -127.05 -11.4 -128.65 -11.4 -129.8 L-11.55 -130.45 -11.8 -131.0" fill="#940000" fill-rule="evenodd" stroke="none"/>
    <path d="M16.85 -122.75 L16.45 -121.15 Q18.35 -120.2 20.0 -120.2 22.2 -120.2 24.1 -123.2 L20.35 -122.15 Q18.3 -121.75 16.85 -122.75" fill="#940000" fill-rule="evenodd" stroke="none"/>
    <path d="M-19.8 -82.8 Q-20.8 -81.15 -21.4 -78.25 -21.95 -75.3 -22.9 -73.7 L-24.4 -72.2 Q-25.35 -71.45 -25.35 -70.55 L-25.35 -69.0 Q-23.2 -70.5 -21.9 -73.25 L-19.55 -78.45 -15.75 -83.5 Q-13.65 -86.2 -13.65 -89.0 L-14.15 -95.45 Q-14.15 -96.15 -14.25 -94.95 L-14.35 -93.05 -14.6 -88.45 Q-14.75 -86.75 -16.7 -85.45 -19.2 -83.8 -19.8 -82.8" fill="#940000" fill-rule="evenodd" stroke="none"/>
    <path d="M3.35 -76.0 Q4.5 -73.15 2.35 -70.0 L0.15 -67.25 -2.1 -64.3 1.5 -63.1 Q3.35 -62.3 3.35 -60.75 3.35 -59.7 2.25 -58.25 1.1 -56.8 1.1 -55.7 1.1 -55.4 1.4 -55.15 L1.85 -54.7 Q3.2 -55.55 5.65 -58.15 L8.0 -59.75 Q9.35 -60.6 9.35 -61.75 9.35 -63.5 6.75 -64.25 3.15 -65.25 2.35 -65.9 2.75 -66.6 5.25 -69.15 6.9 -70.85 6.9 -72.65 6.9 -73.6 6.05 -74.35 L3.35 -76.0" fill="#940000" fill-rule="evenodd" stroke="none"/>
    <path d="M-9.1 -62.7 L-10.05 -62.85 -11.15 -62.7 Q-12.95 -62.7 -14.25 -61.7 -15.65 -60.6 -15.65 -58.95 -15.65 -57.15 -14.5 -55.8 -13.35 -54.45 -11.65 -54.45 -9.45 -54.45 -9.1 -57.3 L-9.1 -62.7" fill="#940000" fill-rule="evenodd" stroke="none"/>
    <path d="M-14.2 -68.0 L-14.4 -68.75 Q-13.15 -71.6 -10.95 -71.6 L-10.0 -71.35 -9.1 -70.9 Q-9.3 -72.6 -10.75 -73.6 -12.15 -74.5 -14.05 -74.5 -15.1 -74.5 -15.75 -73.45 -16.3 -72.55 -16.3 -71.25 -16.3 -69.55 -14.2 -68.0" fill="#940000" fill-rule="evenodd" stroke="none"/>
    <path d="M21.4 -75.25 Q17.45 -72.25 15.15 -69.05 13.0 -66.0 11.1 -61.15 12.9 -62.5 14.55 -65.45 16.3 -68.65 17.85 -70.0 L21.7 -72.75 25.45 -75.25 Q29.4 -78.2 29.4 -82.2 29.4 -86.2 27.3 -86.2 26.55 -86.2 26.4 -85.05 L26.1 -83.0 24.3 -78.75 Q23.2 -76.65 21.4 -75.25" fill="#940000" fill-rule="evenodd" stroke="none"/>
    <path d="M3.65 -50.3 Q1.2 -49.5 -0.85 -47.45 L2.05 -47.45 Q3.9 -47.45 6.6 -48.45 9.3 -49.4 11.1 -49.4 12.15 -49.4 12.7 -47.35 L17.8 -52.2 Q20.3 -54.85 20.7 -58.15 18.8 -50.4 13.2 -50.4 L11.1 -50.7 9.0 -51.0 Q5.75 -51.0 3.65 -50.3" fill="#940000" fill-rule="evenodd" stroke="none"/>
    <path d="M12.9 -39.2 L16.7 -41.0 Q18.85 -41.95 18.85 -43.65 L18.55 -44.1 18.1 -44.5 Q16.05 -42.3 11.5 -39.3 7.35 -36.6 5.2 -33.9 7.4 -34.15 9.35 -35.85 L12.9 -39.2" fill="#940000" fill-rule="evenodd" stroke="none"/>
    <path d="M2.6 -24.75 L-1.35 -24.45 Q-4.4 -24.45 -6.7 -25.2 -8.8 -25.9 -11.55 -27.7 -11.25 -24.6 -8.4 -22.85 -5.85 -21.25 -2.25 -21.25 4.55 -21.25 5.65 -26.75 4.5 -25.25 2.6 -24.75" fill="#940000" fill-rule="evenodd" stroke="none"/>
    <path d="M2.6 -139.5 Q6.1 -142.2 8.85 -142.2 11.6 -142.2 14.65 -139.05 L15.1 -138.15 15.35 -139.45 Q15.35 -141.65 13.5 -143.2 11.7 -144.65 9.35 -144.65 7.1 -144.65 5.15 -143.15 3.2 -141.7 2.6 -139.5" fill="#940000" fill-rule="evenodd" stroke="none"/>
    <path d="M-23.3 -134.35 Q-26.1 -132.15 -26.1 -129.25 L-25.85 -126.95 Q-23.35 -134.4 -14.7 -135.2 -15.55 -137.6 -15.55 -140.85 -15.55 -142.4 -14.9 -143.7 L-16.15 -140.75 Q-16.75 -139.0 -17.8 -138.15 L-23.3 -134.35" fill="#940000" fill-rule="evenodd" stroke="none"/>
    <path d="M-21.9 -117.45 Q-25.25 -117.0 -27.4 -114.8 -29.65 -112.55 -29.65 -109.35 -29.65 -106.95 -28.5 -104.8 L-25.8 -100.75 -26.2 -104.3 -26.6 -107.8 Q-26.6 -113.4 -21.9 -117.45" fill="#940000" fill-rule="evenodd" stroke="none"/>
    <path d="M-11.05 -101.6 Q-11.05 -99.0 -5.8 -99.0 -3.0 -99.0 -0.95 -100.75 1.0 -102.35 1.85 -105.15 0.2 -105.85 -1.7 -105.85 L-7.85 -105.25 Q-11.05 -104.25 -11.05 -101.6" fill="#ffffde" fill-rule="evenodd" stroke="none"/>
    <path d="M1.55 -115.0 L2.6 -115.25 1.7 -117.5 Q1.1 -118.7 1.1 -119.7 1.1 -125.75 4.45 -125.95 1.85 -126.85 -0.45 -124.45 -2.6 -122.2 -2.6 -119.2 -2.6 -117.5 -1.4 -116.25 -0.15 -115.0 1.55 -115.0" fill="#ffffde" fill-rule="evenodd" stroke="none"/>
    <path d="M22.9 -97.15 L23.65 -92.6 Q24.0 -90.05 24.8 -88.2 26.35 -88.75 26.35 -90.1 26.35 -96.2 22.9 -97.15" fill="#ffffde" fill-rule="evenodd" stroke="none"/>
    <path d="M10.1 -98.15 Q4.8 -97.0 2.15 -95.3 -1.6 -92.95 -1.6 -89.05 -1.6 -87.95 -0.1 -86.45 0.75 -87.3 1.35 -88.85 L2.6 -91.5 4.2 -86.95 4.9 -86.2 Q4.9 -90.25 7.2 -91.5 L8.9 -91.25 Q8.25 -94.45 10.1 -98.15" fill="#ffffde" fill-rule="evenodd" stroke="none"/>
    <path d="M-11.1 -47.6 Q-10.4 -44.55 -7.5 -44.55 -6.2 -44.55 -6.2 -45.65 -6.2 -46.95 -7.9 -47.35 L-11.1 -47.6" fill="#ffffde" fill-rule="evenodd" stroke="none"/>
    <path d="M2.85 -45.9 Q1.25 -45.9 -0.55 -45.05 0.05 -44.0 0.5 -44.0 2.05 -44.0 2.85 -45.9" fill="#ffffde" fill-rule="evenodd" stroke="none"/>
    <path d="M-1.6 -51.25 Q-1.6 -52.15 -2.9 -52.1 -4.15 -52.05 -4.7 -51.25 L-3.4 -50.15 -1.85 -50.15 -1.6 -51.25" fill="#ffffde" fill-rule="evenodd" stroke="none"/>
    <path d="M-6.4 -134.75 L-6.65 -133.55 -4.75 -133.8 -2.85 -134.5 -6.4 -134.75" fill="#ffffde" fill-rule="evenodd" stroke="none"/>
    <path d="M15.45 -36.0 L18.6 -44.0 Q15.55 -41.8 13.35 -39.35 L9.1 -33.65 10.15 -34.5 Q10.75 -35.0 11.35 -35.0 13.3 -35.0 13.6 -32.5 L13.45 -28.2 Q13.95 -32.05 15.45 -36.0" fill="#312110" fill-rule="evenodd" stroke="none"/>
    <path d="M15.8 -24.95 Q14.7 -23.95 13.65 -23.95 12.95 -23.95 12.35 -24.75 L11.3 -26.15 Q11.4 -24.45 12.3 -21.55 13.15 -18.85 13.15 -16.9 L16.35 -20.3 Q17.85 -22.1 17.85 -24.25 L17.85 -26.5 15.8 -24.95" fill="#312110" fill-rule="evenodd" stroke="none"/>
    <path d="M11.4 -15.7 Q10.25 -15.05 7.55 -14.25 5.2 -13.65 3.9 -12.5 L1.9 -9.9 Q0.9 -8.3 -0.5 -7.95 L-0.5 -13.25 -1.75 -10.8 Q-2.6 -9.65 -3.85 -9.65 -4.65 -9.65 -4.9 -10.95 -5.2 -12.6 -5.65 -13.0 -7.45 -14.45 -9.8 -17.7 -12.2 -21.0 -13.9 -22.45 L-15.1 -23.7 -19.55 -23.6 Q-17.05 -23.6 -15.25 -21.4 -14.6 -20.65 -12.45 -16.7 -13.65 -16.2 -14.05 -16.2 L-15.65 -16.6 -17.3 -16.9 Q-16.75 -15.95 -15.4 -14.95 L-13.4 -13.0 Q-11.9 -10.7 -11.5 -7.2 -10.9 -2.6 -10.35 -0.95 L-10.35 -5.65 Q-10.35 -6.4 -9.8 -6.95 -9.25 -7.45 -8.5 -7.45 -7.35 -7.45 -6.75 -6.3 -6.35 -5.6 -5.95 -3.7 L-5.2 -1.1 Q-4.6 0.05 -3.45 0.05 -2.2 0.05 -1.35 -1.0 -0.85 -1.65 -0.1 -3.35 L1.1 -5.65 Q1.95 -6.7 3.2 -6.7 4.25 -6.7 4.9 -4.75 L6.6 -6.45 6.6 0.3 7.6 0.55 Q8.15 -1.15 7.85 -4.9 7.65 -8.0 8.85 -9.9 L10.45 -11.25 Q11.4 -11.95 11.4 -12.8 L11.4 -15.7" fill="#312110" fill-rule="evenodd" stroke="none"/>
  </g>
</svg>
