<?xml version="1.0" encoding="UTF-8" standalone="no"?>
<svg xmlns:xlink="http://www.w3.org/1999/xlink" height="156.95px" width="63.45px" xmlns="http://www.w3.org/2000/svg">
  <g transform="matrix(1.0, 0.0, 0.0, 1.0, 34.25, 156.5)">
    <path d="M14.05 -149.7 Q12.9 -151.65 10.8 -152.0 L7.8 -151.75 Q6.1 -151.45 5.05 -152.05 L-0.35 -155.2 Q-3.2 -156.6 -6.2 -156.5 L-10.15 -156.35 Q-12.1 -156.05 -13.25 -154.65 L-14.4 -152.1 Q-14.95 -150.6 -16.0 -150.15 L-22.05 -147.65 Q-25.7 -146.2 -27.65 -145.0 -33.35 -141.6 -33.15 -136.1 -33.1 -134.85 -31.6 -133.2 -30.15 -131.55 -30.1 -130.25 -30.05 -128.5 -32.15 -126.2 -34.3 -123.95 -34.25 -122.15 -34.15 -119.0 -33.15 -116.4 -32.4 -114.35 -30.4 -111.2 L-28.25 -109.05 Q-26.95 -107.9 -26.9 -106.65 -26.85 -105.4 -28.45 -104.4 -30.65 -103.05 -31.05 -102.55 -34.35 -98.45 -34.25 -94.45 -34.05 -89.75 -32.6 -86.1 -31.35 -82.9 -28.3 -78.65 L-25.65 -75.85 Q-24.2 -74.35 -24.15 -72.7 -24.05 -70.8 -25.05 -67.9 -26.05 -64.95 -26.0 -63.05 -25.9 -60.35 -24.5 -57.8 L-21.45 -53.6 Q-19.25 -50.9 -18.4 -49.4 -17.0 -46.85 -16.9 -44.15 L-16.6 -36.2 Q-16.4 -29.9 -12.2 -25.5 -7.85 -21.0 -1.8 -21.2 5.6 -21.45 10.6 -27.15 14.95 -32.1 16.9 -40.5 17.25 -41.9 17.0 -44.35 16.8 -46.7 17.25 -48.2 L20.3 -56.15 Q21.95 -60.35 21.85 -64.25 21.7 -67.85 22.9 -71.45 23.6 -73.6 25.55 -77.6 27.45 -81.55 28.15 -83.7 29.35 -87.3 29.2 -90.9 29.1 -95.0 26.0 -99.4 28.55 -101.6 28.4 -105.35 28.3 -107.55 26.45 -109.3 L22.7 -112.45 25.2 -114.75 Q26.35 -116.1 26.3 -117.7 26.3 -118.75 25.6 -120.3 24.9 -121.9 24.85 -122.95 24.8 -124.35 26.2 -126.3 27.6 -128.25 27.55 -129.6 27.3 -137.45 25.8 -141.55 23.55 -147.65 18.3 -147.45 17.55 -147.4 16.9 -146.75 L15.75 -145.45 14.05 -149.7" fill="#b52910" fill-rule="evenodd" stroke="none"/>
    <path d="M21.85 -134.85 Q21.65 -141.65 18.0 -141.5 16.95 -141.45 16.05 -140.55 L14.4 -138.85 Q12.35 -142.5 10.5 -144.2 8.05 -146.45 4.8 -146.65 2.45 -146.8 -1.1 -149.1 -4.45 -151.25 -7.0 -151.15 -9.0 -151.1 -10.75 -148.5 -12.85 -145.4 -14.25 -144.7 L-19.0 -142.45 Q-21.8 -141.1 -23.35 -140.0 -27.7 -136.9 -27.55 -132.15 -27.5 -130.8 -26.4 -129.35 -25.05 -127.55 -24.7 -126.65 -29.9 -123.35 -29.7 -117.75 -29.6 -114.5 -28.85 -112.3 -28.05 -109.95 -26.1 -107.6 L-24.55 -106.3 Q-23.7 -105.55 -23.65 -104.65 -23.6 -103.35 -25.6 -102.8 -28.0 -102.05 -28.55 -101.25 -29.95 -99.25 -30.3 -96.9 -30.6 -95.2 -30.45 -91.9 -30.35 -89.0 -28.7 -86.4 -27.7 -84.8 -25.1 -82.1 -22.55 -79.4 -21.55 -77.8 -19.85 -75.2 -19.75 -72.25 L-19.5 -64.75 Q-19.35 -60.4 -15.45 -56.45 L-12.0 -53.1 Q-9.95 -51.0 -8.8 -48.95 L-12.8 -48.85 -12.45 -38.55 Q-12.3 -33.8 -7.35 -31.65 -3.4 -29.95 2.6 -30.15 8.0 -30.3 10.75 -36.1 12.45 -39.6 13.95 -48.2 L11.3 -47.5 Q11.65 -49.4 12.95 -51.05 L15.6 -53.65 18.0 -56.3 Q19.0 -57.9 18.95 -59.8 L18.4 -63.5 Q17.85 -65.75 17.8 -67.2 17.75 -68.3 18.6 -69.8 19.45 -71.35 19.4 -72.4 19.35 -73.35 18.2 -74.05 16.65 -74.95 16.3 -75.4 14.25 -78.15 13.45 -80.25 12.45 -82.7 12.35 -85.85 12.25 -87.75 12.6 -90.55 12.95 -93.45 12.9 -95.25 L13.55 -93.45 13.85 -85.0 Q13.95 -81.9 15.25 -79.8 16.7 -77.35 19.2 -77.4 21.85 -77.5 22.25 -81.15 L22.1 -88.05 21.35 -92.5 Q20.7 -95.15 20.6 -96.9 20.55 -98.35 21.7 -100.45 22.85 -102.6 22.8 -104.0 22.8 -104.95 21.5 -106.1 20.25 -107.25 20.2 -108.2 20.2 -109.35 21.5 -110.85 22.8 -112.3 22.75 -113.45 22.75 -114.55 21.45 -116.0 20.2 -117.45 20.15 -118.6 20.05 -121.0 22.2 -124.4 24.35 -127.8 24.25 -130.2 L23.6 -132.1 22.0 -131.05 21.85 -134.85" fill="#ffde29" fill-rule="evenodd" stroke="none"/>
    <path d="M5.55 -145.45 Q4.95 -149.8 1.7 -152.6 -1.55 -155.4 -5.9 -155.2 -12.2 -155.0 -15.25 -149.2 -15.55 -148.65 -17.15 -147.5 -18.45 -146.55 -18.4 -145.55 -18.35 -143.9 -17.15 -142.15 -15.55 -139.75 -15.25 -138.95 -13.65 -135.1 -12.7 -133.8 -10.95 -131.4 -8.35 -131.5 -5.4 -131.6 -2.05 -134.95 1.5 -138.55 4.2 -139.0 L1.45 -141.15 Q-0.3 -142.2 -0.35 -143.65 -0.4 -145.15 1.7 -145.4 L5.55 -145.45" fill="#ce8421" fill-rule="evenodd" stroke="none"/>
    <path d="M4.85 -149.6 L7.95 -149.75 10.1 -149.45 12.2 -149.1 Q9.2 -150.7 7.4 -150.6 5.45 -150.55 4.85 -149.6 L3.25 -149.6 Q3.4 -145.65 -0.7 -144.25 -0.35 -141.75 1.95 -140.05 L6.6 -137.15 12.4 -132.6 Q15.5 -130.45 18.9 -130.55 20.2 -130.6 22.75 -131.95 22.0 -134.45 19.95 -136.45 L20.1 -133.4 18.25 -133.35 Q15.8 -133.25 13.55 -134.9 L5.3 -141.05 Q3.3 -142.7 2.45 -145.0 3.7 -145.1 5.25 -146.05 L4.55 -148.45 Q4.55 -149.15 4.85 -149.6" fill="#ce8421" fill-rule="evenodd" stroke="none"/>
    <path d="M16.15 -127.6 L15.0 -129.95 13.45 -132.2 Q14.55 -130.3 14.7 -126.45 14.8 -123.25 11.7 -121.35 8.95 -119.65 5.1 -119.5 0.05 -119.3 -3.35 -120.75 -7.55 -122.5 -7.7 -126.4 -7.75 -128.2 -6.0 -129.5 L-2.5 -131.65 Q-5.75 -131.5 -7.9 -130.2 -10.45 -128.7 -10.35 -126.05 -10.2 -121.2 -5.1 -118.75 -0.85 -116.7 5.2 -116.9 L9.75 -117.1 Q12.0 -117.4 13.6 -118.85 14.25 -119.45 14.9 -121.8 15.45 -123.65 16.65 -123.7 L18.8 -123.3 20.95 -122.9 Q25.2 -123.05 26.05 -129.15 22.85 -125.15 19.65 -125.05 17.5 -125.0 16.15 -127.6" fill="#ce8421" fill-rule="evenodd" stroke="none"/>
    <path d="M-17.3 -132.75 L-19.05 -131.2 Q-20.05 -130.45 -21.15 -130.4 L-24.55 -130.3 -24.95 -132.15 Q-25.0 -133.15 -23.95 -134.0 L-22.2 -135.5 Q-20.95 -137.05 -20.8 -139.1 L-20.9 -143.2 -25.6 -137.95 Q-27.65 -135.0 -27.5 -131.6 -27.45 -129.5 -25.65 -128.15 -24.0 -126.8 -21.75 -126.9 -17.05 -127.1 -17.2 -130.0 L-17.3 -132.75" fill="#ce8421" fill-rule="evenodd" stroke="none"/>
    <path d="M-23.5 -144.7 Q-26.8 -143.2 -28.5 -141.45 -30.6 -139.3 -31.15 -136.15 -30.85 -135.45 -30.15 -134.9 -25.75 -139.6 -23.5 -144.7" fill="#ce8421" fill-rule="evenodd" stroke="none"/>
    <path d="M-26.15 -119.65 L-21.4 -120.95 -16.65 -121.9 Q-15.1 -121.95 -13.95 -121.05 -12.7 -120.15 -12.65 -118.7 -12.6 -116.95 -13.65 -115.45 -14.3 -114.5 -16.0 -112.9 L-18.3 -110.4 Q-19.35 -108.85 -19.3 -107.1 -19.25 -105.45 -17.3 -103.85 -17.6 -112.3 -11.9 -114.4 L-12.6 -116.25 -11.55 -118.1 Q-11.1 -119.05 -11.15 -120.1 -11.3 -124.25 -17.2 -123.65 -22.85 -123.1 -26.15 -119.65" fill="#ce8421" fill-rule="evenodd" stroke="none"/>
    <path d="M15.6 -105.5 L15.95 -95.9 Q19.35 -98.25 19.2 -102.65 19.0 -109.5 13.65 -114.1 8.4 -118.65 1.35 -118.4 L-4.35 -117.5 -10.05 -116.65 -1.2 -115.35 Q3.9 -114.95 7.35 -113.45 11.4 -111.7 12.95 -110.5 15.5 -108.45 15.6 -105.5" fill="#ce8421" fill-rule="evenodd" stroke="none"/>
    <path d="M-14.8 -109.8 L-11.6 -115.0 Q-13.75 -112.7 -14.8 -109.8 L-16.2 -106.55 Q-17.55 -102.5 -17.35 -97.1 -17.15 -91.55 -15.55 -87.35 -14.15 -83.55 -10.65 -78.65 L-9.65 -77.75 Q-11.05 -81.3 -11.2 -85.75 -11.25 -87.4 -10.9 -89.9 -10.55 -92.4 -10.6 -94.0 -7.85 -94.55 -6.2 -96.75 -4.6 -98.9 -4.7 -101.8 -4.75 -102.95 -2.75 -104.5 L-4.1 -104.75 Q-5.85 -104.7 -7.0 -103.15 L-8.6 -99.8 Q-9.55 -97.4 -10.25 -96.45 -11.35 -94.9 -13.1 -94.85 -15.15 -94.8 -15.65 -97.45 L-15.9 -102.5 Q-16.05 -106.5 -14.8 -109.8" fill="#ce8421" fill-rule="evenodd" stroke="none"/>
    <path d="M-31.4 -102.2 Q-33.75 -98.4 -33.55 -93.25 -33.45 -89.9 -31.65 -87.0 L-27.4 -81.55 -26.4 -80.65 -28.3 -85.5 Q-29.2 -87.95 -29.25 -90.5 L-30.2 -99.0 Q-30.25 -100.4 -28.5 -101.95 -27.0 -103.3 -26.1 -103.35 -25.1 -103.4 -24.35 -102.65 -23.6 -101.9 -23.55 -100.9 -23.45 -98.8 -23.8 -95.5 -24.15 -92.2 -24.1 -90.1 L-22.95 -83.9 Q-20.35 -88.8 -19.45 -92.1 -18.3 -96.0 -18.5 -100.85 -18.55 -103.25 -20.25 -104.9 -21.95 -106.65 -24.3 -106.55 -28.75 -106.4 -31.4 -102.2" fill="#ce8421" fill-rule="evenodd" stroke="none"/>
    <path d="M0.2 -28.7 Q6.75 -28.9 11.1 -34.05 15.35 -39.05 15.1 -45.8 10.3 -43.5 6.7 -42.55 3.0 -41.6 -2.15 -41.4 -10.7 -41.15 -13.95 -47.1 L-15.3 -46.7 -15.15 -42.0 Q-14.95 -36.15 -10.3 -32.3 -5.8 -28.45 0.2 -28.7" fill="#ce8421" fill-rule="evenodd" stroke="none"/>
    <path d="M19.25 -121.85 Q21.6 -121.25 23.05 -119.65 24.55 -117.95 24.6 -115.65 24.65 -113.05 21.5 -111.75 23.8 -111.6 25.6 -112.95 27.45 -114.4 27.4 -116.55 27.35 -119.0 24.6 -120.5 22.3 -121.75 19.25 -121.85" fill="#ce8421" fill-rule="evenodd" stroke="none"/>
    <path d="M22.2 -102.4 Q21.3 -99.75 21.35 -98.05 21.45 -96.1 22.2 -93.1 23.0 -90.1 23.05 -88.2 L23.2 -83.3 21.95 -83.25 Q20.25 -83.2 18.85 -84.3 L17.0 -86.2 18.0 -82.4 Q19.15 -79.05 21.85 -79.15 25.3 -79.3 26.9 -83.1 28.2 -86.15 28.0 -90.65 27.95 -92.9 25.75 -95.95 23.6 -99.0 23.5 -101.2 23.5 -102.1 24.55 -103.2 25.65 -104.3 25.6 -105.15 25.5 -107.4 24.1 -109.25 22.55 -111.3 20.9 -110.35 20.15 -109.95 21.4 -108.9 23.0 -107.5 23.0 -106.8 23.1 -105.05 22.2 -102.4 M16.3 -88.85 L16.35 -86.85 17.0 -86.2 16.3 -88.85" fill="#ce8421" fill-rule="evenodd" stroke="none"/>
    <path d="M-11.6 -149.25 L-16.05 -144.95 -13.25 -145.05 -12.85 -143.6 Q-12.85 -143.2 -13.15 -142.65 L-13.45 -141.75 -12.8 -138.5 Q-12.45 -136.75 -13.2 -135.5 L-9.1 -135.65 Q-7.1 -135.7 -6.05 -137.85 -5.2 -139.6 -5.15 -142.2 -2.3 -142.3 -1.0 -143.3 L-3.05 -146.05 Q0.15 -147.15 1.05 -147.8 -2.2 -151.55 -6.4 -151.4 -9.2 -151.3 -11.6 -149.25" fill="#ffde29" fill-rule="evenodd" stroke="none"/>
    <path d="M-13.55 -125.3 Q-13.5 -123.6 -15.85 -123.05 L-18.6 -122.45 -18.0 -122.55 -15.85 -122.85 Q-13.05 -123.0 -10.95 -121.8 -8.55 -120.45 -8.45 -118.05 -8.45 -117.55 -8.85 -117.0 L-9.45 -116.05 Q-6.75 -115.85 -3.65 -116.1 L2.1 -116.45 -3.2 -118.05 Q-5.75 -119.05 -7.6 -120.95 -8.55 -121.9 -9.35 -123.6 L-10.55 -126.5 Q-12.0 -129.75 -14.5 -129.65 -16.2 -129.6 -17.6 -128.2 L-19.95 -125.3 Q-19.1 -125.25 -17.95 -125.95 L-15.95 -126.75 Q-13.6 -126.75 -13.55 -125.3" fill="#940000" fill-rule="evenodd" stroke="none"/>
    <path d="M-15.45 -135.1 Q-15.8 -142.95 -20.35 -145.45 -25.0 -148.1 -28.6 -135.6 -27.2 -136.05 -25.3 -138.45 -23.65 -140.5 -21.9 -140.55 -19.25 -140.7 -19.05 -135.95 -18.95 -133.65 -20.4 -131.9 -21.85 -130.05 -24.05 -130.0 -25.3 -129.95 -26.4 -130.8 L-28.5 -132.45 Q-26.25 -125.75 -21.85 -125.95 -18.8 -126.05 -17.0 -128.95 -15.35 -131.6 -15.45 -135.1" fill="#940000" fill-rule="evenodd" stroke="none"/>
    <path d="M17.95 -128.35 L15.1 -132.25 Q15.7 -129.0 15.3 -126.15 15.05 -124.2 13.85 -120.1 15.2 -121.3 17.15 -122.15 L20.6 -123.35 Q24.75 -124.8 26.1 -127.6 23.45 -126.55 21.75 -126.5 19.6 -126.4 17.95 -128.35" fill="#940000" fill-rule="evenodd" stroke="none"/>
    <path d="M14.7 -113.7 Q12.5 -117.1 9.85 -117.0 8.35 -116.95 6.0 -115.6 9.55 -113.55 14.7 -113.7" fill="#940000" fill-rule="evenodd" stroke="none"/>
    <path d="M16.35 -77.0 Q16.45 -74.35 14.85 -72.25 13.65 -70.65 10.9 -68.75 12.65 -68.65 14.7 -69.5 L18.45 -71.0 18.85 -69.5 Q18.95 -66.5 16.45 -64.1 L11.2 -60.0 14.75 -59.7 Q16.6 -59.3 16.65 -57.8 16.7 -56.65 15.0 -55.25 13.3 -53.85 13.35 -52.65 L13.5 -48.7 Q13.65 -44.55 9.25 -42.25 5.75 -40.45 0.35 -40.25 -4.1 -40.05 -7.4 -43.25 -10.7 -46.4 -10.85 -50.9 -10.9 -51.65 -11.95 -52.15 L-13.5 -53.25 -16.2 -57.8 -18.95 -62.35 Q-20.2 -64.7 -20.45 -68.0 -20.85 -72.45 -21.25 -74.05 -22.0 -68.1 -21.95 -66.8 -21.8 -63.5 -18.3 -59.1 -16.55 -56.9 -15.9 -55.6 -14.75 -53.55 -14.7 -51.35 L-14.45 -44.4 Q-14.15 -36.25 1.55 -36.7 7.95 -36.95 12.5 -40.4 17.45 -44.15 17.25 -49.85 17.25 -50.55 16.7 -51.5 16.2 -52.45 16.15 -53.1 16.1 -54.25 17.2 -55.3 18.65 -56.7 18.95 -57.25 19.9 -58.95 19.4 -61.9 18.8 -65.2 19.25 -66.8 L20.15 -68.25 Q20.75 -69.0 20.75 -69.7 20.7 -71.65 18.55 -74.15 16.45 -76.6 16.25 -78.55 L16.35 -77.0" fill="#940000" fill-rule="evenodd" stroke="none"/>
    <path d="M27.0 -82.9 Q25.9 -82.15 25.15 -82.1 21.45 -81.95 20.15 -86.55 19.4 -89.05 19.2 -95.35 L19.25 -98.5 19.0 -101.65 17.85 -98.25 Q17.3 -96.55 17.35 -94.85 L17.55 -89.25 Q17.9 -78.65 23.75 -78.9 25.5 -78.95 26.75 -80.4 L28.9 -83.5 Q28.05 -83.6 27.0 -82.9" fill="#940000" fill-rule="evenodd" stroke="none"/>
    <path d="M24.6 -116.9 Q24.7 -114.6 23.0 -113.0 21.35 -111.45 19.0 -111.35 20.8 -109.4 22.4 -109.45 24.25 -109.55 25.45 -110.9 26.65 -112.25 26.55 -114.1 26.5 -114.9 25.8 -115.65 L24.6 -116.9" fill="#940000" fill-rule="evenodd" stroke="none"/>
    <path d="M0.75 -111.95 L1.7 -112.0 -1.6 -113.6 Q-3.35 -114.35 -5.1 -114.3 -7.35 -114.2 -9.0 -113.0 -10.8 -111.7 -10.75 -109.75 L-9.7 -107.4 -6.1 -110.45 Q-4.2 -112.1 -2.1 -112.15 L0.75 -111.95" fill="#ffffde" fill-rule="evenodd" stroke="none"/>
    <path d="M-10.1 -122.75 L-10.7 -122.35 -11.15 -121.75 Q-9.5 -120.45 -8.2 -120.3 -8.4 -122.8 -10.1 -122.75" fill="#312110" fill-rule="evenodd" stroke="none"/>
    <path d="M5.4 -114.5 Q5.45 -113.25 6.65 -112.55 7.75 -111.85 9.15 -111.95 L10.95 -112.0 Q10.7 -113.8 8.05 -115.0 5.35 -116.25 5.4 -114.5" fill="#312110" fill-rule="evenodd" stroke="none"/>
    <path d="M26.15 -99.1 Q26.1 -100.25 27.65 -101.7 29.15 -103.15 29.1 -104.35 28.85 -110.35 23.45 -112.45 22.75 -112.7 22.95 -112.25 L23.85 -110.9 Q25.8 -108.2 25.85 -107.05 25.9 -105.7 24.5 -103.75 23.1 -101.8 23.15 -100.4 23.3 -96.4 28.8 -94.35 L27.05 -96.5 Q26.2 -97.75 26.15 -99.1" fill="#312110" fill-rule="evenodd" stroke="none"/>
    <path d="M-25.45 -76.15 L-27.0 -78.3 Q-30.2 -81.8 -30.9 -83.25 -30.85 -81.15 -29.4 -79.45 -28.5 -78.4 -26.2 -76.7 L-25.45 -76.15 Q-24.6 -74.55 -24.55 -72.95 -24.45 -70.6 -25.6 -66.9 -26.7 -63.25 -26.65 -60.85 -26.6 -58.9 -25.4 -57.15 -24.75 -56.15 -22.9 -54.3 L-20.4 -51.4 Q-19.2 -49.65 -19.15 -47.7 L-18.9 -40.75 Q-18.8 -37.1 -17.4 -34.1 -16.4 -31.95 -13.65 -28.2 -13.4 -29.6 -13.7 -31.45 L-14.2 -34.75 -14.6 -46.75 Q-14.7 -49.0 -15.95 -51.0 -16.7 -52.25 -18.7 -54.35 L-21.45 -57.7 Q-22.75 -59.7 -22.8 -61.95 -22.85 -63.6 -22.15 -66.05 -21.45 -68.55 -21.55 -70.15 -21.6 -72.25 -23.05 -73.95 L-25.45 -76.15" fill="#312110" fill-rule="evenodd" stroke="none"/>
    <path d="M-30.95 -102.2 Q-28.9 -104.6 -26.0 -105.25 -22.85 -105.95 -21.1 -103.8 -20.9 -106.55 -25.9 -107.1 -29.05 -106.8 -31.65 -104.5 -34.45 -102.05 -32.45 -100.15 -32.0 -99.75 -31.6 -100.7 L-30.95 -102.2" fill="#000000" fill-rule="evenodd" stroke="none"/>
    <path d="M-13.75 -130.95 Q-16.65 -130.8 -18.45 -127.95 L-17.15 -129.0 -15.6 -129.6 Q-14.35 -129.65 -13.2 -128.55 L-11.05 -126.6 -10.5 -127.2 Q-10.15 -127.5 -10.15 -127.9 -10.2 -129.2 -11.3 -130.1 -12.35 -131.0 -13.75 -130.95" fill="#000000" fill-rule="evenodd" stroke="none"/>
    <path d="M1.4 -7.3 L1.5 -5.35 Q3.45 -7.95 4.75 -11.4 L7.15 -18.05 Q7.35 -17.2 8.5 -15.85 L10.9 -22.35 Q12.3 -25.9 12.5 -29.05 7.3 -25.3 4.7 -24.1 0.85 -22.3 -4.15 -22.15 -5.5 -22.1 -7.2 -22.95 -9.25 -24.0 -10.3 -24.15 -10.95 -25.5 -12.5 -27.0 -14.05 -28.5 -14.7 -29.75 L-15.6 -28.85 -14.8 -24.2 Q-14.3 -21.95 -13.35 -19.85 -12.7 -18.55 -9.9 -15.5 -7.75 -13.2 -7.65 -10.8 L-7.4 -4.35 Q-7.35 -3.05 -6.2 -2.2 -5.15 -1.4 -3.7 -1.3 -3.75 -2.55 -4.25 -4.5 L-5.0 -7.7 Q-5.75 -11.35 -3.85 -12.85 -2.15 -9.9 -2.1 -8.05 L-1.9 -2.45 -1.5 -0.95 -0.85 0.45 -0.8 -4.25 Q-0.5 -6.7 1.4 -7.3" fill="#4a3929" fill-rule="evenodd" stroke="none"/>
    <path d="M19.8 -51.45 L19.55 -49.5 Q20.45 -49.45 21.1 -49.9 L19.8 -51.45" fill="#312110" fill-rule="evenodd" stroke="none"/>
    <path d="M23.0 -41.95 Q21.75 -40.7 21.8 -39.85 L22.2 -39.25 22.8 -38.8 Q24.0 -40.3 23.0 -41.95" fill="#312110" fill-rule="evenodd" stroke="none"/>
    <path d="M18.5 -29.9 Q17.4 -29.35 17.35 -28.3 L18.85 -28.05 Q19.45 -28.05 19.85 -28.75 L20.55 -30.0 18.5 -29.9" fill="#312110" fill-rule="evenodd" stroke="none"/>
    <path d="M15.6 -24.1 Q15.65 -22.75 14.8 -20.75 13.9 -18.75 13.95 -17.4 L14.0 -15.45 Q17.1 -16.2 17.0 -20.9 L16.45 -22.55 15.6 -24.1" fill="#312110" fill-rule="evenodd" stroke="none"/>
    <path d="M-22.1 -32.7 Q-22.05 -31.7 -21.05 -29.9 L-20.5 -30.4 Q-20.1 -30.7 -20.15 -31.0 -20.2 -32.75 -20.95 -36.2 L-21.55 -35.55 -22.1 -32.7" fill="#312110" fill-rule="evenodd" stroke="none"/>
    <path d="M-18.85 -20.6 Q-18.95 -18.6 -17.55 -17.05 -16.15 -15.45 -14.25 -15.7 -14.9 -17.05 -16.3 -18.3 L-18.85 -20.6" fill="#312110" fill-rule="evenodd" stroke="none"/>
    <path d="M-11.65 -8.7 Q-10.75 -9.15 -10.15 -9.75 -10.75 -10.7 -11.95 -11.05 -13.25 -11.45 -13.65 -10.55 -13.85 -10.0 -13.1 -9.45 L-11.65 -8.7" fill="#312110" fill-rule="evenodd" stroke="none"/>
    <path d="M11.6 -83.0 L7.4 -80.25 Q2.65 -77.4 -2.25 -77.4 -9.0 -77.4 -13.8 -80.65 -19.0 -84.15 -19.95 -90.3 -21.65 -86.9 -21.65 -83.15 -21.65 -74.3 -21.05 -70.05 -20.2 -63.9 -17.35 -57.6 -16.55 -55.8 -13.25 -52.25 -10.65 -49.4 -10.35 -46.6 -8.8 -48.8 -6.2 -49.55 L-0.8 -50.1 5.8 -49.7 Q9.25 -48.95 9.25 -46.2 9.7 -47.55 10.85 -48.7 L14.65 -52.0 Q15.7 -53.05 16.3 -54.75 L17.5 -57.8 20.4 -61.85 Q21.9 -63.95 21.9 -66.2 21.9 -71.2 19.3 -73.0 L15.9 -74.75 Q14.05 -75.65 13.2 -77.15 L16.55 -85.9 11.6 -83.0" fill="#b52910" fill-rule="evenodd" stroke="none"/>
    <path d="M0.15 -77.7 Q-2.05 -77.65 -5.15 -79.45 -3.8 -77.15 -1.1 -75.5 0.0 -74.8 3.9 -73.05 6.95 -71.65 8.35 -70.35 10.45 -68.55 11.0 -65.75 12.0 -67.95 12.2 -71.2 12.4 -75.2 12.8 -76.8 13.15 -78.25 15.0 -81.75 16.45 -84.5 16.35 -86.8 L16.45 -89.4 Q16.35 -90.8 15.45 -91.3 14.15 -92.05 13.7 -89.5 13.05 -85.85 12.5 -85.1 7.35 -77.95 0.15 -77.7" fill="#ce8421" fill-rule="evenodd" stroke="none"/>
    <path d="M17.55 -63.7 L15.4 -63.5 17.35 -67.35 Q13.9 -62.2 6.2 -61.9 3.95 -61.85 2.3 -63.45 1.15 -64.55 -0.35 -67.25 L-1.15 -64.8 Q-1.7 -63.55 -2.75 -63.5 -5.65 -63.4 -6.75 -66.95 L-7.95 -73.85 Q-8.4 -71.1 -9.0 -69.95 -9.9 -68.0 -11.7 -67.95 -14.2 -67.85 -16.45 -68.7 L-19.3 -70.1 -20.05 -73.35 Q-20.4 -75.05 -21.1 -76.55 L-22.15 -75.55 -22.2 -71.35 Q-22.0 -65.7 -17.8 -61.65 -14.55 -58.55 -7.95 -55.65 L-2.3 -54.2 Q0.8 -53.45 2.45 -51.5 2.95 -52.4 2.1 -53.75 1.05 -55.35 1.05 -56.15 1.0 -57.0 1.65 -57.6 2.3 -58.2 3.2 -58.25 5.65 -58.35 7.45 -56.95 9.4 -55.5 9.45 -53.2 9.5 -51.4 8.4 -49.2 9.45 -51.15 11.1 -52.95 L14.4 -56.05 Q18.6 -59.85 19.65 -63.65 L17.55 -63.7" fill="#ce8421" fill-rule="evenodd" stroke="none"/>
    <path d="M10.2 -76.35 L14.9 -79.85 10.2 -79.65 Q14.05 -89.35 15.55 -94.85 13.95 -89.65 9.0 -86.55 7.15 -85.4 3.9 -83.95 L-1.75 -81.45 -1.05 -81.1 -0.3 -80.9 Q5.2 -81.1 10.05 -82.85 8.75 -81.9 6.75 -81.0 L3.55 -79.5 Q0.1 -77.65 -0.85 -74.45 L4.8 -74.65 Q7.65 -74.75 10.2 -76.35" fill="#940000" fill-rule="evenodd" stroke="none"/>
    <path d="M-16.85 -102.05 L-15.4 -106.85 Q-17.0 -104.35 -16.95 -103.15 L-16.85 -102.05 Q-18.25 -97.85 -19.65 -94.4 -21.5 -89.8 -25.15 -82.55 -27.1 -85.9 -28.05 -89.1 -28.85 -91.65 -29.45 -96.2 -30.9 -93.65 -30.85 -91.3 -30.7 -87.55 -29.2 -84.35 -28.15 -82.15 -25.3 -78.15 -23.7 -79.65 -22.85 -82.05 L-21.7 -86.4 Q-21.1 -89.05 -20.35 -90.4 -19.3 -92.4 -17.25 -93.45 -16.25 -91.5 -15.45 -88.5 L-14.2 -83.75 Q-12.55 -78.5 -8.35 -77.05 -9.2 -80.45 -10.75 -84.1 L-13.45 -90.1 Q-16.4 -96.5 -16.85 -102.05" fill="#940000" fill-rule="evenodd" stroke="none"/>
    <path d="M-15.55 -74.4 Q-15.35 -69.6 -13.9 -66.05 -12.55 -62.7 -9.3 -58.8 -9.65 -61.35 -11.2 -68.35 -12.35 -73.55 -12.5 -77.9 -13.8 -77.85 -14.7 -76.8 -15.6 -75.8 -15.55 -74.4" fill="#940000" fill-rule="evenodd" stroke="none"/>
    <path d="M-10.95 -88.15 L-13.85 -87.9 Q-15.4 -87.45 -15.35 -86.25 -15.25 -84.9 -14.25 -83.95 -13.25 -82.95 -11.9 -83.0 -10.85 -83.05 -10.2 -83.85 -9.55 -84.65 -9.6 -85.75 L-10.25 -87.0 -10.95 -88.15" fill="#312110" fill-rule="evenodd" stroke="none"/>
    <path d="M-13.3 -73.25 Q-13.05 -67.25 -10.4 -67.35 -9.35 -67.4 -8.7 -68.4 -8.1 -69.3 -8.15 -70.5 -8.2 -72.9 -13.3 -73.25" fill="#312110" fill-rule="evenodd" stroke="none"/>
    <path d="M11.65 -87.85 Q10.05 -86.45 4.4 -84.5 -0.6 -82.8 -2.2 -80.45 -0.9 -81.55 2.85 -82.7 L2.95 -81.95 3.05 -81.15 2.45 -80.1 1.8 -79.05 0.7 -75.35 Q4.95 -77.35 7.9 -80.35 11.3 -83.9 11.65 -87.85" fill="#312110" fill-rule="evenodd" stroke="none"/>
    <path d="M-18.35 -88.55 L-19.25 -85.7 Q-19.8 -84.15 -19.75 -82.8 L-19.65 -79.9 Q-17.8 -80.7 -18.05 -83.45 L-18.35 -85.95 Q-18.55 -87.5 -18.35 -88.55" fill="#312110" fill-rule="evenodd" stroke="none"/>
    <path d="M-17.1 -101.75 Q-19.55 -95.8 -20.05 -93.05 L-17.75 -96.0 Q-16.45 -97.45 -14.75 -97.35 -14.55 -100.4 -14.8 -103.9 L-15.2 -110.45 Q-15.1 -106.5 -17.1 -101.75" fill="#312110" fill-rule="evenodd" stroke="none"/>
    <path d="M27.4 -80.9 Q23.75 -80.8 20.8 -83.1 19.1 -84.45 18.65 -85.9 L18.75 -84.95 19.1 -81.3 Q19.15 -78.7 17.85 -76.4 L14.6 -72.15 16.25 -72.5 17.95 -72.9 19.15 -72.45 Q19.7 -72.0 19.75 -71.35 19.85 -68.3 17.15 -65.5 L14.7 -63.1 Q13.25 -61.6 12.45 -60.2 14.2 -60.65 15.8 -61.9 L18.7 -64.3 Q19.7 -62.6 19.8 -60.05 L19.75 -57.4 19.85 -55.45 Q21.4 -57.7 21.3 -61.35 L21.05 -65.8 Q20.95 -68.5 21.35 -70.5 21.9 -73.1 23.95 -75.85 L27.4 -80.9 M19.85 -55.45 L18.45 -53.95 19.95 -54.75 19.85 -55.45" fill="#312110" fill-rule="evenodd" stroke="none"/>
    <path d="M16.65 -53.6 L16.8 -53.55 16.55 -55.5 16.65 -53.6 Q15.2 -53.75 14.2 -52.75 13.5 -52.05 12.65 -50.1 L11.2 -46.95 Q10.15 -45.25 8.8 -44.65 10.25 -42.7 10.3 -39.95 10.4 -36.55 7.0 -34.65 4.2 -33.05 -0.05 -32.9 -4.55 -32.7 -7.85 -35.95 -10.9 -38.95 -11.9 -43.8 -12.7 -40.3 -12.6 -37.5 -12.4 -31.7 -9.05 -27.55 -5.5 -23.1 -0.2 -23.3 5.7 -23.55 8.85 -29.65 10.05 -31.95 11.2 -35.7 L13.05 -42.3 Q13.35 -43.3 15.25 -44.6 16.9 -45.75 16.85 -47.0 L16.65 -53.6" fill="#312110" fill-rule="evenodd" stroke="none"/>
  </g>
</svg>
