<?xml version="1.0" encoding="UTF-8" standalone="no"?>
<svg xmlns:xlink="http://www.w3.org/1999/xlink" height="157.55px" width="64.9px" xmlns="http://www.w3.org/2000/svg">
  <g transform="matrix(1.0, 0.0, 0.0, 1.0, 34.0, 159.8)">
    <path d="M25.6 -149.45 Q23.1 -152.35 21.2 -153.7 18.85 -155.4 15.65 -156.05 14.25 -156.35 11.75 -156.05 L7.9 -156.2 1.95 -158.5 Q-1.3 -159.8 -4.2 -159.8 -7.65 -159.8 -10.9 -158.8 L-17.3 -156.4 Q-23.1 -154.05 -25.35 -152.35 -29.0 -149.55 -29.0 -145.4 -29.0 -144.05 -28.35 -141.9 -27.75 -139.8 -27.75 -138.4 -27.75 -136.05 -30.85 -133.35 -34.0 -130.65 -34.0 -128.35 -34.0 -126.55 -32.9 -125.0 -32.25 -124.05 -30.5 -122.45 L-28.1 -119.85 Q-27.0 -118.3 -27.0 -116.5 -27.0 -112.9 -28.9 -107.45 -30.8 -101.95 -30.8 -98.35 -30.8 -94.3 -30.35 -91.95 -29.85 -89.0 -28.25 -86.0 L-25.95 -82.25 Q-24.8 -80.25 -24.8 -78.2 -24.8 -76.7 -25.75 -74.5 -26.75 -72.25 -26.75 -70.75 -26.75 -69.4 -25.85 -68.35 L-23.8 -66.5 Q-26.25 -65.05 -26.25 -61.0 -26.25 -59.3 -25.1 -57.9 L-22.6 -55.65 Q-20.8 -54.25 -20.15 -53.4 -19.0 -52.0 -19.0 -50.3 L-19.0 -46.15 Q-19.0 -43.15 -17.05 -40.9 -15.55 -39.1 -12.25 -37.25 L-7.6 -34.4 Q-5.15 -33.05 -2.55 -33.05 4.55 -33.05 9.6 -36.05 15.4 -39.45 15.4 -45.35 15.4 -46.7 14.3 -48.55 13.2 -50.45 13.2 -51.75 13.2 -54.4 15.4 -58.05 17.6 -61.75 17.6 -64.35 L17.15 -65.9 Q16.65 -66.8 16.65 -67.4 16.65 -69.5 19.2 -72.2 21.7 -74.85 21.7 -76.95 L21.2 -79.75 Q21.2 -82.55 22.6 -85.2 L25.7 -89.6 Q27.9 -92.4 28.75 -93.95 30.15 -96.6 30.15 -99.4 30.15 -100.5 29.2 -102.0 28.2 -103.5 28.2 -104.55 28.2 -106.05 29.55 -108.1 30.9 -110.2 30.9 -111.65 30.9 -113.85 28.0 -116.4 25.1 -119.0 25.1 -121.15 25.1 -123.5 27.15 -126.75 29.2 -130.05 29.2 -132.35 L29.05 -141.55 Q28.45 -146.15 25.6 -149.45" fill="#940000" fill-rule="evenodd" stroke="none"/>
    <path d="M2.85 -155.75 Q0.95 -157.95 -0.65 -157.95 L-5.05 -157.95 Q-9.05 -157.95 -12.15 -156.85 -14.95 -155.8 -18.4 -153.3 -19.35 -152.65 -21.05 -151.8 L-23.65 -150.5 Q-26.4 -148.85 -26.4 -146.3 L-26.4 -139.45 Q-26.4 -136.8 -29.45 -133.35 -32.55 -129.9 -32.55 -127.2 -32.55 -125.3 -31.4 -123.65 -30.75 -122.65 -28.9 -120.95 L-26.45 -118.2 Q-25.3 -116.55 -25.3 -114.65 -25.3 -111.25 -26.95 -106.05 -28.6 -100.85 -28.6 -97.45 -28.6 -93.7 -25.6 -88.25 -22.6 -82.8 -22.6 -79.0 -22.6 -77.2 -23.7 -74.5 -24.8 -71.8 -24.8 -69.95 -24.8 -69.15 -23.3 -68.35 -21.85 -67.6 -21.85 -66.75 -21.85 -65.75 -23.05 -64.5 -24.3 -63.25 -24.3 -62.2 -24.3 -60.65 -22.3 -59.8 -19.4 -58.5 -18.9 -58.05 -16.85 -56.1 -17.0 -52.1 -17.15 -47.15 -16.3 -45.25 -15.9 -44.3 -14.6 -43.7 -12.85 -42.9 -12.4 -42.55 -8.7 -39.25 -5.95 -37.9 -2.55 -36.25 1.65 -36.25 7.0 -36.25 10.65 -40.65 14.15 -44.8 14.15 -50.55 14.15 -51.95 13.5 -54.15 12.8 -56.35 12.8 -57.8 12.8 -59.15 14.5 -60.8 16.15 -62.5 16.15 -63.8 16.15 -65.05 15.05 -66.75 13.9 -68.5 13.9 -69.7 13.9 -71.35 15.0 -72.75 L17.35 -75.0 19.7 -77.2 Q20.8 -78.6 20.8 -80.25 20.8 -81.5 20.1 -83.45 19.35 -85.35 19.35 -86.6 19.35 -88.5 20.65 -90.1 21.4 -91.05 23.45 -92.65 25.5 -94.25 26.25 -95.2 27.55 -96.75 27.55 -98.65 27.55 -100.0 26.2 -101.75 24.85 -103.5 24.85 -104.8 24.85 -106.15 26.6 -107.75 28.3 -109.4 28.3 -110.7 28.3 -113.05 25.25 -115.8 22.15 -118.6 22.15 -120.9 22.15 -123.65 24.4 -127.6 26.6 -131.55 26.6 -134.25 L26.6 -138.7 Q26.6 -145.0 23.55 -149.55 20.2 -154.55 14.7 -154.55 L10.5 -154.05 6.3 -153.55 Q4.7 -153.55 2.85 -155.75" fill="#b52910" fill-rule="evenodd" stroke="none"/>
    <path d="M0.65 -154.85 Q2.65 -153.4 2.65 -151.15 L3.4 -151.8 Q4.1 -154.05 4.1 -155.7 2.1 -155.05 -0.65 -156.65 -3.8 -158.45 -5.5 -158.45 -9.7 -158.45 -13.1 -156.9 -15.9 -155.65 -19.65 -152.5 -19.95 -152.25 -22.6 -151.05 -24.3 -150.3 -24.3 -148.95 -24.3 -146.8 -22.7 -143.55 -21.1 -140.35 -21.1 -138.15 -21.1 -137.6 -21.6 -136.3 L-15.65 -136.3 Q-13.05 -136.3 -10.55 -135.0 L-5.85 -132.25 Q-5.55 -135.25 -3.8 -137.8 L0.2 -142.45 -3.3 -140.7 Q-5.15 -139.75 -7.0 -139.75 -8.95 -139.75 -10.9 -141.95 -12.35 -139.25 -14.35 -139.25 -17.15 -139.25 -19.0 -141.7 -20.65 -144.0 -20.65 -147.1 -20.65 -152.15 -14.95 -154.4 -10.65 -156.15 -3.7 -156.15 -1.2 -156.15 0.65 -154.85" fill="#ce8421" fill-rule="evenodd" stroke="none"/>
    <path d="M7.7 -153.95 L6.7 -153.3 15.85 -153.3 Q18.35 -153.3 20.2 -151.35 L23.15 -147.0 Q25.05 -143.8 25.8 -141.15 26.6 -138.4 26.6 -134.75 26.6 -133.3 26.25 -132.15 L27.55 -134.15 Q29.05 -136.5 29.05 -138.75 29.05 -145.45 24.6 -150.25 20.0 -155.15 13.5 -155.15 L11.15 -154.7 8.85 -154.25 7.7 -153.95" fill="#ce8421" fill-rule="evenodd" stroke="none"/>
    <path d="M16.9 -144.3 Q14.1 -147.95 10.6 -148.7 L6.45 -148.25 Q4.15 -147.85 3.85 -149.4 2.9 -147.4 2.15 -143.15 L3.5 -144.95 Q4.2 -146.15 4.85 -146.7 L11.45 -146.7 Q12.85 -146.7 14.3 -145.9 L16.9 -144.3" fill="#ce8421" fill-rule="evenodd" stroke="none"/>
    <path d="M22.8 -124.1 L25.85 -125.7 23.7 -125.7 Q21.7 -125.7 18.85 -124.25 15.95 -122.75 14.0 -122.75 11.35 -122.75 9.4 -124.4 7.4 -126.15 7.4 -128.65 7.4 -130.15 8.55 -131.3 L11.1 -133.2 Q10.8 -134.0 9.8 -134.05 L7.9 -133.95 3.65 -133.45 Q0.4 -133.45 0.4 -139.7 -1.55 -139.2 -2.3 -136.45 -3.4 -132.55 -3.9 -131.75 -2.95 -131.1 -1.05 -131.05 0.9 -131.05 1.8 -130.5 2.6 -130.05 3.0 -128.45 3.4 -126.75 4.05 -126.2 L9.05 -122.45 Q11.65 -120.4 12.8 -117.7 L15.2 -119.15 Q16.5 -119.8 17.85 -119.8 L20.25 -119.25 Q21.85 -118.6 22.65 -118.45 21.3 -120.65 21.3 -121.5 21.3 -123.05 22.8 -124.1" fill="#ce8421" fill-rule="evenodd" stroke="none"/>
    <path d="M-21.15 -131.95 Q-24.35 -131.5 -26.4 -129.85 -28.65 -128.0 -28.65 -125.2 -28.65 -121.65 -26.7 -119.05 -24.6 -116.35 -21.35 -116.0 -27.15 -117.9 -27.15 -123.0 -27.15 -125.6 -25.2 -127.85 L-21.15 -131.95" fill="#ce8421" fill-rule="evenodd" stroke="none"/>
    <path d="M-25.4 -138.45 Q-25.4 -136.75 -26.6 -135.35 -27.3 -134.55 -29.2 -133.15 L-31.85 -130.95 Q-33.05 -129.55 -33.05 -127.85 -33.05 -126.1 -31.9 -124.55 L-29.4 -121.75 Q-29.5 -122.4 -30.1 -123.65 -30.6 -124.7 -30.6 -125.5 L-30.6 -129.95 Q-30.6 -131.85 -27.75 -133.85 -24.9 -135.85 -24.9 -137.7 L-25.8 -139.7 -25.4 -138.45" fill="#ce8421" fill-rule="evenodd" stroke="none"/>
    <path d="M-27.4 -100.7 Q-27.4 -105.1 -21.9 -107.0 -23.25 -108.15 -24.3 -109.8 L-26.2 -112.95 Q-26.5 -110.1 -28.15 -104.75 -29.65 -100.0 -29.65 -96.5 -29.65 -93.1 -27.65 -89.05 -25.2 -84.0 -24.65 -81.55 -24.05 -83.7 -21.3 -88.5 -19.15 -92.3 -19.15 -95.6 L-19.35 -96.2 -19.65 -96.8 Q-20.15 -95.15 -22.05 -91.65 -23.6 -88.9 -23.85 -86.45 L-26.05 -93.6 Q-27.4 -97.45 -27.4 -100.7" fill="#ce8421" fill-rule="evenodd" stroke="none"/>
    <path d="M27.05 -116.5 Q26.0 -117.15 26.6 -114.9 L27.55 -110.8 Q27.55 -109.85 27.0 -108.55 26.35 -107.1 26.3 -106.25 L24.7 -106.25 20.85 -108.0 Q21.45 -106.9 24.4 -104.1 26.55 -102.1 26.55 -99.85 26.55 -89.55 21.45 -89.55 19.35 -89.55 19.35 -93.05 L19.35 -96.3 17.15 -90.25 Q17.8 -88.8 19.25 -86.65 20.7 -84.5 21.35 -83.0 22.2 -85.55 25.9 -90.8 28.85 -95.0 28.85 -98.75 28.85 -99.65 28.2 -101.0 27.55 -102.3 27.55 -103.2 27.55 -104.55 28.9 -106.4 30.2 -108.2 30.2 -109.55 30.2 -114.55 27.05 -116.5" fill="#ce8421" fill-rule="evenodd" stroke="none"/>
    <path d="M17.4 -73.25 Q15.55 -70.7 12.45 -69.7 11.1 -69.25 6.0 -68.45 8.9 -67.1 8.9 -65.1 L8.9 -60.45 Q11.65 -63.2 13.65 -66.45 L17.4 -73.25" fill="#ce8421" fill-rule="evenodd" stroke="none"/>
    <path d="M-13.15 -87.55 L-14.55 -88.95 -15.0 -88.65 -15.3 -88.35 Q-15.3 -86.3 -14.15 -84.45 -13.45 -83.35 -11.55 -81.4 L-9.0 -78.35 Q-7.85 -76.5 -7.85 -74.45 L-7.85 -70.0 -8.1 -68.5 -8.2 -67.0 Q-6.8 -68.65 -6.3 -70.65 -5.9 -72.2 -5.9 -74.9 -5.9 -78.85 -7.9 -82.0 -9.5 -84.55 -13.15 -87.55" fill="#ce8421" fill-rule="evenodd" stroke="none"/>
    <path d="M-22.45 -74.5 L-21.9 -76.45 Q-24.85 -74.15 -24.85 -71.75 -24.85 -70.85 -23.8 -69.65 -22.8 -68.45 -22.8 -67.5 -22.8 -66.85 -23.15 -65.8 L-23.55 -64.1 Q-23.55 -61.55 -21.35 -59.6 L-12.8 -53.05 Q-10.65 -51.45 -8.35 -50.5 -11.75 -52.2 -14.55 -57.0 L-16.85 -60.7 Q-18.3 -62.75 -20.2 -64.05 L-18.7 -67.0 Q-22.8 -69.15 -22.8 -72.5 L-22.45 -74.5" fill="#ce8421" fill-rule="evenodd" stroke="none"/>
    <path d="M9.7 -51.95 L11.8 -54.35 Q12.85 -55.7 12.85 -57.15 L12.35 -58.75 10.85 -56.75 Q9.3 -57.65 6.55 -57.75 7.85 -56.55 7.65 -53.85 7.45 -50.8 8.2 -49.5 7.7 -48.7 6.45 -49.0 L4.1 -49.5 Q3.15 -48.6 3.05 -47.1 L3.1 -44.25 0.45 -44.25 Q-2.25 -44.25 -4.4 -46.15 -5.35 -47.0 -8.1 -50.5 L-9.45 -46.5 Q-10.35 -44.45 -12.15 -44.45 -13.65 -44.45 -14.3 -46.2 L-15.1 -49.75 Q-17.05 -48.15 -17.05 -46.2 -17.05 -44.7 -16.3 -43.55 -15.5 -42.25 -14.2 -42.25 -9.55 -42.25 -7.9 -45.9 -7.7 -44.05 -6.2 -42.45 -4.1 -40.3 -1.25 -40.3 1.5 -40.3 3.45 -41.7 5.55 -43.2 5.55 -45.6 L4.85 -48.3 Q6.3 -47.15 8.45 -46.6 L12.35 -45.45 12.35 -47.0 Q12.35 -49.65 9.7 -51.95 M-7.9 -45.9 L-7.85 -47.4 -7.75 -47.1 -7.6 -46.7 -7.9 -45.9" fill="#ce8421" fill-rule="evenodd" stroke="none"/>
    <path d="M1.1 -130.2 L4.7 -130.0 1.5 -130.75 Q-0.1 -131.3 -0.1 -132.7 -0.1 -139.95 -3.9 -139.95 L-6.0 -139.6 -8.1 -139.25 Q-9.05 -139.25 -10.25 -140.6 -11.4 -141.95 -12.4 -141.95 -11.55 -141.5 -10.55 -139.3 -9.7 -137.5 -8.45 -137.5 -7.9 -137.5 -7.0 -137.9 L-5.5 -138.25 Q-3.8 -138.25 -3.05 -136.0 L-1.6 -132.0 Q-0.7 -130.6 1.1 -130.2" fill="#000000" fill-rule="evenodd" stroke="none"/>
    <path d="M-18.75 -129.1 Q-16.6 -130.2 -16.6 -131.85 -16.6 -132.4 -17.4 -133.05 -18.2 -133.65 -18.2 -134.2 L-17.9 -135.35 Q-17.6 -136.05 -17.6 -136.5 -17.6 -137.7 -19.2 -138.15 L-22.1 -139.0 Q-20.85 -138.45 -19.85 -135.95 -18.75 -133.2 -17.8 -132.45 -20.8 -129.55 -22.1 -126.7 -21.5 -127.7 -18.75 -129.1" fill="#000000" fill-rule="evenodd" stroke="none"/>
    <path d="M-20.6 -149.6 L-20.65 -146.5 -19.5 -150.4 Q-19.0 -152.45 -19.4 -154.25 -20.8 -153.75 -21.9 -152.05 -20.8 -151.2 -20.6 -149.6" fill="#000000" fill-rule="evenodd" stroke="none"/>
    <path d="M16.8 -126.95 Q20.35 -125.45 22.0 -125.45 23.85 -125.45 25.2 -126.65 26.55 -127.9 26.55 -129.65 L26.55 -131.9 Q25.1 -131.4 21.75 -128.9 19.2 -126.95 16.8 -126.95" fill="#000000" fill-rule="evenodd" stroke="none"/>
    <path d="M14.15 -95.9 Q15.4 -98.1 15.4 -100.2 12.2 -96.2 9.0 -89.8 5.4 -82.55 2.85 -78.95 L6.8 -80.05 Q8.95 -80.55 10.15 -81.75 11.75 -83.35 11.75 -86.35 11.8 -90.65 12.1 -91.75 12.5 -93.1 14.15 -95.9" fill="#000000" fill-rule="evenodd" stroke="none"/>
    <path d="M-13.15 -59.5 L-12.4 -58.75 -12.15 -59.75 Q-13.05 -62.35 -15.6 -66.3 L-16.2 -68.25 Q-16.5 -69.3 -17.3 -69.45 -18.3 -69.65 -17.95 -68.1 L-16.9 -65.55 -13.15 -59.5" fill="#000000" fill-rule="evenodd" stroke="none"/>
    <path d="M28.25 -127.9 L26.55 -125.65 Q24.6 -123.5 21.1 -121.75 25.2 -119.15 26.95 -117.05 29.3 -114.2 29.3 -110.45 29.3 -108.75 28.6 -107.05 L27.1 -103.8 Q30.85 -107.05 30.85 -110.8 30.85 -113.95 28.6 -116.65 L23.9 -121.5 Q26.0 -123.6 27.4 -126.15 L28.25 -127.9" fill="#000000" fill-rule="evenodd" stroke="none"/>
    <path d="M-26.2 -127.4 Q-26.65 -127.45 -27.85 -128.15 L-29.4 -128.3 Q-30.55 -127.7 -30.0 -126.05 L-28.95 -123.0 Q-28.4 -120.25 -27.85 -118.95 -27.05 -117.1 -25.35 -115.75 L-24.6 -115.0 -26.85 -119.1 Q-27.65 -121.1 -27.65 -123.6 -27.65 -124.55 -27.1 -125.55 L-26.2 -127.4" fill="#000000" fill-rule="evenodd" stroke="none"/>
    <path d="M11.8 -146.35 L7.8 -146.45 Q4.8 -146.45 2.6 -145.0 0.15 -143.45 0.15 -140.85 0.15 -138.95 1.6 -137.5 2.35 -136.8 4.85 -135.2 5.5 -135.45 5.8 -136.05 4.35 -138.35 4.35 -139.75 4.35 -142.95 8.15 -144.15 L15.65 -145.3 Q13.7 -146.15 11.8 -146.35" fill="#ffde29" fill-rule="evenodd" stroke="none"/>
    <path d="M13.95 -87.8 L17.9 -96.75 14.7 -93.1 11.6 -89.25 13.95 -89.5 13.95 -87.8 13.35 -86.45 13.95 -87.2 13.95 -87.8" fill="#ffde29" fill-rule="evenodd" stroke="none"/>
    <path d="M-0.35 -68.95 Q-0.35 -71.55 -3.65 -73.25 L-3.3 -69.75 Q-3.0 -67.6 -3.0 -66.25 L-1.35 -66.0 Q-0.35 -68.2 -0.35 -68.95" fill="#ffde29" fill-rule="evenodd" stroke="none"/>
    <path d="M-7.85 -57.15 Q-7.85 -58.15 -9.45 -58.85 -11.1 -59.55 -11.1 -58.55 -11.1 -56.65 -8.1 -56.05 L-7.85 -57.15" fill="#ffde29" fill-rule="evenodd" stroke="none"/>
    <path d="M7.25 -126.35 Q3.9 -130.5 -0.65 -130.5 -7.2 -130.5 -12.0 -126.7 -17.05 -122.65 -17.05 -116.6 -17.05 -114.6 -14.1 -112.45 -11.15 -110.25 -11.15 -108.25 -11.15 -107.15 -11.45 -105.85 L-11.9 -103.4 -10.9 -96.8 Q-11.05 -96.05 -11.8 -94.55 -12.4 -93.3 -12.4 -92.25 -12.4 -89.4 -10.0 -86.5 -6.75 -82.55 -6.1 -81.05 L-3.45 -74.05 Q-1.75 -70.5 1.45 -70.5 3.95 -72.55 5.9 -75.75 L9.6 -81.55 Q15.6 -89.4 17.25 -92.55 20.3 -98.35 20.3 -105.05 20.3 -108.7 18.0 -111.95 L13.05 -117.95 10.05 -122.3 7.25 -126.35" fill="#ce8421" fill-rule="evenodd" stroke="none"/>
    <path d="M0.4 -108.5 Q-1.25 -106.2 -0.85 -101.4 -0.45 -96.55 -2.05 -94.2 -0.05 -93.25 3.8 -93.25 6.15 -93.25 7.85 -94.35 9.75 -95.55 9.75 -97.6 L9.75 -104.6 Q9.75 -106.35 10.95 -108.95 12.1 -111.5 12.1 -113.3 12.1 -116.4 9.25 -118.7 L3.35 -122.5 Q2.25 -123.25 0.75 -125.55 -0.55 -127.6 -2.05 -128.3 L-5.6 -128.15 -8.8 -125.7 Q-13.6 -121.55 -13.6 -115.1 -13.6 -113.25 -11.9 -112.05 -10.35 -110.95 -8.25 -110.95 -5.4 -110.95 -3.5 -113.35 -1.65 -115.65 -1.65 -118.7 1.8 -118.0 3.25 -117.25 5.55 -116.0 5.55 -113.75 5.55 -112.15 3.6 -110.9 0.95 -109.3 0.4 -108.5" fill="#ffde29" fill-rule="evenodd" stroke="none"/>
    <path d="M-15.15 -112.55 Q-17.1 -114.85 -17.1 -117.95 L-18.0 -118.6 -18.0 -116.25 Q-18.0 -110.35 -14.15 -108.7 -14.55 -106.7 -16.7 -105.1 -19.45 -103.0 -20.15 -101.95 -22.65 -98.25 -23.55 -93.45 L-25.05 -84.0 -22.45 -88.25 Q-21.4 -90.4 -21.15 -92.95 L-20.6 -99.35 Q-19.9 -102.7 -17.3 -102.7 -15.35 -102.7 -15.35 -99.5 -15.35 -96.7 -17.75 -92.8 -20.15 -88.85 -20.15 -86.1 -20.15 -84.1 -19.05 -82.05 L-16.9 -78.2 Q-18.0 -80.85 -18.0 -83.15 -18.0 -85.75 -14.8 -89.0 -11.65 -92.25 -11.65 -94.9 L-11.65 -99.55 Q-11.65 -100.75 -12.25 -102.55 -12.9 -104.3 -12.9 -105.5 -12.9 -107.5 -10.3 -108.35 -6.4 -109.65 -5.65 -110.2 L-10.15 -110.2 Q-13.1 -110.2 -15.15 -112.55" fill="#000000" fill-rule="evenodd" stroke="none"/>
    <path d="M0.6 -78.65 Q2.05 -75.95 2.05 -74.25 2.05 -72.55 1.5 -70.3 L0.4 -66.5 Q2.3 -67.5 4.4 -71.0 6.3 -74.2 8.65 -75.0 L10.85 -74.5 Q8.15 -76.85 8.15 -80.25 6.7 -79.5 4.45 -79.3 L0.6 -78.65" fill="#000000" fill-rule="evenodd" stroke="none"/>
    <path d="M-11.7 -88.0 L-12.15 -86.2 -13.4 -84.05 Q-14.1 -82.85 -14.1 -81.75 -14.1 -80.05 -12.15 -78.3 -9.95 -76.3 -9.55 -75.0 -9.25 -74.0 -9.2 -72.2 L-9.1 -69.35 Q-8.85 -66.25 -6.7 -66.25 -4.45 -66.25 -4.45 -69.85 -4.45 -71.7 -5.5 -73.35 L-7.8 -76.05 Q-11.15 -79.5 -11.15 -82.3 L-11.15 -84.7 Q-9.5 -84.6 -8.05 -83.3 L-5.4 -80.75 -5.2 -82.2 Q-5.2 -84.85 -6.65 -86.85 -8.25 -89.0 -10.65 -89.0 -11.4 -89.0 -11.7 -88.0" fill="#000000" fill-rule="evenodd" stroke="none"/>
    <path d="M16.65 -88.85 Q16.2 -85.95 16.2 -83.75 16.2 -81.0 17.95 -81.0 19.6 -81.0 20.75 -82.25 21.9 -83.45 22.2 -85.2 L19.05 -85.2 19.3 -90.15 Q19.2 -92.75 17.4 -93.95 L16.65 -88.85" fill="#000000" fill-rule="evenodd" stroke="none"/>
    <path d="M11.85 -79.4 Q10.95 -78.1 10.3 -74.85 9.7 -72.05 8.2 -70.7 L7.4 -70.2 Q9.95 -70.85 11.0 -73.65 11.6 -75.4 11.85 -79.4 Z" fill="none" stroke="#000000" stroke-linecap="round" stroke-linejoin="round" stroke-width="1.0"/>
    <path d="M6.1 -32.4 L-0.8 -32.25 Q-2.65 -32.25 -5.45 -33.4 -8.25 -34.5 -10.15 -34.5 L-13.1 -34.5 Q-13.1 -31.3 -12.0 -26.4 -10.95 -21.45 -10.95 -18.25 L-9.25 -21.7 Q-8.3 -23.45 -6.85 -24.5 -4.4 -22.2 -3.85 -18.75 -3.65 -17.5 -3.65 -11.75 L-2.95 -13.95 -1.95 -14.2 -1.95 -4.4 Q-1.95 -3.85 -1.45 -3.25 L-0.5 -2.25 Q1.0 -5.5 1.2 -9.3 L1.1 -16.8 Q1.1 -22.5 4.05 -24.5 5.3 -22.55 5.4 -19.8 L5.8 -14.7 Q6.4 -15.65 6.4 -17.1 L6.4 -26.2 Q6.4 -27.05 7.3 -28.15 8.15 -29.25 8.15 -30.05 8.15 -31.0 7.6 -31.7 7.0 -32.4 6.1 -32.4" fill="#4a3929" fill-rule="evenodd" stroke="none"/>
    <path d="M-20.7 -36.95 L-20.25 -37.35 Q-19.95 -37.6 -19.95 -37.8 -19.95 -38.45 -20.4 -39.0 -20.85 -39.55 -21.4 -39.4 -21.95 -39.3 -21.55 -38.4 L-20.7 -36.95" fill="#4a3929" fill-rule="evenodd" stroke="none"/>
    <path d="M-17.8 -26.0 L-17.4 -26.9 Q-19.9 -25.25 -19.9 -22.7 -19.9 -19.75 -18.05 -19.75 -17.35 -19.75 -15.35 -20.45 -17.8 -22.25 -17.8 -26.0" fill="#4a3929" fill-rule="evenodd" stroke="none"/>
    <path d="M16.9 -40.7 L14.7 -43.25 13.95 -42.05 Q13.55 -41.4 13.55 -40.75 13.55 -39.05 15.15 -37.55 L18.0 -34.75 18.0 -37.75 Q18.0 -39.3 16.9 -40.7" fill="#4a3929" fill-rule="evenodd" stroke="none"/>
    <path d="M15.65 -29.7 L15.4 -28.75 16.35 -28.25 17.1 -29.95 16.4 -29.85 15.65 -29.7" fill="#4a3929" fill-rule="evenodd" stroke="none"/>
    <path d="M19.6 -57.25 L18.9 -55.35 19.6 -54.2 Q20.85 -54.95 20.85 -56.05 L20.25 -56.7 19.6 -57.25" fill="#4a3929" fill-rule="evenodd" stroke="none"/>
    <path d="M7.65 -41.75 Q7.65 -39.5 5.15 -37.5 2.05 -35.05 1.4 -33.5 L1.4 -32.3 2.8 -32.05 Q3.65 -32.05 4.4 -32.85 L5.8 -34.25 8.65 -36.1 Q10.05 -37.2 10.05 -38.7 10.05 -39.6 9.25 -40.4 L7.65 -41.75" fill="#4a3929" fill-rule="evenodd" stroke="none"/>
    <path d="M-1.6 -29.7 L-1.8 -30.7 Q-3.85 -31.25 -5.85 -32.8 L-9.55 -35.5 -9.85 -34.85 -10.0 -34.1 Q-10.0 -32.2 -8.45 -30.95 -7.0 -29.7 -4.95 -29.7 L-1.6 -29.7" fill="#b52910" fill-rule="evenodd" stroke="none"/>
    <path d="M-12.9 -71.8 Q-12.0 -70.85 -11.65 -69.1 L-11.2 -66.05 Q-10.8 -62.45 -8.6 -62.45 -7.05 -62.45 -5.95 -63.7 -4.9 -64.95 -4.9 -66.6 -4.9 -69.0 -7.6 -70.5 -9.95 -71.8 -12.9 -71.8" fill="#940000" fill-rule="evenodd" stroke="none"/>
    <path d="M-5.4 -50.5 Q-8.7 -52.7 -11.6 -56.95 -15.35 -62.5 -17.1 -64.3 -17.3 -63.65 -18.35 -61.75 -19.15 -60.3 -19.15 -59.1 -19.15 -54.9 -16.5 -51.9 -13.8 -48.8 -9.75 -48.8 -6.65 -48.8 -5.4 -50.5" fill="#940000" fill-rule="evenodd" stroke="none"/>
    <path d="M4.35 -54.75 Q2.3 -51.5 -0.1 -51.5 -1.0 -51.5 -1.4 -52.75 L-2.05 -54.95 -2.4 -53.45 -1.95 -50.85 -1.55 -48.2 Q-1.55 -47.3 -2.35 -46.6 -3.15 -45.95 -4.15 -45.95 L-6.95 -46.35 -9.75 -46.7 -12.15 -46.35 -14.6 -45.7 Q-11.4 -38.45 -1.5 -38.45 0.75 -38.45 2.8 -39.7 L6.45 -42.5 Q9.7 -45.1 11.05 -47.15 12.85 -49.8 12.85 -53.1 12.85 -55.55 11.75 -57.4 10.5 -59.6 8.65 -59.0 6.7 -58.4 4.35 -54.75" fill="#940000" fill-rule="evenodd" stroke="none"/>
    <path d="M8.0 -51.75 L8.55 -52.1 Q9.3 -52.5 10.1 -52.5 12.05 -52.5 12.05 -49.45 12.05 -47.9 11.4 -46.8 10.65 -45.5 9.35 -45.5 8.15 -45.5 6.9 -46.1 L4.55 -47.2 5.45 -45.1 Q5.9 -43.95 5.9 -42.8 5.9 -41.65 5.35 -40.8 4.75 -39.85 3.75 -39.85 L-0.8 -39.85 Q-3.1 -39.85 -4.9 -41.9 L-8.1 -46.0 Q-9.4 -42.05 -13.4 -42.05 -15.65 -42.05 -17.3 -43.0 -19.2 -44.1 -19.2 -46.0 -19.2 -48.3 -17.8 -50.3 L-14.65 -54.0 -16.85 -54.25 Q-17.95 -53.1 -18.7 -51.5 L-19.45 -52.15 Q-19.0 -54.9 -19.55 -57.35 -20.0 -59.15 -21.4 -62.2 -21.65 -62.75 -22.85 -63.5 -23.85 -64.15 -23.85 -64.95 L-23.6 -65.7 -23.35 -66.4 Q-23.35 -67.05 -23.95 -67.9 -24.6 -68.75 -24.6 -69.35 -24.6 -70.75 -23.1 -72.6 -21.65 -74.5 -21.65 -75.85 -21.65 -78.7 -23.95 -81.65 -27.0 -85.5 -27.65 -87.2 -29.05 -90.8 -29.35 -94.55 L-29.4 -102.2 -30.5 -97.8 Q-31.05 -95.5 -31.05 -93.35 -31.05 -91.05 -29.95 -88.8 -29.3 -87.5 -27.55 -85.1 -25.85 -82.7 -25.2 -81.4 -24.1 -79.15 -24.1 -76.85 -24.1 -75.55 -25.4 -73.8 -26.7 -72.05 -26.7 -70.75 -26.7 -69.9 -25.65 -68.7 -24.6 -67.55 -24.6 -66.65 -24.6 -65.6 -25.4 -64.2 -26.2 -62.75 -26.2 -61.75 -26.2 -59.9 -23.9 -58.0 -21.4 -55.95 -21.15 -54.25 -19.8 -45.9 -18.85 -43.15 -17.0 -37.9 -12.65 -34.3 L-9.0 -30.5 Q-7.0 -28.55 -4.6 -28.55 L0.3 -28.55 Q2.35 -28.55 4.2 -29.75 L7.6 -32.35 Q11.1 -35.0 12.65 -37.2 14.65 -40.05 14.65 -43.55 14.65 -44.15 13.85 -44.9 13.05 -45.6 13.05 -46.25 L13.05 -52.65 Q13.05 -55.2 16.3 -58.35 L18.55 -60.8 Q19.55 -62.3 19.55 -64.0 L19.55 -70.75 Q19.55 -71.9 20.0 -73.4 L20.55 -76.0 14.9 -72.05 13.4 -71.35 Q12.55 -70.95 12.55 -70.2 12.55 -69.3 13.35 -68.0 14.15 -66.75 14.15 -65.8 14.15 -63.8 11.95 -62.35 8.6 -60.1 8.1 -59.5 L10.25 -60.85 Q11.45 -61.65 12.55 -61.75 L12.55 -60.3 Q12.55 -54.65 8.0 -51.75 L7.8 -51.65 8.0 -51.75" fill="#000000" fill-rule="evenodd" stroke="none"/>
    <path d="M0.7 -31.75 L-2.9 -28.7 Q-2.25 -28.0 -1.15 -28.0 0.9 -28.0 2.6 -29.35 L5.55 -32.3 8.0 -34.6 Q9.15 -35.9 9.15 -37.45 9.15 -38.7 8.7 -39.6 8.15 -40.65 7.15 -40.5 5.75 -40.35 5.25 -38.35 4.55 -35.6 4.1 -35.0 2.95 -33.4 0.7 -31.75" fill="#4a3929" fill-rule="evenodd" stroke="none"/>
    <path d="M-9.55 -34.0 Q-10.0 -31.35 -8.7 -29.15 -7.35 -26.75 -4.95 -26.75 L-3.15 -27.0 Q-5.2 -28.35 -6.75 -30.15 L-9.55 -34.0" fill="#940000" fill-rule="evenodd" stroke="none"/>
    <path d="M-6.35 -155.45 Q-20.95 -155.45 -20.95 -147.65 -20.95 -144.05 -18.75 -141.15 -14.85 -148.9 -8.9 -148.9 -7.1 -148.9 -6.35 -145.3 L-4.75 -145.3 Q-2.25 -145.3 -1.05 -148.45 -0.1 -150.85 -0.1 -154.35 -3.8 -155.45 -6.35 -155.45" fill="#ce8421" fill-rule="evenodd" stroke="none"/>
    <path d="M25.0 -132.9 Q25.0 -137.9 22.55 -141.5 19.85 -145.4 15.35 -145.8 11.7 -146.1 8.85 -144.05 5.8 -141.9 5.8 -138.55 5.8 -133.75 8.9 -130.2 12.1 -126.6 16.75 -126.6 20.05 -126.6 22.4 -128.2 25.0 -130.0 25.0 -132.9" fill="#ce8421" fill-rule="evenodd" stroke="none"/>
  </g>
</svg>
