<?xml version="1.0" encoding="UTF-8" standalone="no"?>
<svg xmlns:xlink="http://www.w3.org/1999/xlink" height="151.6px" width="65.9px" xmlns="http://www.w3.org/2000/svg">
  <g transform="matrix(1.0, 0.0, 0.0, 1.0, 34.5, 160.85)">
    <path d="M1.45 -160.15 L-3.85 -160.85 Q-15.55 -160.85 -23.95 -153.05 -32.55 -145.1 -32.55 -133.7 -32.55 -129.05 -31.8 -126.6 -30.75 -123.2 -27.8 -121.2 -31.2 -118.1 -32.65 -114.45 -33.95 -111.1 -33.95 -106.15 -33.95 -102.5 -32.55 -98.95 -31.7 -96.8 -29.5 -92.9 -27.25 -88.95 -26.45 -86.8 -25.05 -83.25 -25.05 -79.6 L-25.05 -74.5 Q-25.05 -73.5 -23.8 -72.25 -22.6 -71.0 -22.6 -70.05 -22.6 -69.15 -23.25 -67.75 -23.95 -66.4 -23.95 -65.45 -23.95 -62.9 -20.65 -59.95 -19.05 -58.45 -18.4 -57.55 -17.4 -56.1 -17.4 -54.45 -17.4 -53.85 -18.05 -53.0 -18.75 -52.2 -18.75 -51.55 -18.75 -48.1 -16.55 -45.05 L-7.3 -33.9 -2.45 -28.55 Q1.35 -30.25 3.7 -33.85 L7.65 -41.45 11.85 -48.4 Q14.0 -52.1 14.0 -55.8 14.0 -56.95 12.8 -58.5 11.55 -60.05 11.55 -61.15 11.55 -63.05 13.2 -65.75 14.85 -68.45 14.85 -70.3 14.85 -71.05 14.3 -72.15 13.75 -73.25 13.75 -74.0 13.75 -75.85 14.9 -77.75 L17.05 -81.25 Q17.6 -82.4 20.25 -83.6 22.55 -84.65 22.55 -86.2 L22.3 -87.2 Q22.0 -87.8 22.0 -88.25 22.0 -90.1 23.05 -91.75 L25.35 -94.5 27.6 -97.25 Q28.65 -98.9 28.65 -100.75 28.65 -102.4 27.65 -104.9 26.65 -107.4 26.65 -109.05 26.65 -109.9 27.9 -110.4 29.45 -111.0 29.75 -111.5 30.5 -112.75 30.6 -114.3 L30.55 -117.3 Q30.55 -119.55 28.35 -122.55 26.1 -125.6 26.1 -127.8 26.1 -128.75 27.1 -129.65 L28.65 -131.4 Q30.3 -135.0 30.3 -140.25 30.3 -148.3 24.2 -153.9 18.2 -159.4 9.95 -159.4 L8.1 -158.9 6.3 -158.1 Q3.4 -159.6 1.45 -160.15" fill="#940000" fill-rule="evenodd" stroke="none"/>
    <path d="M1.1 -153.0 L-1.05 -150.95 Q2.75 -150.55 5.2 -156.75 3.55 -158.05 1.6 -158.5 L-2.45 -158.85 Q-6.95 -158.85 -10.65 -157.05 -13.5 -155.65 -17.65 -152.05 -24.75 -145.9 -26.05 -144.4 -29.75 -140.0 -29.75 -134.55 -29.75 -132.4 -28.65 -129.2 -27.2 -129.75 -25.85 -131.4 L-23.4 -134.1 Q-21.25 -135.8 -17.35 -137.0 -13.05 -138.35 -11.0 -139.7 -8.15 -141.5 -3.75 -145.65 0.25 -149.4 3.65 -151.25 -1.8 -150.65 -7.4 -146.35 L-12.15 -142.7 Q-15.1 -140.6 -17.95 -139.4 L-21.85 -137.3 Q-23.9 -136.25 -25.9 -136.6 L-23.75 -142.7 Q-22.5 -145.85 -20.15 -147.65 -19.0 -148.5 -16.45 -149.75 -14.25 -150.85 -12.9 -152.05 -9.6 -155.0 -7.95 -155.95 -5.3 -157.5 -2.15 -157.5 L2.0 -157.5 2.0 -155.65 Q2.0 -154.2 1.1 -153.0" fill="#b52910" fill-rule="evenodd" stroke="none"/>
    <path d="M4.75 -150.15 L1.55 -147.5 -1.5 -145.15 Q-4.7 -142.45 -4.7 -138.95 L-4.7 -136.3 Q-1.6 -136.3 0.9 -134.05 2.4 -132.75 4.85 -129.2 7.35 -125.6 8.8 -124.3 11.3 -122.05 14.4 -122.05 L19.7 -122.05 Q23.45 -122.05 25.5 -125.85 27.25 -129.05 27.25 -133.7 27.25 -136.95 25.6 -139.15 25.35 -138.0 25.6 -135.75 25.85 -133.8 25.35 -132.5 23.45 -127.55 15.65 -127.55 14.0 -127.55 12.75 -128.35 11.35 -129.25 11.35 -130.7 L11.75 -133.4 Q12.15 -135.05 12.15 -136.05 12.15 -137.75 11.35 -139.5 L9.7 -142.7 Q8.3 -138.65 7.7 -137.65 6.3 -135.2 3.9 -135.2 2.0 -135.2 0.75 -136.6 -0.5 -138.0 -0.5 -139.95 -0.5 -142.05 1.95 -143.35 L4.2 -144.45 6.4 -145.75 Q7.7 -146.75 8.2 -149.3 8.8 -152.1 9.7 -153.2 11.45 -155.4 15.95 -155.4 L18.15 -154.85 16.85 -156.2 12.85 -156.65 Q10.35 -156.65 8.35 -154.45 L4.75 -150.15" fill="#b52910" fill-rule="evenodd" stroke="none"/>
    <path d="M4.9 -111.5 Q2.6 -111.5 -0.9 -110.0 -4.4 -108.5 -6.75 -108.5 L-11.8 -108.5 Q-14.35 -108.5 -14.95 -111.8 -15.15 -112.95 -15.15 -118.0 -15.15 -122.0 -14.25 -124.85 -13.3 -127.8 -11.0 -130.85 L-8.55 -133.1 Q-7.15 -134.35 -6.9 -135.75 -13.0 -133.7 -16.35 -128.8 -19.55 -124.0 -19.55 -117.35 -19.55 -112.75 -17.5 -109.45 -15.2 -105.75 -11.3 -105.75 L-7.05 -106.15 -6.5 -106.3 Q-7.95 -105.75 -9.2 -104.9 -11.6 -103.25 -13.75 -99.95 -11.1 -100.2 -8.1 -101.75 -4.1 -103.85 -2.55 -104.35 L3.15 -106.05 Q6.0 -107.3 6.0 -109.85 6.0 -111.5 4.9 -111.5" fill="#b52910" fill-rule="evenodd" stroke="none"/>
    <path d="M26.8 -113.65 Q25.55 -110.4 25.3 -109.05 30.6 -110.7 30.6 -115.4 30.6 -118.95 29.25 -121.45 27.65 -124.4 24.75 -124.4 22.9 -124.4 21.75 -122.75 20.7 -121.2 20.7 -119.1 20.7 -118.2 21.55 -116.2 21.7 -118.05 23.2 -122.25 27.8 -120.95 27.8 -118.25 27.8 -116.15 26.8 -113.65" fill="#b52910" fill-rule="evenodd" stroke="none"/>
    <path d="M7.05 -87.45 Q2.15 -83.95 -3.95 -83.95 -5.35 -83.95 -7.15 -85.6 -8.95 -87.25 -10.35 -87.25 L-12.4 -86.6 Q-13.6 -85.9 -14.45 -85.9 -15.55 -85.9 -16.15 -87.25 L-17.1 -89.75 -19.15 -93.4 Q-20.15 -95.35 -20.15 -97.3 L-20.15 -104.8 Q-21.75 -102.85 -23.65 -102.85 -26.75 -102.85 -26.75 -108.75 L-26.75 -115.3 Q-29.2 -113.6 -30.05 -110.65 -30.6 -108.6 -30.6 -104.5 -30.6 -100.5 -28.05 -96.5 L-25.7 -93.0 Q-24.25 -90.85 -23.4 -88.9 -21.9 -85.45 -21.2 -79.95 -20.45 -74.15 -19.3 -71.0 -18.3 -68.4 -17.05 -63.35 -15.95 -58.85 -14.6 -55.8 -12.0 -49.85 -10.2 -47.6 -7.2 -43.9 -2.85 -43.9 0.95 -43.9 3.1 -47.95 L4.7 -51.85 8.6 -63.95 Q9.95 -67.95 12.2 -71.25 13.75 -73.55 14.1 -78.2 14.45 -82.8 16.05 -85.05 17.2 -86.75 19.35 -88.65 L22.95 -91.75 Q27.0 -95.45 27.0 -99.35 L23.7 -95.2 Q21.7 -93.3 19.2 -93.3 16.95 -93.3 15.75 -96.05 10.25 -89.7 7.05 -87.45" fill="#b52910" fill-rule="evenodd" stroke="none"/>
    <path d="M-15.8 -149.45 L-18.35 -148.4 Q-21.2 -147.1 -21.2 -144.9 -21.2 -141.9 -15.6 -141.9 -12.8 -141.9 -10.3 -143.5 L-5.75 -147.1 Q-1.55 -150.5 -0.5 -151.7 1.75 -154.45 1.4 -157.75 L-4.05 -157.75 Q-6.9 -157.75 -9.25 -155.55 L-13.45 -150.95 Q-14.3 -150.1 -15.8 -149.45" fill="#ce5a18" fill-rule="evenodd" stroke="none"/>
    <path d="M7.9 -149.0 Q6.45 -147.45 5.0 -146.55 L0.2 -144.15 Q-2.2 -142.7 -2.2 -140.4 -2.2 -138.05 -0.4 -136.5 1.35 -134.95 3.75 -134.95 5.95 -134.95 7.4 -137.0 8.3 -138.25 9.4 -141.35 10.8 -140.8 10.8 -139.55 L10.7 -134.55 Q10.7 -130.6 11.0 -129.25 11.65 -126.45 13.85 -126.45 L18.75 -126.45 Q22.3 -126.45 23.7 -131.15 L24.8 -135.45 Q25.5 -138.1 26.45 -139.7 L27.8 -138.3 Q26.8 -141.5 25.1 -144.25 L21.45 -149.6 19.25 -153.05 Q17.9 -154.75 16.05 -154.75 12.95 -154.75 10.25 -151.7 L7.9 -149.0" fill="#ce5a18" fill-rule="evenodd" stroke="none"/>
    <path d="M-12.45 -134.7 Q-11.0 -136.95 -10.25 -139.1 -14.75 -138.0 -17.9 -135.3 -20.55 -132.95 -23.4 -128.35 -24.1 -130.05 -25.35 -131.65 -26.45 -129.55 -26.45 -125.15 L-26.45 -121.75 -25.6 -122.6 Q-24.85 -121.75 -24.7 -120.6 L-24.65 -118.25 Q-24.65 -116.5 -26.35 -113.95 -28.1 -111.45 -28.1 -109.65 L-28.1 -104.6 -25.6 -99.65 -23.25 -104.0 -20.85 -107.75 Q-18.2 -112.05 -18.2 -116.25 L-18.2 -122.8 Q-18.2 -126.75 -15.1 -131.1 L-12.45 -134.7" fill="#ce5a18" fill-rule="evenodd" stroke="none"/>
    <path d="M5.15 -103.8 Q7.45 -106.05 8.35 -107.45 9.6 -109.5 9.6 -111.9 9.6 -115.7 8.25 -118.15 4.75 -115.9 3.1 -115.2 0.5 -114.05 -2.6 -114.05 L-6.4 -113.85 Q-8.4 -113.9 -9.6 -115.15 -10.6 -116.1 -10.45 -117.75 L-10.15 -120.9 Q-10.15 -125.7 -6.35 -129.35 -2.6 -133.0 2.2 -133.0 L-3.3 -133.75 Q-9.3 -133.75 -13.05 -128.35 -16.5 -123.4 -16.5 -116.65 -16.5 -112.75 -13.7 -109.95 -10.9 -107.1 -7.0 -107.1 -4.95 -107.1 -1.95 -108.5 1.1 -109.85 3.1 -109.85 4.05 -109.85 4.75 -109.3 5.45 -108.7 5.45 -107.8 5.45 -105.2 2.6 -103.5 L-0.05 -102.1 -2.75 -100.5 -0.15 -99.95 Q1.45 -99.95 2.8 -101.25 L5.15 -103.8" fill="#ce5a18" fill-rule="evenodd" stroke="none"/>
    <path d="M13.3 -99.8 Q9.8 -98.65 8.05 -96.9 9.75 -96.35 11.35 -96.35 17.2 -96.35 21.45 -99.2 26.15 -102.3 26.15 -107.4 26.15 -111.1 24.55 -110.65 24.15 -110.55 24.15 -109.75 L24.05 -108.5 Q22.5 -105.4 18.8 -102.4 17.1 -101.0 13.3 -99.8" fill="#ce5a18" fill-rule="evenodd" stroke="none"/>
    <path d="M16.9 -88.95 L17.5 -88.65 Q17.85 -88.35 18.15 -88.35 19.85 -88.35 20.85 -89.95 21.7 -91.35 21.7 -93.35 21.7 -94.3 21.15 -95.25 20.6 -96.25 20.1 -95.75 18.85 -94.35 18.1 -92.6 L16.9 -88.95" fill="#ce5a18" fill-rule="evenodd" stroke="none"/>
    <path d="M6.65 -93.8 L5.65 -92.15 Q5.15 -91.25 5.0 -90.3 L6.65 -90.05 Q9.6 -90.05 9.6 -91.95 9.6 -92.6 8.45 -93.1 L6.65 -93.8" fill="#ce5a18" fill-rule="evenodd" stroke="none"/>
    <path d="M8.2 -126.2 Q6.4 -126.95 5.45 -128.05 L2.65 -132.05 Q1.05 -134.05 -1.1 -134.05 L-5.95 -134.05 Q-10.8 -134.05 -13.9 -129.8 -16.75 -125.9 -16.75 -120.5 -16.75 -117.45 -14.2 -115.45 -11.8 -113.5 -8.5 -113.5 L-6.0 -113.8 -3.5 -114.05 2.2 -114.05 Q3.5 -114.05 4.9 -114.7 L7.4 -115.95 Q8.8 -113.6 8.8 -112.2 8.8 -109.7 7.4 -107.45 L4.3 -103.75 Q2.05 -101.4 1.2 -100.05 -0.2 -97.8 -0.2 -95.35 -0.2 -92.8 0.9 -90.8 2.65 -91.75 4.45 -94.45 6.25 -97.15 7.95 -98.05 L14.75 -101.6 Q18.65 -103.65 20.9 -105.4 27.0 -110.05 27.0 -116.8 27.0 -118.8 25.85 -120.25 24.65 -121.75 22.8 -121.75 L16.3 -121.75 Q14.9 -121.75 13.6 -122.8 L11.25 -124.75 8.2 -126.2" fill="#efad31" fill-rule="evenodd" stroke="none"/>
    <path d="M12.15 -151.15 Q14.7 -147.55 19.85 -148.45 L16.85 -150.7 Q15.2 -151.7 13.4 -151.7 L12.15 -151.15" fill="#efad31" fill-rule="evenodd" stroke="none"/>
    <path d="M22.1 -138.7 Q22.15 -139.6 21.7 -140.2 20.2 -142.2 17.15 -140.2 14.1 -138.2 14.1 -135.5 14.1 -134.85 15.25 -134.3 16.35 -133.7 16.35 -133.05 16.35 -132.15 15.7 -131.1 14.85 -129.8 14.7 -129.2 22.0 -131.55 22.0 -137.0 L22.1 -138.7" fill="#efad31" fill-rule="evenodd" stroke="none"/>
    <path d="M5.1 -138.5 L6.7 -142.4 Q7.5 -143.6 9.35 -144.05 11.9 -144.7 12.6 -145.1 11.1 -147.2 7.95 -146.7 L1.95 -145.1 Q1.85 -144.25 1.05 -142.95 0.3 -141.7 0.3 -140.75 0.3 -136.35 2.5 -136.35 4.25 -136.35 5.1 -138.5" fill="#efad31" fill-rule="evenodd" stroke="none"/>
    <path d="M-6.9 -154.25 Q-11.35 -152.4 -13.15 -151.0 -15.95 -148.75 -15.95 -145.45 -15.95 -143.8 -13.65 -143.8 -12.25 -143.8 -10.95 -144.95 L-8.75 -147.1 -5.85 -149.45 Q-4.5 -150.85 -4.5 -152.6 -4.5 -153.2 -5.4 -153.65 L-6.9 -154.25" fill="#efad31" fill-rule="evenodd" stroke="none"/>
    <path d="M-8.0 -130.0 L-11.05 -127.9 Q-12.65 -126.6 -12.65 -125.05 -12.65 -123.45 -11.55 -122.35 -10.5 -121.2 -8.95 -121.2 L-8.0 -121.45 Q-9.65 -123.75 -9.65 -125.15 -9.65 -126.4 -9.1 -127.65 L-8.0 -130.0" fill="#ffde29" fill-rule="evenodd" stroke="none"/>
    <path d="M0.1 -127.65 L1.5 -124.25 Q3.15 -120.35 5.9 -120.35 8.15 -120.35 8.75 -122.3 L5.75 -123.35 Q3.95 -123.9 3.0 -124.75 2.25 -125.4 0.95 -128.5 0.0 -130.8 -1.7 -130.8 -0.75 -129.7 0.1 -127.65" fill="#ffde29" fill-rule="evenodd" stroke="none"/>
    <path d="M2.2 -141.05 Q3.25 -141.5 3.5 -142.7 2.2 -142.55 2.2 -141.05" fill="#ffde29" fill-rule="evenodd" stroke="none"/>
    <path d="M16.35 -137.2 Q17.25 -135.95 19.25 -135.8 L19.5 -137.0 Q19.5 -137.85 18.3 -137.8 17.3 -137.75 16.35 -137.2" fill="#ffde29" fill-rule="evenodd" stroke="none"/>
    <path d="M17.65 -114.8 Q16.25 -114.05 16.8 -111.1 17.4 -107.9 16.35 -106.85 14.6 -105.1 11.3 -103.6 7.75 -101.95 6.1 -100.5 7.9 -100.3 9.9 -101.3 L13.55 -103.0 Q20.6 -105.25 20.6 -109.85 20.6 -111.9 19.85 -113.55 18.95 -115.5 17.65 -114.8" fill="#ffde29" fill-rule="evenodd" stroke="none"/>
    <path d="M14.65 -100.25 Q11.5 -95.25 6.6 -95.25 5.6 -95.25 4.65 -96.1 L2.95 -97.7 3.5 -96.5 Q3.5 -95.8 2.15 -95.2 0.75 -94.6 0.75 -93.85 0.75 -93.45 1.15 -93.1 L1.85 -92.5 Q0.75 -91.4 0.75 -90.55 0.75 -87.55 -5.0 -87.55 -6.45 -87.55 -7.65 -88.7 L-9.7 -91.1 Q-10.55 -90.55 -10.55 -89.9 -10.55 -85.25 -9.1 -80.15 L-6.4 -70.45 Q-5.6 -71.15 -3.3 -75.0 -1.7 -77.6 0.55 -77.6 L6.25 -77.6 Q5.9 -81.25 2.15 -82.9 L5.5 -84.1 Q7.15 -84.9 7.15 -86.45 7.15 -87.55 5.6 -88.8 4.05 -90.0 4.05 -91.1 4.05 -93.15 6.85 -94.05 L9.4 -94.75 Q10.9 -95.2 11.8 -95.8 L11.55 -94.55 Q11.55 -93.3 13.3 -93.0 L16.5 -92.5 Q16.05 -90.5 13.65 -87.35 11.55 -84.6 11.55 -82.2 11.55 -81.05 12.4 -79.3 13.2 -77.55 13.2 -76.35 13.2 -75.25 11.9 -74.25 10.25 -73.05 9.9 -72.35 L8.55 -69.1 Q7.85 -67.2 6.9 -66.05 8.75 -65.25 9.6 -63.5 L4.4 -60.0 Q2.0 -58.0 0.5 -55.25 L3.4 -54.1 6.0 -52.5 3.3 -48.95 Q1.8 -46.95 -0.05 -46.95 -1.25 -46.95 -1.9 -48.25 L-2.8 -50.85 Q-3.75 -50.2 -4.9 -47.5 -5.8 -45.3 -7.35 -45.3 -8.3 -45.3 -8.9 -46.15 -9.4 -46.95 -9.4 -48.05 L-8.85 -50.6 Q-10.85 -47.5 -14.55 -47.5 -15.25 -47.5 -15.8 -48.05 -16.35 -48.65 -16.35 -49.35 -16.35 -52.8 -9.15 -52.8 -9.65 -55.2 -11.9 -57.45 -15.15 -60.65 -15.8 -61.6 -17.15 -63.6 -17.3 -66.75 -17.5 -70.95 -17.9 -72.35 -18.2 -73.35 -19.7 -75.25 -20.95 -76.9 -20.95 -78.3 -20.95 -79.6 -20.25 -81.55 -19.55 -83.5 -19.55 -84.8 -19.55 -87.8 -21.25 -90.55 -22.25 -92.15 -24.9 -95.05 -27.6 -97.9 -28.6 -99.5 -30.3 -102.25 -30.3 -105.25 -30.3 -108.85 -27.0 -112.15 L-24.0 -115.0 Q-22.25 -116.75 -21.2 -118.4 L-24.1 -118.1 Q-28.35 -118.1 -28.35 -127.25 -28.35 -128.7 -27.75 -129.7 -27.1 -130.85 -25.9 -130.85 -25.55 -130.85 -25.05 -130.45 -24.6 -130.0 -24.25 -130.0 -22.5 -130.0 -21.0 -131.15 L-19.3 -132.9 Q-20.6 -132.2 -22.45 -132.0 L-25.65 -131.7 Q-27.55 -131.45 -28.9 -130.85 -31.1 -134.1 -31.1 -138.3 -31.1 -140.95 -29.55 -143.3 L-26.15 -147.65 Q-25.65 -148.3 -25.1 -149.6 L-24.25 -151.5 -24.55 -151.45 -23.9 -152.15 -24.15 -151.7 -24.25 -151.5 -23.7 -151.5 Q-23.0 -151.5 -22.45 -152.05 L-21.5 -153.2 -22.5 -153.35 -21.05 -154.45 -17.4 -157.25 -22.9 -153.6 -27.7 -150.05 Q-32.5 -145.8 -32.5 -139.95 -32.5 -138.0 -33.35 -135.0 -34.2 -131.95 -34.2 -130.0 -34.2 -126.4 -31.1 -122.6 -30.8 -122.25 -29.4 -121.45 -28.35 -120.9 -28.35 -120.05 -28.35 -119.05 -29.3 -118.15 L-30.85 -116.45 Q-33.0 -112.55 -33.8 -109.1 -34.5 -105.9 -34.5 -101.15 -34.5 -98.45 -33.0 -96.0 -32.15 -94.5 -29.75 -91.9 -27.4 -89.3 -26.55 -87.8 -25.05 -85.35 -25.05 -82.65 L-25.05 -77.6 -24.5 -75.95 -25.05 -74.1 -25.35 -72.25 Q-25.35 -71.3 -24.55 -70.45 L-23.15 -68.8 Q-25.6 -67.2 -25.6 -65.65 -25.6 -63.65 -22.3 -61.65 L-20.05 -60.0 Q-19.0 -58.95 -19.0 -57.6 -19.0 -56.4 -20.1 -54.75 -21.2 -53.05 -21.2 -51.85 -21.2 -48.9 -19.55 -46.25 -18.55 -44.65 -15.85 -41.9 -13.2 -39.1 -12.2 -37.5 -10.55 -34.85 -10.55 -31.9 L-10.55 -25.25 Q-9.6 -27.05 -9.15 -28.55 -9.15 -25.35 -8.3 -22.7 L-5.85 -24.95 -5.85 -18.25 Q-5.85 -13.0 -4.2 -9.25 -1.85 -10.15 -1.85 -14.8 L-1.85 -25.3 Q-1.85 -26.25 -1.3 -26.95 -0.75 -27.7 0.1 -27.7 0.95 -27.7 1.7 -27.0 L2.95 -25.5 Q2.95 -27.6 3.8 -28.55 5.05 -27.7 5.45 -26.05 L5.45 -28.75 Q5.45 -32.15 6.8 -35.45 7.6 -37.45 9.75 -41.05 L12.65 -46.65 Q14.0 -49.95 14.0 -53.35 14.0 -54.65 13.05 -56.65 12.1 -58.6 12.1 -59.95 12.1 -61.85 14.0 -64.05 16.15 -66.5 16.5 -68.1 L15.1 -73.05 Q16.1 -74.6 17.2 -77.8 18.2 -80.7 19.5 -82.35 L21.65 -84.0 Q22.9 -84.8 22.9 -85.9 L22.6 -87.35 Q22.25 -88.25 22.25 -88.8 22.25 -91.2 25.6 -93.95 28.95 -96.75 28.95 -99.1 28.95 -100.95 28.3 -102.9 L27.0 -106.6 Q26.75 -105.5 27.1 -103.6 27.35 -101.85 27.0 -100.75 26.0 -97.75 22.55 -95.1 L18.75 -91.95 Q19.5 -93.05 19.5 -94.3 19.5 -95.5 17.95 -95.75 L15.05 -95.8 13.45 -95.8 Q14.05 -97.65 17.25 -100.0 20.05 -102.05 20.05 -104.3 20.05 -104.95 19.5 -105.8 18.95 -106.65 18.95 -107.25 18.95 -107.85 20.05 -110.15 18.9 -108.4 17.25 -105.05 L14.65 -100.25 M-9.85 -142.85 Q-11.3 -141.35 -12.9 -141.35 -14.15 -141.35 -15.4 -142.35 L-17.65 -144.1 -14.7 -139.4 Q-15.55 -138.65 -16.15 -137.2 L-16.65 -135.9 -16.15 -136.35 Q-14.65 -137.5 -12.9 -137.5 -11.95 -137.5 -10.6 -136.85 -9.2 -136.1 -8.3 -136.05 L-7.75 -137.2 -7.75 -142.9 -7.5 -144.2 -7.2 -145.45 -9.85 -142.85 M-17.3 -134.65 L-16.65 -135.9 -18.55 -133.75 -19.3 -132.9 Q-18.05 -133.55 -17.3 -134.65" fill="#312110" fill-rule="evenodd" stroke="none"/>
    <path d="M4.65 -130.25 Q5.35 -127.65 7.5 -126.0 8.85 -124.95 12.35 -123.4 L15.3 -121.5 Q16.9 -120.35 18.4 -120.35 L17.5 -121.95 Q17.05 -122.8 17.05 -123.65 17.05 -125.0 18.6 -125.7 L21.7 -126.7 12.9 -127.3 Q8.9 -128.05 4.65 -130.25" fill="#312110" fill-rule="evenodd" stroke="none"/>
    <path d="M27.0 -151.5 L23.1 -154.95 Q20.3 -157.05 20.65 -155.65 21.2 -153.55 22.6 -151.35 L25.25 -147.6 Q28.65 -143.0 28.65 -139.35 28.65 -136.3 26.45 -131.85 24.25 -127.45 24.25 -124.35 24.25 -121.0 26.05 -117.8 L29.75 -111.8 Q30.85 -114.9 30.85 -116.35 30.85 -118.4 29.35 -121.35 27.8 -124.3 27.8 -126.3 27.8 -129.25 29.6 -133.75 31.4 -138.2 31.4 -141.2 31.4 -144.4 30.35 -146.85 29.35 -149.1 27.0 -151.5" fill="#312110" fill-rule="evenodd" stroke="none"/>
    <path d="M1.75 -159.8 Q-0.5 -160.5 -3.75 -160.5 L-7.4 -160.25 Q-9.45 -160.1 -11.05 -160.25 L-11.85 -159.4 Q-7.45 -159.4 -4.0 -158.25 -0.95 -157.2 3.05 -154.6 L6.65 -157.25 Q4.1 -159.1 1.75 -159.8" fill="#312110" fill-rule="evenodd" stroke="none"/>
    <path d="M-23.0 -103.4 Q-24.2 -101.4 -24.2 -99.2 L-24.2 -94.65 -22.7 -97.65 Q-21.85 -99.2 -20.65 -100.25 -18.8 -98.85 -18.15 -96.7 -17.7 -95.15 -17.7 -92.15 L-17.7 -84.85 Q-17.7 -77.35 -15.25 -72.45 -12.3 -66.55 -6.15 -65.2 L-6.95 -66.3 Q-9.0 -67.2 -10.1 -69.8 L-12.2 -74.55 -13.95 -76.45 Q-14.95 -77.5 -14.95 -78.6 L-14.95 -83.75 Q-14.95 -84.85 -15.9 -86.5 -16.85 -88.1 -16.85 -89.2 -16.85 -92.35 -15.2 -95.5 -14.15 -93.85 -13.85 -93.05 L-14.65 -95.55 Q-15.2 -96.9 -15.2 -98.05 -15.2 -101.1 -11.05 -102.6 L-7.45 -103.9 Q-5.3 -104.75 -4.1 -106.0 -7.8 -106.0 -12.55 -112.25 -17.1 -118.2 -16.85 -121.4 L-17.4 -120.5 -17.4 -117.15 Q-17.4 -116.55 -17.0 -115.65 L-16.6 -114.2 Q-16.6 -112.0 -17.8 -110.0 -18.5 -108.8 -20.4 -106.7 L-23.0 -103.4" fill="#312110" fill-rule="evenodd" stroke="none"/>
    <path d="M0.85 -87.2 Q-6.6 -87.2 -6.6 -83.3 -6.6 -82.25 -5.9 -80.75 -5.2 -79.2 -5.2 -78.2 L-5.2 -76.5 Q-2.2 -77.4 -0.4 -80.2 L2.4 -86.15 Q1.65 -86.7 0.85 -87.2" fill="#635239" fill-rule="evenodd" stroke="none"/>
    <path d="M-21.75 -102.4 Q-17.05 -100.3 -17.05 -97.2 -17.05 -95.8 -17.35 -93.7 L-17.65 -90.2 Q-17.65 -84.75 -16.25 -80.75 -14.8 -76.75 -11.4 -72.6 -11.75 -76.45 -14.65 -82.85 -17.3 -88.7 -17.3 -93.05 -17.3 -96.15 -15.6 -99.1 L-11.95 -104.6 Q-16.7 -106.9 -21.75 -102.4" fill="#635239" fill-rule="evenodd" stroke="none"/>
    <path d="M15.5 -82.0 Q15.6 -84.25 16.3 -85.8 13.25 -83.2 13.25 -79.65 13.25 -78.45 13.8 -76.55 14.35 -74.65 14.35 -73.45 14.35 -71.7 12.3 -69.5 10.25 -67.25 10.25 -65.5 10.25 -65.1 10.55 -64.45 L10.8 -63.35 Q10.8 -61.35 9.3 -59.8 8.3 -58.8 5.85 -57.45 11.7 -56.8 14.0 -64.05 15.5 -68.85 15.5 -78.0 L15.5 -82.0" fill="#635239" fill-rule="evenodd" stroke="none"/>
    <path d="M8.55 -41.85 L8.6 -45.6 8.3 -48.05 7.75 -50.55 Q5.15 -47.6 4.7 -42.55 L2.3 -42.55 Q1.55 -42.55 0.75 -43.25 -0.25 -44.05 -0.8 -44.2 -1.3 -42.7 -2.85 -40.0 -4.25 -37.7 -4.65 -35.7 -2.85 -37.3 1.05 -37.5 5.15 -37.65 6.95 -39.0 8.3 -39.95 8.55 -41.85" fill="#635239" fill-rule="evenodd" stroke="none"/>
    <path d="M-13.85 -42.05 L-8.05 -36.75 -12.55 -43.35 Q-15.0 -46.7 -18.45 -48.25 -16.75 -44.85 -13.85 -42.05" fill="#4a3929" fill-rule="evenodd" stroke="none"/>
    <path d="M-19.25 -67.85 Q-20.6 -72.5 -23.95 -72.8 L-24.2 -71.5 -24.0 -70.5 -23.65 -69.5 -25.05 -69.5 Q-23.4 -64.55 -18.5 -64.55 -17.7 -64.55 -18.25 -65.75 L-19.25 -67.85" fill="#635239" fill-rule="evenodd" stroke="none"/>
    <path d="M2.2 -36.2 Q1.7 -34.6 -0.65 -32.9 -3.0 -31.25 -3.55 -29.6 -4.2 -27.7 -3.65 -24.4 L-3.35 -26.05 Q-2.8 -28.25 -2.75 -29.6 L0.55 -29.6 Q1.25 -29.6 1.9 -28.95 L2.95 -27.65 Q2.95 -30.0 2.2 -36.2 M-3.65 -24.4 L-3.85 -22.5 -3.85 -18.3 Q-3.05 -20.35 -3.6 -23.9 L-3.65 -24.4" fill="#635239" fill-rule="evenodd" stroke="none"/>
  </g>
</svg>
