<?xml version="1.0" encoding="UTF-8" standalone="no"?>
<svg xmlns:xlink="http://www.w3.org/1999/xlink" height="146.05px" width="67.05px" xmlns="http://www.w3.org/2000/svg">
  <g transform="matrix(1.0, 0.0, 0.0, 1.0, 35.05, 163.05)">
    <path d="M0.85 -161.0 Q-1.1 -161.0 -4.1 -161.85 L-9.05 -162.7 Q-15.95 -162.7 -20.95 -158.45 -25.7 -154.45 -27.95 -147.45 -28.6 -145.5 -31.7 -142.0 -34.25 -139.15 -34.25 -136.4 -34.25 -127.55 -27.65 -123.45 -32.2 -120.45 -32.2 -114.1 -32.2 -111.5 -30.6 -107.55 -29.0 -103.65 -29.0 -101.0 L-28.05 -92.05 Q-28.05 -87.9 -27.15 -85.35 L-24.6 -78.9 Q-23.6 -75.7 -22.25 -72.6 -21.0 -69.8 -20.5 -69.3 -19.55 -68.35 -17.9 -71.7 -15.55 -69.65 -15.95 -65.75 L-16.5 -62.2 -16.9 -58.45 Q-15.65 -54.6 -11.95 -50.7 -7.45 -45.95 -6.05 -43.5 -3.9 -39.8 -3.25 -35.25 L-2.25 -26.3 Q1.2 -29.95 1.45 -35.3 1.55 -37.25 0.6 -45.95 3.5 -45.75 3.9 -41.95 4.1 -40.35 3.6 -34.8 5.5 -37.65 6.1 -39.05 7.05 -41.25 7.05 -43.8 7.05 -45.35 6.35 -47.75 5.65 -50.1 5.65 -51.65 5.65 -55.35 10.8 -56.25 L15.5 -56.9 Q18.45 -57.35 20.2 -58.1 19.4 -59.4 16.0 -60.95 13.25 -62.25 13.25 -64.2 13.25 -66.45 14.9 -68.55 L18.15 -72.4 Q20.8 -76.3 21.8 -80.3 22.6 -83.65 22.6 -89.05 22.6 -90.5 24.3 -91.45 L27.15 -93.3 Q29.5 -95.8 30.5 -97.9 31.65 -100.3 31.65 -103.35 31.65 -105.05 30.6 -107.55 29.55 -110.05 29.55 -111.7 29.55 -112.4 30.45 -113.3 31.3 -114.2 31.3 -114.85 L31.3 -116.7 27.15 -116.7 29.35 -120.15 Q30.6 -121.95 30.6 -123.8 30.6 -125.35 28.7 -127.2 26.8 -129.1 26.8 -130.6 26.8 -132.35 28.25 -134.65 29.65 -137.0 29.65 -138.7 29.65 -148.15 24.6 -154.5 19.25 -161.3 10.55 -161.3 L0.85 -161.0" fill="#940000" fill-rule="evenodd" stroke="none"/>
    <path d="M-7.75 -153.4 L-5.2 -156.4 -8.7 -156.75 Q-13.45 -156.75 -16.5 -155.5 -20.4 -153.9 -20.4 -150.4 -20.4 -149.0 -18.9 -148.15 -17.6 -147.45 -15.85 -147.45 -12.55 -147.45 -9.95 -150.5 L-7.75 -153.4" fill="#b52910" fill-rule="evenodd" stroke="none"/>
    <path d="M2.2 -153.65 Q1.15 -152.9 -0.7 -152.1 L-3.6 -150.75 Q-6.8 -149.15 -6.8 -146.45 -6.8 -144.35 -4.65 -143.2 -3.8 -142.7 -0.2 -141.6 0.0 -143.8 2.35 -145.55 L6.35 -148.85 9.75 -153.3 Q11.75 -155.4 14.35 -155.4 16.55 -155.4 18.05 -153.7 19.5 -152.0 19.5 -149.7 19.5 -147.85 18.15 -146.1 19.6 -146.4 21.25 -147.05 L24.3 -148.15 Q20.3 -157.45 11.75 -157.45 9.0 -157.45 6.65 -156.45 4.8 -155.65 2.2 -153.65" fill="#b52910" fill-rule="evenodd" stroke="none"/>
    <path d="M26.05 -138.6 Q26.05 -140.55 23.8 -141.95 21.75 -143.25 19.5 -143.25 17.15 -143.25 14.65 -142.45 L9.85 -140.85 9.85 -144.95 Q6.4 -143.8 3.95 -139.15 L6.2 -137.65 Q7.45 -136.85 7.45 -135.7 7.45 -135.15 6.9 -134.6 L6.0 -133.6 Q7.7 -132.85 9.25 -131.25 L11.65 -128.35 Q14.5 -124.85 17.6 -124.85 21.95 -124.85 24.2 -129.4 26.05 -133.1 26.05 -138.6" fill="#b52910" fill-rule="evenodd" stroke="none"/>
    <path d="M4.3 -127.85 Q3.55 -128.8 3.4 -131.0 3.25 -133.2 2.55 -134.15 1.3 -135.8 -0.9 -136.3 L-5.25 -136.55 Q-10.05 -136.55 -13.6 -133.4 -17.2 -130.15 -17.2 -125.55 -17.2 -122.3 -14.5 -120.15 -11.95 -118.15 -8.45 -118.15 -5.95 -118.15 -3.75 -119.15 -2.45 -119.7 0.5 -121.6 L-0.9 -119.5 Q1.5 -118.75 2.9 -116.9 4.3 -115.05 4.3 -112.55 4.3 -111.0 3.15 -109.9 2.0 -108.75 0.4 -108.75 -0.65 -108.75 -1.85 -109.4 L-4.05 -110.5 Q-1.2 -105.65 3.75 -105.65 5.65 -105.65 7.15 -107.05 L9.8 -110.15 Q11.4 -107.55 11.5 -105.3 13.0 -106.8 13.5 -108.7 13.9 -110.1 13.9 -112.7 L13.85 -118.65 Q13.5 -121.65 11.5 -123.65 10.45 -124.7 7.8 -125.65 5.3 -126.55 4.3 -127.85" fill="#b52910" fill-rule="evenodd" stroke="none"/>
    <path d="M17.1 -109.3 Q18.8 -105.05 23.1 -105.05 24.9 -105.05 26.15 -106.4 27.4 -107.7 27.4 -109.55 27.4 -116.2 22.25 -122.0 L21.35 -121.25 Q20.9 -120.85 20.9 -120.3 20.9 -118.2 22.8 -115.4 24.65 -112.55 24.65 -110.5 24.65 -109.3 23.95 -108.4 23.2 -107.45 22.1 -107.45 21.1 -107.45 20.15 -108.2 L18.5 -109.6 17.1 -109.3" fill="#b52910" fill-rule="evenodd" stroke="none"/>
    <path d="M24.3 -99.75 L22.35 -99.75 Q20.6 -99.75 19.35 -98.5 18.15 -97.25 18.15 -95.5 L18.0 -90.2 Q17.9 -87.3 18.15 -84.85 18.7 -85.95 19.35 -88.6 19.9 -90.8 20.9 -92.15 L23.05 -94.3 Q24.3 -95.5 24.3 -96.9 L24.3 -99.75" fill="#b52910" fill-rule="evenodd" stroke="none"/>
    <path d="M1.8 -92.15 L1.8 -93.2 -0.7 -96.7 Q-2.3 -98.35 -4.25 -98.35 -5.25 -98.35 -6.15 -97.8 L-7.85 -96.65 Q-6.5 -94.45 -3.7 -93.55 L1.8 -92.15" fill="#b52910" fill-rule="evenodd" stroke="none"/>
    <path d="M1.25 -72.2 Q0.85 -73.4 -0.3 -73.65 -1.8 -74.0 -1.9 -71.7 L-2.0 -67.45 1.1 -67.15 1.45 -69.7 1.25 -72.2" fill="#b52910" fill-rule="evenodd" stroke="none"/>
    <path d="M-19.8 -134.2 Q-20.25 -133.15 -22.6 -129.95 -24.3 -127.6 -24.3 -125.35 -24.3 -118.1 -18.45 -115.45 L-20.5 -121.05 Q-21.2 -123.75 -21.2 -126.9 -21.2 -130.1 -19.8 -134.2" fill="#b52910" fill-rule="evenodd" stroke="none"/>
    <path d="M1.2 -128.9 Q1.2 -125.65 -2.15 -123.9 -4.95 -122.45 -9.05 -122.45 L-12.75 -122.45 -12.75 -125.55 Q-12.75 -127.35 -10.5 -129.9 -8.1 -132.5 -7.95 -134.2 -15.15 -131.1 -15.15 -125.9 -15.15 -122.65 -12.9 -120.3 -10.6 -117.95 -7.4 -117.95 -5.15 -117.95 -3.25 -119.25 -1.95 -120.15 0.0 -122.45 2.8 -120.55 3.9 -119.25 5.5 -117.3 5.5 -114.8 5.5 -113.85 5.1 -112.75 L4.45 -110.65 Q6.6 -114.0 6.6 -117.35 6.6 -118.9 5.65 -120.65 L4.1 -123.8 Q5.95 -123.8 7.3 -121.9 L9.7 -118.3 Q9.7 -122.65 7.45 -126.35 6.35 -128.2 2.05 -133.2 1.35 -132.35 1.25 -131.2 L1.2 -128.9" fill="#ce5a18" fill-rule="evenodd" stroke="none"/>
    <path d="M11.5 -136.65 Q11.5 -135.1 13.95 -132.7 16.4 -130.25 16.4 -128.7 L18.15 -128.7 Q18.65 -129.85 21.4 -132.6 23.7 -134.85 23.7 -136.65 23.7 -138.85 18.45 -140.75 16.8 -141.35 14.15 -139.85 11.5 -138.35 11.5 -136.65" fill="#ce5a18" fill-rule="evenodd" stroke="none"/>
    <path d="M19.85 -149.0 Q19.05 -146.7 18.15 -146.1 L22.2 -146.35 Q24.3 -146.8 24.3 -148.5 24.3 -149.65 23.65 -150.5 22.9 -151.45 21.9 -151.25 20.55 -151.0 19.85 -149.0" fill="#ce5a18" fill-rule="evenodd" stroke="none"/>
    <path d="M-18.75 -135.25 Q-23.6 -132.7 -23.6 -128.9 -23.6 -126.4 -22.45 -124.2 L-19.8 -120.05 Q-19.8 -122.0 -20.5 -125.0 -21.2 -128.0 -21.2 -129.9 -21.2 -132.45 -18.75 -135.25" fill="#ce5a18" fill-rule="evenodd" stroke="none"/>
    <path d="M-23.85 -150.65 Q-23.85 -155.8 -18.45 -158.45 -14.0 -160.65 -7.4 -160.65 -4.25 -160.65 -0.6 -159.6 L-6.45 -161.85 Q-9.6 -163.05 -12.4 -163.05 -19.2 -163.05 -24.25 -158.75 -29.45 -154.3 -29.45 -147.8 -29.45 -146.55 -30.0 -145.45 L-33.8 -139.25 Q-35.05 -137.15 -35.05 -134.85 -35.05 -131.85 -33.35 -129.05 L-29.8 -123.8 -31.6 -122.9 Q-32.55 -122.3 -32.55 -121.4 -32.55 -120.3 -32.0 -119.5 -31.45 -118.65 -30.45 -118.65 -28.15 -118.65 -26.9 -121.2 L-25.2 -126.3 -22.85 -130.65 Q-21.45 -133.0 -21.45 -135.15 -21.45 -138.0 -24.9 -139.8 L-22.3 -141.05 Q-21.1 -141.85 -21.1 -143.15 -21.1 -144.7 -22.45 -146.9 -23.85 -149.1 -23.85 -150.65" fill="#312110" fill-rule="evenodd" stroke="none"/>
    <path d="M6.2 -149.4 Q4.75 -146.35 3.75 -145.25 2.1 -143.35 -0.2 -143.35 -4.35 -143.35 -7.6 -150.9 -9.3 -150.2 -11.1 -148.85 L-14.45 -146.45 Q-13.95 -144.8 -12.4 -143.7 L-15.5 -143.35 Q-15.5 -143.05 -15.85 -142.65 L-16.2 -141.95 Q-16.2 -141.5 -15.5 -140.9 -14.8 -140.3 -14.8 -139.8 -14.8 -137.95 -16.6 -136.45 L-20.05 -133.95 Q-18.2 -134.35 -16.55 -135.7 -15.7 -136.4 -13.95 -138.4 L-11.35 -140.85 Q-9.75 -141.95 -7.85 -141.95 -3.6 -141.95 0.05 -139.15 2.25 -137.5 5.95 -133.05 9.65 -128.6 11.85 -126.95 15.5 -124.15 19.75 -124.15 21.4 -124.15 22.6 -125.1 23.85 -126.1 24.0 -127.7 L20.6 -126.9 17.2 -126.3 Q14.45 -126.3 12.5 -128.55 11.15 -130.15 9.7 -133.6 L7.7 -136.7 Q6.5 -138.4 6.5 -140.0 6.5 -141.75 7.65 -143.05 8.85 -144.35 10.55 -144.35 11.4 -144.35 12.05 -142.85 12.7 -141.3 13.5 -141.3 16.45 -141.3 18.2 -144.1 19.75 -146.6 19.75 -150.05 19.75 -152.5 17.45 -154.0 15.4 -155.4 12.6 -155.4 10.3 -155.4 8.7 -153.5 7.7 -152.4 6.2 -149.4" fill="#4a3929" fill-rule="evenodd" stroke="none"/>
    <path d="M24.2 -129.35 Q20.7 -127.7 15.3 -127.7 L18.25 -123.5 Q19.9 -121.4 22.1 -121.4 L24.05 -121.4 24.4 -122.7 24.05 -124.05 Q23.7 -124.85 23.7 -125.35 23.7 -127.2 26.8 -128.85 29.9 -130.55 29.9 -132.35 29.9 -137.3 28.9 -140.4 28.2 -139.75 28.45 -138.2 L28.9 -135.6 Q28.6 -131.4 24.2 -129.35" fill="#000000" fill-rule="evenodd" stroke="none"/>
    <path d="M24.2 -129.35 Q20.7 -127.7 15.3 -127.7 L18.25 -123.5 Q19.9 -121.4 22.1 -121.4 L24.05 -121.4 24.4 -122.7 24.05 -124.05 Q23.7 -124.85 23.7 -125.35 23.7 -127.2 26.8 -128.85 29.9 -130.55 29.9 -132.35 29.9 -137.3 28.9 -140.4 28.2 -139.75 28.45 -138.2 L28.9 -135.6 Q28.6 -131.4 24.2 -129.35 Z" fill="none" stroke="#000000" stroke-linecap="round" stroke-linejoin="round" stroke-width="1.0"/>
    <path d="M25.7 -125.15 L26.5 -120.3 Q26.5 -119.25 26.8 -117.65 L27.25 -115.3 Q27.5 -113.05 25.25 -113.05 24.35 -113.05 23.4 -113.55 L21.65 -114.45 Q21.65 -112.1 19.85 -110.25 L15.8 -107.15 12.4 -104.3 Q10.45 -102.9 8.4 -102.9 L3.15 -102.55 -2.0 -102.9 1.8 -101.2 Q3.95 -100.3 3.95 -98.6 3.95 -97.8 2.75 -96.9 1.55 -96.0 1.55 -95.15 1.55 -93.1 3.8 -92.05 5.65 -91.15 8.35 -91.15 9.65 -91.15 10.6 -91.85 11.6 -92.6 11.6 -93.8 11.6 -94.95 9.15 -95.6 6.7 -96.25 6.7 -97.4 6.7 -100.85 10.65 -102.3 L14.45 -103.3 18.55 -104.05 19.0 -103.0 19.25 -101.9 Q19.25 -100.7 18.5 -99.7 L16.85 -97.9 Q18.95 -97.7 20.95 -97.9 L18.4 -91.55 Q16.8 -88.45 14.0 -86.65 12.7 -85.8 10.45 -86.25 7.95 -86.75 6.8 -86.3 L4.4 -84.6 Q3.1 -83.45 1.9 -83.45 0.45 -83.45 -1.75 -84.15 L-5.45 -84.85 -11.05 -83.8 -14.55 -88.4 Q-16.55 -90.85 -16.55 -93.35 -16.55 -95.55 -14.95 -97.2 -13.35 -98.8 -11.2 -98.8 -9.95 -98.8 -7.85 -97.75 L-7.5 -99.2 Q-7.5 -101.6 -10.45 -104.45 -13.45 -107.35 -13.45 -109.7 -13.45 -111.2 -12.45 -112.3 -11.45 -113.4 -10.0 -113.4 -8.15 -113.4 -5.3 -112.4 -2.45 -111.35 -0.6 -111.35 3.45 -111.35 6.35 -114.8 5.3 -115.45 3.6 -115.45 2.25 -115.45 0.55 -117.25 -1.1 -119.0 -2.5 -119.0 -4.0 -119.0 -6.15 -118.15 -8.35 -117.3 -9.8 -117.3 -13.0 -117.3 -15.15 -120.05 -16.95 -122.35 -17.65 -126.05 -19.05 -124.65 -19.05 -122.45 -19.05 -120.45 -17.85 -118.2 L-15.85 -114.1 Q-19.05 -113.9 -19.05 -111.7 -19.05 -110.75 -18.25 -109.55 -17.35 -108.25 -17.2 -107.45 -20.8 -105.7 -20.4 -101.3 -24.75 -102.9 -27.65 -106.5 -29.25 -108.4 -32.55 -114.45 L-32.85 -109.7 Q-32.85 -107.05 -31.6 -104.55 L-28.85 -100.35 -26.15 -96.1 Q-24.9 -93.6 -24.9 -90.95 -24.9 -89.55 -25.25 -87.3 -25.65 -85.1 -25.65 -83.65 -25.65 -78.3 -22.75 -72.15 -19.45 -65.15 -15.25 -64.65 L-17.75 -87.0 Q-16.9 -85.45 -15.85 -82.15 L-14.15 -77.05 Q-12.05 -71.65 -8.9 -73.75 L-9.85 -76.3 Q-10.35 -77.7 -10.35 -79.0 -10.35 -79.9 -9.5 -80.5 -8.7 -81.05 -7.65 -81.05 L-5.1 -80.75 -2.7 -81.0 -2.35 -78.25 Q-2.35 -77.35 -3.05 -75.15 -1.45 -74.45 -0.95 -74.45 1.4 -74.45 2.95 -77.05 L4.25 -79.4 6.0 -81.75 Q6.55 -80.55 9.15 -78.25 11.25 -76.45 11.25 -74.55 L11.25 -70.25 Q11.25 -68.65 12.45 -67.55 13.65 -66.45 15.3 -66.45 16.6 -66.45 17.55 -67.8 L19.25 -70.3 Q23.4 -75.2 23.4 -80.9 23.4 -82.35 22.35 -84.55 21.3 -86.75 21.3 -88.2 21.3 -90.7 22.95 -92.85 L26.65 -96.3 Q29.35 -98.45 30.35 -99.7 32.0 -101.85 32.0 -104.35 L30.95 -108.5 30.0 -105.05 28.9 -101.8 Q27.45 -98.4 24.4 -98.1 24.2 -99.2 23.2 -101.25 22.35 -102.95 22.35 -104.35 22.35 -107.15 24.1 -109.2 25.9 -111.35 28.55 -111.35 L29.35 -110.9 29.9 -109.95 32.0 -116.15 29.9 -116.5 30.8 -118.85 Q31.3 -120.1 31.3 -121.25 31.3 -124.25 30.45 -126.25 29.3 -128.8 27.15 -128.3 25.35 -127.9 25.7 -125.15" fill="#4a3929" fill-rule="evenodd" stroke="none"/>
    <path d="M9.6 -62.15 Q8.65 -62.6 8.65 -63.35 8.65 -64.2 9.2 -65.4 9.7 -66.65 9.7 -67.45 9.7 -67.85 9.3 -68.25 L8.65 -68.85 Q6.45 -68.15 5.05 -66.05 4.25 -64.8 3.1 -61.85 2.0 -58.9 1.15 -57.65 -0.25 -55.65 -2.5 -55.0 L-2.1 -55.75 -1.85 -56.55 -2.15 -57.6 -2.5 -58.6 Q-2.5 -60.1 -1.4 -62.25 -0.35 -64.45 -0.35 -65.9 -0.35 -66.6 -1.05 -68.5 -2.95 -65.75 -6.65 -65.75 -9.8 -65.75 -12.35 -69.0 L-14.45 -71.95 Q-15.8 -73.7 -17.05 -74.7 L-17.05 -60.6 Q-17.05 -56.35 -14.4 -52.35 L-11.8 -48.8 -9.05 -44.85 Q-5.4 -39.0 -4.0 -34.3 -2.5 -29.3 -2.5 -22.65 -1.45 -24.9 -0.55 -30.6 0.15 -35.2 2.4 -37.95 L4.8 -35.15 Q7.65 -38.95 7.65 -41.9 7.65 -43.45 6.75 -45.85 5.85 -48.2 5.85 -49.75 5.85 -52.25 7.75 -54.0 9.65 -55.75 12.2 -55.75 L27.75 -55.75 Q14.5 -57.45 13.5 -66.8 L11.4 -61.6 9.6 -62.15" fill="#4a3929" fill-rule="evenodd" stroke="none"/>
    <path d="M10.05 -64.9 Q11.85 -67.8 11.85 -71.1 11.85 -72.1 10.8 -74.0 9.6 -71.05 6.0 -59.45 L10.05 -64.9" fill="#000000" fill-rule="evenodd" stroke="none"/>
    <path d="M4.9 -81.3 Q1.3 -81.3 -1.3 -78.3 -2.5 -76.95 -5.45 -71.7 -2.0 -71.7 0.6 -73.85 2.55 -75.5 4.9 -79.25 L4.9 -81.3" fill="#000000" fill-rule="evenodd" stroke="none"/>
    <path d="M-18.7 -75.2 Q-18.7 -70.15 -14.9 -66.7 -11.2 -63.25 -6.05 -63.25 L-3.55 -63.6 Q-4.75 -64.8 -7.05 -65.5 -9.3 -66.2 -10.45 -67.4 -12.25 -68.8 -14.25 -72.7 -16.0 -76.25 -18.35 -77.45 L-18.7 -75.2" fill="#000000" fill-rule="evenodd" stroke="none"/>
    <path d="M-10.85 -86.65 L-9.4 -87.0 -12.75 -91.6 Q-14.75 -94.15 -15.95 -96.3 -18.5 -95.7 -21.1 -96.3 L-20.05 -89.75 Q-19.75 -89.8 -19.4 -90.35 -19.05 -90.8 -18.7 -90.8 -16.95 -90.8 -14.75 -88.75 -12.55 -86.65 -10.85 -86.65" fill="#000000" fill-rule="evenodd" stroke="none"/>
    <path d="M9.15 -102.2 Q7.1 -100.75 6.7 -98.8 L9.45 -97.7 12.1 -96.35 Q14.1 -101.1 12.7 -105.0 L9.15 -102.2" fill="#000000" fill-rule="evenodd" stroke="none"/>
    <path d="M28.65 -105.05 Q27.25 -102.05 23.4 -98.3 19.55 -94.6 18.2 -91.45 20.3 -92.0 22.25 -94.0 L25.8 -97.4 29.55 -100.3 Q31.3 -102.05 31.3 -104.2 31.3 -106.2 30.6 -108.15 29.8 -110.35 28.9 -109.2 28.35 -108.5 28.6 -107.2 28.9 -105.7 28.65 -105.05" fill="#000000" fill-rule="evenodd" stroke="none"/>
    <path d="M-19.65 -99.15 Q-17.85 -99.15 -16.75 -100.7 -15.7 -102.1 -15.7 -104.1 -15.7 -104.65 -16.65 -105.0 L-18.1 -105.65 Q-21.2 -104.35 -21.2 -102.65 L-21.2 -99.45 -19.65 -99.15" fill="#846b4a" fill-rule="evenodd" stroke="none"/>
    <path d="M-23.95 -88.3 L-25.65 -88.3 -25.65 -85.1 Q-25.65 -83.6 -24.45 -82.45 L-21.8 -80.7 -20.65 -81.9 Q-20.15 -82.55 -20.15 -83.3 -20.15 -86.8 -23.95 -88.3" fill="#846b4a" fill-rule="evenodd" stroke="none"/>
    <path d="M-29.2 -137.75 Q-26.15 -137.75 -26.15 -143.5 L-26.45 -145.3 Q-27.55 -144.65 -28.85 -142.9 -30.1 -141.2 -31.25 -140.5 L-31.25 -138.1 -29.2 -137.75" fill="#846b4a" fill-rule="evenodd" stroke="none"/>
    <path d="M-31.25 -130.1 Q-29.25 -129.05 -28.65 -129.05 -26.95 -129.05 -25.7 -130.0 -24.35 -131.05 -24.35 -132.6 L-24.35 -134.2 Q-29.5 -134.2 -31.25 -130.1" fill="#846b4a" fill-rule="evenodd" stroke="none"/>
    <path d="M12.3 -79.6 Q14.7 -78.55 16.95 -78.55 20.95 -78.55 22.95 -81.65 20.15 -83.5 16.75 -83.05 13.2 -82.5 12.3 -79.6" fill="#846b4a" fill-rule="evenodd" stroke="none"/>
    <path d="M12.55 -73.15 L15.65 -71.95 19.1 -71.95 Q18.55 -73.8 15.8 -74.45 13.0 -75.05 12.55 -73.15" fill="#846b4a" fill-rule="evenodd" stroke="none"/>
    <path d="M-8.85 -53.45 L-10.85 -56.8 Q-12.2 -58.5 -13.85 -59.05 L-2.5 -38.65 Q-2.2 -40.1 -2.3 -41.7 L-2.5 -44.75 Q-2.5 -47.4 1.0 -49.15 L-1.3 -49.25 -3.7 -49.05 Q-5.45 -49.05 -6.8 -50.4 -7.65 -51.25 -8.85 -53.45" fill="#846b4a" fill-rule="evenodd" stroke="none"/>
    <path d="M16.05 -151.25 L13.25 -151.65 Q11.6 -151.55 11.6 -150.4 11.6 -148.15 15.65 -148.15 L17.8 -148.5 17.0 -149.9 16.05 -151.25" fill="#846b4a" fill-rule="evenodd" stroke="none"/>
    <path d="M13.9 -48.3 L12.2 -51.4 11.15 -48.3 Q12.75 -47.45 13.9 -48.3" fill="#312110" fill-rule="evenodd" stroke="none"/>
    <path d="M14.7 -53.9 L15.05 -52.85 16.05 -50.7 Q17.3 -52.25 17.45 -53.1 L14.7 -53.9" fill="#312110" fill-rule="evenodd" stroke="none"/>
    <path d="M12.9 -37.6 Q12.9 -38.45 12.0 -39.1 L10.45 -39.25 Q9.35 -38.45 10.45 -35.8 L12.55 -35.8 12.9 -37.6" fill="#312110" fill-rule="evenodd" stroke="none"/>
    <path d="M2.15 -28.15 L4.2 -28.15 Q3.9 -28.65 3.05 -28.7 2.15 -28.7 2.15 -28.15" fill="#312110" fill-rule="evenodd" stroke="none"/>
    <path d="M-11.45 -37.9 L-11.2 -33.85 Q-11.2 -32.7 -10.05 -32.0 -9.0 -31.4 -7.7 -31.5 -8.25 -32.75 -9.65 -34.7 -10.9 -36.5 -11.45 -37.9" fill="#312110" fill-rule="evenodd" stroke="none"/>
    <path d="M-7.95 -24.3 L-7.2 -23.9 Q-6.7 -23.6 -6.4 -23.6 L-5.6 -23.9 -4.85 -24.3 Q-5.4 -26.0 -6.4 -26.0 -7.05 -26.0 -7.95 -24.3" fill="#312110" fill-rule="evenodd" stroke="none"/>
    <path d="M-4.15 -20.05 L-4.4 -17.0 Q-2.4 -17.0 -0.7 -17.65 -1.65 -19.25 -4.15 -20.05" fill="#312110" fill-rule="evenodd" stroke="none"/>
    <path d="M-16.6 -45.9 Q-16.2 -44.4 -15.25 -43.15 -15.25 -44.8 -16.6 -45.9" fill="#312110" fill-rule="evenodd" stroke="none"/>
    <path d="M16.05 -45.55 L16.05 -43.45 Q16.9 -43.45 18.45 -44.5 L16.05 -45.55" fill="#312110" fill-rule="evenodd" stroke="none"/>
    <path d="M-21.45 -50.7 L-19.8 -49.0 Q-18.95 -49.35 -18.45 -50.0 L-19.85 -50.85 -21.45 -50.7" fill="#312110" fill-rule="evenodd" stroke="none"/>
    <path d="M9.1 -29.2 Q10.6 -27.9 12.2 -27.8 L12.55 -29.9 Q10.2 -30.9 9.1 -29.2" fill="#312110" fill-rule="evenodd" stroke="none"/>
  </g>
</svg>
