<?xml version="1.0" encoding="UTF-8" standalone="no"?>
<svg xmlns:xlink="http://www.w3.org/1999/xlink" height="130.85px" width="65.5px" xmlns="http://www.w3.org/2000/svg">
  <g transform="matrix(1.0, 0.0, 0.0, 1.0, 34.3, 164.45)">
    <path d="M2.45 -162.85 Q-1.45 -161.7 -4.0 -161.7 -6.05 -161.7 -9.2 -163.1 -12.3 -164.45 -14.4 -164.45 -20.65 -164.45 -24.95 -159.85 -29.25 -155.25 -29.25 -148.9 L-28.9 -147.7 Q-28.55 -146.95 -28.55 -146.5 -31.6 -145.45 -31.3 -142.85 -33.8 -142.0 -33.8 -140.8 -33.8 -136.05 -30.4 -133.7 -32.9 -130.65 -32.9 -128.5 L-32.9 -120.9 Q-34.3 -119.95 -34.3 -117.6 -34.3 -113.7 -32.7 -110.15 -32.35 -109.45 -30.8 -108.6 -29.5 -107.9 -29.5 -106.95 -29.5 -106.2 -30.05 -105.0 -30.6 -103.85 -30.6 -103.05 -30.6 -96.65 -28.2 -92.05 -25.8 -87.35 -20.55 -83.85 L-21.5 -79.85 -19.05 -73.7 Q-17.75 -70.0 -16.45 -67.65 -15.35 -65.6 -12.2 -61.9 -9.55 -58.75 -8.45 -56.0 -7.05 -52.5 -6.3 -49.2 L-5.0 -42.05 -4.55 -36.5 Q-4.1 -33.6 -1.95 -33.6 0.4 -33.6 0.4 -38.65 L0.45 -53.25 1.6 -53.45 Q3.65 -53.45 3.65 -49.3 L3.45 -45.45 Q5.15 -47.5 5.15 -50.9 5.2 -55.9 5.5 -57.1 5.8 -58.55 7.0 -60.65 8.15 -62.7 8.45 -64.2 L9.4 -63.2 Q9.9 -62.6 10.5 -62.6 14.85 -62.6 14.85 -70.4 14.85 -71.5 14.05 -73.15 13.25 -74.75 13.25 -75.85 13.25 -82.85 17.6 -86.85 L23.1 -91.35 Q25.8 -93.95 25.8 -97.1 25.8 -98.75 25.25 -101.25 24.65 -103.75 24.65 -105.35 L24.65 -107.3 Q24.75 -108.3 25.55 -108.55 L28.05 -108.6 Q29.45 -108.5 30.05 -109.25 31.2 -110.6 31.2 -113.45 31.2 -115.85 29.85 -117.8 28.8 -119.3 26.45 -121.1 L29.7 -126.2 Q31.2 -128.9 31.2 -131.75 31.2 -132.95 30.1 -134.55 29.0 -136.2 29.0 -137.35 29.0 -138.55 29.35 -140.4 L29.65 -143.4 Q29.65 -145.15 28.55 -146.65 L26.15 -149.15 Q24.35 -150.7 23.7 -151.65 L22.9 -153.15 Q23.65 -157.7 19.05 -160.95 14.7 -164.0 8.9 -164.0 6.4 -164.0 2.45 -162.85" fill="#312110" fill-rule="evenodd" stroke="none"/>
    <path d="M-25.6 -152.3 Q-25.6 -151.25 -24.5 -150.65 -23.6 -150.15 -22.3 -150.15 -20.5 -150.15 -18.8 -151.85 -16.55 -154.05 -15.55 -154.5 L-10.85 -156.45 Q-8.5 -157.65 -7.35 -159.7 -10.3 -161.75 -13.8 -161.75 -18.5 -161.75 -21.9 -159.25 -25.6 -156.55 -25.6 -152.3" fill="#940000" fill-rule="evenodd" stroke="none"/>
    <path d="M5.45 -161.05 L-0.9 -160.2 Q-4.1 -159.25 -4.1 -156.55 -4.1 -154.5 -0.55 -154.5 1.55 -154.5 4.5 -156.2 7.5 -157.85 9.55 -157.85 L9.8 -159.0 Q9.8 -160.4 8.4 -160.8 L5.45 -161.05" fill="#940000" fill-rule="evenodd" stroke="none"/>
    <path d="M20.2 -149.45 L21.2 -149.9 18.55 -155.1 Q17.1 -157.8 15.25 -159.9 L16.35 -157.45 17.3 -154.95 18.05 -151.3 Q18.65 -149.45 20.2 -149.45" fill="#940000" fill-rule="evenodd" stroke="none"/>
    <path d="M-13.65 -149.75 Q-15.55 -149.65 -15.55 -148.3 -15.55 -147.2 -14.35 -146.6 -13.4 -146.05 -12.0 -146.05 -11.0 -146.05 -10.25 -146.5 -9.4 -147.0 -9.4 -147.85 -9.4 -148.25 -9.75 -148.85 L-10.1 -149.85 -13.65 -149.75" fill="#940000" fill-rule="evenodd" stroke="none"/>
    <path d="M15.45 -141.35 Q14.25 -142.55 11.75 -143.0 9.05 -143.45 7.9 -144.35 L5.05 -146.65 Q3.5 -147.75 1.75 -147.75 -0.2 -147.75 -2.75 -145.5 -5.3 -143.2 -7.3 -143.2 L-8.5 -143.55 -9.7 -143.85 Q-11.0 -143.85 -12.25 -143.1 L-14.5 -141.6 -16.15 -140.9 Q-17.0 -140.5 -17.0 -139.75 L-16.65 -138.7 -16.1 -137.7 Q-17.8 -136.75 -18.55 -134.75 L-19.7 -130.65 Q-19.7 -129.3 -20.6 -126.95 -21.55 -124.6 -21.55 -123.2 -21.55 -120.3 -20.35 -118.25 -18.95 -115.85 -16.55 -115.85 -13.0 -115.85 -10.4 -118.0 -7.65 -120.2 -7.65 -123.55 -7.65 -124.6 -8.15 -125.85 L-9.0 -128.15 Q-6.75 -128.15 -5.15 -131.15 L-3.05 -128.6 Q-2.05 -129.2 -1.0 -131.6 L0.6 -131.6 Q0.6 -128.2 2.85 -125.45 4.6 -126.45 6.1 -128.55 8.0 -131.15 9.05 -132.05 11.05 -130.3 11.45 -127.0 L11.3 -130.4 Q11.35 -133.05 13.15 -134.5 15.45 -132.8 15.45 -128.95 L15.25 -127.65 15.2 -126.35 Q15.55 -127.15 16.45 -128.4 L16.45 -124.85 16.15 -123.0 Q15.85 -121.9 15.9 -121.15 L17.8 -125.2 Q18.65 -127.35 18.65 -129.55 18.65 -134.2 18.3 -135.95 17.7 -139.1 15.45 -141.35" fill="#940000" fill-rule="evenodd" stroke="none"/>
    <path d="M20.55 -145.65 L17.15 -144.6 Q17.75 -142.75 20.65 -139.4 23.05 -136.65 23.05 -134.05 23.05 -133.15 22.1 -130.95 24.7 -130.1 26.3 -133.2 27.6 -135.8 27.6 -139.3 27.6 -143.8 23.05 -145.75 L23.95 -146.2 20.55 -145.65" fill="#940000" fill-rule="evenodd" stroke="none"/>
    <path d="M20.6 -117.65 L20.35 -115.75 Q20.35 -114.05 22.35 -114.05 23.25 -114.05 23.85 -114.85 24.4 -115.55 24.4 -116.55 24.4 -117.55 23.05 -117.7 L20.6 -117.65" fill="#940000" fill-rule="evenodd" stroke="none"/>
    <path d="M-8.0 -106.7 L-6.7 -106.7 Q-4.65 -106.7 -3.75 -109.3 L-3.05 -111.65 -2.1 -114.0 Q-4.2 -113.1 -5.55 -111.0 L-8.0 -106.7" fill="#940000" fill-rule="evenodd" stroke="none"/>
    <path d="M-16.95 -101.1 Q-16.85 -99.75 -16.05 -98.95 -14.7 -100.0 -14.7 -101.1 -14.7 -101.8 -15.65 -102.55 L-17.2 -103.7 -16.95 -101.1" fill="#940000" fill-rule="evenodd" stroke="none"/>
    <path d="M-11.5 -85.05 Q-12.85 -85.55 -12.85 -84.75 -12.85 -83.05 -11.2 -81.9 L-7.85 -79.95 Q-7.0 -79.4 -4.9 -77.55 -3.25 -76.1 -1.7 -75.4 -3.25 -77.4 -4.2 -80.1 L-6.05 -85.2 Q-7.8 -84.25 -9.15 -84.25 L-11.5 -85.05" fill="#940000" fill-rule="evenodd" stroke="none"/>
    <path d="M1.95 -73.8 L-0.25 -71.0 1.45 -70.35 Q2.9 -70.7 3.8 -71.9 4.85 -73.2 4.05 -74.2 3.25 -75.25 1.95 -73.8" fill="#940000" fill-rule="evenodd" stroke="none"/>
    <path d="M-3.7 -60.9 L-0.35 -60.9 -0.35 -62.25 Q-0.35 -64.05 -1.65 -66.0 -2.95 -68.0 -3.7 -66.65 -4.0 -66.1 -3.65 -65.2 L-3.25 -63.6 -3.7 -60.9" fill="#940000" fill-rule="evenodd" stroke="none"/>
    <path d="M-4.6 -152.75 Q-4.6 -154.2 -5.05 -154.2 L-7.05 -154.55 -9.05 -154.9 -11.4 -154.45 -13.7 -153.55 Q-12.95 -151.7 -11.15 -151.7 L-4.85 -151.7 -4.6 -152.75" fill="#4a3929" fill-rule="evenodd" stroke="none"/>
    <path d="M4.2 -153.1 Q-0.25 -150.85 -2.5 -150.35 L2.25 -150.35 Q4.75 -150.35 8.3 -148.2 11.9 -146.05 14.35 -146.05 15.35 -146.05 16.1 -146.7 16.85 -147.35 16.85 -148.35 16.85 -150.95 15.15 -152.9 13.4 -154.9 10.85 -154.9 7.85 -154.9 4.2 -153.1" fill="#4a3929" fill-rule="evenodd" stroke="none"/>
    <path d="M20.8 -126.95 Q18.75 -125.7 18.75 -123.75 18.75 -122.35 19.6 -121.3 20.45 -120.2 21.8 -120.2 25.0 -120.2 26.95 -123.15 28.75 -125.85 28.75 -129.55 28.75 -131.6 27.4 -131.6 26.6 -131.6 26.05 -130.45 25.45 -129.1 24.85 -128.85 L20.8 -126.95" fill="#4a3929" fill-rule="evenodd" stroke="none"/>
    <path d="M7.65 -126.05 Q6.7 -126.05 5.55 -124.7 4.45 -123.35 3.45 -123.35 1.95 -123.35 0.95 -124.6 0.35 -125.35 -0.55 -127.4 L-1.6 -126.5 Q-2.2 -126.05 -2.85 -126.05 -3.5 -126.05 -4.2 -127.1 -4.85 -128.1 -5.55 -128.1 -6.2 -128.1 -6.7 -127.6 -7.15 -127.1 -7.15 -126.4 -7.15 -125.2 -6.65 -123.4 -6.2 -121.55 -6.2 -120.4 -8.4 -114.25 -17.15 -114.25 L-19.6 -114.55 -21.95 -114.25 -22.15 -115.65 -21.75 -116.3 -21.5 -117.0 Q-21.5 -118.8 -22.85 -120.05 -24.2 -121.3 -26.05 -121.3 -28.7 -121.3 -30.65 -119.8 -32.7 -118.15 -32.7 -115.75 -32.7 -114.25 -31.6 -113.05 L-29.15 -111.15 -26.7 -109.25 Q-25.6 -108.0 -25.6 -106.5 -25.6 -104.9 -26.75 -102.55 -27.9 -100.2 -27.9 -98.6 -27.9 -93.85 -24.4 -90.4 -21.85 -87.85 -16.2 -85.0 -15.8 -87.5 -14.5 -87.5 L-11.85 -86.85 Q-10.25 -86.15 -9.2 -86.15 -8.0 -86.15 -6.3 -87.1 -4.6 -88.0 -3.45 -88.0 -2.4 -88.0 -1.95 -86.7 L-1.25 -84.3 Q-0.7 -86.0 0.15 -86.85 1.0 -85.65 0.8 -82.65 0.65 -79.9 1.95 -78.85 2.5 -78.4 6.9 -76.2 9.65 -74.8 10.4 -72.45 L9.65 -75.35 Q9.05 -77.0 9.05 -78.25 9.05 -79.05 9.8 -79.85 L10.85 -81.35 11.9 -85.9 Q12.4 -88.45 13.85 -89.8 17.25 -93.0 18.55 -95.0 20.45 -97.9 20.45 -101.45 20.45 -105.1 19.0 -107.2 20.25 -107.5 21.6 -108.75 L24.15 -110.6 27.35 -111.1 Q29.15 -111.3 29.15 -112.55 29.15 -116.1 27.0 -116.1 25.7 -116.1 24.25 -114.4 22.75 -112.65 21.5 -112.65 19.35 -112.65 18.5 -115.25 L17.25 -120.4 15.55 -119.7 Q14.65 -119.25 13.85 -119.25 14.55 -121.5 14.55 -124.05 14.55 -126.05 12.7 -127.4 11.5 -125.2 9.95 -125.2 9.5 -125.2 8.8 -125.65 L7.65 -126.05" fill="#4a3929" fill-rule="evenodd" stroke="none"/>
    <path d="M0.15 -67.65 Q-1.4 -67.65 -2.5 -69.3 L-4.65 -72.2 -6.45 -73.5 -8.1 -74.95 -9.75 -77.35 Q-10.7 -78.7 -11.7 -79.45 L-14.25 -80.15 Q-15.8 -80.35 -15.8 -81.35 L-17.15 -81.4 Q-18.55 -80.55 -18.55 -79.6 -18.55 -78.3 -17.6 -76.85 L-16.05 -74.25 -14.4 -69.3 Q-13.5 -66.7 -12.15 -64.65 L-8.95 -60.0 Q-7.1 -57.4 -6.2 -55.8 -3.55 -51.1 -3.55 -45.9 L-3.7 -40.45 Q-3.8 -37.5 -3.55 -34.95 -2.15 -35.45 -2.15 -36.4 L-2.2 -42.2 Q-2.2 -43.9 -2.85 -46.45 -3.55 -49.05 -3.55 -50.7 -3.55 -53.5 -1.95 -55.6 -0.25 -57.8 2.3 -57.8 4.3 -57.8 5.6 -55.75 5.85 -56.85 5.75 -58.15 L5.6 -60.5 Q5.6 -65.55 9.05 -67.65 L9.9 -67.45 Q10.4 -67.5 10.4 -67.85 10.4 -68.85 9.05 -69.65 7.5 -70.6 7.2 -71.3 L3.75 -69.1 Q1.85 -67.65 0.15 -67.65" fill="#4a3929" fill-rule="evenodd" stroke="none"/>
    <path d="M-21.1 -148.7 L-24.35 -148.95 Q-27.0 -148.95 -28.7 -145.2 L-30.15 -142.05 Q-31.15 -140.3 -32.45 -139.4 -32.05 -138.65 -30.05 -137.15 -28.55 -135.95 -28.55 -134.6 -28.55 -132.45 -30.15 -129.25 -31.75 -126.05 -31.75 -123.85 L-31.3 -122.25 Q-29.85 -123.2 -29.0 -124.75 -28.55 -125.6 -27.65 -128.0 L-27.1 -130.1 Q-26.7 -131.2 -25.8 -131.2 -23.75 -131.2 -23.3 -127.05 -21.4 -129.0 -20.55 -131.45 L-19.4 -136.65 Q-19.25 -137.45 -19.6 -140.05 -19.9 -142.0 -18.95 -143.0 -18.4 -143.6 -17.25 -143.85 -15.85 -144.15 -15.35 -144.4 L-17.25 -146.7 -17.95 -148.25 -21.1 -148.7" fill="#4a3929" fill-rule="evenodd" stroke="none"/>
    <path d="M-24.35 -115.2 L-23.85 -116.9 Q-23.85 -118.25 -24.85 -119.2 -25.8 -120.15 -27.2 -120.15 -27.7 -120.15 -27.85 -119.75 -28.1 -119.2 -28.4 -119.0 L-29.95 -117.25 Q-30.9 -116.3 -30.9 -115.3 -30.9 -113.6 -29.55 -112.4 -28.7 -111.7 -26.55 -110.65 L-23.4 -108.9 Q-21.85 -107.75 -21.6 -106.05 -21.5 -105.5 -21.75 -104.2 -21.95 -103.2 -21.6 -102.6 -21.3 -102.15 -20.25 -101.8 -19.2 -101.5 -18.85 -101.0 -18.55 -100.6 -17.9 -98.4 -17.4 -96.9 -16.35 -96.9 -14.95 -96.9 -14.05 -98.2 -13.25 -99.35 -13.15 -101.0 -5.15 -101.0 -5.15 -105.0 -5.15 -105.7 -6.25 -107.4 -3.55 -108.25 -3.55 -110.05 -3.55 -112.0 -5.3 -113.2 -6.9 -114.25 -9.15 -114.25 -10.75 -114.25 -13.2 -113.25 -15.6 -112.2 -17.25 -112.2 -17.9 -112.2 -18.65 -112.75 -19.55 -113.45 -20.0 -113.6 L-22.8 -113.9 Q-24.35 -114.1 -24.35 -115.2" fill="#635239" fill-rule="evenodd" stroke="none"/>
    <path d="M1.6 -122.0 Q-0.2 -122.0 -2.2 -120.6 -4.7 -118.9 -5.95 -118.55 L-3.85 -115.8 Q-2.6 -114.5 -1.0 -114.5 0.05 -114.5 0.7 -115.5 1.35 -116.5 1.15 -117.65 L6.8 -117.65 6.8 -120.15 5.65 -121.3 1.6 -122.0" fill="#635239" fill-rule="evenodd" stroke="none"/>
    <path d="M8.85 -121.2 Q8.85 -119.95 11.25 -119.95 12.3 -119.95 13.05 -120.55 13.85 -121.15 13.85 -122.1 13.85 -123.9 12.05 -124.5 10.85 -124.9 9.85 -123.7 8.85 -122.6 8.85 -121.2" fill="#635239" fill-rule="evenodd" stroke="none"/>
    <path d="M-30.6 -138.4 Q-30.6 -136.9 -27.35 -136.9 -25.25 -136.9 -23.85 -138.85 L-21.75 -143.0 -20.5 -144.5 Q-19.7 -145.3 -19.7 -146.1 -19.7 -146.9 -21.15 -146.9 L-25.65 -146.9 Q-25.65 -144.95 -28.1 -142.65 -30.6 -140.3 -30.6 -138.4" fill="#635239" fill-rule="evenodd" stroke="none"/>
    <path d="M13.65 -151.45 L10.5 -151.9 Q8.0 -151.9 8.0 -150.65 8.0 -148.1 12.85 -148.1 L15.05 -148.55 Q14.35 -150.8 13.65 -151.45" fill="#635239" fill-rule="evenodd" stroke="none"/>
    <path d="M22.35 -124.1 Q22.35 -122.25 24.2 -122.25 26.15 -122.25 27.3 -124.1 28.3 -125.75 28.3 -128.05 28.3 -129.25 26.0 -127.7 L23.6 -126.2 Q22.35 -125.35 22.35 -124.1" fill="#635239" fill-rule="evenodd" stroke="none"/>
    <path d="M24.85 -112.6 L24.85 -111.25 26.2 -111.25 Q27.6 -111.25 27.6 -113.55 27.6 -114.35 26.3 -113.9 25.05 -113.45 24.85 -112.6" fill="#635239" fill-rule="evenodd" stroke="none"/>
    <path d="M10.45 -116.8 Q8.9 -116.65 8.0 -115.6 7.4 -114.85 7.0 -113.2 6.65 -111.55 5.95 -110.8 5.45 -110.25 4.25 -110.3 L2.3 -110.1 Q-1.6 -107.75 -1.6 -100.9 -1.6 -99.3 0.75 -99.25 L2.9 -99.35 5.05 -99.2 Q6.05 -99.0 7.45 -97.45 8.7 -96.0 9.9 -96.0 L14.75 -96.0 Q16.85 -96.0 18.4 -97.2 20.05 -98.5 20.05 -100.45 20.05 -102.05 17.65 -103.75 15.25 -105.45 15.25 -107.05 15.25 -108.0 16.2 -109.2 17.1 -110.45 17.1 -111.35 17.1 -113.1 16.05 -114.45 L13.45 -116.75 10.45 -116.8" fill="#635239" fill-rule="evenodd" stroke="none"/>
    <path d="M-10.05 -65.6 Q-8.55 -66.35 -8.55 -67.55 -8.55 -69.45 -9.45 -71.25 L-11.45 -74.65 Q-11.95 -75.55 -13.15 -76.25 -14.45 -76.95 -14.45 -76.05 -14.45 -71.95 -13.75 -69.85 -12.8 -66.8 -10.05 -65.6" fill="#635239" fill-rule="evenodd" stroke="none"/>
    <path d="M-1.4 -61.4 Q-3.25 -58.6 -3.9 -55.95 L-2.8 -55.7 Q-1.4 -55.7 -1.4 -58.75 L-1.4 -61.4" fill="#635239" fill-rule="evenodd" stroke="none"/>
    <path d="M-16.0 -109.25 Q-13.7 -108.55 -12.55 -108.55 -9.5 -108.55 -7.6 -110.1 -9.25 -112.0 -12.45 -111.8 -15.8 -111.6 -16.0 -109.25" fill="#ad946b" fill-rule="evenodd" stroke="none"/>
    <path d="M-27.2 -113.05 Q-27.2 -111.25 -24.7 -111.25 L-21.3 -111.25 Q-21.5 -113.05 -24.35 -113.95 -27.2 -114.85 -27.2 -113.05" fill="#ad946b" fill-rule="evenodd" stroke="none"/>
    <path d="M-3.25 -119.9 Q-4.15 -119.0 -4.15 -118.0 -4.15 -116.55 -2.4 -116.55 -1.6 -116.55 -1.05 -117.3 -0.55 -118.0 -0.55 -118.9 -0.55 -120.15 -3.25 -119.9" fill="#ad946b" fill-rule="evenodd" stroke="none"/>
    <path d="M9.8 -111.25 L12.2 -111.0 Q13.65 -111.0 14.75 -111.75 15.9 -112.55 15.9 -113.85 15.9 -115.75 12.85 -115.15 9.8 -114.55 9.8 -112.65 L9.8 -111.25" fill="#ad946b" fill-rule="evenodd" stroke="none"/>
    <path d="M12.05 -103.7 Q8.7 -103.35 7.95 -99.4 L10.0 -99.2 9.55 -96.8 Q9.1 -95.3 9.1 -94.4 9.1 -93.15 10.25 -92.35 11.3 -91.65 12.7 -91.65 14.0 -91.65 14.95 -92.65 15.9 -93.65 15.9 -94.95 15.9 -96.0 15.0 -97.55 14.05 -99.05 14.05 -100.1 14.05 -100.55 14.85 -101.1 15.65 -101.6 15.65 -102.1 15.65 -103.95 12.05 -103.7" fill="#ad946b" fill-rule="evenodd" stroke="none"/>
    <path d="M-9.95 -96.5 Q-9.95 -99.6 -16.3 -99.6 -16.3 -97.65 -14.95 -96.25 -13.65 -94.8 -11.7 -94.8 -11.0 -94.8 -10.45 -95.3 -9.95 -95.8 -9.95 -96.5" fill="#ad946b" fill-rule="evenodd" stroke="none"/>
    <path d="M-25.4 -146.9 L-25.4 -144.8 Q-25.4 -143.45 -23.0 -143.45 -20.4 -143.45 -20.4 -145.2 -20.4 -146.55 -22.15 -146.8 L-25.4 -146.9" fill="#ad946b" fill-rule="evenodd" stroke="none"/>
    <path d="M-27.85 -139.3 Q-30.2 -138.7 -30.2 -137.15 L-30.0 -135.7 -27.6 -137.25 Q-26.3 -138.2 -25.0 -138.45 -25.5 -139.85 -27.85 -139.3" fill="#ad946b" fill-rule="evenodd" stroke="none"/>
    <path d="M9.45 -152.15 L11.6 -152.15 11.85 -153.2 Q11.85 -154.35 10.2 -154.25 8.65 -154.15 7.75 -153.2 9.05 -152.15 9.45 -152.15" fill="#ad946b" fill-rule="evenodd" stroke="none"/>
    <path d="M3.2 -144.3 Q1.3 -144.35 -0.5 -143.45 -2.7 -142.4 -5.5 -141.6 L-10.75 -140.1 Q-13.75 -139.1 -15.15 -135.95 L-16.9 -129.35 Q-17.1 -128.3 -18.25 -126.3 -19.2 -124.6 -19.2 -123.2 -19.2 -120.65 -18.0 -118.85 -16.7 -116.8 -14.5 -116.8 -11.5 -116.8 -10.05 -121.35 L-13.2 -121.9 Q-14.85 -122.4 -14.85 -123.75 -14.85 -124.55 -13.9 -124.95 L-12.1 -125.0 Q-12.1 -125.95 -12.55 -127.4 L-13.0 -129.8 Q-13.0 -131.55 -11.75 -134.05 -10.5 -136.55 -10.5 -138.25 -8.15 -138.25 -4.7 -139.65 -1.2 -141.0 1.1 -141.0 L4.05 -140.1 5.2 -140.1 5.4 -142.55 Q5.4 -144.15 3.2 -144.3" fill="#b52910" fill-rule="evenodd" stroke="none"/>
    <path d="M12.05 -139.6 Q8.25 -138.3 7.05 -137.3 L8.2 -136.15 Q7.4 -135.1 4.1 -134.05 1.4 -133.2 1.4 -131.4 1.4 -130.6 2.1 -130.05 2.75 -129.6 3.65 -129.6 5.15 -129.6 6.4 -132.3 7.65 -135.0 9.1 -135.0 9.5 -135.0 9.75 -134.6 L10.25 -133.85 11.4 -135.25 Q12.05 -135.95 12.85 -135.95 L13.9 -135.6 14.75 -135.0 Q15.35 -136.1 14.25 -137.4 L12.05 -139.6" fill="#b52910" fill-rule="evenodd" stroke="none"/>
    <path d="M22.8 -143.7 L19.2 -143.75 19.2 -141.8 Q19.2 -140.1 20.75 -139.05 22.1 -138.05 24.05 -138.05 25.1 -138.05 25.1 -140.1 25.1 -141.8 22.8 -143.7" fill="#b52910" fill-rule="evenodd" stroke="none"/>
    <path d="M6.1 -158.3 L4.3 -158.55 Q2.6 -158.55 1.4 -157.95 0.0 -157.2 0.0 -155.85 0.0 -155.2 1.15 -155.2 5.3 -155.2 6.1 -158.3" fill="#b52910" fill-rule="evenodd" stroke="none"/>
    <path d="M18.25 -152.15 Q18.25 -149.55 20.3 -149.25 L20.55 -149.65 20.75 -150.1 Q20.75 -151.1 18.25 -152.15" fill="#b52910" fill-rule="evenodd" stroke="none"/>
  </g>
</svg>
