<?xml version="1.0" encoding="UTF-8" standalone="no"?>
<svg xmlns:xlink="http://www.w3.org/1999/xlink" height="132.95px" width="65.9px" xmlns="http://www.w3.org/2000/svg">
  <g transform="matrix(1.0, 0.0, 0.0, 1.0, 34.5, 165.5)">
    <path d="M3.35 -163.75 Q-0.85 -161.65 -2.8 -161.25 L-8.5 -163.95 Q-11.6 -165.5 -14.4 -165.5 -18.05 -165.5 -20.7 -163.4 -23.5 -161.15 -23.5 -157.8 L-28.45 -157.8 Q-30.2 -157.8 -31.4 -156.3 -32.5 -154.85 -32.5 -152.95 -32.5 -151.9 -31.5 -150.35 -34.5 -148.35 -34.5 -144.2 -34.5 -140.1 -30.25 -137.05 L-32.55 -134.2 Q-33.75 -132.65 -33.75 -131.05 -33.75 -129.6 -32.7 -127.8 -31.5 -125.75 -31.25 -124.6 -34.0 -123.6 -34.0 -119.3 -34.0 -116.55 -32.4 -113.7 L-29.5 -108.45 -31.0 -103.9 Q-30.4 -100.2 -29.1 -97.7 -27.85 -95.25 -25.25 -92.55 -24.65 -91.95 -22.0 -90.9 -20.05 -90.1 -20.05 -88.65 L-20.1 -85.7 Q-20.1 -80.55 -17.35 -75.85 -15.65 -73.0 -11.25 -68.05 -6.8 -63.05 -5.15 -60.2 -2.4 -55.5 -2.4 -50.35 L-2.0 -44.1 Q-1.75 -40.75 -2.4 -37.85 -0.55 -39.9 -0.55 -42.6 L-0.55 -60.8 Q-0.55 -61.75 0.45 -64.85 2.5 -61.7 3.55 -58.3 L5.15 -51.05 Q6.15 -52.75 6.15 -54.45 6.15 -56.85 5.4 -60.5 4.65 -64.2 4.65 -66.55 4.65 -68.1 6.1 -69.35 L8.9 -71.6 11.45 -74.8 13.9 -78.1 17.1 -81.55 Q18.65 -83.45 18.65 -85.6 L18.65 -89.3 Q18.65 -89.95 19.45 -90.35 L20.95 -91.0 Q24.4 -93.5 24.4 -98.1 L24.4 -102.5 Q24.4 -103.7 23.65 -105.55 22.9 -107.35 22.9 -108.6 22.9 -109.8 24.45 -110.5 26.8 -111.55 27.15 -111.8 29.3 -113.65 30.2 -115.0 31.4 -116.8 31.4 -119.05 31.4 -120.45 29.65 -122.1 27.9 -123.75 27.9 -125.1 27.9 -126.65 29.3 -128.85 30.65 -131.0 30.65 -132.55 30.65 -133.5 29.8 -134.85 28.95 -136.2 28.95 -137.2 28.95 -137.75 29.6 -138.55 30.2 -139.3 30.2 -139.85 L30.2 -144.25 Q30.2 -146.75 27.95 -149.15 24.7 -152.55 24.15 -153.55 23.55 -154.65 23.5 -156.95 23.4 -159.1 22.65 -160.25 20.6 -163.4 17.05 -164.6 14.35 -165.5 9.5 -165.5 6.9 -165.5 3.35 -163.75" fill="#312110" fill-rule="evenodd" stroke="none"/>
    <path d="M3.2 -160.5 Q1.4 -160.3 -0.1 -159.2 L-3.0 -156.8 Q-1.5 -155.5 0.55 -156.95 2.4 -158.3 3.2 -160.5" fill="#940000" fill-rule="evenodd" stroke="none"/>
    <path d="M22.4 -152.0 L22.15 -150.45 Q22.15 -149.0 22.95 -147.95 23.8 -146.8 25.1 -146.8 L26.9 -147.05 Q25.65 -147.75 24.5 -149.35 L22.4 -152.0" fill="#940000" fill-rule="evenodd" stroke="none"/>
    <path d="M24.2 -143.55 L24.3 -140.05 24.2 -136.6 26.95 -136.6 26.95 -139.6 Q26.95 -141.8 24.2 -143.55" fill="#940000" fill-rule="evenodd" stroke="none"/>
    <path d="M23.6 -132.05 Q21.35 -134.65 17.05 -137.55 12.6 -140.55 10.45 -142.95 9.95 -143.5 10.05 -144.85 10.15 -146.15 9.7 -146.7 9.0 -147.55 7.7 -147.7 L5.25 -147.75 Q3.9 -147.75 1.95 -146.5 0.05 -145.2 -1.35 -145.2 L-7.2 -145.2 Q-10.15 -145.2 -12.3 -143.3 -14.5 -141.35 -14.5 -138.5 -14.5 -136.1 -12.15 -134.6 -10.05 -133.3 -7.2 -133.3 L4.0 -133.3 3.75 -135.1 Q3.75 -136.45 4.8 -137.35 5.8 -138.25 7.2 -138.25 8.45 -138.25 9.3 -137.0 L10.45 -134.4 10.95 -134.8 11.55 -135.05 Q14.05 -135.05 16.1 -133.15 L19.6 -129.05 19.85 -130.2 Q19.85 -131.25 21.15 -131.6 L23.6 -132.05" fill="#940000" fill-rule="evenodd" stroke="none"/>
    <path d="M-13.05 -127.55 Q-14.55 -126.9 -14.55 -125.65 -14.55 -124.25 -12.8 -122.3 -11.9 -123.4 -12.0 -125.0 -12.05 -126.65 -13.05 -127.55" fill="#940000" fill-rule="evenodd" stroke="none"/>
    <path d="M-13.3 -113.0 Q-10.7 -111.55 -7.35 -111.55 -5.1 -111.55 -3.9 -112.75 -4.7 -113.0 -6.35 -114.1 -7.65 -115.0 -8.85 -115.0 -9.85 -115.0 -11.05 -114.15 -12.5 -113.2 -13.3 -113.0" fill="#940000" fill-rule="evenodd" stroke="none"/>
    <path d="M13.4 -106.55 Q15.0 -106.55 15.9 -107.8 L15.9 -109.1 13.35 -109.3 10.7 -109.05 Q12.1 -106.55 13.4 -106.55" fill="#940000" fill-rule="evenodd" stroke="none"/>
    <path d="M19.45 -115.05 L21.65 -115.3 20.4 -115.65 Q19.65 -115.6 19.45 -115.05" fill="#940000" fill-rule="evenodd" stroke="none"/>
    <path d="M-7.2 -89.35 Q-3.7 -88.5 -3.1 -88.1 -2.1 -89.0 -2.1 -90.05 -2.1 -90.9 -2.85 -92.3 L-2.1 -92.05 Q-2.7 -93.3 -3.8 -93.3 -4.25 -93.3 -4.85 -92.7 L-5.95 -92.05 Q-6.4 -92.05 -6.9 -92.35 L-7.8 -92.8 -9.3 -92.55 -9.55 -91.55 Q-9.55 -89.9 -7.2 -89.35" fill="#940000" fill-rule="evenodd" stroke="none"/>
    <path d="M0.95 -84.8 Q0.55 -83.65 -0.45 -82.5 L-2.05 -80.35 Q-0.65 -79.6 0.2 -79.6 1.1 -79.6 1.65 -80.45 2.2 -81.2 2.2 -82.2 L1.65 -83.55 0.95 -84.8" fill="#940000" fill-rule="evenodd" stroke="none"/>
    <path d="M-1.95 -69.8 Q0.9 -69.8 0.9 -71.65 0.9 -72.55 -0.05 -73.2 L-1.85 -74.25 -1.95 -69.8" fill="#940000" fill-rule="evenodd" stroke="none"/>
    <path d="M26.3 -124.7 L26.65 -126.55 Q26.65 -127.8 26.1 -128.75 25.5 -129.8 24.5 -129.8 22.9 -129.8 22.55 -127.6 L21.9 -123.55 Q16.15 -129.7 9.9 -133.6 L8.7 -134.7 Q8.05 -135.3 7.35 -135.3 5.6 -135.3 5.6 -131.1 L2.2 -131.05 -2.8 -130.6 -7.85 -130.15 Q-9.1 -130.15 -11.85 -131.65 -14.6 -133.1 -15.85 -133.1 L-15.95 -136.95 Q-16.2 -138.85 -17.1 -140.6 -16.05 -141.3 -14.2 -143.25 -12.65 -144.9 -11.15 -145.55 L-7.85 -146.6 -4.6 -147.55 Q-1.15 -148.8 -1.15 -151.6 -1.15 -152.9 -2.3 -153.8 L-4.75 -155.05 Q-6.6 -155.8 -7.25 -156.35 -8.4 -157.25 -8.4 -158.55 L-7.9 -159.75 Q-7.9 -161.15 -8.95 -162.55 -10.15 -164.1 -11.95 -164.55 -16.8 -165.75 -22.55 -158.55 L-21.85 -156.85 Q-21.85 -156.1 -22.35 -155.55 -22.9 -155.0 -23.65 -155.0 L-26.1 -155.0 -29.25 -154.75 Q-30.75 -154.25 -30.75 -152.8 -30.75 -152.2 -30.1 -151.35 -29.5 -150.5 -29.5 -149.85 -29.5 -148.95 -30.75 -147.85 -32.05 -146.75 -32.05 -145.8 -32.05 -143.05 -30.5 -140.95 -29.3 -139.3 -26.55 -137.3 -27.1 -136.45 -29.65 -134.5 -31.5 -133.05 -31.5 -131.3 -31.5 -129.75 -30.0 -127.6 -28.5 -125.4 -28.5 -123.85 -28.5 -122.65 -30.4 -121.35 -32.3 -120.05 -32.3 -118.8 -32.3 -115.75 -30.55 -113.25 -29.4 -111.6 -26.3 -108.85 L-28.7 -106.1 Q-30.0 -104.65 -30.0 -103.05 -30.0 -99.8 -28.25 -97.15 -26.9 -95.15 -23.8 -92.55 -23.4 -92.25 -21.2 -91.5 -19.7 -91.0 -19.7 -89.9 L-19.85 -85.45 Q-19.85 -80.85 -16.35 -76.95 L-12.9 -73.6 -9.15 -69.85 Q-7.3 -67.75 -5.95 -64.1 -4.35 -59.9 -3.15 -58.05 L-3.15 -61.15 Q-3.15 -63.05 -4.25 -65.8 -5.35 -68.6 -5.35 -70.45 -5.35 -71.65 -4.5 -73.15 -3.55 -74.85 -3.4 -75.8 -5.85 -76.7 -8.4 -76.85 L-8.1 -78.75 -7.85 -80.6 Q-7.85 -82.25 -9.0 -83.65 L-11.45 -85.9 -13.95 -88.1 Q-15.1 -89.5 -15.1 -91.2 L-15.1 -95.05 Q-13.5 -94.3 -11.85 -94.55 L-8.4 -95.0 Q-5.0 -95.0 -2.25 -97.35 0.35 -95.5 1.4 -89.7 L2.3 -85.1 Q3.0 -82.6 4.15 -81.1 L8.15 -86.0 Q10.25 -88.75 12.9 -89.55 18.65 -91.15 20.45 -92.15 24.1 -94.15 24.1 -97.7 L24.1 -102.6 Q24.1 -104.5 23.2 -106.4 L21.4 -110.05 25.95 -112.7 Q28.15 -114.35 28.15 -116.65 28.15 -117.95 27.05 -119.75 25.9 -121.55 25.9 -122.8 L26.3 -124.7" fill="#4a3929" fill-rule="evenodd" stroke="none"/>
    <path d="M13.45 -161.25 Q10.0 -161.25 7.8 -156.9 L5.95 -153.1 Q4.7 -150.85 3.25 -149.6 L5.0 -150.2 6.7 -150.6 Q8.85 -150.6 10.1 -147.9 L11.15 -145.45 Q11.8 -143.95 12.5 -143.1 15.15 -139.7 16.65 -138.5 19.15 -136.55 22.15 -136.55 23.05 -136.55 23.3 -137.7 L23.4 -139.9 Q23.4 -141.6 22.15 -144.05 20.9 -146.5 20.9 -148.15 L20.65 -152.35 20.9 -154.75 Q21.05 -156.0 20.65 -157.05 18.85 -159.15 17.5 -160.05 15.7 -161.25 13.45 -161.25" fill="#4a3929" fill-rule="evenodd" stroke="none"/>
    <path d="M-30.25 -151.05 L-30.25 -146.55 -27.45 -147.15 -24.7 -147.55 Q-23.55 -147.55 -22.05 -146.45 -20.5 -145.3 -19.4 -145.3 L-17.05 -145.7 -14.75 -146.05 Q-13.2 -146.05 -11.65 -147.25 L-8.8 -149.3 Q-6.6 -150.3 -6.05 -150.7 -4.8 -151.6 -4.55 -153.0 -8.15 -155.75 -12.4 -155.75 -13.75 -155.75 -14.75 -154.4 L-16.55 -151.8 -17.05 -153.0 Q-17.05 -153.7 -17.65 -154.7 -18.3 -155.7 -18.3 -156.35 -18.3 -157.5 -17.45 -158.55 L-15.8 -160.45 -17.3 -160.95 Q-19.2 -160.95 -19.95 -158.05 -20.95 -154.4 -22.0 -153.5 -23.25 -152.45 -26.1 -152.3 -28.95 -152.15 -30.25 -151.05" fill="#635239" fill-rule="evenodd" stroke="none"/>
    <path d="M-24.55 -145.25 Q-26.2 -145.25 -27.45 -144.3 -28.75 -143.3 -28.75 -141.8 -28.75 -139.9 -26.7 -138.9 -25.0 -138.05 -22.55 -138.05 -21.3 -138.05 -20.4 -139.1 -19.6 -140.1 -19.6 -141.4 -19.6 -143.15 -21.15 -144.25 -22.6 -145.25 -24.55 -145.25" fill="#635239" fill-rule="evenodd" stroke="none"/>
    <path d="M-26.85 -134.3 Q-30.55 -131.85 -30.55 -128.8 -30.55 -126.85 -28.8 -125.55 -27.15 -124.35 -24.95 -124.35 -22.9 -124.35 -21.45 -125.65 -19.9 -127.0 -19.9 -128.95 -19.9 -131.4 -22.1 -132.9 -24.1 -134.3 -26.85 -134.3" fill="#635239" fill-rule="evenodd" stroke="none"/>
    <path d="M0.4 -128.3 Q-1.45 -129.5 -2.75 -129.5 -4.05 -129.5 -6.85 -128.0 -9.35 -131.75 -15.05 -130.75 -15.05 -127.95 -17.35 -126.05 -19.0 -124.65 -22.5 -123.3 L-26.45 -122.35 Q-28.5 -121.75 -28.5 -120.1 -28.5 -117.95 -26.5 -116.1 L-23.0 -112.55 Q-22.35 -111.55 -22.45 -109.9 -22.55 -107.9 -22.25 -107.05 -21.45 -104.8 -18.95 -104.05 L-13.95 -103.55 Q-12.6 -103.55 -11.65 -104.2 -10.6 -104.9 -10.6 -106.05 -10.6 -106.95 -10.95 -107.95 L-11.6 -109.85 -9.3 -108.35 Q-8.05 -107.55 -6.75 -107.55 -5.3 -107.55 -3.4 -108.85 -5.6 -105.35 -5.6 -101.35 -5.6 -100.3 -4.4 -99.3 L-3.35 -100.9 Q-2.75 -101.85 -2.0 -101.85 -0.25 -101.85 2.7 -99.15 5.25 -96.85 7.1 -97.8 L5.6 -105.55 7.9 -104.9 10.15 -104.55 Q11.35 -104.55 11.7 -106.15 L12.15 -109.1 Q12.45 -110.25 13.8 -110.6 L16.4 -111.1 Q20.2 -112.05 21.6 -112.8 24.1 -114.2 24.1 -116.6 24.1 -119.05 22.15 -120.7 20.3 -122.3 17.7 -122.3 13.35 -122.3 9.9 -118.85 L9.0 -117.15 Q8.55 -116.1 7.8 -116.1 L3.15 -116.1 2.65 -117.8 5.6 -117.85 Q6.9 -117.85 7.2 -119.75 7.6 -122.6 7.85 -123.05 8.75 -124.75 10.65 -125.35 L14.6 -125.8 14.6 -126.95 Q14.6 -128.55 13.3 -129.7 12.05 -130.75 10.4 -130.75 8.9 -130.75 6.95 -128.9 5.05 -127.05 3.5 -127.05 2.2 -127.05 0.4 -128.3" fill="#635239" fill-rule="evenodd" stroke="none"/>
    <path d="M-24.15 -104.5 Q-25.55 -104.5 -26.45 -103.3 -27.25 -102.2 -27.25 -100.65 -27.25 -97.6 -25.05 -95.5 -22.9 -93.35 -19.8 -93.35 -18.5 -93.35 -18.05 -95.0 L-17.85 -98.2 Q-17.85 -100.8 -19.7 -102.65 -21.55 -104.5 -24.15 -104.5" fill="#635239" fill-rule="evenodd" stroke="none"/>
    <path d="M14.45 -105.75 Q13.5 -104.7 13.45 -102.65 13.35 -100.0 13.0 -99.05 12.45 -97.6 11.05 -95.7 9.6 -93.7 9.0 -92.35 L14.05 -92.6 Q16.55 -93.05 18.2 -94.85 20.0 -96.8 20.05 -100.45 L19.7 -107.0 16.8 -106.95 Q15.35 -106.75 14.45 -105.75" fill="#635239" fill-rule="evenodd" stroke="none"/>
    <path d="M18.3 -157.55 Q17.05 -158.3 15.35 -158.3 12.8 -158.3 10.95 -156.75 9.0 -155.1 9.0 -152.7 9.0 -150.85 13.1 -150.85 15.7 -150.85 17.55 -151.9 19.7 -153.15 19.7 -155.3 19.7 -156.75 18.3 -157.55" fill="#635239" fill-rule="evenodd" stroke="none"/>
    <path d="M16.7 -143.4 Q16.7 -140.75 19.7 -139.8 L21.05 -140.05 21.05 -143.4 Q21.05 -144.9 20.1 -146.15 19.1 -147.5 17.95 -147.0 17.05 -146.65 16.8 -145.55 L16.7 -143.4" fill="#635239" fill-rule="evenodd" stroke="none"/>
    <path d="M13.9 -157.3 Q11.45 -157.05 11.45 -156.0 11.45 -154.7 14.4 -154.7 16.15 -154.7 16.15 -156.25 16.15 -156.7 13.9 -157.3" fill="#ad946b" fill-rule="evenodd" stroke="none"/>
    <path d="M-16.55 -149.6 L-16.55 -148.3 -14.3 -148.3 Q-14.15 -150.15 -12.35 -151.35 L-8.6 -153.25 -10.45 -154.7 Q-11.4 -155.5 -12.45 -155.5 -14.4 -155.5 -15.55 -153.6 -16.55 -151.95 -16.55 -149.6" fill="#ad946b" fill-rule="evenodd" stroke="none"/>
    <path d="M-24.6 -153.75 Q-26.15 -153.75 -27.25 -153.15 -28.55 -152.45 -28.55 -151.15 -28.55 -149.8 -26.25 -149.8 L-23.5 -149.8 -23.5 -152.75 -24.85 -153.0 -24.6 -153.75" fill="#ad946b" fill-rule="evenodd" stroke="none"/>
    <path d="M-25.1 -144.0 Q-29.3 -143.8 -29.3 -141.05 -29.3 -140.25 -28.75 -139.65 -28.2 -139.05 -27.45 -139.05 L-25.6 -139.7 -26.35 -140.6 Q-26.85 -141.15 -26.85 -141.65 -26.85 -142.65 -25.1 -144.0" fill="#ad946b" fill-rule="evenodd" stroke="none"/>
    <path d="M-30.55 -128.35 Q-30.55 -127.15 -30.0 -126.3 -29.45 -125.3 -28.45 -125.3 -26.85 -125.3 -26.85 -128.35 -26.85 -129.5 -27.4 -130.4 -28.05 -131.4 -29.05 -131.25 -30.55 -131.15 -30.55 -128.35" fill="#ad946b" fill-rule="evenodd" stroke="none"/>
    <path d="M-11.6 -127.75 Q-13.15 -127.75 -14.65 -126.2 -16.55 -124.25 -17.55 -123.8 -18.8 -123.25 -21.0 -122.9 L-24.45 -122.4 Q-28.25 -121.65 -28.25 -118.9 L-28.25 -116.6 -27.3 -116.35 Q-26.8 -116.35 -26.15 -116.85 -25.5 -117.35 -25.05 -117.35 -23.5 -117.35 -23.25 -115.25 L-23.0 -111.35 Q-22.05 -107.1 -17.3 -105.55 L-15.75 -105.55 Q-14.95 -105.7 -14.55 -106.3 L-16.45 -109.75 Q-17.3 -111.5 -17.3 -113.45 -17.3 -120.55 -14.55 -121.75 L-9.45 -122.0 Q-6.35 -121.9 -6.35 -123.55 -6.35 -124.8 -9.35 -127.05 L-11.6 -127.75" fill="#846b4a" fill-rule="evenodd" stroke="none"/>
    <path d="M-10.3 -115.55 L-10.3 -111.0 Q-10.3 -109.35 -6.2 -109.35 -4.75 -109.35 -3.75 -110.55 -2.85 -111.65 -2.85 -113.2 -2.85 -115.2 -5.45 -115.6 -6.8 -115.85 -10.3 -115.55" fill="#ad946b" fill-rule="evenodd" stroke="none"/>
    <path d="M2.75 -126.25 Q0.5 -127.55 -2.65 -127.55 -3.7 -127.55 -4.4 -126.55 -5.0 -125.6 -5.0 -124.4 -5.0 -123.35 -3.9 -122.4 L-2.05 -120.6 -1.4 -122.05 Q-1.0 -122.8 -0.3 -122.8 1.75 -122.8 4.9 -121.05 L5.2 -121.6 5.4 -122.2 Q5.4 -124.75 2.75 -126.25" fill="#ad946b" fill-rule="evenodd" stroke="none"/>
    <path d="M10.95 -130.5 Q8.8 -130.85 6.2 -130.5 L6.2 -128.2 Q6.2 -126.05 10.3 -126.05 11.7 -126.05 11.7 -127.9 11.7 -129.0 10.95 -130.5" fill="#ad946b" fill-rule="evenodd" stroke="none"/>
    <path d="M14.2 -116.05 Q14.2 -114.7 15.4 -113.7 16.55 -112.8 18.05 -112.8 20.15 -112.8 20.15 -116.8 20.15 -118.8 19.4 -120.15 18.55 -121.8 16.95 -121.75 14.2 -121.65 14.2 -116.05" fill="#ad946b" fill-rule="evenodd" stroke="none"/>
    <path d="M5.2 -114.75 Q1.75 -114.75 1.75 -112.65 1.75 -110.65 3.6 -109.4 5.3 -108.3 7.6 -108.3 9.1 -108.3 10.2 -108.95 11.45 -109.65 11.45 -110.9 11.45 -112.85 9.4 -113.9 7.7 -114.75 5.2 -114.75" fill="#ad946b" fill-rule="evenodd" stroke="none"/>
    <path d="M0.7 -107.0 L-1.1 -107.5 -4.75 -107.5 -4.75 -104.5 Q-2.55 -102.05 -0.05 -102.05 1.6 -102.05 2.2 -104.65 L0.7 -107.0" fill="#ad946b" fill-rule="evenodd" stroke="none"/>
    <path d="M-22.95 -103.55 Q-23.65 -103.55 -24.1 -102.95 L-24.55 -101.55 Q-24.55 -99.85 -23.55 -98.6 -22.5 -97.3 -20.95 -97.3 -19.35 -97.3 -19.35 -100.05 -19.35 -101.5 -20.4 -102.55 -21.5 -103.55 -22.95 -103.55" fill="#ad946b" fill-rule="evenodd" stroke="none"/>
    <path d="M-9.1 -140.85 Q-9.3 -142.6 -10.35 -143.3 -10.5 -142.45 -11.35 -140.85 -12.05 -139.5 -12.05 -138.45 -12.05 -136.1 -9.8 -134.65 -7.8 -133.35 -5.05 -133.35 L-3.65 -133.35 Q-4.6 -134.0 -5.35 -135.15 L-6.6 -137.3 -3.65 -138.05 Q-5.55 -139.05 -6.25 -139.05 L-7.5 -138.6 -8.6 -137.8 Q-8.85 -138.4 -9.1 -140.85" fill="#b52910" fill-rule="evenodd" stroke="none"/>
    <path d="M1.95 -142.8 Q0.35 -144.75 -4.0 -144.75 -6.15 -144.75 -6.75 -142.55 L-2.65 -142.2 1.45 -141.8 1.95 -142.8" fill="#b52910" fill-rule="evenodd" stroke="none"/>
    <path d="M5.15 -145.75 Q3.7 -144.85 3.7 -141.8 3.7 -140.0 6.05 -139.4 L8.2 -138.95 10.4 -138.3 8.3 -142.6 Q7.05 -144.95 5.15 -145.75" fill="#b52910" fill-rule="evenodd" stroke="none"/>
    <path d="M-13.8 -126.85 Q-16.0 -125.9 -18.25 -124.05 -19.2 -123.2 -20.85 -122.7 L-23.6 -121.95 Q-26.8 -121.05 -27.3 -118.7 L-25.7 -118.2 Q-23.45 -118.2 -21.15 -119.35 L-16.9 -121.65 -13.05 -123.2 Q-11.05 -124.25 -11.05 -126.05 -11.05 -128.0 -13.8 -126.85" fill="#ad946b" fill-rule="evenodd" stroke="none"/>
    <path d="M12.45 -85.9 Q12.15 -84.05 10.7 -82.45 L7.8 -80.0 5.1 -77.5 Q3.9 -75.95 3.9 -74.05 3.9 -73.3 4.95 -72.05 L7.4 -75.6 9.85 -78.7 Q12.45 -82.25 12.45 -85.9" fill="#4a3929" fill-rule="evenodd" stroke="none"/>
    <path d="M7.6 -64.55 L8.1 -64.1 Q8.35 -63.8 8.65 -63.8 9.85 -63.8 10.85 -65.25 8.45 -66.25 7.6 -64.55" fill="#312110" fill-rule="evenodd" stroke="none"/>
    <path d="M11.4 -69.55 Q11.4 -68.25 13.5 -68.05 L14.05 -69.65 13.75 -70.7 Q11.4 -70.7 11.4 -69.55" fill="#312110" fill-rule="evenodd" stroke="none"/>
    <path d="M9.4 -57.1 Q9.9 -57.1 10.85 -58.15 L10.85 -59.5 Q8.55 -59.3 8.2 -57.65 L9.4 -57.1" fill="#312110" fill-rule="evenodd" stroke="none"/>
    <path d="M1.25 -44.75 Q1.25 -43.8 2.9 -43.8 L4.7 -43.8 Q4.55 -44.85 2.9 -45.3 1.25 -45.75 1.25 -44.75" fill="#312110" fill-rule="evenodd" stroke="none"/>
    <path d="M0.45 -54.7 Q0.7 -52.0 1.25 -50.7 2.3 -52.05 2.3 -53.0 2.3 -54.2 0.45 -54.7" fill="#312110" fill-rule="evenodd" stroke="none"/>
    <path d="M-9.7 -58.95 L-9.7 -56.55 Q-9.0 -55.5 -7.85 -55.5 -7.15 -55.5 -6.65 -56.15 -6.2 -56.7 -6.2 -57.5 -6.2 -59.05 -9.7 -58.95" fill="#312110" fill-rule="evenodd" stroke="none"/>
    <path d="M-12.9 -63.8 L-13.95 -62.7 -12.6 -61.65 Q-11.95 -61.65 -10.75 -62.45 L-12.9 -63.8" fill="#312110" fill-rule="evenodd" stroke="none"/>
    <path d="M-10.75 -51.75 L-10.75 -48.55 -8.4 -48.55 -8.4 -50.4 Q-9.35 -51.55 -10.75 -51.75" fill="#312110" fill-rule="evenodd" stroke="none"/>
    <path d="M-11.8 -40.85 Q-11.8 -38.3 -10.75 -37.15 -8.9 -38.1 -8.9 -39.1 -8.9 -40.85 -11.8 -40.85" fill="#312110" fill-rule="evenodd" stroke="none"/>
    <path d="M-4.9 -34.95 L-5.15 -32.55 -3.3 -32.55 Q-2.9 -33.25 -3.45 -34.05 -4.0 -34.8 -4.9 -34.95" fill="#312110" fill-rule="evenodd" stroke="none"/>
    <path d="M1.0 -38.2 L0.85 -34.9 Q0.85 -34.35 1.8 -33.1 L3.1 -33.1 3.1 -34.6 Q3.1 -36.7 1.0 -38.2" fill="#312110" fill-rule="evenodd" stroke="none"/>
    <path d="M-19.55 -71.8 Q-19.45 -70.0 -17.7 -69.65 -17.65 -70.85 -19.55 -71.8" fill="#312110" fill-rule="evenodd" stroke="none"/>
    <path d="M-22.2 -79.65 Q-22.2 -80.55 -23.7 -80.7 -25.2 -80.8 -25.2 -79.9 -25.2 -78.9 -22.75 -78.45 L-22.2 -79.65" fill="#312110" fill-rule="evenodd" stroke="none"/>
    <path d="M-16.9 -86.2 Q-16.9 -82.6 -15.9 -80.15 -14.85 -77.55 -12.35 -75.2 -11.2 -78.1 -12.65 -81.35 -14.0 -84.35 -16.9 -86.2" fill="#635239" fill-rule="evenodd" stroke="none"/>
    <path d="M12.95 -121.35 L8.5 -121.5 Q6.05 -120.7 6.05 -118.65 L6.05 -114.7 Q7.95 -115.35 9.6 -117.8 11.4 -120.55 12.95 -121.35" fill="#312110" fill-rule="evenodd" stroke="none"/>
    <path d="M22.3 -119.8 Q23.65 -118.0 24.55 -114.15 25.55 -115.8 25.55 -117.0 25.55 -117.95 24.4 -118.75 L22.3 -119.8" fill="#312110" fill-rule="evenodd" stroke="none"/>
    <path d="M-11.95 -103.15 L-10.75 -104.55 -12.5 -104.65 -14.25 -104.55 -18.1 -104.95 -21.95 -105.65 Q-19.55 -104.85 -18.6 -102.15 L-17.2 -96.85 -16.9 -98.75 Q-16.9 -99.65 -17.4 -100.6 L-18.25 -102.45 -13.5 -102.45 Q-12.65 -102.45 -11.95 -103.15" fill="#312110" fill-rule="evenodd" stroke="none"/>
    <path d="M-24.1 -125.15 L-23.55 -124.8 -22.95 -124.6 Q-21.35 -124.6 -20.3 -126.0 -19.3 -127.3 -19.3 -129.1 -19.3 -129.95 -19.7 -129.6 L-20.8 -128.3 Q-22.95 -125.5 -24.1 -125.15" fill="#312110" fill-rule="evenodd" stroke="none"/>
    <path d="M-11.8 -145.1 L-14.15 -145.1 Q-17.25 -145.1 -18.75 -146.95 -18.55 -145.05 -17.5 -143.8 -16.3 -142.45 -14.6 -142.45 -12.85 -142.45 -11.8 -145.1" fill="#312110" fill-rule="evenodd" stroke="none"/>
  </g>
</svg>
