<?xml version="1.0" encoding="UTF-8" standalone="no"?>
<svg xmlns:xlink="http://www.w3.org/1999/xlink" height="127.85px" width="65.9px" xmlns="http://www.w3.org/2000/svg">
  <g transform="matrix(1.0, 0.0, 0.0, 1.0, 33.5, 167.95)">
    <path d="M8.3 -166.1 Q5.4 -164.5 3.35 -164.5 2.3 -164.5 1.2 -165.55 L-0.85 -167.2 Q-2.35 -167.85 -3.95 -167.95 L-7.2 -167.9 Q-9.95 -167.9 -13.1 -166.3 -17.45 -164.05 -18.85 -163.65 L-21.95 -163.55 -25.1 -163.65 Q-27.75 -163.05 -29.35 -161.5 -31.1 -159.8 -31.1 -157.4 L-30.65 -155.1 Q-30.65 -154.55 -31.45 -154.2 -32.45 -153.75 -32.65 -153.45 -33.5 -152.25 -33.5 -149.1 -33.5 -145.3 -32.1 -142.2 -31.0 -139.8 -28.15 -136.15 -30.75 -134.1 -31.85 -132.55 -33.3 -130.5 -33.3 -127.9 -33.3 -125.65 -31.15 -122.4 -29.05 -119.2 -29.05 -116.9 -29.05 -116.35 -29.95 -115.65 -30.85 -115.0 -30.85 -114.4 L-30.85 -108.3 Q-30.85 -105.85 -29.3 -103.8 -28.35 -102.55 -25.85 -100.45 -23.35 -98.35 -22.4 -97.1 -20.85 -95.0 -20.85 -92.6 -20.85 -91.7 -21.5 -90.4 -22.15 -89.05 -22.15 -88.15 -22.15 -84.55 -18.05 -82.25 L-14.2 -80.35 -10.4 -77.95 Q-8.7 -76.55 -8.45 -73.95 L-8.0 -69.0 -5.75 -58.15 Q-4.2 -52.85 -0.65 -48.8 L-1.3 -53.0 -1.3 -60.7 Q-1.3 -61.85 -1.75 -63.6 L-2.2 -66.45 Q-2.2 -69.0 -1.35 -71.5 L0.45 -76.55 Q2.85 -73.05 4.0 -70.0 5.05 -67.2 5.8 -62.7 7.65 -65.3 7.55 -70.7 7.5 -76.1 9.3 -78.65 L9.95 -77.0 9.95 -82.3 Q9.95 -88.4 13.25 -88.4 14.3 -88.4 15.1 -87.3 L15.7 -86.25 16.45 -85.25 17.25 -88.4 18.25 -91.45 Q18.45 -92.2 18.3 -93.9 18.2 -95.3 18.7 -96.15 19.05 -96.75 20.05 -97.15 21.2 -97.6 21.55 -97.9 24.8 -100.95 26.2 -104.4 27.55 -107.7 27.55 -112.3 27.55 -114.4 26.9 -117.6 26.25 -120.85 26.25 -122.9 26.25 -123.6 27.45 -123.75 28.95 -123.95 29.35 -124.35 30.0 -125.0 30.0 -127.35 30.0 -128.15 29.15 -129.2 28.25 -130.25 28.25 -131.0 28.25 -132.4 30.35 -133.9 32.4 -135.45 32.4 -136.8 32.4 -137.85 30.75 -138.95 29.1 -140.05 29.1 -141.1 29.1 -142.3 29.55 -144.2 L30.0 -147.3 30.3 -149.65 Q30.4 -150.9 29.8 -151.7 29.4 -152.15 28.3 -152.4 27.2 -152.65 26.9 -153.2 26.15 -154.45 25.95 -156.75 25.75 -159.15 25.1 -160.35 21.05 -167.65 13.25 -167.65 11.25 -167.65 8.3 -166.1" fill="#312110" fill-rule="evenodd" stroke="none"/>
    <path d="M23.8 -151.9 Q23.8 -152.95 24.25 -154.55 24.65 -156.15 24.65 -157.2 24.65 -160.85 22.05 -163.35 19.45 -165.9 15.8 -165.9 L14.35 -165.6 12.85 -165.4 Q11.95 -165.95 8.0 -164.05 3.6 -161.9 2.85 -161.9 0.6 -161.9 -1.95 -164.0 -4.45 -166.1 -6.35 -166.1 -9.1 -166.1 -13.15 -163.9 -17.2 -161.65 -20.0 -161.65 L-21.45 -162.0 -22.95 -162.3 Q-25.3 -162.3 -27.0 -161.05 -28.85 -159.7 -28.85 -157.6 L-28.8 -153.55 Q-28.8 -151.9 -30.35 -149.55 -31.95 -147.2 -31.95 -145.55 -31.95 -142.0 -29.45 -138.55 L-27.15 -135.55 -24.85 -132.1 Q-27.6 -131.8 -29.45 -130.25 -31.5 -128.55 -31.5 -126.1 -31.5 -122.45 -29.2 -119.4 L-23.95 -113.9 -27.2 -111.0 Q-28.85 -109.4 -28.85 -107.45 -28.85 -105.35 -27.45 -103.55 -26.65 -102.45 -24.4 -100.65 L-21.4 -97.7 Q-20.0 -95.9 -20.0 -93.8 -20.0 -92.55 -20.45 -90.65 L-20.9 -87.5 Q-20.9 -85.65 -18.8 -84.7 L-14.65 -83.25 Q-6.9 -80.15 -6.9 -74.85 L-6.9 -69.15 Q-6.9 -65.3 -5.6 -61.45 L-2.9 -53.9 Q-2.05 -58.05 -2.15 -62.55 L-2.4 -71.25 -1.15 -74.75 Q-0.3 -76.4 1.35 -77.0 L4.85 -72.5 Q6.7 -70.1 7.25 -67.45 L7.25 -70.7 9.7 -83.5 9.7 -92.15 Q9.3 -90.9 8.35 -89.6 L6.7 -87.3 5.9 -85.65 Q5.4 -84.8 4.65 -84.8 3.75 -84.8 2.45 -85.6 1.15 -86.4 0.25 -86.4 -1.25 -86.4 -2.9 -84.65 -4.65 -82.7 -5.9 -82.4 L-4.2 -83.4 Q-3.35 -84.0 -3.35 -84.85 L-3.35 -86.2 -6.65 -86.2 -6.1 -87.55 Q-5.75 -88.35 -5.75 -88.95 -5.75 -90.3 -7.6 -90.8 L-10.9 -91.9 Q-14.2 -94.05 -14.2 -96.7 -14.2 -99.45 -8.75 -99.45 -6.1 -99.45 -2.55 -96.95 1.05 -94.4 3.65 -94.4 8.65 -94.4 8.65 -103.7 L13.15 -102.3 Q15.55 -101.45 17.65 -101.45 20.35 -101.45 22.25 -102.6 24.45 -103.95 24.45 -106.2 L24.45 -124.75 Q28.85 -125.65 28.85 -128.25 28.85 -129.5 27.5 -131.0 L29.2 -133.35 Q30.0 -134.6 30.0 -136.0 30.0 -138.55 26.85 -140.55 L28.1 -142.0 Q28.65 -142.8 28.65 -143.7 28.65 -145.55 26.25 -147.8 23.8 -150.05 23.8 -151.9" fill="#4a3929" fill-rule="evenodd" stroke="none"/>
    <path d="M-15.9 -93.15 Q-17.35 -93.15 -18.2 -91.7 -18.9 -90.45 -18.9 -88.65 -18.9 -87.25 -17.6 -86.4 -16.45 -85.65 -14.85 -85.65 -13.55 -85.65 -12.85 -86.95 -12.25 -88.0 -12.25 -89.55 -12.25 -91.05 -13.3 -92.1 -14.4 -93.15 -15.9 -93.15" fill="#635239" fill-rule="evenodd" stroke="none"/>
    <path d="M-26.35 -110.8 Q-27.5 -109.5 -27.5 -107.75 -27.5 -106.25 -26.4 -104.95 L-24.2 -102.55 -21.55 -99.4 Q-20.0 -97.9 -18.1 -97.9 -16.0 -97.9 -14.45 -99.4 -16.45 -99.4 -17.55 -101.4 -18.2 -102.6 -18.95 -105.75 -19.7 -108.95 -20.35 -110.1 -21.45 -112.1 -23.45 -112.1 -25.15 -112.1 -26.35 -110.8" fill="#635239" fill-rule="evenodd" stroke="none"/>
    <path d="M0.6 -103.55 Q-1.1 -102.2 -1.1 -100.2 -1.1 -98.45 0.45 -97.25 1.85 -96.1 3.75 -96.1 5.15 -96.1 5.95 -97.45 6.65 -98.65 6.65 -100.3 6.65 -103.25 4.4 -105.0 2.15 -104.8 0.6 -103.55" fill="#635239" fill-rule="evenodd" stroke="none"/>
    <path d="M20.75 -139.4 Q19.2 -137.2 17.7 -137.2 L15.75 -137.2 16.45 -140.4 Q16.45 -141.75 15.35 -142.7 14.3 -143.65 12.85 -143.65 10.85 -143.65 9.5 -141.85 8.2 -140.2 8.2 -137.95 8.2 -137.35 8.9 -136.5 9.55 -135.65 9.55 -135.0 9.55 -134.1 8.35 -133.0 7.1 -131.9 7.1 -130.95 7.1 -130.05 5.65 -129.15 4.2 -128.25 4.2 -127.35 4.2 -126.9 4.55 -126.15 L4.85 -124.95 Q4.85 -123.9 3.2 -122.7 1.55 -121.55 1.55 -120.45 1.55 -119.9 2.0 -118.8 0.7 -117.9 -1.7 -114.05 -3.5 -111.15 -5.9 -111.15 -6.9 -111.15 -7.6 -112.3 L-8.85 -114.3 Q-11.15 -116.95 -14.55 -116.95 -16.05 -116.95 -16.85 -115.35 -17.5 -114.05 -17.5 -112.1 -17.5 -107.35 -13.95 -104.05 -10.5 -100.75 -5.65 -100.75 -4.55 -100.75 -3.65 -101.9 L-2.0 -103.9 5.9 -110.5 5.6 -110.8 6.25 -110.8 5.9 -110.5 Q11.0 -104.55 18.1 -104.55 20.15 -104.55 21.6 -105.9 23.1 -107.3 23.1 -109.3 23.1 -110.4 22.55 -112.1 22.0 -113.75 22.0 -114.85 22.0 -116.1 22.8 -118.0 23.55 -119.85 23.55 -121.1 23.55 -122.2 22.8 -123.8 22.0 -125.4 22.0 -126.45 22.0 -127.25 22.8 -127.8 23.5 -128.3 24.45 -128.3 L26.4 -127.65 26.85 -128.05 27.1 -128.55 26.75 -129.9 Q26.4 -130.7 26.4 -131.2 26.4 -132.15 27.2 -133.65 27.95 -135.1 27.95 -136.1 27.95 -138.3 26.85 -139.85 25.65 -141.6 23.75 -141.6 22.3 -141.6 20.75 -139.4" fill="#635239" fill-rule="evenodd" stroke="none"/>
    <path d="M3.6 -158.25 L-0.45 -160.55 -3.3 -163.15 Q-4.85 -164.5 -6.6 -164.5 -9.05 -164.5 -12.65 -162.55 -16.2 -160.55 -18.7 -160.55 L-23.3 -160.55 Q-25.8 -160.55 -26.8 -157.55 L-28.0 -151.65 Q-28.2 -150.6 -29.5 -148.85 -30.65 -147.3 -30.65 -145.95 -30.65 -143.1 -29.2 -140.5 L-26.0 -135.65 Q-25.3 -134.6 -24.65 -132.25 L-23.8 -130.1 Q-26.35 -130.1 -28.15 -129.15 -30.25 -128.0 -30.25 -125.95 -30.25 -124.0 -28.95 -122.25 L-26.2 -119.0 -24.5 -115.8 Q-23.55 -114.1 -22.0 -114.1 -20.0 -114.1 -17.85 -117.1 -15.7 -120.1 -13.75 -120.1 L-9.35 -120.1 Q-7.0 -122.8 -6.05 -125.45 -5.15 -128.0 -5.15 -131.65 -5.15 -133.0 -6.5 -134.2 L-8.65 -136.55 -10.6 -140.7 Q-11.6 -142.9 -13.15 -144.3 L-16.2 -146.65 Q-17.75 -147.9 -17.75 -149.6 -17.75 -151.7 -14.6 -153.75 -11.3 -155.85 -11.15 -157.9 L-9.85 -157.9 Q-8.7 -157.9 -8.15 -156.25 -7.45 -154.15 -6.9 -153.65 -5.9 -152.75 -4.2 -152.85 L-1.05 -153.2 3.4 -153.05 Q5.75 -153.2 5.75 -154.95 5.75 -156.95 3.6 -158.25" fill="#635239" fill-rule="evenodd" stroke="none"/>
    <path d="M15.35 -153.2 L15.35 -147.8 Q15.35 -146.8 16.35 -146.05 L18.2 -144.8 19.95 -142.8 Q20.9 -141.65 22.0 -141.65 22.5 -141.65 23.2 -142.15 L24.35 -142.6 26.65 -142.15 27.5 -142.35 27.5 -144.3 Q27.5 -146.2 24.65 -148.25 21.8 -150.25 21.8 -152.15 L21.8 -157.0 Q21.8 -159.55 20.4 -161.75 18.95 -164.0 16.65 -164.75 12.55 -164.75 9.65 -163.1 6.25 -161.2 6.25 -157.85 6.25 -155.95 7.65 -154.55 9.05 -153.2 10.95 -153.2 L15.35 -153.2" fill="#635239" fill-rule="evenodd" stroke="none"/>
    <path d="M-20.25 -102.8 L-20.25 -105.45 Q-20.75 -106.4 -22.3 -105.7 -23.8 -105.05 -23.8 -103.9 -23.8 -102.8 -22.2 -102.8 L-20.25 -102.8" fill="#846b4a" fill-rule="evenodd" stroke="none"/>
    <path d="M-28.0 -108.75 Q-28.0 -107.85 -27.15 -107.3 -26.35 -106.75 -25.3 -106.75 -24.35 -106.75 -23.65 -107.3 -22.9 -107.9 -22.9 -108.75 -22.9 -110.25 -25.45 -110.25 -28.0 -110.25 -28.0 -108.75" fill="#846b4a" fill-rule="evenodd" stroke="none"/>
    <path d="M1.1 -114.55 Q-1.15 -112.15 -2.6 -111.2 -4.75 -109.85 -7.25 -109.85 -8.7 -109.85 -9.75 -110.75 -10.85 -111.65 -10.85 -113.05 L-10.7 -115.2 -14.9 -115.2 Q-16.2 -114.0 -16.2 -112.75 -16.2 -109.5 -15.8 -108.1 -15.15 -105.65 -13.15 -105.65 L-9.55 -106.0 -6.0 -106.3 Q-4.55 -106.3 -3.2 -107.15 L3.4 -111.55 Q5.3 -113.05 5.3 -115.2 5.3 -116.5 3.3 -116.5 2.6 -116.5 2.05 -115.85 L1.1 -114.55" fill="#846b4a" fill-rule="evenodd" stroke="none"/>
    <path d="M22.65 -128.9 Q24.9 -131.65 24.9 -133.75 24.9 -136.1 23.55 -136.1 22.25 -136.1 20.75 -135.15 L18.2 -133.4 Q14.5 -133.1 12.0 -130.85 9.35 -128.5 9.35 -125.1 9.35 -124.15 10.35 -122.8 11.3 -121.45 11.3 -120.45 11.3 -118.55 10.05 -117.2 8.75 -115.85 6.9 -115.85 7.0 -114.8 8.1 -114.1 L10.2 -112.8 12.1 -110.75 13.7 -108.65 Q15.55 -106.35 17.9 -106.35 20.85 -106.35 20.85 -111.8 L20.4 -113.45 Q19.95 -114.45 19.95 -115.1 19.95 -115.85 20.5 -116.95 21.05 -118.05 21.05 -118.8 L20.75 -121.45 Q20.4 -123.1 20.4 -124.1 20.4 -126.15 22.65 -128.9" fill="#846b4a" fill-rule="evenodd" stroke="none"/>
    <path d="M9.75 -138.2 Q9.75 -137.25 10.6 -136.65 11.35 -136.1 12.4 -136.1 13.75 -136.1 14.45 -137.4 15.1 -138.5 15.1 -140.1 15.1 -141.35 14.45 -142.3 13.75 -143.3 12.65 -143.25 9.75 -143.0 9.75 -138.2" fill="#846b4a" fill-rule="evenodd" stroke="none"/>
    <path d="M-5.55 -130.3 Q-5.55 -132.4 -7.8 -134.0 -11.4 -136.55 -11.8 -137.0 L-13.95 -141.25 Q-15.05 -143.65 -17.0 -143.65 -19.5 -143.65 -20.85 -141.1 -22.05 -138.95 -22.05 -135.85 L-22.0 -132.45 Q-22.0 -130.75 -25.2 -129.5 -28.45 -128.25 -28.45 -126.5 -28.45 -122.95 -26.35 -120.35 -24.1 -117.65 -20.8 -117.65 -17.9 -117.65 -16.85 -120.1 L-16.35 -122.3 Q-16.0 -123.45 -15.1 -123.45 -14.15 -123.45 -12.9 -122.25 -11.7 -121.0 -10.7 -121.0 -5.55 -121.0 -5.55 -130.3" fill="#846b4a" fill-rule="evenodd" stroke="none"/>
    <path d="M-28.0 -149.5 L-27.55 -148.2 -27.15 -146.85 Q-27.15 -146.1 -27.55 -144.85 L-28.0 -142.85 Q-28.0 -138.1 -25.45 -138.1 -23.95 -138.1 -23.3 -140.05 L-22.25 -143.7 Q-21.8 -144.6 -19.15 -147.75 -17.35 -149.9 -17.35 -152.1 -17.35 -154.1 -18.8 -155.5 -20.3 -156.95 -22.25 -156.75 -23.35 -156.65 -24.1 -155.55 L-25.3 -153.45 -27.05 -151.6 Q-28.0 -150.65 -28.0 -149.5" fill="#846b4a" fill-rule="evenodd" stroke="none"/>
    <path d="M0.2 -158.35 Q-0.95 -159.1 -2.7 -160.75 L-5.55 -163.2 -8.05 -163.35 Q-9.7 -163.35 -11.2 -162.65 L-14.0 -161.0 -16.45 -159.9 Q-17.75 -159.25 -17.75 -158.15 -17.75 -156.95 -15.35 -156.95 -14.05 -156.95 -12.25 -158.1 -10.45 -159.25 -9.2 -159.25 -7.2 -159.25 -5.15 -156.15 -3.1 -153.0 -1.05 -153.0 L2.1 -153.05 Q3.75 -153.3 3.75 -154.55 3.75 -155.9 2.65 -156.85 L0.2 -158.35" fill="#846b4a" fill-rule="evenodd" stroke="none"/>
    <path d="M16.4 -163.1 L13.7 -163.15 Q11.9 -163.15 10.65 -162.0 9.35 -160.85 9.35 -159.1 9.35 -157.2 10.8 -155.85 12.2 -154.55 14.15 -154.55 16.25 -154.55 17.75 -155.3 19.55 -156.15 19.55 -157.85 19.55 -159.95 18.85 -161.35 18.0 -163.1 16.4 -163.1" fill="#846b4a" fill-rule="evenodd" stroke="none"/>
    <path d="M19.1 -149.15 Q18.0 -148.85 18.0 -147.85 18.0 -146.15 19.35 -145.0 20.7 -143.9 22.45 -143.9 23.4 -143.9 24.15 -144.6 24.9 -145.3 24.9 -146.2 24.9 -148.25 21.45 -149.1 L19.1 -149.15" fill="#846b4a" fill-rule="evenodd" stroke="none"/>
    <path d="M-15.3 -140.1 Q-16.4 -142.35 -18.35 -142.35 -20.45 -142.35 -20.45 -139.4 L-20.0 -133.95 Q-20.0 -131.7 -23.1 -129.0 -26.2 -126.3 -26.2 -124.0 -26.2 -121.55 -22.65 -121.25 -19.35 -131.2 -11.6 -131.2 -10.55 -131.2 -9.55 -130.3 L-7.8 -128.8 -7.55 -129.25 -7.35 -129.75 Q-7.35 -131.65 -9.65 -133.05 -12.7 -134.95 -13.35 -135.9 L-14.45 -138.0 -15.3 -140.1" fill="#ad946b" fill-rule="evenodd" stroke="none"/>
    <path d="M-25.6 -150.1 Q-26.4 -149.2 -26.4 -148.3 -26.4 -147.35 -25.75 -146.55 L-23.25 -147.8 -20.8 -148.9 Q-18.2 -150.2 -18.2 -152.45 -18.2 -154.05 -19.95 -154.95 L-23.1 -155.0 Q-23.75 -154.6 -23.8 -153.5 -23.9 -152.15 -24.2 -151.65 L-25.6 -150.1" fill="#ad946b" fill-rule="evenodd" stroke="none"/>
    <path d="M2.65 -155.65 L-1.75 -160.15 Q-4.1 -162.4 -6.9 -163.0 L-11.15 -162.75 Q-13.2 -162.0 -14.25 -160.1 L-13.3 -159.9 -10.4 -160.35 -7.55 -160.75 Q-5.65 -160.75 -3.4 -158.2 -1.2 -155.65 0.7 -155.65 L2.65 -155.65" fill="#ad946b" fill-rule="evenodd" stroke="none"/>
    <path d="M9.35 -159.8 Q9.35 -158.0 11.1 -157.0 12.65 -156.1 14.8 -156.1 15.8 -156.1 16.55 -156.8 17.3 -157.55 17.3 -158.55 17.3 -159.65 16.05 -160.5 14.95 -161.25 13.35 -161.5 L10.6 -161.35 Q9.35 -160.9 9.35 -159.8" fill="#ad946b" fill-rule="evenodd" stroke="none"/>
    <path d="M9.55 -125.9 Q9.55 -123.85 12.65 -123.85 16.45 -123.85 19.2 -125.7 22.25 -127.75 22.25 -131.1 22.25 -132.55 20.2 -132.45 L16.65 -131.65 Q12.85 -130.25 11.9 -129.65 9.55 -128.2 9.55 -125.9" fill="#ad946b" fill-rule="evenodd" stroke="none"/>
    <path d="M10.45 -140.15 L10.45 -138.1 12.8 -138.1 Q14.25 -138.1 14.25 -140.2 14.25 -141.3 12.5 -141.25 10.75 -141.2 10.45 -140.15" fill="#ad946b" fill-rule="evenodd" stroke="none"/>
    <path d="M13.4 -112.1 L15.2 -110.4 Q16.15 -109.4 17.2 -109.4 18.55 -109.4 19.4 -110.55 20.2 -111.6 20.2 -113.1 20.2 -116.55 18.85 -118.9 17.3 -121.65 14.5 -121.65 L12.85 -121.45 Q13.35 -120.15 11.8 -118.45 10.0 -116.5 10.0 -115.3 10.0 -114.15 11.15 -113.4 L13.4 -112.1" fill="#ad946b" fill-rule="evenodd" stroke="none"/>
    <path d="M-9.7 -108.95 Q-5.25 -108.95 -2.8 -109.85 0.35 -111.0 2.2 -114.1 L-2.35 -111.8 Q-4.7 -110.8 -7.2 -110.8 -8.5 -110.8 -10.05 -112.55 -11.6 -114.25 -12.9 -114.25 -14.1 -114.25 -15.05 -113.55 -16.0 -112.75 -16.0 -111.65 -16.0 -109.9 -13.85 -109.3 L-9.7 -108.95" fill="#ad946b" fill-rule="evenodd" stroke="none"/>
    <path d="M-18.9 -136.4 Q-18.9 -135.45 -18.2 -134.8 -17.55 -134.15 -16.65 -134.15 -15.7 -134.15 -15.0 -134.8 -14.25 -135.5 -14.25 -136.45 -14.25 -137.8 -16.55 -137.8 -18.9 -137.75 -18.9 -136.4" fill="#ceb58c" fill-rule="evenodd" stroke="none"/>
    <path d="M-23.05 -154.1 Q-23.05 -151.65 -21.4 -151.65 -19.35 -151.65 -19.35 -152.9 -19.35 -153.85 -20.65 -154.05 L-23.05 -154.1" fill="#ceb58c" fill-rule="evenodd" stroke="none"/>
    <path d="M12.25 -159.8 L12.5 -159.25 12.85 -158.8 14.25 -158.8 14.25 -160.75 Q12.25 -160.75 12.25 -159.8" fill="#ceb58c" fill-rule="evenodd" stroke="none"/>
    <path d="M17.35 -131.65 Q14.6 -130.9 13.35 -130.15 11.55 -129.05 10.85 -127.0 L11.5 -126.6 12.2 -126.35 Q12.85 -126.35 13.15 -127.15 L13.8 -128.55 Q14.3 -129.2 15.7 -130.05 16.9 -130.75 17.35 -131.65" fill="#ceb58c" fill-rule="evenodd" stroke="none"/>
    <path d="M16.9 -119.45 Q15.1 -119.45 15.1 -117.95 15.1 -116.7 16.4 -116.0 17.55 -115.4 19.1 -115.4 20.2 -115.4 20.2 -116.85 20.2 -118.05 19.15 -118.75 18.2 -119.45 16.9 -119.45" fill="#ceb58c" fill-rule="evenodd" stroke="none"/>
    <path d="M-12.5 -113.6 L-14.25 -113.45 Q-13.65 -110.55 -10.25 -110.55 -8.2 -110.55 -8.2 -112.0 -8.2 -113.15 -9.7 -113.45 L-12.5 -113.6" fill="#ceb58c" fill-rule="evenodd" stroke="none"/>
    <path d="M-13.5 -151.25 L-7.55 -151.25 Q-6.5 -152.7 -6.25 -153.9 -7.0 -156.75 -8.65 -156.75 -9.55 -156.75 -10.15 -155.8 L-11.35 -154.05 -13.5 -152.35 -15.55 -150.55 Q-15.15 -150.6 -14.5 -150.9 L-13.5 -151.25" fill="#000000" fill-rule="evenodd" stroke="none"/>
    <path d="M3.5 -149.9 L0.25 -149.9 Q-2.8 -149.9 -3.6 -146.3 L-4.85 -146.3 -6.3 -147.1 Q-7.15 -147.85 -7.8 -147.85 L-9.55 -147.35 -10.45 -146.75 Q-8.9 -146.3 -7.85 -144.65 L-6.0 -141.65 -1.85 -146.7 Q0.45 -149.1 3.5 -149.9" fill="#000000" fill-rule="evenodd" stroke="none"/>
    <path d="M7.8 -153.9 Q6.55 -154.5 5.9 -155.95 L4.85 -158.8 4.65 -157.9 Q4.65 -156.3 5.55 -154.35 L6.9 -150.8 Q8.45 -143.0 12.75 -143.0 L13.8 -143.7 Q10.65 -144.25 10.65 -146.9 10.65 -148.05 11.3 -148.9 12.0 -149.85 13.05 -149.85 L14.65 -149.5 16.2 -148.95 Q15.3 -151.1 12.7 -152.1 L7.8 -153.9" fill="#000000" fill-rule="evenodd" stroke="none"/>
    <path d="M25.35 -146.75 Q24.95 -145.9 23.1 -144.7 21.6 -143.65 21.6 -142.45 21.6 -140.45 24.7 -138.55 L25.5 -138.1 24.55 -139.7 Q24.0 -140.6 24.0 -141.4 24.0 -142.35 24.85 -144.1 25.6 -145.6 25.35 -146.75" fill="#000000" fill-rule="evenodd" stroke="none"/>
    <path d="M7.55 -135.0 Q6.9 -134.2 4.2 -133.05 2.2 -132.15 2.2 -130.65 2.2 -129.8 3.0 -128.5 3.75 -127.25 3.75 -126.35 L3.45 -125.3 2.85 -124.3 Q4.5 -123.8 4.8 -126.25 L4.85 -130.75 Q4.85 -131.75 6.2 -132.9 7.55 -134.05 7.55 -135.0" fill="#000000" fill-rule="evenodd" stroke="none"/>
    <path d="M-3.05 -115.75 L-3.1 -115.7 Q-3.85 -115.7 -4.55 -116.35 L-5.8 -117.6 Q-5.05 -116.4 -4.25 -113.75 L-3.05 -115.75 -2.4 -115.95 -1.75 -116.3 -2.7 -116.3 -3.05 -115.75" fill="#000000" fill-rule="evenodd" stroke="none"/>
    <path d="M-16.2 -149.4 Q-16.2 -143.65 -19.55 -141.65 -17.55 -141.65 -15.6 -144.9 -13.65 -148.1 -11.7 -148.1 -10.45 -148.1 -8.7 -147.35 -6.9 -146.55 -5.7 -146.55 -3.8 -146.55 -2.7 -148.5 -3.5 -150.15 -5.55 -150.6 L-9.6 -150.8 -12.9 -150.1 Q-14.85 -149.4 -16.2 -149.4" fill="#940000" fill-rule="evenodd" stroke="none"/>
    <path d="M15.35 -149.6 Q13.45 -149.6 12.1 -148.55 10.65 -147.4 10.65 -145.65 10.65 -143.65 13.8 -143.65 15.0 -143.65 16.45 -144.75 L12.0 -145.45 12.0 -147.35 Q12.0 -148.35 13.15 -148.95 L15.35 -149.6" fill="#940000" fill-rule="evenodd" stroke="none"/>
    <path d="M29.35 -140.0 Q29.35 -141.95 26.65 -143.0 26.65 -138.6 28.85 -138.3 L29.35 -140.0" fill="#940000" fill-rule="evenodd" stroke="none"/>
    <path d="M-2.4 -135.45 Q-2.55 -134.3 -3.45 -132.15 -4.25 -130.3 -4.25 -128.85 L-4.25 -127.45 -0.75 -129.3 Q0.9 -130.45 0.9 -132.2 0.9 -133.25 -0.2 -134.25 -1.2 -135.15 -2.4 -135.45" fill="#940000" fill-rule="evenodd" stroke="none"/>
    <path d="M-18.2 -111.25 Q-15.55 -113.55 -15.95 -116.75 L-17.95 -116.75 Q-19.35 -116.75 -19.35 -115.0 -19.35 -112.1 -18.2 -111.25" fill="#940000" fill-rule="evenodd" stroke="none"/>
    <path d="M-3.3 -95.6 Q-4.9 -95.6 -4.9 -94.7 -4.9 -93.4 -2.95 -93.4 -1.75 -93.4 -1.75 -94.7 -1.75 -95.6 -3.3 -95.6" fill="#940000" fill-rule="evenodd" stroke="none"/>
    <path d="M1.55 -91.65 L-0.15 -90.65 -1.75 -89.45 Q-1.0 -88.35 -0.35 -88.35 0.7 -88.35 1.2 -89.45 1.7 -90.4 1.55 -91.65" fill="#940000" fill-rule="evenodd" stroke="none"/>
    <path d="M-3.25 -86.6 Q-4.15 -88.15 -4.7 -87.25 -5.2 -86.35 -5.05 -85.05 L-4.85 -82.65 Q-4.85 -81.9 -3.7 -81.9 -2.45 -81.9 -2.45 -83.85 -2.45 -85.15 -3.25 -86.6" fill="#940000" fill-rule="evenodd" stroke="none"/>
    <path d="M0.6 -148.6 L-2.2 -146.75 Q-6.0 -144.05 -7.15 -142.85 -9.3 -140.55 -9.3 -137.55 -9.3 -135.35 -8.3 -133.85 -7.2 -132.1 -5.35 -132.1 -4.25 -132.1 -3.6 -133.45 L-2.2 -135.7 Q0.75 -131.85 3.55 -131.85 7.4 -131.85 9.35 -136.2 11.15 -140.15 10.2 -144.55 8.6 -147.0 7.5 -147.95 5.9 -149.4 3.75 -149.4 2.05 -149.4 0.6 -148.6" fill="#846b4a" fill-rule="evenodd" stroke="none"/>
    <path d="M2.2 -148.3 Q0.95 -148.3 -0.15 -147.2 L-2.2 -145.25 Q-5.2 -143.4 -6.4 -142.15 -8.2 -140.15 -8.2 -137.65 -8.2 -136.35 -6.95 -135.45 -5.85 -134.7 -4.25 -134.55 -3.05 -140.3 1.2 -140.3 2.3 -140.3 3.75 -139.1 5.2 -137.9 6.25 -137.9 7.8 -137.9 7.8 -141.75 7.8 -143.1 6.25 -146.1 4.15 -148.3 2.2 -148.3" fill="#ad946b" fill-rule="evenodd" stroke="none"/>
    <path d="M1.55 -146.4 L-0.45 -146.15 Q-5.15 -144.7 -5.15 -142.15 -5.15 -140.95 -3.7 -140.95 -1.2 -140.95 0.6 -142.1 2.65 -143.35 2.65 -145.5 2.65 -146.3 1.55 -146.4" fill="#ceb58c" fill-rule="evenodd" stroke="none"/>
    <path d="M2.25 -104.9 Q3.75 -106.25 5.1 -107.0 L7.55 -107.3 10.0 -107.65 Q9.15 -108.25 7.85 -110.35 6.8 -112.1 5.35 -112.45 4.45 -107.6 1.1 -104.55 -1.75 -101.9 -7.1 -100.1 L-5.85 -100.1 Q-2.9 -100.1 -0.15 -102.65 L2.25 -104.9" fill="#000000" fill-rule="evenodd" stroke="none"/>
    <path d="M9.8 -71.9 L10.2 -71.65 10.65 -71.45 Q11.95 -71.45 11.95 -73.0 11.95 -74.0 11.2 -75.05 10.45 -76.1 10.0 -75.4 9.55 -74.75 9.65 -73.75 L9.8 -71.9" fill="#312110" fill-rule="evenodd" stroke="none"/>
    <path d="M13.35 -79.65 L13.05 -79.2 12.85 -78.7 Q12.85 -77.6 14.45 -77.4 L14.45 -78.8 13.35 -79.65" fill="#312110" fill-rule="evenodd" stroke="none"/>
    <path d="M12.65 -67.15 L11.3 -68.5 11.15 -67.45 Q11.2 -66.8 11.65 -66.8 L12.65 -67.15" fill="#312110" fill-rule="evenodd" stroke="none"/>
    <path d="M6.0 -58.8 L7.1 -59.85 5.8 -60.95 Q5.3 -59.7 6.0 -58.8" fill="#312110" fill-rule="evenodd" stroke="none"/>
    <path d="M-21.15 -72.5 Q-21.15 -71.8 -20.6 -71.3 -20.05 -70.8 -19.35 -70.8 -18.2 -70.8 -18.2 -72.45 -18.2 -73.3 -19.65 -73.35 -21.15 -73.35 -21.15 -72.5" fill="#312110" fill-rule="evenodd" stroke="none"/>
    <path d="M-15.1 -73.9 L-15.3 -72.65 Q-15.3 -72.4 -14.3 -71.25 L-12.9 -71.45 Q-13.0 -72.4 -15.1 -73.9" fill="#312110" fill-rule="evenodd" stroke="none"/>
    <path d="M-13.55 -62.8 L-13.55 -60.95 -12.25 -60.95 Q-11.15 -61.65 -11.15 -62.25 -11.15 -63.0 -11.9 -63.0 L-13.55 -62.8" fill="#312110" fill-rule="evenodd" stroke="none"/>
    <path d="M0.45 -42.1 Q0.45 -42.85 -0.1 -43.35 -0.7 -43.85 -1.45 -43.85 -2.85 -43.85 -2.85 -41.55 L-2.85 -40.1 0.2 -40.1 0.45 -42.1" fill="#312110" fill-rule="evenodd" stroke="none"/>
    <path d="M-7.8 -52.1 L-8.15 -50.75 -7.85 -50.05 -7.35 -49.45 Q-6.45 -50.0 -6.45 -50.65 L-7.05 -51.4 -7.8 -52.1" fill="#312110" fill-rule="evenodd" stroke="none"/>
    <path d="M1.5 -60.3 L2.2 -59.85 2.45 -60.85 Q2.45 -62.35 1.1 -62.35 0.65 -62.35 0.9 -61.6 L1.5 -60.3" fill="#312110" fill-rule="evenodd" stroke="none"/>
    <path d="M14.3 -62.35 L15.1 -62.15 15.35 -63.1 Q15.35 -63.45 14.85 -63.1 L14.3 -62.35" fill="#312110" fill-rule="evenodd" stroke="none"/>
  </g>
</svg>
