<?xml version="1.0" encoding="UTF-8" standalone="no"?>
<svg xmlns:xlink="http://www.w3.org/1999/xlink" height="125.1px" width="68.7px" xmlns="http://www.w3.org/2000/svg">
  <g transform="matrix(1.0, 0.0, 0.0, 1.0, 36.9, 172.6)">
    <path d="M1.05 -170.55 L-0.3 -171.85 Q-2.0 -172.55 -3.95 -172.6 L-7.75 -172.45 -16.4 -171.9 Q-20.55 -171.05 -23.9 -168.3 -24.55 -167.8 -24.8 -166.6 -25.15 -165.2 -25.55 -164.65 -26.05 -164.1 -27.15 -163.9 -28.4 -163.65 -28.9 -163.25 -31.95 -160.8 -33.15 -159.15 -34.9 -156.75 -34.9 -153.75 -34.9 -151.2 -33.15 -149.4 -31.45 -147.7 -28.7 -147.1 L-31.5 -144.4 -34.15 -142.0 Q-36.9 -139.25 -36.9 -135.9 -36.9 -129.5 -34.8 -124.2 -33.2 -120.2 -28.9 -113.7 -26.95 -110.75 -25.15 -109.15 L-23.25 -107.95 Q-22.3 -107.3 -22.3 -106.3 L-22.3 -103.45 Q-22.3 -101.4 -19.9 -99.7 -16.85 -97.55 -16.15 -96.35 -15.7 -95.55 -15.5 -93.95 -15.3 -92.45 -14.75 -91.7 L-12.95 -90.3 Q-11.9 -89.6 -11.9 -88.65 L-12.3 -87.15 Q-12.3 -85.55 -8.7 -85.55 L-8.3 -84.75 Q-9.3 -83.95 -9.3 -83.1 -9.3 -82.2 -8.4 -81.4 L-6.9 -79.9 Q-6.05 -78.6 -5.95 -76.55 -5.8 -73.9 -5.5 -72.95 -5.3 -72.2 -4.3 -70.75 -3.5 -69.55 -3.5 -68.55 L-3.5 -60.45 Q-3.5 -59.55 -2.65 -58.65 L-1.35 -56.95 Q0.3 -60.15 0.95 -62.35 1.7 -64.9 1.7 -68.1 1.7 -70.3 0.7 -73.65 -0.3 -77.05 -0.3 -79.2 L0.5 -83.7 Q2.95 -82.75 3.95 -79.0 5.1 -74.4 6.45 -72.95 L6.85 -74.5 6.35 -79.55 Q5.85 -82.65 5.85 -84.65 5.85 -86.25 7.05 -87.6 L9.45 -90.1 Q10.05 -90.85 10.25 -92.1 L10.7 -94.3 Q11.2 -95.55 12.7 -96.2 L15.7 -97.0 Q17.7 -97.35 18.45 -97.8 19.65 -98.5 19.65 -99.9 19.65 -100.95 18.55 -102.3 17.45 -103.7 17.45 -104.7 17.45 -106.25 19.35 -106.95 L23.05 -107.95 Q25.25 -108.75 26.75 -110.2 27.95 -111.35 29.4 -113.7 29.95 -114.6 29.85 -116.0 L29.8 -118.5 30.8 -122.35 Q31.4 -124.45 31.4 -126.2 31.4 -130.65 28.6 -134.9 31.8 -137.8 31.8 -141.2 31.8 -144.0 29.0 -145.7 30.2 -148.9 30.2 -150.0 30.2 -151.0 29.15 -152.35 28.05 -153.65 28.05 -154.7 L28.45 -156.05 28.8 -157.4 Q28.8 -159.8 26.95 -161.6 L22.85 -164.45 21.25 -165.05 Q20.35 -165.4 20.05 -166.1 17.5 -171.85 11.05 -171.85 9.3 -171.85 6.75 -170.75 4.2 -169.65 2.5 -169.65 1.75 -169.65 1.05 -170.55" fill="#312110" fill-rule="evenodd" stroke="none"/>
    <path d="M2.1 -167.75 L1.7 -167.3 Q0.4 -167.3 -0.55 -168.8 -1.9 -170.8 -2.55 -171.25 L-4.6 -171.55 -6.7 -171.85 -11.75 -171.35 -20.65 -169.8 Q-22.65 -169.5 -23.75 -168.1 -24.15 -167.55 -24.05 -166.3 -23.9 -165.05 -24.35 -164.5 -25.45 -163.2 -27.35 -161.85 L-30.45 -159.75 Q-33.95 -157.3 -33.95 -154.1 -33.95 -151.45 -31.9 -149.35 L-27.5 -145.7 -31.95 -142.0 Q-33.95 -139.85 -33.95 -137.1 -33.95 -136.3 -34.25 -135.0 L-34.55 -132.9 Q-34.55 -127.05 -34.1 -124.6 -33.35 -120.6 -30.75 -117.35 L-27.7 -114.2 -24.8 -111.4 Q-21.75 -108.2 -21.75 -104.5 -21.75 -102.3 -19.5 -100.6 L-17.5 -99.15 -15.55 -97.35 Q-14.65 -96.2 -14.65 -93.65 -14.6 -91.05 -13.75 -89.9 -13.1 -89.05 -9.75 -86.8 -7.4 -85.2 -7.4 -83.1 -7.4 -82.7 -7.7 -82.15 L-8.0 -81.15 Q-8.0 -80.0 -6.4 -78.8 -4.7 -77.55 -4.55 -76.5 L-3.05 -66.9 Q-2.35 -62.05 -2.35 -57.3 L-1.55 -56.9 Q1.3 -60.45 1.8 -64.55 L-1.0 -77.1 -1.0 -84.5 Q1.3 -82.8 3.3 -78.45 5.25 -74.1 7.6 -72.35 L8.0 -73.6 6.55 -81.7 6.55 -90.45 Q6.55 -91.65 5.9 -93.4 5.2 -95.2 5.2 -96.35 5.2 -97.45 5.6 -99.15 6.0 -100.8 6.0 -101.9 6.0 -103.35 5.2 -106.3 L-2.35 -96.15 -3.6 -95.0 Q-4.4 -94.35 -4.55 -93.65 L-3.15 -83.8 -3.55 -82.3 Q-4.6 -88.45 -6.6 -92.3 L-8.7 -95.9 Q-9.75 -97.8 -9.75 -99.7 L-9.35 -101.5 Q-9.35 -102.7 -10.4 -103.65 L-12.55 -105.35 -11.05 -106.75 Q-10.15 -107.45 -10.15 -108.3 -10.15 -110.95 -12.05 -112.85 -14.0 -114.7 -16.65 -114.7 -17.25 -114.7 -17.85 -114.1 -18.5 -113.45 -18.95 -113.3 L-19.75 -115.15 -19.75 -117.65 -17.5 -117.5 -15.15 -117.75 Q-13.55 -117.75 -12.25 -116.6 L-10.25 -114.05 -8.25 -111.45 Q-6.95 -110.3 -5.35 -110.3 L-3.0 -110.5 Q-1.15 -110.5 1.45 -109.0 4.05 -107.5 5.85 -107.5 9.4 -107.5 11.75 -110.4 14.0 -113.15 14.0 -116.95 L17.75 -116.95 Q19.35 -113.3 21.7 -113.3 24.1 -113.3 25.6 -115.75 L27.8 -120.75 29.85 -124.15 Q31.0 -126.0 31.0 -127.75 31.0 -129.7 28.8 -132.25 26.6 -134.75 26.6 -136.7 26.6 -138.0 28.45 -139.35 30.25 -140.75 30.25 -142.0 30.25 -143.0 28.85 -144.1 27.4 -145.25 27.4 -146.2 27.4 -147.05 28.3 -148.15 29.2 -149.3 29.2 -150.1 29.2 -151.1 28.0 -152.35 26.8 -153.65 26.8 -154.6 26.8 -155.3 27.3 -156.25 L27.8 -157.9 Q27.8 -160.45 24.5 -161.75 L21.55 -162.8 Q19.8 -163.55 18.8 -164.5 18.1 -165.15 17.75 -166.45 L16.95 -168.5 Q16.05 -169.65 14.65 -170.0 L11.7 -170.25 Q9.9 -170.25 7.1 -169.3 4.35 -168.3 2.5 -168.3 L2.1 -167.75" fill="#4a3929" fill-rule="evenodd" stroke="none"/>
    <path d="M-16.5 -102.95 Q-15.65 -101.9 -14.5 -101.9 -13.85 -101.9 -13.35 -102.35 -12.8 -102.8 -12.8 -103.4 -12.8 -104.35 -13.3 -105.75 L-13.8 -108.05 -13.2 -109.05 -15.05 -111.05 Q-16.1 -111.9 -17.4 -111.9 -18.55 -111.9 -19.4 -111.3 -20.35 -110.65 -20.35 -109.6 -20.35 -108.3 -19.6 -107.15 L-16.5 -102.95" fill="#635239" fill-rule="evenodd" stroke="none"/>
    <path d="M3.15 -161.55 Q0.65 -163.05 -1.1 -163.05 -3.55 -163.05 -5.5 -161.7 -7.0 -160.65 -8.85 -158.25 -11.65 -159.95 -13.2 -162.65 L-10.8 -162.8 -8.3 -162.45 Q-2.0 -162.45 -2.0 -165.65 -2.0 -170.45 -11.25 -170.45 L-15.15 -170.45 Q-18.4 -170.45 -20.85 -168.15 -22.6 -166.45 -24.6 -162.65 -25.4 -161.15 -27.1 -159.9 L-30.2 -158.0 Q-33.95 -155.75 -33.95 -152.85 -33.95 -149.45 -29.4 -147.45 L-27.25 -146.75 Q-26.15 -146.3 -26.15 -145.35 -26.15 -143.8 -28.0 -142.8 L-31.2 -140.85 Q-33.35 -138.7 -33.35 -135.3 L-33.6 -131.0 Q-33.55 -128.7 -31.9 -128.7 -31.05 -128.7 -30.55 -129.75 L-29.8 -131.65 Q-27.75 -130.3 -27.75 -128.7 -27.75 -127.65 -29.75 -126.9 -31.8 -126.15 -31.8 -125.1 -31.8 -123.8 -30.7 -122.25 -29.4 -120.5 -29.15 -119.5 -27.5 -113.35 -24.1 -113.35 -22.2 -113.35 -22.2 -116.65 L-22.4 -118.6 -22.4 -120.5 Q-21.6 -120.3 -20.1 -119.3 -18.9 -118.5 -17.8 -118.5 L-16.2 -118.9 -14.6 -119.3 Q-13.2 -119.3 -11.7 -117.2 -10.2 -115.1 -8.8 -115.1 L-3.45 -115.1 Q-2.85 -115.1 -2.05 -114.5 -1.25 -113.9 -0.7 -113.9 0.6 -113.9 2.15 -115.6 3.75 -117.3 5.0 -117.3 6.05 -117.3 7.05 -115.7 8.1 -114.1 9.1 -114.1 10.85 -114.1 11.45 -116.25 11.8 -117.55 11.8 -120.4 11.8 -121.45 13.1 -121.9 L15.55 -122.7 16.9 -123.6 Q17.65 -124.15 18.4 -124.3 18.8 -123.35 19.6 -122.7 20.4 -123.5 20.4 -124.3 20.4 -125.75 19.15 -126.65 18.0 -127.5 16.35 -127.5 13.85 -127.5 10.2 -125.7 6.55 -123.9 4.0 -123.9 2.6 -123.9 2.6 -125.2 2.6 -126.7 3.4 -128.9 4.2 -131.1 4.2 -132.55 4.2 -135.6 3.4 -137.1 L3.0 -137.85 Q4.55 -137.4 7.25 -135.15 9.55 -133.25 11.6 -133.25 13.7 -133.25 15.25 -134.15 16.95 -135.2 16.95 -137.0 16.95 -138.5 15.3 -140.5 13.6 -142.45 13.6 -143.95 13.6 -145.1 14.5 -146.55 15.45 -148.15 15.55 -149.15 L12.4 -149.15 15.05 -151.85 Q16.35 -153.4 16.35 -155.1 16.35 -157.35 13.6 -158.85 15.05 -158.85 17.0 -158.05 19.2 -157.2 20.4 -157.05 L20.6 -157.95 Q20.6 -161.65 14.0 -161.65 12.7 -161.65 10.7 -160.85 8.75 -160.05 7.4 -160.05 5.6 -160.05 3.15 -161.55" fill="#635239" fill-rule="evenodd" stroke="none"/>
    <path d="M-25.95 -150.1 L-22.55 -149.9 Q-18.2 -149.9 -18.2 -152.3 -18.2 -153.8 -19.3 -154.95 L-21.8 -156.85 -17.6 -156.85 -16.6 -158.05 Q-19.45 -160.65 -23.5 -160.65 -27.0 -160.65 -29.55 -158.3 -32.2 -155.9 -32.2 -152.5 -32.2 -150.5 -30.75 -148.85 L-27.55 -146.05 -26.2 -144.7 Q-25.45 -144.0 -24.6 -143.9 -25.4 -145.2 -25.6 -146.85 L-25.95 -150.1" fill="#846b4a" fill-rule="evenodd" stroke="none"/>
    <path d="M-19.45 -168.5 Q-22.4 -167.0 -22.4 -164.65 -22.4 -163.45 -21.15 -163.45 L-19.45 -163.45 -19.3 -166.0 Q-19.15 -167.4 -19.45 -168.5" fill="#846b4a" fill-rule="evenodd" stroke="none"/>
    <path d="M-14.15 -165.7 Q-14.15 -162.5 -8.2 -162.5 -0.2 -162.5 -0.2 -166.9 -0.2 -168.85 -2.4 -169.8 -4.35 -170.65 -7.15 -170.4 -10.0 -170.15 -11.95 -168.95 -14.15 -167.65 -14.15 -165.7" fill="#846b4a" fill-rule="evenodd" stroke="none"/>
    <path d="M7.85 -162.85 L14.1 -162.05 Q15.8 -162.05 17.1 -163.1 18.4 -164.15 18.4 -165.8 18.4 -167.9 15.85 -168.65 L10.95 -169.1 Q3.85 -169.1 3.85 -165.25 3.85 -163.4 7.85 -162.85" fill="#846b4a" fill-rule="evenodd" stroke="none"/>
    <path d="M9.0 -155.05 Q10.0 -155.05 10.0 -156.55 10.0 -157.85 8.25 -158.15 L5.05 -158.7 1.6 -160.4 Q-0.2 -161.3 -2.0 -161.3 -3.85 -161.3 -5.3 -159.65 L-7.75 -156.25 -11.05 -152.75 Q-12.75 -150.85 -12.95 -148.7 L-13.75 -149.5 Q-14.2 -149.9 -14.75 -149.9 -16.85 -149.9 -18.55 -147.8 L-21.75 -143.9 Q-22.25 -143.45 -23.5 -143.25 -24.7 -143.0 -25.15 -142.5 L-28.15 -140.1 -31.35 -138.25 Q-34.9 -136.05 -34.9 -132.9 -34.9 -131.55 -33.9 -130.15 L-32.15 -127.5 Q-30.65 -124.1 -29.6 -122.85 -27.9 -120.7 -25.45 -120.7 -24.2 -120.7 -24.2 -123.3 -24.2 -125.1 -24.55 -127.85 -24.95 -130.65 -24.95 -132.4 -24.95 -133.4 -24.0 -134.25 L-22.15 -135.75 -21.25 -137.15 Q-20.75 -137.9 -20.05 -137.9 -19.15 -137.9 -18.3 -137.2 L-16.75 -135.95 -13.85 -134.95 Q-12.15 -134.5 -11.1 -133.7 L-9.35 -131.9 Q-8.4 -130.9 -7.35 -130.9 -6.05 -130.9 -5.75 -132.55 L-5.55 -135.75 Q-5.5 -137.3 -4.95 -138.85 L-3.1 -144.95 Q-2.45 -146.5 -1.1 -146.5 L3.2 -146.5 Q5.05 -146.5 5.05 -149.7 5.05 -150.55 4.45 -151.8 3.85 -153.05 3.85 -153.9 L3.85 -155.05 6.45 -155.15 9.0 -155.05" fill="#846b4a" fill-rule="evenodd" stroke="none"/>
    <path d="M-3.55 -136.5 Q-7.3 -136.5 -10.05 -134.4 -12.95 -132.15 -12.95 -128.7 -12.95 -127.05 -11.35 -126.1 -9.95 -125.3 -8.0 -125.3 -4.65 -125.3 -2.25 -127.5 0.2 -129.75 0.2 -132.95 0.2 -134.65 -0.85 -135.7 -2.0 -136.85 -3.55 -136.5" fill="#846b4a" fill-rule="evenodd" stroke="none"/>
    <path d="M11.1 -149.9 Q7.85 -149.9 5.5 -148.35 2.85 -146.6 2.85 -143.8 2.85 -141.65 4.5 -140.15 6.1 -138.7 8.3 -138.7 10.7 -138.7 12.25 -140.8 13.65 -142.7 13.65 -145.35 13.65 -147.65 13.25 -149.7 L11.1 -149.9" fill="#846b4a" fill-rule="evenodd" stroke="none"/>
    <path d="M14.85 -148.85 Q14.05 -148.1 14.05 -147.25 14.05 -144.35 16.65 -142.55 19.0 -140.9 22.3 -140.9 24.35 -140.9 25.7 -142.65 27.0 -144.3 27.0 -146.55 27.0 -149.4 24.9 -151.35 22.85 -153.3 19.95 -153.3 18.7 -153.3 17.8 -152.35 L16.2 -150.3 14.85 -148.85" fill="#846b4a" fill-rule="evenodd" stroke="none"/>
    <path d="M28.85 -129.55 Q28.85 -132.4 26.75 -134.35 24.65 -136.3 21.75 -136.3 18.85 -136.3 16.85 -135.3 14.45 -134.05 14.45 -131.75 14.45 -129.85 16.7 -129.0 L21.15 -128.1 18.25 -126.3 Q16.85 -125.15 16.85 -123.6 16.85 -122.35 18.65 -121.5 20.8 -120.55 21.25 -119.7 L22.25 -116.6 Q22.8 -114.9 24.1 -114.9 25.9 -114.9 26.15 -117.3 L26.2 -121.9 Q26.35 -123.4 27.65 -125.75 28.85 -127.9 28.85 -129.55" fill="#846b4a" fill-rule="evenodd" stroke="none"/>
    <path d="M10.2 -111.7 Q12.25 -111.7 13.7 -112.95 15.2 -114.25 15.2 -116.15 15.2 -118.25 13.6 -119.7 12.05 -121.1 9.9 -121.1 7.75 -121.1 6.35 -119.3 5.05 -117.6 5.05 -115.25 5.05 -113.55 6.7 -112.55 8.15 -111.7 10.2 -111.7" fill="#846b4a" fill-rule="evenodd" stroke="none"/>
    <path d="M0.4 -86.8 Q0.4 -87.6 -0.15 -88.7 L-1.15 -90.45 -1.9 -88.5 -1.9 -79.3 Q-0.35 -80.55 0.15 -82.65 L0.4 -86.8" fill="#846b4a" fill-rule="evenodd" stroke="none"/>
    <path d="M3.65 -86.7 L3.65 -81.85 Q4.7 -80.7 5.15 -80.7 6.45 -80.7 6.45 -82.25 6.45 -85.0 3.65 -86.7" fill="#846b4a" fill-rule="evenodd" stroke="none"/>
    <path d="M1.35 -159.0 Q0.0 -159.9 -0.9 -159.9 -5.5 -159.9 -8.4 -155.55 -10.05 -153.0 -12.35 -146.1 -14.25 -147.3 -15.65 -147.3 -16.45 -147.3 -17.1 -146.4 -18.0 -145.1 -18.3 -144.9 L-30.95 -136.25 Q-33.95 -134.05 -33.95 -130.9 -33.95 -129.1 -33.15 -127.8 -32.3 -126.3 -30.75 -126.3 -29.2 -126.3 -28.5 -127.5 -28.0 -128.35 -27.8 -130.35 L-27.35 -133.85 Q-26.9 -135.85 -25.95 -136.95 -25.35 -137.6 -24.1 -137.55 L-21.95 -137.7 Q-21.35 -137.95 -19.95 -139.15 -18.85 -140.1 -17.8 -140.1 -16.7 -140.1 -15.75 -139.1 L-13.95 -137.35 Q-11.3 -135.65 -8.35 -134.75 -7.25 -136.75 -6.7 -139.35 L-6.05 -143.8 Q-5.35 -149.25 -2.75 -152.1 -2.15 -152.75 -0.85 -153.05 0.6 -153.4 1.2 -153.85 L2.55 -155.8 Q3.25 -157.05 4.25 -157.25 L4.05 -157.8 3.65 -158.1 Q2.7 -158.1 1.35 -159.0" fill="#ad946b" fill-rule="evenodd" stroke="none"/>
    <path d="M-23.1 -157.5 Q-21.1 -158.3 -20.35 -159.3 -23.55 -161.05 -27.4 -159.2 -31.35 -157.4 -31.35 -153.85 -31.35 -149.7 -29.05 -149.7 -27.5 -149.7 -26.95 -151.85 L-25.75 -155.65 Q-25.05 -156.75 -23.1 -157.5" fill="#ad946b" fill-rule="evenodd" stroke="none"/>
    <path d="M-5.5 -169.3 Q-8.2 -169.3 -10.1 -168.3 -12.35 -167.05 -12.35 -164.85 -12.35 -163.85 -11.75 -163.85 -10.75 -163.85 -9.65 -164.75 -8.3 -165.9 -7.6 -166.1 L-4.75 -166.55 -1.75 -166.5 -2.15 -168.9 -5.5 -169.3" fill="#ad946b" fill-rule="evenodd" stroke="none"/>
    <path d="M9.2 -164.35 L12.65 -164.25 Q17.0 -164.25 17.0 -166.5 17.0 -167.25 16.55 -167.75 16.05 -168.3 15.35 -168.3 L10.3 -168.3 Q9.15 -168.3 8.35 -167.75 7.4 -167.1 7.4 -166.1 7.4 -164.7 9.2 -164.35" fill="#ad946b" fill-rule="evenodd" stroke="none"/>
    <path d="M16.0 -148.65 Q16.0 -146.75 17.45 -145.4 18.9 -144.1 20.85 -144.1 22.05 -144.1 22.9 -144.9 23.8 -145.7 23.8 -146.85 23.8 -151.4 21.25 -152.1 19.5 -152.6 17.75 -151.55 16.0 -150.45 16.0 -148.65" fill="#ad946b" fill-rule="evenodd" stroke="none"/>
    <path d="M3.85 -144.4 Q3.85 -142.3 7.2 -142.3 8.9 -142.3 10.15 -143.25 11.45 -144.3 11.45 -145.85 11.45 -146.95 10.75 -147.85 10.0 -148.75 9.0 -148.65 6.85 -148.4 5.45 -147.4 3.85 -146.25 3.85 -144.4" fill="#ad946b" fill-rule="evenodd" stroke="none"/>
    <path d="M22.05 -126.05 Q20.05 -124.65 20.05 -123.3 20.05 -122.3 20.8 -121.6 21.55 -120.9 22.55 -120.9 23.55 -120.9 23.65 -122.4 23.85 -124.75 24.0 -125.1 L25.6 -128.3 Q26.4 -130.0 26.4 -131.65 26.4 -135.1 24.35 -135.1 L22.45 -135.1 23.2 -134.7 19.75 -135.1 Q17.05 -135.1 17.05 -133.35 17.05 -131.75 20.55 -131.1 L22.9 -130.45 Q24.0 -129.9 24.0 -128.8 24.0 -127.5 22.05 -126.05" fill="#ad946b" fill-rule="evenodd" stroke="none"/>
    <path d="M2.0 -129.95 Q2.0 -131.95 -0.5 -132.65 L-5.25 -133.05 Q-8.6 -133.05 -11.05 -131.4 -13.75 -129.6 -13.75 -126.7 -13.75 -123.85 -12.1 -121.75 -10.3 -119.5 -7.65 -119.5 -6.9 -119.5 -6.35 -119.9 -5.75 -120.3 -5.75 -120.95 L-5.75 -125.25 Q-5.75 -126.45 -4.55 -127.0 L-1.85 -127.6 0.8 -128.2 Q2.0 -128.75 2.0 -129.95" fill="#ad946b" fill-rule="evenodd" stroke="none"/>
    <path d="M-3.0 -156.15 L1.0 -157.5 Q0.4 -159.1 -1.7 -159.1 -4.6 -159.1 -6.55 -156.45 -7.65 -154.95 -9.35 -150.7 -8.35 -150.95 -7.65 -152.0 L-6.35 -153.85 Q-4.9 -155.35 -3.0 -156.15" fill="#ceb58c" fill-rule="evenodd" stroke="none"/>
    <path d="M-10.75 -142.2 Q-12.05 -146.25 -17.0 -146.25 -18.55 -146.25 -19.7 -145.35 -20.95 -144.35 -20.95 -142.9 -20.95 -142.05 -20.35 -140.5 -19.7 -140.85 -18.0 -142.6 -16.75 -143.9 -15.4 -143.9 -13.15 -143.9 -10.75 -142.2" fill="#ceb58c" fill-rule="evenodd" stroke="none"/>
    <path d="M-12.95 -126.6 Q-12.95 -125.75 -11.35 -125.1 -10.65 -126.7 -8.6 -128.1 -6.2 -129.75 -5.4 -130.85 L-5.6 -132.05 -7.75 -132.05 Q-9.95 -132.05 -11.45 -130.45 -12.95 -128.85 -12.95 -126.6" fill="#ceb58c" fill-rule="evenodd" stroke="none"/>
    <path d="M-33.35 -132.25 Q-33.35 -130.65 -31.4 -129.85 L-30.6 -131.65 Q-30.2 -132.65 -29.6 -133.25 L-29.6 -134.9 Q-31.0 -135.0 -32.15 -134.3 -33.35 -133.55 -33.35 -132.25" fill="#ceb58c" fill-rule="evenodd" stroke="none"/>
    <path d="M11.45 -168.1 Q8.8 -168.1 8.8 -167.0 8.8 -165.9 10.65 -165.9 L11.85 -165.9 11.45 -168.1" fill="#ceb58c" fill-rule="evenodd" stroke="none"/>
    <path d="M17.8 -149.55 Q17.8 -147.25 19.2 -147.25 20.85 -147.25 20.85 -149.6 20.85 -151.5 19.45 -151.5 17.8 -151.5 17.8 -149.55" fill="#ceb58c" fill-rule="evenodd" stroke="none"/>
    <path d="M4.65 -147.45 L4.65 -145.65 Q6.6 -144.9 7.6 -144.9 10.6 -144.9 10.6 -146.65 L10.4 -147.45 4.65 -147.45" fill="#ceb58c" fill-rule="evenodd" stroke="none"/>
    <path d="M23.65 -135.05 L21.45 -135.3 Q20.85 -135.3 20.35 -134.9 19.85 -134.5 19.85 -133.9 19.85 -132.25 22.2 -131.25 25.0 -130.0 25.6 -128.9 26.6 -129.6 26.6 -131.35 L26.3 -133.3 25.8 -135.25 23.65 -135.05" fill="#ceb58c" fill-rule="evenodd" stroke="none"/>
    <path d="M-16.8 -122.25 L-18.1 -120.5 Q-18.95 -119.55 -18.95 -118.6 L-18.75 -117.7 -17.15 -118.1 -15.6 -118.5 -16.3 -120.35 -16.8 -122.25" fill="#940000" fill-rule="evenodd" stroke="none"/>
    <path d="M-13.6 -115.65 Q-13.4 -114.05 -12.45 -114.05 -12.2 -114.05 -11.15 -114.85 -11.55 -115.3 -12.25 -115.45 L-13.6 -115.65" fill="#940000" fill-rule="evenodd" stroke="none"/>
    <path d="M15.55 -161.5 Q14.3 -160.9 11.75 -160.5 13.15 -159.1 15.4 -159.1 19.0 -159.1 19.0 -161.25 19.0 -161.85 17.8 -163.25 L18.15 -163.95 Q17.25 -162.3 15.55 -161.5" fill="#940000" fill-rule="evenodd" stroke="none"/>
    <path d="M23.05 -161.75 Q23.05 -160.75 23.75 -160.0 24.5 -159.3 25.5 -159.3 25.9 -159.3 26.6 -160.1 25.65 -161.2 24.45 -161.9 23.05 -162.75 23.05 -161.75" fill="#940000" fill-rule="evenodd" stroke="none"/>
    <path d="M26.95 -149.2 L27.25 -146.95 Q27.25 -146.25 28.15 -146.25 30.05 -146.25 30.05 -149.05 30.05 -149.95 29.2 -150.65 28.35 -151.3 27.65 -150.9 26.85 -150.45 26.95 -149.2" fill="#940000" fill-rule="evenodd" stroke="none"/>
    <path d="M29.5 -140.05 Q31.6 -140.05 31.6 -140.95 31.6 -141.65 30.6 -141.2 29.6 -140.75 29.5 -140.05" fill="#940000" fill-rule="evenodd" stroke="none"/>
    <path d="M11.45 -94.1 Q11.4 -93.1 11.95 -92.3 12.55 -91.45 13.45 -91.45 14.25 -91.45 15.4 -91.95 14.9 -92.85 13.65 -93.25 L11.45 -94.1" fill="#312110" fill-rule="evenodd" stroke="none"/>
    <path d="M11.85 -82.45 L12.65 -83.25 Q10.9 -84.15 10.0 -83.25 L11.85 -82.45" fill="#312110" fill-rule="evenodd" stroke="none"/>
    <path d="M10.0 -86.3 Q11.15 -85.75 12.05 -86.3 L10.6 -87.5 10.0 -86.3" fill="#312110" fill-rule="evenodd" stroke="none"/>
    <path d="M3.85 -69.15 Q5.0 -68.45 5.35 -68.45 L6.65 -69.15 Q6.15 -69.85 5.15 -69.9 4.1 -69.9 3.85 -69.15" fill="#312110" fill-rule="evenodd" stroke="none"/>
    <path d="M-15.7 -83.65 Q-15.2 -82.15 -14.0 -81.65 L-13.2 -81.85 -13.0 -83.05 Q-13.0 -86.15 -16.6 -86.5 L-15.7 -83.65" fill="#312110" fill-rule="evenodd" stroke="none"/>
    <path d="M-16.3 -71.1 Q-15.2 -71.65 -15.2 -72.2 -15.2 -73.1 -16.45 -73.6 -17.75 -74.1 -18.15 -73.3 -18.85 -72.0 -16.3 -71.1" fill="#312110" fill-rule="evenodd" stroke="none"/>
    <path d="M-10.95 -72.0 Q-10.95 -71.1 -9.95 -71.1 -8.55 -71.1 -8.0 -72.5 -8.8 -72.95 -9.85 -72.9 -10.95 -72.8 -10.95 -72.0" fill="#312110" fill-rule="evenodd" stroke="none"/>
    <path d="M-12.55 -61.7 L-11.5 -60.7 Q-10.95 -60.25 -10.3 -60.25 L-9.15 -60.25 -9.15 -62.5 -11.0 -62.5 Q-11.95 -62.4 -12.55 -61.7" fill="#312110" fill-rule="evenodd" stroke="none"/>
    <path d="M-3.75 -54.7 L-3.55 -53.25 -1.8 -53.25 Q-1.45 -53.25 -1.15 -53.55 L-0.6 -54.1 Q-1.15 -54.9 -2.45 -55.25 -3.75 -55.6 -3.75 -54.7" fill="#312110" fill-rule="evenodd" stroke="none"/>
    <path d="M-2.15 -49.45 L-3.35 -49.85 Q-3.75 -49.1 -3.75 -47.7 L-2.55 -47.5 Q-1.55 -47.5 -1.55 -48.6 -1.55 -49.15 -2.15 -49.45" fill="#312110" fill-rule="evenodd" stroke="none"/>
    <path d="M18.4 -95.4 Q18.4 -94.3 19.95 -94.3 20.65 -94.3 20.65 -95.2 20.65 -95.85 19.55 -95.95 18.4 -96.05 18.4 -95.4" fill="#312110" fill-rule="evenodd" stroke="none"/>
    <path d="M-18.55 -95.8 Q-18.55 -96.3 -19.25 -96.35 L-20.35 -96.1 -20.15 -95.1 -18.95 -94.9 -18.55 -95.8" fill="#312110" fill-rule="evenodd" stroke="none"/>
  </g>
</svg>
