<?xml version="1.0" encoding="UTF-8" standalone="no"?>
<svg xmlns:xlink="http://www.w3.org/1999/xlink" height="118.15px" width="69.8px" xmlns="http://www.w3.org/2000/svg">
  <g transform="matrix(1.0, 0.0, 0.0, 1.0, 38.9, 174.1)">
    <path d="M0.1 -171.55 Q-0.8 -171.55 -1.8 -172.45 L-3.6 -173.7 -9.15 -174.1 -13.1 -173.95 Q-15.05 -173.6 -16.55 -172.4 L-17.55 -170.95 Q-18.05 -170.05 -18.75 -170.05 L-22.35 -170.25 Q-26.85 -170.25 -29.7 -166.3 -32.35 -162.65 -32.35 -157.65 L-32.0 -155.9 -31.5 -154.1 Q-35.0 -153.35 -36.95 -150.65 -38.85 -148.05 -38.85 -144.35 -38.85 -140.1 -34.75 -138.75 -36.45 -136.25 -36.45 -134.65 -36.45 -129.9 -33.45 -126.65 L-31.55 -125.4 Q-30.4 -124.75 -30.4 -123.85 -30.4 -123.3 -30.7 -122.45 L-31.05 -121.0 Q-31.05 -119.3 -29.7 -118.05 -28.9 -117.3 -26.7 -116.1 L-23.75 -114.15 Q-22.4 -112.9 -22.4 -111.2 -22.4 -108.65 -21.1 -106.4 L-18.1 -102.25 -16.3 -99.4 Q-15.25 -97.95 -13.75 -97.95 -13.2 -97.95 -12.9 -98.55 L-12.35 -99.65 Q-11.8 -98.35 -9.1 -96.5 -6.85 -94.95 -6.85 -93.15 -6.85 -92.5 -7.5 -91.55 -8.15 -90.65 -8.15 -89.95 -8.15 -88.65 -7.05 -86.8 -6.0 -84.95 -6.0 -83.65 -6.0 -82.3 -6.85 -80.25 -7.7 -78.25 -7.7 -76.85 -7.7 -75.7 -6.8 -74.55 L-5.35 -72.4 Q-4.45 -70.5 -4.25 -68.4 L-4.25 -66.8 -1.9 -82.6 -1.9 -86.2 Q-1.9 -87.9 -0.95 -89.5 L1.15 -92.5 Q2.3 -91.6 2.7 -90.0 L3.3 -86.9 Q4.8 -81.15 4.8 -78.45 L5.65 -81.55 5.55 -90.9 Q5.6 -92.65 6.5 -94.0 L8.2 -95.7 Q9.15 -96.6 9.15 -97.6 L9.1 -100.2 Q9.1 -101.8 10.85 -103.95 12.6 -106.1 12.6 -107.7 L12.35 -110.65 14.35 -110.45 Q15.55 -110.45 16.45 -111.35 17.3 -112.2 17.3 -113.4 L16.95 -114.7 16.25 -115.95 20.45 -117.55 24.45 -119.15 Q28.55 -121.2 28.55 -124.95 28.55 -125.5 28.0 -126.25 27.45 -127.0 27.45 -127.5 27.45 -128.25 28.45 -128.75 29.8 -129.35 30.05 -129.65 30.75 -130.45 30.85 -131.6 L30.9 -133.8 Q30.9 -135.35 28.85 -137.25 26.8 -139.15 26.8 -140.7 26.8 -141.2 27.15 -141.85 L27.45 -142.95 Q27.45 -144.3 26.6 -145.75 L25.25 -148.45 Q28.95 -150.45 28.95 -154.75 28.95 -158.05 26.6 -160.75 L21.4 -165.5 15.25 -170.95 Q11.85 -173.25 7.8 -173.25 L3.95 -172.4 Q1.65 -171.55 0.1 -171.55" fill="#312110" fill-rule="evenodd" stroke="none"/>
    <path d="M23.7 -149.15 Q28.7 -152.25 28.7 -156.95 28.7 -163.45 22.6 -165.8 22.0 -166.05 20.65 -165.8 L18.75 -166.0 Q18.0 -166.45 17.55 -167.6 L16.55 -169.45 Q13.45 -172.85 7.8 -172.85 5.6 -172.85 2.95 -171.55 -0.4 -170.0 -1.95 -169.65 L-2.0 -169.0 Q-2.0 -169.95 -2.65 -172.25 L-5.25 -172.75 -7.85 -173.1 Q-11.85 -173.1 -14.7 -170.95 L-16.0 -169.6 Q-16.7 -168.8 -17.5 -168.8 L-19.5 -169.25 -21.5 -169.65 Q-25.85 -169.65 -29.0 -166.6 -32.2 -163.55 -32.2 -159.2 -32.2 -158.1 -31.45 -156.45 -30.7 -154.8 -30.7 -153.7 -30.7 -152.65 -32.25 -152.3 L-35.05 -151.5 Q-38.9 -149.15 -38.9 -145.25 -38.9 -141.6 -33.9 -138.8 L-35.15 -136.55 Q-35.9 -135.3 -35.9 -134.2 -35.9 -130.4 -33.9 -128.15 -33.35 -127.55 -30.8 -126.45 -28.95 -125.65 -28.95 -124.3 L-29.35 -122.65 -29.8 -121.0 Q-29.8 -118.2 -26.45 -115.55 L-23.75 -113.3 Q-22.35 -111.9 -21.8 -110.25 -21.3 -108.65 -20.0 -106.8 L-17.9 -103.5 -16.5 -100.25 Q-15.55 -98.6 -14.05 -98.6 -13.75 -98.6 -13.45 -98.95 L-12.85 -99.25 Q-11.15 -99.25 -9.65 -98.2 L-6.9 -95.95 -5.05 -94.75 Q-4.1 -94.0 -4.1 -93.05 -4.1 -92.25 -4.95 -91.1 -5.85 -90.0 -5.85 -89.15 -5.85 -88.2 -4.95 -86.95 -4.1 -85.65 -4.1 -84.75 -4.1 -83.4 -4.65 -81.4 -5.2 -79.4 -5.2 -78.1 L-5.2 -75.85 Q-3.25 -78.05 -2.9 -82.0 -2.45 -87.05 -1.75 -88.8 L-0.7 -92.65 Q0.05 -94.65 1.7 -94.65 3.15 -94.65 3.7 -92.9 L4.35 -90.25 4.35 -90.1 4.5 -89.65 4.05 -94.15 Q3.6 -97.55 3.6 -99.7 3.6 -102.25 4.15 -106.25 4.7 -110.25 4.7 -112.8 2.25 -112.0 1.7 -109.15 0.25 -112.0 -0.25 -114.35 -1.15 -113.45 -1.3 -111.6 -1.5 -109.35 -1.95 -108.5 L-3.65 -106.0 Q-4.45 -104.65 -4.3 -103.3 -7.8 -103.65 -9.45 -107.4 -10.25 -109.3 -11.25 -115.0 -11.65 -117.3 -13.25 -119.05 L-16.85 -122.15 -13.5 -121.85 -10.15 -121.5 Q-8.4 -121.5 -6.75 -122.5 L-3.7 -124.7 Q-0.35 -118.65 4.8 -118.65 L8.45 -118.9 Q10.25 -119.25 11.4 -120.6 L12.25 -122.25 Q12.7 -123.2 13.45 -123.2 14.05 -123.2 14.9 -122.8 15.75 -122.35 16.35 -122.35 17.1 -122.35 17.9 -123.45 18.7 -124.5 19.4 -124.5 L20.85 -124.0 Q21.7 -123.45 22.3 -123.45 23.95 -123.45 24.95 -125.2 L26.75 -128.6 29.1 -130.85 Q30.4 -132.05 30.4 -133.45 30.4 -135.95 28.5 -137.7 L26.85 -138.4 Q25.85 -138.75 25.85 -139.45 25.85 -140.05 26.2 -141.05 L26.55 -142.65 Q26.55 -144.2 25.45 -145.95 24.0 -148.2 23.7 -149.15" fill="#4a3929" fill-rule="evenodd" stroke="none"/>
    <path d="M-1.1 -104.4 L-2.4 -97.45 Q-2.3 -95.6 -1.55 -94.65 -0.25 -95.6 -0.25 -97.35 L-1.0 -103.3 -1.1 -104.4 -0.3 -108.9 Q-1.3 -106.95 -1.1 -104.4" fill="#635239" fill-rule="evenodd" stroke="none"/>
    <path d="M5.2 -98.45 L2.75 -100.65 Q3.35 -98.85 3.75 -95.65 4.1 -92.65 4.9 -90.75 5.95 -91.5 6.25 -92.85 L6.4 -95.6 Q6.4 -97.05 5.2 -98.45" fill="#635239" fill-rule="evenodd" stroke="none"/>
    <path d="M-24.65 -119.9 Q-24.65 -117.7 -22.9 -115.35 -20.55 -112.3 -20.1 -111.1 L-18.8 -108.15 Q-17.9 -106.75 -16.45 -106.75 -15.0 -106.75 -13.95 -107.6 -12.8 -108.45 -12.8 -109.8 -12.8 -114.7 -15.4 -118.35 -18.25 -122.25 -22.7 -122.25 -23.55 -122.25 -24.1 -121.5 -24.65 -120.8 -24.65 -119.9" fill="#635239" fill-rule="evenodd" stroke="none"/>
    <path d="M13.55 -149.9 Q13.15 -150.35 10.8 -151.85 9.2 -152.9 9.2 -154.25 9.2 -154.95 10.2 -155.75 11.15 -156.55 11.15 -157.25 11.15 -160.5 8.15 -162.5 6.35 -163.7 1.65 -165.25 1.95 -168.45 -1.55 -170.1 -4.4 -171.5 -8.55 -171.5 L-12.6 -171.5 Q-13.95 -171.5 -15.6 -169.65 -17.25 -167.8 -18.65 -167.8 L-20.9 -168.25 Q-24.65 -168.25 -27.4 -166.1 -30.3 -163.8 -30.3 -160.35 -30.3 -158.6 -29.0 -156.1 -27.7 -153.6 -27.7 -151.9 L-27.9 -150.3 Q-31.05 -150.3 -33.4 -148.6 -35.9 -146.8 -35.9 -143.95 -35.9 -142.3 -34.5 -140.0 -33.1 -137.65 -33.1 -136.05 -33.1 -135.35 -33.4 -134.3 L-33.75 -132.5 Q-33.75 -129.55 -31.4 -127.5 -29.15 -125.5 -26.05 -125.5 -24.7 -125.5 -23.3 -126.0 L-20.6 -127.0 Q-19.7 -125.3 -18.45 -125.3 -17.9 -125.3 -17.15 -125.75 L-15.85 -126.15 Q-14.4 -126.15 -12.45 -124.9 -10.45 -123.6 -9.05 -123.6 -7.85 -123.6 -6.15 -124.8 -4.45 -125.95 -3.25 -125.95 L-1.6 -125.55 0.0 -125.1 Q4.0 -125.1 4.0 -127.0 4.0 -128.2 3.1 -129.6 2.05 -131.25 1.85 -132.2 L1.8 -135.2 Q1.8 -136.9 0.75 -137.6 3.3 -136.45 4.75 -136.45 7.8 -136.45 9.0 -139.3 L15.35 -139.25 15.35 -142.15 15.2 -146.3 Q14.85 -148.4 13.55 -149.9" fill="#635239" fill-rule="evenodd" stroke="none"/>
    <path d="M13.8 -164.9 Q14.9 -165.9 14.9 -167.25 14.9 -169.45 12.7 -170.7 10.8 -171.75 8.05 -171.75 6.3 -171.75 5.1 -171.05 3.7 -170.3 3.7 -168.85 3.7 -166.25 7.25 -165.4 L13.8 -164.9" fill="#635239" fill-rule="evenodd" stroke="none"/>
    <path d="M15.2 -161.15 Q13.6 -158.7 13.6 -155.45 13.6 -153.55 16.65 -151.65 19.7 -149.7 19.7 -147.85 L19.25 -145.9 Q21.4 -146.75 21.4 -151.1 L22.25 -151.3 Q22.7 -151.3 23.2 -150.55 23.7 -149.8 24.2 -149.8 27.2 -149.8 27.2 -155.45 27.2 -158.8 25.15 -161.25 22.95 -163.8 19.8 -163.8 16.95 -163.8 15.2 -161.15" fill="#635239" fill-rule="evenodd" stroke="none"/>
    <path d="M23.1 -145.15 Q20.85 -145.15 18.6 -142.0 16.2 -138.7 14.05 -138.45 10.45 -138.1 8.15 -136.6 5.4 -134.85 5.4 -131.9 5.4 -129.35 8.55 -128.6 L14.6 -128.15 Q15.75 -128.15 16.8 -128.65 L18.8 -129.85 21.0 -126.5 Q22.15 -124.65 23.8 -124.65 L25.05 -124.65 25.2 -128.0 Q25.45 -129.7 26.55 -130.75 L28.1 -132.0 Q28.9 -132.75 28.9 -133.65 28.9 -135.6 25.8 -137.6 22.7 -139.6 22.7 -141.55 22.7 -142.25 23.1 -143.05 L23.75 -144.45 23.45 -144.9 23.1 -145.15" fill="#635239" fill-rule="evenodd" stroke="none"/>
    <path d="M-25.35 -149.85 L-28.4 -147.95 -31.45 -146.05 Q-32.85 -144.8 -32.85 -143.1 -32.85 -141.4 -31.35 -140.25 -29.95 -139.2 -28.1 -139.2 -24.45 -139.2 -22.45 -143.75 L-20.75 -147.9 Q-19.65 -150.45 -18.4 -151.95 -16.75 -150.7 -15.85 -148.15 L-14.7 -143.6 Q-14.05 -140.9 -13.25 -139.75 -12.15 -138.15 -10.0 -138.15 1.4 -138.15 1.4 -144.15 1.4 -146.3 -1.9 -146.75 -6.3 -147.4 -7.45 -148.3 -8.3 -148.95 -8.5 -150.25 L-8.75 -152.8 Q-9.05 -154.85 -11.4 -156.5 -14.4 -158.5 -15.15 -159.7 -15.75 -160.55 -15.7 -161.85 L-15.8 -164.25 -15.6 -164.9 -19.8 -165.75 Q-26.6 -165.75 -26.6 -161.85 -26.6 -160.05 -25.25 -157.35 -23.95 -154.65 -23.95 -152.8 -23.95 -151.1 -25.35 -149.85" fill="#846b4a" fill-rule="evenodd" stroke="none"/>
    <path d="M-1.75 -169.2 L-2.4 -169.45 -2.45 -169.25 -1.75 -169.2 M-2.45 -169.25 L-8.25 -169.45 Q-10.3 -169.45 -11.75 -168.45 -13.4 -167.35 -13.4 -165.55 -13.4 -162.1 -11.95 -159.6 -10.3 -156.7 -7.45 -156.7 -6.25 -156.7 -5.75 -158.35 L-4.75 -161.3 Q-4.3 -161.95 -2.05 -163.5 -0.45 -164.6 -0.45 -166.0 -0.45 -166.7 -1.5 -167.4 -2.6 -168.15 -2.6 -168.8 L-2.45 -169.25" fill="#846b4a" fill-rule="evenodd" stroke="none"/>
    <path d="M2.7 -160.95 Q-3.25 -160.95 -3.25 -157.75 L-2.8 -156.45 Q-2.8 -155.5 -3.85 -154.25 -4.95 -152.95 -4.95 -152.05 -4.95 -147.15 3.8 -147.15 5.75 -147.15 6.1 -149.9 L6.3 -152.4 6.7 -154.95 Q6.85 -155.65 8.0 -156.5 9.05 -157.25 9.05 -158.05 9.05 -160.95 2.7 -160.95" fill="#846b4a" fill-rule="evenodd" stroke="none"/>
    <path d="M11.15 -171.15 L7.15 -171.15 Q5.4 -171.15 5.4 -168.9 5.4 -166.2 11.4 -166.2 13.15 -166.2 13.15 -168.7 13.15 -169.65 12.6 -170.4 12.0 -171.15 11.15 -171.15" fill="#846b4a" fill-rule="evenodd" stroke="none"/>
    <path d="M25.45 -154.9 Q25.45 -158.05 22.05 -161.0 L21.15 -161.2 Q19.6 -161.2 18.45 -160.15 17.3 -159.05 17.3 -157.55 17.3 -155.15 18.9 -153.45 20.55 -151.7 22.9 -151.7 24.05 -151.7 24.8 -152.7 25.45 -153.65 25.45 -154.9" fill="#846b4a" fill-rule="evenodd" stroke="none"/>
    <path d="M0.1 -134.4 L-1.1 -137.2 -7.5 -137.2 Q-8.9 -137.2 -10.9 -136.15 -12.95 -135.1 -14.35 -135.1 -15.15 -135.1 -16.4 -135.55 L-18.5 -135.95 Q-24.4 -135.95 -24.4 -132.7 -24.4 -128.55 -20.15 -126.35 -16.6 -124.5 -11.4 -124.5 L-6.9 -124.5 -6.9 -125.75 Q-6.9 -126.8 -7.65 -127.8 L-9.05 -129.7 -6.9 -130.15 -4.0 -129.5 Q-2.25 -128.85 -1.1 -128.85 -0.2 -128.85 0.35 -129.7 0.85 -130.5 0.85 -131.55 0.85 -132.85 0.1 -134.4" fill="#846b4a" fill-rule="evenodd" stroke="none"/>
    <path d="M17.95 -137.45 Q20.45 -137.45 22.3 -138.95 24.2 -140.5 24.2 -142.85 L23.95 -144.1 Q22.65 -144.05 21.45 -143.1 L19.25 -141.3 16.6 -140.35 Q15.15 -139.85 15.15 -138.75 15.15 -137.45 17.95 -137.45" fill="#846b4a" fill-rule="evenodd" stroke="none"/>
    <path d="M21.2 -136.95 Q19.9 -136.95 19.2 -135.65 18.6 -134.55 18.6 -133.0 18.6 -130.65 19.9 -128.95 21.35 -127.1 23.45 -127.1 25.9 -127.1 25.9 -131.9 25.9 -133.95 24.55 -135.45 23.15 -136.95 21.2 -136.95" fill="#846b4a" fill-rule="evenodd" stroke="none"/>
    <path d="M7.35 -133.0 Q7.35 -131.15 10.35 -131.15 11.8 -131.15 12.85 -132.0 14.0 -132.9 14.0 -134.25 14.0 -135.2 12.95 -135.55 L10.7 -135.6 Q7.35 -134.95 7.35 -133.0" fill="#846b4a" fill-rule="evenodd" stroke="none"/>
    <path d="M13.75 -143.4 Q13.75 -145.95 12.2 -147.85 10.5 -149.95 8.4 -149.3 8.5 -148.2 9.2 -146.75 9.95 -145.15 10.1 -144.15 L10.2 -141.9 Q10.35 -140.7 11.2 -140.7 12.3 -140.7 13.0 -141.5 13.75 -142.3 13.75 -143.4" fill="#846b4a" fill-rule="evenodd" stroke="none"/>
    <path d="M-24.6 -159.7 Q-24.6 -156.25 -21.6 -154.05 -18.8 -151.95 -14.95 -151.95 -14.05 -151.95 -13.5 -152.7 -13.0 -153.4 -13.0 -154.4 -13.0 -155.7 -14.05 -157.1 -15.3 -158.85 -15.6 -159.7 -16.55 -162.75 -17.05 -163.6 -18.15 -165.5 -20.0 -165.5 -22.05 -165.5 -23.4 -163.7 -24.6 -162.0 -24.6 -159.7" fill="#ad946b" fill-rule="evenodd" stroke="none"/>
    <path d="M-32.65 -142.95 Q-32.65 -141.65 -31.5 -140.85 -30.45 -140.05 -29.0 -140.05 -27.35 -140.05 -26.15 -141.2 -24.95 -142.3 -24.95 -143.95 -24.95 -145.3 -26.0 -146.25 -27.0 -147.2 -28.4 -147.15 -30.15 -147.1 -31.4 -145.9 -32.65 -144.7 -32.65 -142.95" fill="#ad946b" fill-rule="evenodd" stroke="none"/>
    <path d="M-2.45 -166.7 Q-2.45 -168.85 -6.5 -167.95 -11.9 -166.7 -11.9 -162.3 -11.9 -161.45 -11.2 -160.9 -10.5 -160.35 -9.65 -160.35 -8.75 -160.35 -7.95 -161.3 L-6.5 -162.95 -3.85 -164.5 Q-2.45 -165.4 -2.45 -166.7" fill="#ad946b" fill-rule="evenodd" stroke="none"/>
    <path d="M7.25 -156.55 Q7.25 -158.5 3.6 -159.65 -1.95 -158.75 -1.95 -154.85 -1.95 -152.8 2.25 -152.8 4.25 -152.8 5.65 -153.75 7.25 -154.8 7.25 -156.55" fill="#ad946b" fill-rule="evenodd" stroke="none"/>
    <path d="M-6.15 -146.65 Q-8.8 -148.9 -9.1 -149.3 -11.55 -148.95 -13.1 -147.75 -14.9 -146.35 -14.9 -144.25 -14.9 -142.5 -13.3 -141.35 -11.8 -140.3 -9.85 -140.3 -7.8 -140.3 -6.35 -141.0 -4.6 -141.9 -4.6 -143.5 -4.6 -145.35 -6.15 -146.65" fill="#ad946b" fill-rule="evenodd" stroke="none"/>
    <path d="M-21.45 -130.75 L-22.5 -129.75 -18.05 -129.75 Q-12.65 -129.75 -12.65 -132.35 -12.65 -133.7 -13.55 -134.7 -14.5 -135.65 -15.85 -135.65 -18.2 -135.65 -19.75 -134.85 -21.65 -133.9 -21.65 -132.05 L-21.45 -130.75" fill="#ad946b" fill-rule="evenodd" stroke="none"/>
    <path d="M-8.45 -134.95 Q-8.45 -133.15 -6.8 -132.0 -5.25 -131.0 -3.2 -131.0 -2.0 -131.0 -1.25 -132.05 -0.5 -133.0 -0.5 -134.3 -0.5 -135.4 -1.75 -136.15 -2.85 -136.85 -4.45 -137.0 L-7.2 -136.6 Q-8.45 -136.05 -8.45 -134.95" fill="#ad946b" fill-rule="evenodd" stroke="none"/>
    <path d="M19.9 -134.25 Q19.9 -132.55 21.3 -131.4 22.65 -130.3 24.5 -130.3 25.45 -130.3 25.45 -131.9 25.45 -133.65 22.7 -134.85 19.9 -136.05 19.9 -134.25" fill="#ad946b" fill-rule="evenodd" stroke="none"/>
    <path d="M20.0 -156.45 Q20.7 -156.45 21.6 -155.7 22.5 -154.95 23.2 -154.95 24.85 -154.95 24.85 -157.1 24.85 -160.1 23.1 -160.75 20.8 -161.6 18.45 -160.05 16.05 -158.5 16.05 -156.0 16.05 -155.2 16.9 -154.1 L18.3 -155.65 Q19.1 -156.45 20.0 -156.45" fill="#ad946b" fill-rule="evenodd" stroke="none"/>
    <path d="M6.05 -171.15 L6.05 -169.2 Q7.4 -168.15 8.3 -168.15 10.55 -168.15 10.55 -169.1 10.55 -171.4 6.05 -171.15" fill="#ad946b" fill-rule="evenodd" stroke="none"/>
    <path d="M-5.9 -168.1 Q-9.3 -168.1 -9.3 -165.95 -9.3 -164.9 -6.65 -164.9 -4.6 -164.9 -4.6 -166.05 -4.6 -166.65 -5.9 -168.1" fill="#ceb58c" fill-rule="evenodd" stroke="none"/>
    <path d="M-16.1 -158.75 Q-16.1 -160.8 -17.35 -162.25 -18.6 -163.75 -20.6 -164.0 -21.6 -164.15 -22.3 -163.3 -22.95 -162.45 -22.95 -161.35 -22.95 -159.4 -21.85 -158.0 -20.75 -156.5 -19.0 -156.5 -17.85 -156.5 -17.0 -157.1 -16.1 -157.7 -16.1 -158.75" fill="#ceb58c" fill-rule="evenodd" stroke="none"/>
    <path d="M-32.9 -144.2 Q-32.9 -142.65 -30.0 -142.65 L-27.35 -142.8 Q-26.0 -143.1 -26.0 -144.2 -26.0 -146.25 -29.45 -146.25 -32.9 -146.25 -32.9 -144.2" fill="#ceb58c" fill-rule="evenodd" stroke="none"/>
    <path d="M0.6 -157.85 Q0.6 -156.65 3.4 -156.65 5.75 -156.65 5.75 -157.85 5.75 -159.35 3.2 -159.35 0.6 -159.35 0.6 -157.85" fill="#ceb58c" fill-rule="evenodd" stroke="none"/>
    <path d="M7.35 -171.6 Q6.45 -170.7 6.45 -170.2 6.45 -168.8 8.05 -168.8 L9.25 -168.8 9.45 -170.05 Q9.45 -170.7 8.75 -171.05 L7.35 -171.6" fill="#ceb58c" fill-rule="evenodd" stroke="none"/>
    <path d="M24.6 -158.7 Q24.6 -159.8 22.8 -160.25 20.95 -160.75 20.95 -159.65 20.95 -158.75 21.9 -158.2 22.7 -157.75 23.85 -157.75 24.6 -157.75 24.6 -158.7" fill="#ceb58c" fill-rule="evenodd" stroke="none"/>
    <path d="M-14.7 -143.7 Q-14.7 -142.2 -12.1 -142.2 -10.5 -142.2 -9.3 -143.25 -8.05 -144.35 -8.05 -145.85 -8.05 -146.85 -9.1 -147.05 L-11.35 -146.85 Q-14.7 -145.75 -14.7 -143.7" fill="#ceb58c" fill-rule="evenodd" stroke="none"/>
    <path d="M-22.05 -131.8 L-20.0 -131.35 Q-18.15 -131.35 -16.85 -132.25 -15.4 -133.2 -15.4 -134.8 -15.4 -136.9 -18.5 -135.45 -21.6 -134.0 -22.05 -131.8" fill="#ceb58c" fill-rule="evenodd" stroke="none"/>
    <path d="M-4.8 -135.9 L-7.4 -136.05 -7.6 -135.0 Q-7.6 -133.75 -4.6 -133.75 -3.75 -133.75 -3.1 -134.2 -2.45 -134.7 -2.45 -135.45 -2.45 -136.05 -3.25 -136.05 L-4.8 -135.9" fill="#ceb58c" fill-rule="evenodd" stroke="none"/>
    <path d="M21.2 -133.65 Q21.2 -132.45 23.2 -132.45 24.4 -132.45 24.4 -133.65 24.4 -134.55 22.8 -134.55 21.2 -134.55 21.2 -133.65" fill="#ceb58c" fill-rule="evenodd" stroke="none"/>
    <path d="M15.1 -108.0 L14.9 -106.75 Q14.9 -106.3 15.6 -106.15 L16.6 -106.3 Q16.1 -107.6 15.1 -108.0" fill="#312110" fill-rule="evenodd" stroke="none"/>
    <path d="M14.9 -94.85 Q15.7 -94.85 16.25 -95.35 16.85 -95.9 16.85 -96.65 L16.85 -98.5 Q14.35 -98.5 13.6 -95.3 L14.9 -94.85" fill="#312110" fill-rule="evenodd" stroke="none"/>
    <path d="M8.85 -90.4 L8.85 -89.45 10.7 -89.45 Q11.1 -89.45 11.45 -89.8 L12.05 -90.4 Q10.55 -91.65 8.85 -90.4" fill="#312110" fill-rule="evenodd" stroke="none"/>
    <path d="M9.05 -83.15 L8.75 -82.35 8.6 -81.55 8.85 -81.1 9.25 -80.8 Q10.7 -81.4 11.4 -82.5 10.7 -83.15 9.05 -83.15" fill="#312110" fill-rule="evenodd" stroke="none"/>
    <path d="M2.1 -72.6 L3.6 -72.6 3.6 -74.75 Q2.85 -74.75 2.3 -74.0 1.75 -73.25 2.1 -72.6" fill="#312110" fill-rule="evenodd" stroke="none"/>
    <path d="M0.45 -80.05 Q-0.2 -79.6 -0.45 -78.8 L0.85 -78.4 Q1.8 -78.4 1.9 -80.3 L0.45 -80.05" fill="#312110" fill-rule="evenodd" stroke="none"/>
    <path d="M-14.45 -85.1 L-14.3 -84.25 -12.85 -84.25 Q-12.2 -84.25 -11.5 -85.75 L-12.8 -86.4 Q-14.45 -86.4 -14.45 -85.1" fill="#312110" fill-rule="evenodd" stroke="none"/>
    <path d="M-14.75 -91.35 L-13.45 -91.15 Q-12.6 -92.2 -12.6 -92.7 -12.6 -93.45 -13.65 -92.8 -14.75 -92.1 -14.75 -91.35" fill="#312110" fill-rule="evenodd" stroke="none"/>
    <path d="M-20.8 -95.65 Q-18.8 -95.05 -18.0 -95.65 -18.5 -96.25 -19.4 -96.3 -20.3 -96.3 -20.8 -95.65" fill="#312110" fill-rule="evenodd" stroke="none"/>
    <path d="M-13.25 -79.5 L-11.95 -80.15 Q-12.25 -81.05 -13.1 -81.75 L-14.55 -81.85 Q-14.95 -81.3 -14.5 -80.55 L-13.25 -79.5" fill="#312110" fill-rule="evenodd" stroke="none"/>
    <path d="M-10.45 -70.05 Q-10.45 -70.7 -11.05 -71.2 -11.65 -71.75 -12.15 -71.45 -13.05 -70.9 -10.85 -69.1 L-10.45 -70.05" fill="#312110" fill-rule="evenodd" stroke="none"/>
    <path d="M-6.1 -63.1 Q-5.6 -61.95 -4.9 -61.95 -3.5 -61.95 -3.5 -63.15 -3.5 -63.85 -4.5 -63.7 -5.4 -63.6 -6.1 -63.1" fill="#312110" fill-rule="evenodd" stroke="none"/>
    <path d="M-4.8 -57.2 Q-4.4 -55.95 -3.2 -55.95 -2.45 -55.95 -2.45 -56.9 -2.45 -57.4 -3.3 -57.35 L-4.8 -57.2" fill="#312110" fill-rule="evenodd" stroke="none"/>
  </g>
</svg>
