<?xml version="1.0" encoding="UTF-8" standalone="no"?>
<svg xmlns:xlink="http://www.w3.org/1999/xlink" height="113.0px" width="69.8px" xmlns="http://www.w3.org/2000/svg">
  <g transform="matrix(1.0, 0.0, 0.0, 1.0, 40.45, 176.55)">
    <path d="M1.45 -175.55 Q-0.35 -174.5 -1.6 -174.5 -2.8 -174.5 -4.65 -175.3 -6.5 -176.1 -7.75 -176.1 -11.8 -176.1 -15.45 -174.65 L-22.65 -171.1 -28.7 -168.45 Q-31.8 -166.8 -31.8 -163.95 L-31.65 -162.3 Q-31.6 -161.4 -31.8 -160.7 -35.75 -159.45 -38.05 -156.65 -40.45 -153.7 -40.45 -149.7 L-40.35 -146.4 Q-40.1 -144.75 -39.1 -143.55 L-37.95 -142.7 Q-37.25 -142.2 -37.25 -141.6 L-37.3 -138.5 Q-37.3 -134.65 -33.85 -131.45 -33.5 -131.1 -31.55 -130.35 -30.2 -129.8 -30.2 -128.8 -30.2 -128.25 -30.65 -127.45 L-31.1 -126.05 Q-31.1 -122.9 -28.1 -121.0 -25.55 -119.35 -21.7 -119.1 -21.7 -114.0 -18.75 -111.55 L-15.65 -109.6 -12.5 -108.05 Q-9.15 -106.1 -9.15 -103.15 L-9.15 -98.75 -5.25 -72.45 Q-4.55 -73.85 -4.55 -75.65 L-4.65 -80.7 Q-4.65 -86.85 -3.8 -91.1 -2.9 -95.5 -0.45 -101.0 0.6 -100.35 0.8 -98.7 1.05 -96.35 1.35 -95.75 L3.25 -92.55 Q4.25 -90.85 4.45 -89.15 4.8 -91.35 4.45 -96.2 3.65 -108.65 6.4 -115.2 7.15 -117.0 8.25 -118.45 L8.9 -119.55 Q11.25 -120.2 12.5 -124.15 13.6 -127.6 13.2 -128.4 L18.3 -128.85 Q21.75 -128.75 23.2 -129.6 29.35 -133.3 29.35 -140.55 29.35 -142.3 27.9 -144.7 26.4 -147.1 26.4 -148.8 26.4 -149.6 27.0 -150.7 27.55 -151.8 27.55 -152.55 27.55 -153.9 26.05 -155.6 24.55 -157.35 24.55 -158.65 24.55 -159.3 24.9 -160.2 L25.25 -161.75 Q25.25 -164.95 22.9 -167.25 20.6 -169.5 17.35 -169.5 L14.8 -169.1 Q12.75 -172.7 10.6 -174.45 7.95 -176.55 4.45 -176.55 3.25 -176.55 1.45 -175.55" fill="#312110" fill-rule="evenodd" stroke="none"/>
    <path d="M12.0 -171.35 Q10.05 -173.65 6.35 -173.65 L3.25 -171.85 Q1.65 -171.15 -0.15 -171.15 -1.6 -171.15 -2.35 -173.65 -4.95 -175.7 -9.55 -175.7 -12.8 -175.7 -16.15 -173.8 L-19.05 -172.0 Q-20.9 -170.85 -22.4 -170.2 L-27.15 -168.15 Q-29.5 -166.75 -29.5 -164.45 L-29.15 -162.55 Q-28.8 -161.4 -28.8 -160.7 -28.8 -159.65 -30.4 -159.55 L-33.15 -159.1 Q-39.1 -155.6 -39.1 -148.9 -39.1 -147.3 -37.7 -144.95 -36.35 -142.65 -36.35 -141.0 -36.35 -140.5 -36.7 -139.65 L-37.05 -138.3 Q-37.05 -136.7 -35.95 -135.35 L-33.5 -133.2 -31.05 -131.05 Q-29.95 -129.7 -29.95 -128.1 L-30.4 -126.05 Q-30.4 -122.9 -27.2 -121.1 -24.45 -119.55 -20.55 -119.55 -20.25 -116.45 -17.95 -114.45 -15.7 -112.45 -12.5 -112.45 L-8.45 -112.45 Q-9.9 -114.1 -11.1 -117.7 -12.25 -121.1 -13.95 -122.75 -12.2 -121.8 -10.85 -121.8 -9.35 -121.8 -7.05 -122.75 -4.8 -123.65 -3.25 -123.65 -1.9 -123.65 -1.2 -121.95 L0.1 -118.85 1.5 -124.45 Q2.15 -127.3 2.15 -130.05 4.45 -127.85 4.45 -125.35 L4.1 -123.85 Q3.75 -122.9 3.75 -122.3 3.75 -120.8 4.75 -119.7 5.75 -118.6 7.2 -118.6 8.45 -118.6 9.1 -120.1 L9.95 -122.95 Q11.75 -128.25 11.75 -131.55 11.75 -132.95 10.5 -134.25 L8.35 -136.7 7.35 -136.1 Q6.8 -135.75 6.25 -135.75 L4.9 -135.75 4.9 -140.95 Q4.9 -143.3 5.65 -145.3 L7.75 -149.25 7.75 -143.7 Q7.75 -141.1 9.7 -139.1 L14.05 -135.75 17.2 -132.7 Q18.9 -130.95 20.8 -130.95 23.95 -130.95 26.25 -132.8 28.7 -134.75 28.7 -137.7 28.7 -140.95 28.0 -143.05 27.25 -145.45 25.25 -147.65 24.1 -148.9 21.8 -149.25 18.75 -149.65 17.7 -150.15 L28.45 -150.15 28.45 -151.95 Q28.45 -153.6 25.85 -155.25 23.2 -156.9 23.2 -158.5 23.2 -159.3 23.65 -160.55 L24.1 -162.6 Q24.1 -164.85 22.45 -166.45 20.85 -168.0 18.55 -168.0 L15.2 -167.9 Q14.1 -167.9 13.35 -169.1 L12.0 -171.35" fill="#4a3929" fill-rule="evenodd" stroke="none"/>
    <path d="M0.9 -113.05 Q-0.05 -114.3 -1.65 -114.9 -3.05 -114.15 -4.5 -112.0 L-4.5 -101.95 Q-4.5 -99.95 -6.05 -96.95 -7.6 -94.0 -7.6 -91.95 L-7.6 -87.55 -5.75 -74.5 Q-4.4 -77.0 -4.4 -80.5 L-4.4 -90.5 0.1 -104.45 3.2 -98.45 3.3 -98.2 3.1 -98.95 Q1.95 -103.0 1.95 -105.9 L1.95 -110.1 Q1.95 -111.7 0.9 -113.05 M3.3 -98.2 Q4.3 -94.35 4.45 -92.0 4.45 -95.25 3.3 -98.2" fill="#4a3929" fill-rule="evenodd" stroke="none"/>
    <path d="M-5.1 -172.5 L-7.1 -173.55 -9.25 -174.1 Q-12.65 -174.1 -15.1 -172.55 -17.85 -170.8 -17.85 -167.9 -17.85 -164.95 -14.7 -163.5 -12.15 -162.3 -8.3 -162.3 -4.8 -162.3 -2.3 -163.75 0.55 -165.4 0.55 -168.35 0.55 -170.1 -1.35 -171.1 L-5.1 -172.5" fill="#635239" fill-rule="evenodd" stroke="none"/>
    <path d="M-28.65 -156.25 Q-28.65 -152.45 -21.9 -152.45 -21.05 -152.45 -19.8 -153.05 -18.55 -153.6 -17.65 -153.6 -16.7 -153.6 -15.35 -152.95 -13.95 -152.25 -13.05 -152.25 -11.85 -152.25 -10.65 -154.75 -9.85 -156.4 -8.05 -157.4 L-4.45 -158.85 Q-5.75 -160.55 -8.7 -160.7 L-13.85 -161.35 Q-15.8 -162.15 -17.4 -164.85 -19.2 -167.9 -20.65 -168.85 -21.5 -169.4 -22.6 -168.65 L-24.7 -167.25 Q-29.25 -165.15 -29.25 -162.25 L-28.9 -160.6 Q-28.6 -159.65 -28.6 -158.95 L-28.65 -156.25" fill="#635239" fill-rule="evenodd" stroke="none"/>
    <path d="M-38.9 -149.5 Q-38.9 -145.6 -36.3 -142.75 -33.65 -139.9 -29.85 -139.9 -27.15 -139.9 -25.25 -142.0 -23.45 -144.05 -23.45 -146.85 -23.45 -149.75 -25.75 -152.2 L-30.3 -156.75 Q-32.25 -159.2 -35.65 -156.05 -38.9 -153.0 -38.9 -149.5" fill="#635239" fill-rule="evenodd" stroke="none"/>
    <path d="M2.4 -166.5 Q-0.1 -166.5 -1.85 -164.65 -3.55 -162.8 -3.55 -160.2 -3.55 -158.2 -2.15 -156.45 -6.5 -153.1 -9.45 -149.2 L-11.0 -147.6 Q-11.8 -146.7 -11.7 -145.75 L-14.8 -146.45 Q-20.05 -146.45 -22.4 -139.2 L-24.0 -135.3 Q-24.9 -133.2 -24.9 -131.3 -24.9 -129.95 -23.35 -129.4 L-20.35 -129.15 Q-20.1 -125.4 -16.45 -123.35 -13.3 -121.6 -8.8 -121.6 -6.25 -121.6 -4.4 -123.1 -2.4 -124.65 -2.4 -127.0 L-2.65 -130.05 -0.9 -129.15 Q0.05 -128.7 0.9 -128.7 3.3 -128.7 3.3 -132.7 3.3 -133.75 2.3 -135.25 1.25 -136.75 1.25 -137.8 1.25 -139.5 2.65 -141.95 4.0 -144.45 4.0 -146.1 4.0 -147.75 3.15 -149.0 2.25 -150.35 0.8 -150.35 L0.8 -152.35 Q0.8 -154.55 3.9 -157.1 6.95 -159.6 6.95 -161.8 6.95 -163.7 5.6 -165.1 4.25 -166.5 2.4 -166.5" fill="#635239" fill-rule="evenodd" stroke="none"/>
    <path d="M12.7 -168.55 Q11.8 -171.55 9.3 -171.55 7.9 -171.55 7.0 -170.3 6.15 -169.15 6.15 -167.6 6.15 -166.0 9.0 -164.6 11.85 -163.2 11.85 -161.55 11.85 -160.75 10.8 -159.7 9.75 -158.7 9.75 -157.85 9.75 -156.5 10.85 -155.6 11.85 -154.75 13.25 -154.75 L15.7 -154.75 15.9 -157.1 Q15.9 -158.35 14.9 -159.9 13.8 -161.6 13.65 -162.7 L12.7 -168.55" fill="#635239" fill-rule="evenodd" stroke="none"/>
    <path d="M16.15 -161.55 Q16.15 -160.75 17.0 -159.95 L18.25 -158.4 Q20.2 -152.2 24.4 -152.2 L25.7 -152.2 Q25.35 -153.25 23.8 -155.45 22.55 -157.2 22.55 -158.75 22.55 -159.55 23.05 -160.75 L23.5 -162.7 Q23.5 -164.05 22.55 -165.4 L21.2 -167.3 19.35 -167.7 Q16.15 -167.7 16.15 -161.55 M21.2 -167.3 L23.25 -165.45 22.1 -166.8 20.75 -167.95 21.2 -167.3" fill="#635239" fill-rule="evenodd" stroke="none"/>
    <path d="M14.3 -148.55 Q12.35 -147.6 12.35 -145.7 12.35 -144.65 13.85 -144.4 L16.7 -144.1 Q19.9 -143.3 19.9 -138.9 L19.9 -135.5 Q19.9 -134.4 20.85 -133.65 21.75 -132.95 22.95 -132.95 24.7 -132.95 25.95 -133.95 27.25 -134.95 27.6 -136.65 L26.55 -137.1 25.55 -136.65 Q26.7 -137.4 26.7 -139.75 26.7 -143.6 24.35 -146.45 21.9 -149.35 18.3 -149.35 15.9 -149.35 14.3 -148.55" fill="#635239" fill-rule="evenodd" stroke="none"/>
    <path d="M10.2 -153.1 L6.4 -153.15 6.4 -150.5 Q6.4 -149.3 7.85 -148.95 L10.7 -148.75 Q12.4 -148.75 12.95 -151.7 L10.2 -153.1" fill="#635239" fill-rule="evenodd" stroke="none"/>
    <path d="M-32.05 -139.15 Q-34.3 -137.4 -34.3 -134.95 -34.3 -132.25 -32.45 -130.35 -30.6 -128.45 -27.95 -128.45 -26.35 -128.45 -26.35 -129.7 -26.35 -131.7 -27.05 -133.45 L-28.85 -136.9 Q-29.25 -137.65 -30.35 -138.1 -31.6 -138.6 -32.05 -139.15" fill="#635239" fill-rule="evenodd" stroke="none"/>
    <path d="M-14.9 -169.5 Q-14.9 -167.5 -13.1 -166.2 -11.5 -165.0 -9.25 -165.0 -6.85 -165.0 -5.05 -166.15 -3.1 -167.45 -3.1 -169.55 -3.1 -171.2 -4.95 -172.15 -6.6 -173.0 -9.0 -173.0 -11.4 -172.95 -13.05 -172.1 -14.9 -171.15 -14.9 -169.5" fill="#846b4a" fill-rule="evenodd" stroke="none"/>
    <path d="M-26.3 -160.25 L-24.7 -158.65 -23.6 -156.85 Q-23.0 -155.9 -22.1 -155.9 L-19.95 -156.35 -17.85 -156.8 -12.75 -156.8 Q-11.85 -156.8 -11.15 -157.3 -10.4 -157.85 -10.4 -158.65 -10.4 -160.2 -12.65 -160.8 -15.8 -161.65 -16.5 -162.25 -17.45 -163.05 -18.1 -166.25 -18.6 -168.9 -20.2 -168.85 -21.15 -168.8 -22.1 -167.85 L-23.85 -166.35 Q-27.2 -164.7 -27.2 -162.25 -27.2 -161.2 -26.3 -160.25" fill="#846b4a" fill-rule="evenodd" stroke="none"/>
    <path d="M-37.5 -149.55 Q-37.5 -145.85 -34.05 -144.45 L-32.9 -144.45 -32.7 -147.9 Q-32.35 -149.65 -30.9 -149.65 -30.05 -149.65 -28.85 -148.85 -27.65 -148.05 -26.8 -148.05 -25.65 -148.05 -25.65 -149.75 -25.65 -151.75 -28.15 -153.1 -28.25 -154.35 -29.05 -155.15 -29.85 -156.0 -31.05 -156.0 -33.7 -156.0 -35.6 -154.1 -37.5 -152.2 -37.5 -149.55" fill="#846b4a" fill-rule="evenodd" stroke="none"/>
    <path d="M-32.7 -136.35 Q-32.7 -135.25 -31.9 -134.5 -31.1 -133.7 -30.0 -133.7 -28.85 -133.7 -28.85 -135.9 -28.85 -136.85 -29.75 -137.45 -30.55 -138.0 -31.6 -138.0 -31.65 -137.65 -32.2 -137.2 L-32.7 -136.35" fill="#846b4a" fill-rule="evenodd" stroke="none"/>
    <path d="M1.05 -148.45 Q-0.05 -149.65 -1.6 -149.65 -3.4 -149.65 -5.5 -147.75 -7.8 -145.75 -9.45 -145.55 L-16.6 -144.75 Q-20.35 -143.85 -20.35 -140.9 -20.35 -139.35 -18.95 -138.1 L-16.05 -136.0 -17.65 -134.0 Q-18.5 -132.9 -18.5 -131.75 -18.5 -129.35 -15.6 -128.55 L-10.0 -128.0 Q-8.1 -128.0 -6.65 -129.15 -5.15 -130.35 -5.15 -132.1 -5.15 -132.7 -5.5 -133.5 L-5.85 -134.9 -5.85 -138.5 -3.65 -138.6 -1.45 -138.5 Q2.15 -138.5 2.15 -145.65 2.15 -147.25 1.05 -148.45" fill="#846b4a" fill-rule="evenodd" stroke="none"/>
    <path d="M4.75 -158.6 Q6.1 -160.0 6.1 -161.9 6.1 -162.6 5.5 -163.5 L4.5 -164.95 2.0 -165.4 Q0.15 -165.4 -1.2 -164.0 -2.5 -162.6 -2.5 -160.7 -2.5 -159.2 -1.25 -158.2 -0.05 -157.25 1.55 -157.25 3.45 -157.25 4.75 -158.6" fill="#846b4a" fill-rule="evenodd" stroke="none"/>
    <path d="M7.3 -167.65 Q7.3 -166.45 8.4 -165.7 9.45 -165.0 10.8 -165.0 13.4 -165.0 13.4 -166.75 13.4 -168.4 12.0 -169.55 10.6 -170.65 8.85 -170.45 7.3 -170.3 7.3 -167.65" fill="#846b4a" fill-rule="evenodd" stroke="none"/>
    <path d="M18.9 -166.1 Q16.85 -166.1 16.85 -165.1 16.85 -162.65 18.3 -160.55 L21.45 -156.55 Q22.05 -156.55 23.25 -157.25 22.5 -158.4 22.6 -160.8 22.7 -163.15 21.9 -164.3 21.65 -164.65 20.65 -164.8 19.85 -164.95 19.85 -165.45 19.85 -166.1 18.9 -166.1" fill="#846b4a" fill-rule="evenodd" stroke="none"/>
    <path d="M26.2 -145.3 Q26.2 -146.45 23.95 -146.2 23.0 -148.05 21.0 -148.05 19.95 -148.05 19.15 -147.45 18.3 -146.75 18.3 -145.75 18.3 -144.65 19.7 -143.65 21.35 -142.55 21.7 -141.7 L23.1 -138.65 Q24.05 -137.15 25.55 -136.7 L26.45 -136.9 26.45 -138.9 25.8 -140.85 Q25.1 -141.95 25.1 -142.75 25.1 -143.25 25.65 -144.0 26.2 -144.75 26.2 -145.3" fill="#846b4a" fill-rule="evenodd" stroke="none"/>
    <path d="M13.55 -149.5 Q14.35 -150.0 14.35 -150.85 14.35 -153.55 10.0 -154.0 8.6 -152.35 8.6 -150.95 8.6 -149.0 11.8 -149.0 12.8 -149.0 13.55 -149.5" fill="#846b4a" fill-rule="evenodd" stroke="none"/>
    <path d="M-8.5 -173.4 Q-12.8 -173.4 -12.8 -170.8 -12.8 -169.3 -10.9 -169.0 L-7.25 -168.9 Q-4.65 -168.9 -4.65 -170.55 -4.65 -171.9 -5.9 -172.7 -7.0 -173.4 -8.5 -173.4" fill="#ad946b" fill-rule="evenodd" stroke="none"/>
    <path d="M-24.5 -165.45 L-27.45 -162.9 Q-26.2 -161.5 -24.45 -161.05 L-20.75 -160.7 Q-19.25 -160.7 -18.15 -161.45 -16.95 -162.3 -16.95 -163.6 -16.95 -165.15 -18.25 -166.25 -19.6 -167.4 -21.1 -167.05 -22.9 -166.6 -24.5 -165.45" fill="#ad946b" fill-rule="evenodd" stroke="none"/>
    <path d="M-37.5 -151.55 Q-37.5 -150.75 -36.8 -150.2 -36.15 -149.7 -35.3 -149.7 -33.3 -149.7 -31.75 -151.25 -30.8 -152.15 -29.3 -154.7 -31.25 -156.4 -34.35 -155.25 -37.5 -154.1 -37.5 -151.55" fill="#ad946b" fill-rule="evenodd" stroke="none"/>
    <path d="M-19.65 -141.45 Q-19.65 -139.6 -16.65 -139.6 -11.95 -139.6 -11.95 -142.0 -11.95 -143.1 -13.15 -143.6 L-15.8 -144.0 Q-17.35 -143.9 -18.45 -143.25 -19.65 -142.5 -19.65 -141.45" fill="#ad946b" fill-rule="evenodd" stroke="none"/>
    <path d="M-11.05 -137.1 Q-12.85 -137.1 -14.05 -135.6 -15.15 -134.15 -15.15 -132.15 -15.15 -130.7 -12.05 -130.7 -10.4 -130.7 -9.3 -132.05 -8.3 -133.35 -8.3 -135.15 -8.3 -136.05 -11.05 -137.1" fill="#ad946b" fill-rule="evenodd" stroke="none"/>
    <path d="M-5.75 -144.75 Q-5.75 -143.5 -4.9 -142.6 -4.05 -141.7 -2.8 -141.7 -1.5 -141.7 -0.6 -142.6 0.35 -143.55 0.35 -144.8 0.35 -146.6 -2.7 -146.6 -5.75 -146.55 -5.75 -144.75" fill="#ad946b" fill-rule="evenodd" stroke="none"/>
    <path d="M6.15 -159.65 Q7.0 -160.7 7.0 -162.0 7.0 -163.2 5.65 -163.8 4.45 -164.3 2.7 -164.2 0.95 -164.05 -0.25 -163.3 -1.6 -162.5 -1.6 -161.3 -1.6 -158.6 4.05 -158.6 5.3 -158.6 6.15 -159.65" fill="#ad946b" fill-rule="evenodd" stroke="none"/>
    <path d="M9.3 -170.2 Q7.55 -169.35 7.55 -168.35 7.55 -167.35 8.2 -166.65 8.85 -165.95 9.8 -165.95 L11.35 -165.95 11.6 -167.25 Q11.6 -168.45 9.3 -170.2" fill="#ad946b" fill-rule="evenodd" stroke="none"/>
    <path d="M22.2 -162.9 Q22.2 -164.05 21.15 -165.1 20.05 -166.15 19.35 -165.35 18.2 -164.0 19.3 -162.1 20.2 -160.55 22.2 -159.3 L22.2 -162.9" fill="#ad946b" fill-rule="evenodd" stroke="none"/>
    <path d="M21.65 -148.05 L20.35 -148.05 20.35 -146.85 Q20.35 -145.4 21.85 -144.55 22.1 -144.35 24.85 -143.3 L25.3 -144.7 Q25.3 -146.1 24.2 -147.1 23.15 -148.05 21.65 -148.05" fill="#ad946b" fill-rule="evenodd" stroke="none"/>
    <path d="M1.3 -164.3 Q-0.7 -163.3 -0.7 -162.2 -0.7 -160.7 1.35 -160.7 L3.35 -160.7 3.35 -163.35 1.3 -164.3" fill="#ceb58c" fill-rule="evenodd" stroke="none"/>
    <path d="M-11.5 -171.85 Q-10.35 -170.7 -9.45 -170.7 -8.35 -170.7 -6.75 -171.85 -7.45 -172.9 -9.05 -172.9 -10.6 -172.9 -11.5 -171.85" fill="#ceb58c" fill-rule="evenodd" stroke="none"/>
    <path d="M-23.4 -165.95 Q-23.4 -164.05 -20.4 -164.05 -19.55 -164.05 -18.95 -164.6 -18.35 -165.2 -18.35 -166.0 -18.35 -167.45 -20.85 -167.45 -23.4 -167.4 -23.4 -165.95" fill="#ceb58c" fill-rule="evenodd" stroke="none"/>
    <path d="M-36.35 -152.45 Q-35.2 -152.0 -34.65 -152.0 -32.2 -152.0 -30.7 -154.45 -32.1 -155.5 -34.05 -154.85 -36.0 -154.2 -36.35 -152.45" fill="#ceb58c" fill-rule="evenodd" stroke="none"/>
    <path d="M-18.05 -143.25 L-18.05 -142.1 Q-17.3 -140.95 -16.4 -140.95 L-14.9 -140.95 Q-14.7 -142.0 -15.8 -142.7 -16.7 -143.25 -18.05 -143.25" fill="#ceb58c" fill-rule="evenodd" stroke="none"/>
    <path d="M-14.25 -132.95 Q-13.0 -132.05 -11.85 -132.05 -10.95 -132.05 -10.3 -132.65 -9.65 -133.25 -9.65 -134.1 -9.65 -135.05 -10.5 -135.65 -11.25 -136.15 -12.3 -136.15 -13.15 -136.15 -13.55 -135.05 L-14.25 -132.95" fill="#ceb58c" fill-rule="evenodd" stroke="none"/>
    <path d="M20.05 -148.3 Q20.35 -147.15 21.2 -146.45 L23.25 -146.45 Q23.45 -147.5 22.3 -148.1 L20.05 -148.3" fill="#ceb58c" fill-rule="evenodd" stroke="none"/>
    <path d="M10.0 -115.6 Q10.0 -114.25 11.35 -114.0 11.95 -114.0 12.95 -114.7 11.55 -115.6 10.0 -115.6" fill="#312110" fill-rule="evenodd" stroke="none"/>
    <path d="M7.55 -107.15 L8.75 -106.7 Q10.0 -106.7 10.0 -107.8 10.0 -108.55 8.85 -108.2 7.7 -107.85 7.55 -107.15" fill="#312110" fill-rule="evenodd" stroke="none"/>
    <path d="M7.05 -101.65 Q7.05 -100.3 8.55 -100.3 L7.9 -101.05 7.05 -101.65" fill="#312110" fill-rule="evenodd" stroke="none"/>
    <path d="M6.8 -111.95 L6.8 -110.55 7.9 -110.55 6.8 -111.95" fill="#312110" fill-rule="evenodd" stroke="none"/>
    <path d="M0.8 -93.4 L-0.75 -93.4 Q-0.15 -91.6 0.9 -91.6 L1.95 -91.8 Q1.8 -92.95 0.8 -93.4" fill="#312110" fill-rule="evenodd" stroke="none"/>
    <path d="M-15.4 -102.0 Q-13.95 -101.75 -13.3 -103.25 -14.55 -103.75 -15.4 -102.0" fill="#312110" fill-rule="evenodd" stroke="none"/>
    <path d="M-18.1 -107.35 Q-17.95 -106.3 -16.95 -105.75 -16.35 -105.75 -14.95 -106.45 -16.2 -107.85 -18.1 -107.35" fill="#312110" fill-rule="evenodd" stroke="none"/>
    <path d="M-14.45 -94.55 Q-14.15 -93.85 -13.35 -93.5 -12.5 -93.15 -11.95 -93.65 -12.2 -94.4 -13.05 -94.75 -13.95 -95.05 -14.45 -94.55" fill="#312110" fill-rule="evenodd" stroke="none"/>
    <path d="M-11.25 -83.6 L-9.9 -83.35 Q-9.3 -83.35 -9.2 -84.15 L-9.2 -85.6 -11.25 -85.6 -11.25 -83.6" fill="#312110" fill-rule="evenodd" stroke="none"/>
    <path d="M-18.55 -87.95 L-17.2 -87.05 -14.95 -87.05 -14.75 -87.95 Q-14.75 -89.0 -16.25 -88.85 -17.6 -88.75 -18.55 -87.95" fill="#312110" fill-rule="evenodd" stroke="none"/>
    <path d="M2.0 -85.45 Q0.7 -85.45 -0.05 -84.75 1.1 -84.05 2.0 -84.05 L2.0 -85.45" fill="#312110" fill-rule="evenodd" stroke="none"/>
    <path d="M8.15 -92.05 Q9.45 -91.1 10.45 -91.6 9.8 -92.5 9.2 -92.5 L8.15 -92.05" fill="#312110" fill-rule="evenodd" stroke="none"/>
    <path d="M1.3 -79.25 Q-0.1 -79.35 -0.45 -77.9 L1.1 -77.9 1.3 -79.25" fill="#312110" fill-rule="evenodd" stroke="none"/>
    <path d="M-5.9 -63.55 L-5.55 -64.05 -5.3 -64.55 Q-5.3 -65.65 -6.0 -66.5 -6.7 -67.4 -7.6 -67.15 -8.6 -66.9 -7.8 -65.5 -7.05 -64.3 -5.9 -63.55" fill="#312110" fill-rule="evenodd" stroke="none"/>
    <path d="M-10.35 -73.55 Q-9.7 -72.35 -8.5 -72.9 -9.0 -73.85 -10.35 -73.55" fill="#312110" fill-rule="evenodd" stroke="none"/>
  </g>
</svg>
