<?xml version="1.0" encoding="UTF-8" standalone="no"?>
<svg xmlns:xlink="http://www.w3.org/1999/xlink" height="98.75px" width="68.5px" xmlns="http://www.w3.org/2000/svg">
  <g transform="matrix(1.0, 0.0, 0.0, 1.0, 40.8, 178.4)">
    <path d="M3.7 -177.7 L-0.4 -178.4 Q-2.25 -178.4 -4.0 -177.4 L-7.3 -175.3 Q-9.15 -177.9 -11.7 -177.9 -14.0 -177.9 -16.35 -176.1 -19.7 -173.6 -20.75 -173.1 L-23.6 -172.4 Q-25.35 -172.15 -26.4 -171.55 -31.4 -168.8 -30.8 -163.05 -40.8 -160.35 -40.8 -152.55 -40.8 -151.35 -38.95 -150.0 -37.1 -148.7 -37.1 -147.45 -37.1 -146.9 -37.5 -146.15 L-37.95 -144.8 Q-37.95 -141.8 -35.45 -139.8 -33.05 -137.9 -29.8 -137.9 -29.8 -133.2 -26.45 -129.85 -23.4 -126.75 -18.35 -125.65 -16.95 -125.35 -15.3 -123.7 -13.8 -122.2 -13.1 -120.7 -12.1 -118.45 -11.65 -115.4 -11.2 -112.25 -10.35 -110.1 -10.0 -110.7 -10.0 -111.2 L-10.05 -113.6 -9.85 -114.3 -8.7 -113.2 Q-8.15 -112.6 -8.15 -111.9 -8.15 -111.3 -8.65 -110.4 L-9.15 -108.85 -9.15 -105.2 Q-9.15 -103.95 -8.5 -102.65 L-7.3 -100.25 Q-6.5 -98.2 -6.2 -96.1 L-5.8 -91.75 Q-4.05 -94.1 -4.05 -95.75 L-4.05 -106.05 Q-4.05 -107.35 -3.15 -108.95 -2.05 -110.9 -1.85 -111.8 0.1 -108.2 0.85 -105.85 1.75 -102.95 1.75 -99.45 L1.75 -96.2 Q2.1 -97.1 2.0 -98.3 L1.75 -100.5 Q1.75 -102.0 2.65 -104.25 3.55 -106.5 3.55 -108.0 L3.55 -112.5 Q3.55 -114.45 4.5 -117.4 5.45 -120.35 5.45 -122.25 5.45 -123.45 6.2 -124.55 L7.7 -126.65 Q8.0 -127.2 7.9 -129.3 7.85 -130.9 8.85 -130.9 L10.65 -130.55 Q13.6 -130.55 13.6 -136.3 16.25 -134.85 18.6 -134.85 22.1 -134.85 24.6 -136.65 27.35 -138.6 27.35 -141.65 27.35 -143.15 25.85 -145.15 24.35 -147.2 24.35 -148.65 24.35 -149.3 25.1 -149.9 L26.35 -151.0 Q27.7 -152.9 27.7 -155.75 27.7 -158.1 26.15 -160.4 L24.85 -161.55 Q24.0 -162.15 24.0 -162.9 L24.4 -165.35 Q24.8 -166.8 24.8 -167.75 24.8 -172.85 19.9 -175.3 L17.0 -175.55 13.95 -174.75 Q13.35 -174.65 12.35 -174.15 11.4 -173.7 10.7 -173.6 9.85 -173.5 9.05 -174.4 L7.5 -175.85 3.7 -177.7" fill="#312110" fill-rule="evenodd" stroke="none"/>
    <path d="M0.65 -177.9 Q-1.05 -177.9 -3.3 -176.0 -5.55 -174.1 -7.3 -174.1 -8.6 -174.1 -10.3 -175.35 -12.0 -176.55 -13.25 -176.55 -15.55 -176.55 -17.65 -174.4 -20.55 -171.5 -21.75 -170.9 L-26.9 -168.5 Q-29.45 -167.0 -29.45 -164.55 L-29.35 -162.1 Q-29.35 -161.4 -30.3 -161.1 L-32.0 -160.55 Q-37.1 -157.55 -37.1 -153.35 -37.1 -152.3 -35.8 -151.05 -34.55 -149.8 -34.55 -148.8 -34.55 -147.8 -35.2 -146.3 -35.9 -144.8 -35.9 -143.8 -35.9 -142.15 -34.5 -141.1 -33.2 -140.1 -31.4 -140.1 -26.35 -140.1 -25.5 -142.6 L-25.2 -141.85 Q-25.2 -141.05 -26.05 -139.8 L-20.7 -137.5 Q-18.15 -136.05 -17.0 -133.45 -18.0 -133.55 -19.65 -134.25 L-22.3 -134.85 -25.5 -134.85 -25.5 -132.05 Q-25.5 -129.5 -23.0 -128.1 -20.85 -126.85 -17.8 -126.85 -15.7 -126.85 -14.05 -128.15 -13.05 -128.95 -11.2 -131.25 L-6.1 -131.25 Q-4.15 -133.0 -3.05 -134.5 L-2.65 -135.45 Q-2.45 -136.0 -2.0 -136.0 -1.25 -136.0 -0.2 -135.2 0.8 -134.4 1.55 -134.4 L5.45 -134.4 6.55 -132.4 Q7.25 -131.4 8.25 -131.4 10.3 -131.4 11.05 -134.2 L11.65 -136.75 Q12.1 -138.25 12.75 -139.1 14.95 -138.75 14.95 -143.35 14.95 -145.2 13.25 -147.75 11.55 -150.35 11.55 -152.15 11.55 -153.1 12.95 -155.4 13.25 -153.85 14.8 -151.3 16.15 -149.0 16.15 -147.15 L16.15 -143.85 Q16.15 -142.05 17.9 -141.0 19.45 -140.1 21.55 -140.1 22.8 -140.1 23.75 -141.05 24.65 -141.95 24.65 -143.2 24.65 -144.3 23.45 -145.75 22.25 -147.2 22.25 -148.3 22.25 -150.05 24.4 -152.25 26.5 -154.45 26.5 -156.2 26.5 -158.25 24.3 -160.55 L22.85 -161.35 Q21.95 -161.75 21.95 -162.45 21.95 -163.4 23.05 -164.65 24.1 -165.9 24.1 -166.85 L24.1 -170.05 Q24.1 -172.0 22.2 -173.15 20.55 -174.1 18.2 -174.1 15.9 -174.1 13.7 -173.2 L9.5 -171.05 9.05 -173.1 Q7.65 -173.6 4.95 -175.95 2.75 -177.9 0.65 -177.9" fill="#4a3929" fill-rule="evenodd" stroke="none"/>
    <path d="M0.15 -120.2 Q-0.1 -120.6 -1.25 -121.1 -2.2 -121.5 -2.2 -122.15 L-1.75 -125.35 Q-1.75 -127.2 -2.05 -128.7 L-2.6 -129.85 Q-3.1 -130.5 -3.25 -130.05 L-3.3 -129.15 -3.1 -128.2 Q-3.1 -126.75 -4.45 -124.7 -5.8 -122.65 -5.8 -121.15 L-5.1 -118.85 Q-5.95 -118.75 -6.75 -119.25 L-8.2 -120.35 Q-8.55 -118.75 -7.0 -116.8 -5.3 -114.6 -5.3 -113.25 -5.3 -111.35 -5.9 -108.5 -6.55 -105.6 -6.55 -103.75 L-6.55 -93.8 Q-6.55 -92.95 -5.45 -92.1 -4.6 -93.45 -4.45 -95.15 L-4.95 -105.4 Q-4.95 -107.15 -3.6 -109.0 -1.95 -111.4 -1.55 -112.55 L1.15 -96.05 Q2.2 -98.45 2.2 -101.3 2.2 -104.2 1.45 -107.6 L0.15 -113.9 Q0.0 -114.85 0.5 -117.2 0.9 -119.1 0.15 -120.2" fill="#4a3929" fill-rule="evenodd" stroke="none"/>
    <path d="M6.2 -173.3 Q4.55 -174.95 2.35 -174.95 -0.05 -174.95 -2.25 -173.15 L-6.35 -169.7 Q-6.35 -171.6 -7.7 -172.95 -9.1 -174.3 -11.0 -174.3 -14.85 -174.3 -16.7 -168.5 L-18.6 -169.7 Q-19.6 -170.2 -20.7 -170.2 -23.55 -170.2 -25.55 -168.05 -27.5 -165.95 -27.5 -163.0 L-27.5 -159.35 Q-30.4 -159.35 -32.45 -158.2 -34.85 -156.85 -34.85 -154.45 -34.85 -152.55 -33.6 -150.95 L-30.8 -148.1 Q-34.7 -146.8 -34.7 -144.55 -34.7 -142.15 -29.35 -142.15 -25.85 -142.15 -23.5 -143.5 -23.05 -143.0 -23.15 -141.8 -23.2 -140.6 -22.8 -140.1 -22.0 -139.0 -20.05 -138.35 -17.9 -137.65 -17.05 -136.9 L-15.05 -134.2 Q-14.0 -132.65 -12.55 -132.65 -8.15 -132.65 -5.3 -136.35 -2.55 -139.8 -2.55 -144.6 -2.55 -149.7 -5.8 -153.2 L-7.2 -154.7 Q-8.0 -155.4 -8.95 -155.4 L-12.8 -155.4 -11.35 -155.6 -9.25 -155.85 Q-4.95 -155.85 -2.2 -152.05 0.3 -148.5 0.3 -143.7 0.3 -141.9 -1.05 -138.1 1.45 -136.4 4.65 -136.4 7.5 -136.4 9.4 -137.4 11.7 -138.55 11.7 -140.8 11.7 -142.25 9.8 -144.4 L9.8 -152.95 Q9.8 -154.25 10.85 -155.2 11.85 -156.05 13.25 -156.05 14.05 -156.05 14.45 -154.95 L15.15 -153.05 15.15 -147.6 Q15.15 -145.35 16.65 -143.7 18.2 -142.0 20.4 -142.0 21.6 -142.0 22.45 -142.8 23.3 -143.6 23.3 -144.8 L22.8 -147.45 Q22.25 -149.0 22.25 -150.05 22.25 -151.3 23.55 -152.95 24.8 -154.65 24.8 -155.85 24.8 -158.3 22.45 -160.55 L21.15 -161.25 Q20.4 -161.6 20.4 -162.25 20.4 -162.85 21.1 -163.7 21.75 -164.55 21.75 -165.2 21.75 -167.85 20.35 -169.8 18.85 -171.9 16.45 -171.9 L12.4 -171.5 Q10.45 -171.0 8.95 -169.55 L6.2 -173.3" fill="#635239" fill-rule="evenodd" stroke="none"/>
    <path d="M13.2 -161.15 L14.55 -158.8 Q16.15 -156.25 18.55 -156.25 19.8 -156.25 20.7 -156.85 21.75 -157.5 21.75 -158.55 L21.55 -158.8 21.25 -159.0 Q19.75 -158.15 18.95 -158.15 17.65 -158.15 16.8 -159.5 L15.3 -162.05 Q12.05 -166.5 6.95 -167.0 L7.25 -165.0 Q7.25 -159.9 1.7 -158.15 2.2 -157.7 2.6 -155.9 2.9 -154.45 3.85 -154.45 4.4 -154.45 5.2 -154.95 L6.5 -155.4 Q7.5 -155.4 8.25 -154.45 L9.7 -152.7 9.2 -155.35 Q8.65 -156.95 8.65 -157.95 8.65 -158.55 9.45 -158.9 L10.7 -159.7 Q11.15 -160.3 11.15 -161.65 11.15 -162.95 11.55 -163.55 L13.2 -161.15" fill="#4a3929" fill-rule="evenodd" stroke="none"/>
    <path d="M-27.7 -153.55 Q-26.7 -152.0 -26.7 -150.6 L-26.7 -146.95 Q-26.7 -146.15 -26.25 -145.55 -25.75 -144.9 -25.05 -144.9 -24.25 -144.9 -23.05 -145.4 L-21.1 -145.9 Q-18.4 -145.9 -18.4 -140.2 L-18.4 -138.1 Q-18.4 -137.4 -17.5 -137.25 L-15.75 -137.25 Q-13.65 -137.25 -11.4 -138.85 -8.45 -141.0 -7.2 -141.45 L-6.35 -140.1 -5.2 -141.15 Q-4.6 -141.75 -4.6 -142.4 -4.6 -143.15 -5.1 -144.25 -5.65 -145.35 -5.65 -146.05 L-5.15 -147.55 Q-5.15 -150.15 -6.15 -151.95 -7.35 -154.05 -9.45 -154.05 L-13.3 -154.05 -14.85 -152.9 Q-15.85 -152.1 -16.55 -152.2 L-15.45 -153.35 Q-14.8 -154.0 -14.8 -154.7 -14.8 -155.2 -15.25 -155.85 L-15.7 -157.0 Q-15.7 -157.75 -14.55 -158.6 -13.4 -159.45 -13.4 -160.15 -13.4 -162.5 -15.25 -164.1 -17.05 -165.6 -19.5 -165.6 -21.1 -165.6 -22.25 -164.4 -23.35 -163.25 -23.35 -161.6 L-23.05 -159.5 -22.8 -157.45 Q-22.8 -156.4 -23.9 -156.4 L-29.25 -156.4 Q-28.95 -155.5 -27.7 -153.55" fill="#846b4a" fill-rule="evenodd" stroke="none"/>
    <path d="M-15.0 -168.95 Q-15.0 -167.45 -13.85 -166.35 -12.7 -165.3 -11.15 -165.3 -9.2 -165.3 -7.75 -166.55 -6.3 -167.85 -6.3 -169.7 -6.3 -171.45 -8.05 -172.5 -9.7 -173.45 -11.55 -173.1 -13.1 -172.8 -14.05 -171.65 -15.0 -170.5 -15.0 -168.95" fill="#846b4a" fill-rule="evenodd" stroke="none"/>
    <path d="M1.7 -171.4 L-0.7 -171.7 Q-2.5 -171.7 -3.55 -170.0 -4.45 -168.5 -4.45 -166.4 -4.45 -164.25 -2.25 -163.1 -0.35 -162.1 2.3 -162.1 5.45 -162.1 5.45 -167.7 L7.1 -167.7 6.05 -170.5 Q5.25 -171.85 3.9 -171.85 L1.7 -171.4" fill="#846b4a" fill-rule="evenodd" stroke="none"/>
    <path d="M16.25 -170.65 Q14.95 -170.65 14.95 -169.05 14.95 -167.95 16.2 -167.05 L18.3 -165.3 18.9 -163.65 Q19.2 -162.75 19.9 -162.75 21.45 -162.75 21.45 -165.55 21.45 -167.7 19.9 -169.15 18.4 -170.65 16.25 -170.65" fill="#846b4a" fill-rule="evenodd" stroke="none"/>
    <path d="M17.15 -155.75 Q15.65 -155.75 15.65 -154.25 15.65 -152.7 17.0 -151.7 18.3 -150.8 20.0 -150.8 22.6 -150.8 22.6 -152.25 22.6 -154.0 20.85 -154.95 19.35 -155.75 17.15 -155.75" fill="#846b4a" fill-rule="evenodd" stroke="none"/>
    <path d="M19.4 -146.25 L19.25 -144.5 Q19.25 -143.15 21.1 -143.15 21.75 -143.15 22.25 -143.65 22.75 -144.15 22.75 -144.85 22.75 -146.25 19.4 -146.25" fill="#846b4a" fill-rule="evenodd" stroke="none"/>
    <path d="M4.1 -152.2 Q0.35 -152.2 0.35 -144.4 L0.35 -142.85 Q1.95 -143.75 2.9 -146.25 4.0 -149.2 4.95 -150.2 5.35 -150.65 6.45 -150.65 7.55 -150.65 7.95 -151.05 5.65 -152.2 4.1 -152.2" fill="#846b4a" fill-rule="evenodd" stroke="none"/>
    <path d="M-39.15 -156.4 Q-39.15 -155.45 -37.9 -155.3 L-35.6 -155.25 Q-34.4 -155.25 -33.5 -155.85 -32.55 -156.5 -32.55 -157.55 -32.55 -158.45 -33.6 -158.85 L-35.85 -158.95 Q-39.15 -158.4 -39.15 -156.4" fill="#846b4a" fill-rule="evenodd" stroke="none"/>
    <path d="M-17.05 -164.9 L-20.2 -164.9 Q-21.25 -164.9 -21.95 -164.0 -22.65 -163.15 -22.65 -162.0 -22.65 -160.55 -19.55 -160.55 -17.75 -160.55 -16.45 -161.4 -15.0 -162.3 -15.0 -163.85 -15.0 -164.9 -17.05 -164.9" fill="#ad946b" fill-rule="evenodd" stroke="none"/>
    <path d="M-26.05 -168.0 Q-24.85 -167.5 -23.75 -167.5 -22.35 -167.5 -21.0 -168.35 L-21.0 -169.9 Q-24.9 -169.9 -26.05 -168.0" fill="#ad946b" fill-rule="evenodd" stroke="none"/>
    <path d="M-12.1 -171.05 Q-12.1 -170.05 -9.65 -170.05 -8.2 -170.05 -8.2 -171.05 -8.2 -172.2 -10.15 -172.2 -12.1 -172.2 -12.1 -171.05" fill="#ad946b" fill-rule="evenodd" stroke="none"/>
    <path d="M1.0 -168.6 Q1.0 -169.8 -1.0 -169.5 -3.05 -169.2 -3.05 -168.0 -3.05 -167.15 -0.9 -167.15 -0.15 -167.15 0.4 -167.55 1.0 -167.95 1.0 -168.6" fill="#ad946b" fill-rule="evenodd" stroke="none"/>
    <path d="M15.45 -152.7 Q15.45 -151.8 16.25 -151.2 16.95 -150.65 17.95 -150.65 L19.55 -150.65 19.75 -152.2 Q19.75 -154.1 18.55 -154.55 17.55 -154.9 16.5 -154.3 15.45 -153.7 15.45 -152.7" fill="#ad946b" fill-rule="evenodd" stroke="none"/>
    <path d="M-24.7 -151.0 L-24.2 -148.2 -22.05 -148.1 -19.9 -148.25 Q-18.75 -148.25 -18.0 -147.15 L-17.05 -144.7 Q-15.95 -141.15 -14.15 -141.15 -12.3 -141.15 -10.95 -142.4 -9.6 -143.7 -9.6 -145.5 -9.6 -147.55 -10.55 -149.0 -11.6 -150.65 -13.4 -150.65 L-15.35 -150.15 Q-16.5 -149.65 -17.3 -149.65 L-18.55 -149.65 -18.75 -150.3 -18.45 -152.9 -18.2 -155.5 Q-18.2 -157.3 -19.05 -158.15 -21.3 -157.75 -21.3 -156.15 L-20.95 -154.9 Q-20.95 -153.85 -22.8 -152.95 -24.7 -152.05 -24.7 -151.0" fill="#ad946b" fill-rule="evenodd" stroke="none"/>
    <path d="M-35.25 -156.65 L-35.25 -155.55 -34.15 -155.55 Q-32.95 -155.55 -32.55 -157.85 L-34.3 -157.8 Q-35.25 -157.45 -35.25 -156.65" fill="#ad946b" fill-rule="evenodd" stroke="none"/>
    <path d="M-22.15 -170.25 Q-24.35 -170.15 -24.35 -169.3 -24.35 -168.55 -23.5 -168.55 -21.95 -168.55 -21.0 -169.55 L-22.15 -170.25" fill="#ceb58c" fill-rule="evenodd" stroke="none"/>
    <path d="M-9.25 -172.2 Q-10.25 -172.3 -10.9 -171.75 -10.15 -170.55 -9.15 -170.55 -8.2 -170.55 -8.2 -171.3 -8.2 -172.1 -9.25 -172.2" fill="#ceb58c" fill-rule="evenodd" stroke="none"/>
    <path d="M-17.9 -149.8 L-17.9 -154.35 -18.15 -155.0 -18.55 -155.55 Q-21.65 -153.5 -21.65 -149.95 -21.65 -148.9 -20.15 -148.85 L-17.4 -148.6 Q-16.75 -148.35 -15.3 -147.15 -14.2 -146.25 -13.15 -146.25 -12.3 -146.25 -11.75 -147.1 -11.25 -147.85 -11.25 -148.8 -11.25 -150.25 -13.55 -150.65 L-16.4 -149.8 -17.9 -149.8" fill="#ceb58c" fill-rule="evenodd" stroke="none"/>
    <path d="M18.0 -155.35 Q16.5 -155.35 16.5 -154.0 16.5 -153.2 17.1 -152.6 17.7 -152.0 18.5 -152.0 19.55 -152.0 19.55 -154.1 19.55 -155.35 18.0 -155.35" fill="#ceb58c" fill-rule="evenodd" stroke="none"/>
    <path d="M-29.7 -130.55 Q-29.7 -131.0 -30.4 -131.1 -31.15 -131.15 -31.15 -130.7 -31.15 -130.35 -30.75 -130.1 L-30.0 -129.75 -29.7 -130.55" fill="#312110" fill-rule="evenodd" stroke="none"/>
    <path d="M-27.75 -126.35 L-26.95 -125.65 -26.4 -126.35 -26.8 -126.95 -27.4 -127.5 -27.75 -126.35" fill="#312110" fill-rule="evenodd" stroke="none"/>
    <path d="M-22.65 -123.55 Q-22.6 -123.05 -22.0 -122.25 L-21.15 -122.25 -21.0 -123.45 Q-21.0 -123.85 -21.6 -123.75 L-22.65 -123.55" fill="#312110" fill-rule="evenodd" stroke="none"/>
    <path d="M-19.4 -117.8 Q-19.75 -116.9 -19.4 -115.9 L-17.55 -115.9 -17.55 -116.7 Q-17.55 -117.15 -18.25 -117.4 L-19.4 -117.8" fill="#312110" fill-rule="evenodd" stroke="none"/>
    <path d="M14.15 -130.55 L14.8 -130.05 15.8 -130.05 15.95 -130.7 14.9 -131.0 Q14.25 -131.05 14.15 -130.55" fill="#312110" fill-rule="evenodd" stroke="none"/>
    <path d="M11.65 -124.1 Q12.75 -124.6 12.75 -125.0 12.75 -125.8 11.65 -126.0 10.6 -126.2 10.05 -125.6 9.65 -125.2 10.35 -124.7 10.9 -124.3 11.65 -124.1" fill="#312110" fill-rule="evenodd" stroke="none"/>
    <path d="M17.0 -126.3 Q16.1 -125.8 15.45 -124.6 L16.25 -124.4 Q16.75 -124.4 16.95 -125.1 17.15 -125.7 17.0 -126.3" fill="#312110" fill-rule="evenodd" stroke="none"/>
    <path d="M9.2 -114.9 L11.1 -114.55 12.15 -114.95 Q12.6 -115.35 12.6 -115.9 L12.15 -117.25 Q11.65 -117.85 11.0 -117.75 10.25 -117.65 9.85 -116.7 L9.2 -114.9" fill="#312110" fill-rule="evenodd" stroke="none"/>
    <path d="M10.1 -107.75 L11.2 -107.75 Q12.0 -108.3 12.1 -109.6 L10.1 -109.8 10.1 -107.75" fill="#312110" fill-rule="evenodd" stroke="none"/>
    <path d="M6.45 -111.2 L5.45 -111.65 5.25 -110.6 Q5.25 -109.6 6.15 -109.6 7.1 -109.6 7.1 -110.5 L6.45 -111.2" fill="#312110" fill-rule="evenodd" stroke="none"/>
    <path d="M3.05 -94.2 L4.2 -93.85 4.6 -94.85 Q4.2 -95.05 3.7 -94.85 3.2 -94.65 3.05 -94.2" fill="#312110" fill-rule="evenodd" stroke="none"/>
    <path d="M1.45 -91.4 Q0.7 -92.3 -0.2 -91.9 -0.6 -91.7 -0.65 -91.15 L-0.7 -88.7 2.0 -88.7 2.2 -89.4 Q2.2 -90.5 1.45 -91.4" fill="#312110" fill-rule="evenodd" stroke="none"/>
    <path d="M-7.15 -86.8 L-4.45 -86.8 -4.25 -87.8 Q-4.25 -88.45 -4.8 -88.95 -5.35 -89.4 -6.05 -89.4 -7.15 -89.4 -7.15 -86.8" fill="#312110" fill-rule="evenodd" stroke="none"/>
    <path d="M-6.85 -79.65 L-5.9 -79.65 Q-4.8 -79.65 -4.8 -81.4 -4.8 -81.75 -5.15 -81.95 L-5.85 -82.25 -6.85 -82.25 -6.85 -79.65" fill="#312110" fill-rule="evenodd" stroke="none"/>
    <path d="M-2.4 -83.4 Q-2.3 -82.15 -1.25 -82.05 L-0.9 -83.25 -2.4 -83.4" fill="#312110" fill-rule="evenodd" stroke="none"/>
    <path d="M-12.95 -98.55 Q-12.9 -97.7 -12.25 -97.05 L-11.25 -97.05 Q-11.4 -98.2 -12.95 -98.55" fill="#312110" fill-rule="evenodd" stroke="none"/>
    <path d="M-21.95 -104.05 Q-21.1 -102.75 -19.9 -103.5 -20.1 -104.05 -20.75 -104.2 L-21.95 -104.05" fill="#312110" fill-rule="evenodd" stroke="none"/>
    <path d="M-19.25 -109.1 Q-18.65 -107.75 -17.75 -107.75 -17.35 -107.75 -16.7 -108.65 L-16.7 -109.7 -18.0 -109.5 -19.25 -109.1" fill="#312110" fill-rule="evenodd" stroke="none"/>
    <path d="M-19.75 -96.25 Q-18.65 -95.7 -18.0 -95.7 -17.45 -95.7 -16.7 -96.65 L-18.35 -97.05 Q-18.7 -97.05 -19.75 -96.25" fill="#312110" fill-rule="evenodd" stroke="none"/>
  </g>
</svg>
