<?xml version="1.0" encoding="UTF-8" standalone="no"?>
<svg xmlns:xlink="http://www.w3.org/1999/xlink" height="82.9px" width="65.0px" xmlns="http://www.w3.org/2000/svg">
  <g transform="matrix(1.0, 0.0, 0.0, 1.0, 36.05, 179.5)">
    <path d="M-7.65 -159.55 L-6.5 -160.85 Q-5.75 -161.5 -5.75 -162.25 L-6.4 -164.95 -4.5 -164.95 Q-3.55 -164.95 -2.75 -164.3 L-1.35 -162.9 Q-4.35 -158.45 -7.65 -159.55 M6.55 -176.45 Q5.3 -177.05 2.45 -177.65 1.55 -177.85 -0.6 -178.75 -2.25 -179.5 -3.65 -179.5 -6.85 -179.5 -9.05 -178.2 -11.65 -176.7 -11.65 -174.05 L-13.9 -175.8 Q-15.15 -176.6 -16.5 -176.6 L-21.7 -176.6 Q-24.9 -176.6 -27.2 -174.95 -29.75 -173.1 -29.75 -170.25 -29.75 -168.3 -28.25 -166.65 L-25.15 -163.7 -27.4 -163.55 -29.7 -163.75 Q-34.8 -163.75 -34.8 -160.9 -34.8 -158.95 -32.9 -157.05 L-35.1 -154.55 Q-36.05 -153.2 -36.05 -151.55 -36.05 -149.0 -34.85 -147.2 -33.55 -145.2 -31.35 -145.2 -30.9 -145.2 -30.2 -145.55 L-29.1 -145.85 Q-28.05 -145.85 -27.25 -143.95 L-26.6 -144.6 Q-26.6 -145.35 -27.65 -147.15 -26.05 -146.1 -24.75 -144.05 L-22.8 -140.35 Q-20.5 -135.95 -17.2 -135.95 -15.95 -135.95 -15.15 -138.5 -14.35 -141.0 -13.1 -141.0 -11.55 -141.0 -10.4 -139.25 L-8.25 -136.2 -9.3 -139.65 -8.1 -142.1 Q-7.35 -143.45 -7.2 -144.6 -4.9 -144.05 -4.9 -142.5 -4.9 -141.85 -5.75 -141.1 -6.6 -140.35 -6.6 -139.75 -6.6 -138.75 -5.95 -137.8 L-4.7 -135.95 Q-6.8 -135.3 -6.8 -134.4 -6.8 -133.25 -5.75 -131.6 -4.7 -130.0 -4.7 -128.8 -4.7 -127.85 -5.1 -126.35 L-5.55 -123.9 Q-5.55 -122.4 -4.8 -120.1 -4.05 -117.8 -4.05 -116.3 L-4.7 -111.35 -3.6 -115.65 -2.3 -123.55 Q-1.85 -125.45 -0.4 -125.45 0.45 -125.45 1.0 -124.75 1.5 -124.1 1.5 -123.2 L1.5 -117.9 Q3.7 -120.1 4.45 -121.25 5.6 -123.05 5.6 -125.3 L5.6 -129.2 Q5.6 -131.95 7.5 -134.8 L10.85 -140.15 Q7.95 -142.05 7.95 -144.5 7.95 -145.65 9.65 -145.65 11.1 -145.65 12.2 -144.45 L14.0 -141.85 Q14.0 -143.5 13.3 -145.8 12.5 -148.3 12.35 -149.7 L12.95 -153.45 Q18.2 -152.45 18.2 -149.35 18.2 -148.6 17.8 -147.9 L16.95 -146.55 18.75 -146.25 Q20.55 -146.25 21.25 -148.65 L21.8 -150.85 Q22.15 -152.25 22.6 -153.05 23.1 -153.9 24.75 -154.25 26.5 -154.65 27.05 -155.35 28.95 -157.8 28.95 -161.75 28.95 -164.3 27.0 -166.05 25.15 -167.75 22.5 -167.75 L17.15 -167.1 17.35 -168.65 Q17.35 -171.25 15.95 -173.15 14.45 -175.25 12.1 -175.25 L10.6 -174.3 8.95 -173.65 Q8.55 -175.45 6.55 -176.45" fill="#312110" fill-rule="evenodd" stroke="none"/>
    <path d="M12.65 -163.95 Q10.85 -163.95 8.7 -166.5 6.55 -169.0 4.7 -169.0 4.9 -169.75 4.35 -172.35 1.2 -178.25 -3.45 -178.25 -5.8 -178.25 -7.9 -176.75 L-11.65 -173.4 -16.15 -175.0 Q-18.45 -175.7 -20.7 -175.7 -23.45 -175.7 -25.4 -174.6 -27.65 -173.35 -27.65 -171.1 -27.65 -169.65 -25.55 -168.0 -23.45 -166.35 -23.45 -164.85 L-23.45 -161.25 -25.3 -161.25 -27.35 -161.7 -29.45 -162.1 Q-30.85 -162.1 -31.9 -161.5 -33.1 -160.85 -33.1 -159.65 -33.1 -158.8 -32.5 -157.85 L-31.45 -156.2 Q-34.15 -154.6 -34.15 -150.95 -34.15 -150.05 -33.35 -149.45 -32.65 -148.85 -31.65 -148.85 -30.5 -148.85 -29.4 -149.65 L-27.45 -151.15 Q-25.35 -147.4 -23.85 -145.85 -21.55 -143.55 -18.5 -143.55 -16.0 -143.55 -14.85 -147.35 L-12.2 -146.25 Q-10.8 -145.65 -9.45 -145.65 -6.65 -145.65 -4.75 -146.7 -2.45 -147.95 -2.45 -150.2 -2.45 -153.05 -5.15 -155.15 L-10.4 -158.9 Q-9.15 -160.9 -9.15 -162.1 -9.15 -163.2 -9.8 -165.25 -7.25 -165.25 -6.4 -167.75 L-1.35 -165.55 Q1.15 -164.1 1.15 -161.65 1.15 -159.85 -0.35 -158.5 L-3.7 -156.4 -1.7 -152.5 Q-0.55 -150.4 -0.55 -148.4 -0.55 -146.65 1.3 -145.65 2.85 -144.8 5.05 -144.8 6.95 -144.8 7.8 -147.15 L9.35 -151.55 10.1 -153.75 Q10.4 -154.95 11.0 -155.75 11.45 -156.35 12.8 -156.7 14.1 -157.05 14.45 -157.75 L13.75 -159.95 Q16.1 -160.65 16.1 -162.7 16.1 -164.2 15.5 -164.2 L12.65 -163.95" fill="#4a3929" fill-rule="evenodd" stroke="none"/>
    <path d="M8.75 -170.95 Q8.75 -169.55 10.2 -168.8 11.45 -168.15 13.2 -168.15 14.35 -168.15 15.15 -169.0 15.9 -169.85 15.9 -171.0 15.9 -172.0 14.8 -172.55 13.8 -173.1 12.35 -173.1 L9.85 -172.55 Q8.75 -171.95 8.75 -170.95" fill="#4a3929" fill-rule="evenodd" stroke="none"/>
    <path d="M20.15 -155.15 Q21.0 -155.15 21.9 -155.95 23.05 -157.05 23.5 -157.25 L26.65 -158.05 Q28.35 -158.55 28.35 -159.85 28.35 -162.1 26.9 -163.75 25.4 -165.4 23.2 -165.6 L24.35 -165.2 22.3 -165.85 20.25 -166.2 Q19.15 -166.2 18.8 -164.85 L18.45 -162.25 Q18.3 -161.4 17.4 -160.0 16.55 -158.75 16.55 -157.75 16.55 -156.5 17.7 -155.8 18.7 -155.15 20.15 -155.15" fill="#4a3929" fill-rule="evenodd" stroke="none"/>
    <path d="M2.2 -143.1 Q0.8 -144.65 -0.3 -143.75 -1.45 -142.75 -0.75 -141.0 -0.15 -139.4 1.35 -138.5 3.5 -138.7 3.5 -139.95 3.5 -141.6 2.2 -143.1" fill="#4a3929" fill-rule="evenodd" stroke="none"/>
    <path d="M2.8 -128.05 L0.1 -131.3 Q-2.4 -135.05 -2.4 -133.6 L-2.05 -132.45 -1.75 -131.3 Q-1.75 -129.35 -2.9 -126.3 -4.1 -123.3 -4.1 -121.3 L-4.1 -118.7 Q-3.4 -119.3 -1.35 -122.7 0.05 -125.0 2.0 -125.0 3.1 -125.0 3.3 -123.55 L3.3 -120.8 Q4.1 -123.5 4.1 -124.3 4.1 -126.25 2.8 -128.05" fill="#4a3929" fill-rule="evenodd" stroke="none"/>
    <path d="M-21.35 -167.95 Q-23.45 -165.45 -23.45 -161.85 L-23.2 -160.0 -22.8 -158.1 -23.65 -157.65 Q-24.85 -157.65 -26.6 -158.85 -28.3 -160.0 -29.55 -160.0 -32.5 -160.0 -32.5 -158.1 -32.5 -157.25 -31.75 -156.65 L-30.15 -155.75 -32.55 -154.4 Q-33.95 -153.7 -33.95 -152.6 -33.95 -151.3 -32.7 -150.45 -31.6 -149.7 -30.05 -149.7 -29.05 -149.7 -28.0 -150.85 -26.8 -152.15 -25.95 -152.4 -22.85 -145.2 -18.0 -145.2 -16.85 -145.2 -15.85 -147.15 -14.85 -149.05 -13.7 -149.05 -12.5 -149.05 -10.9 -147.9 -9.25 -146.75 -8.1 -146.75 -6.75 -146.75 -5.85 -147.85 -4.95 -148.85 -4.95 -150.3 -4.95 -152.5 -7.1 -154.45 -10.3 -157.3 -10.85 -158.1 -11.45 -159.05 -12.0 -162.0 -12.45 -164.35 -13.85 -165.25 L-12.5 -167.2 Q-11.65 -168.2 -11.65 -169.2 -11.65 -173.8 -19.75 -173.8 L-23.7 -173.45 Q-25.75 -172.9 -25.75 -171.2 -25.75 -169.9 -24.2 -169.2 L-21.35 -167.95" fill="#635239" fill-rule="evenodd" stroke="none"/>
    <path d="M2.05 -173.5 L-0.3 -174.9 Q-0.7 -175.25 -0.8 -176.15 -0.95 -177.05 -1.35 -177.35 -1.9 -177.85 -2.9 -177.7 L-4.7 -177.4 Q-6.6 -177.4 -8.0 -176.5 -9.55 -175.5 -9.55 -173.85 -9.55 -172.95 -8.05 -172.05 -6.6 -171.15 -6.6 -170.25 L-7.0 -169.65 -7.45 -169.0 Q-7.45 -168.1 -6.2 -167.95 L-3.85 -167.75 Q-3.05 -167.6 -1.8 -166.55 -0.65 -165.65 0.35 -165.65 3.3 -165.65 3.3 -171.55 3.3 -172.7 2.05 -173.5" fill="#635239" fill-rule="evenodd" stroke="none"/>
    <path d="M10.45 -163.75 L9.5 -164.35 8.7 -165.05 Q7.75 -165.7 6.85 -165.4 5.6 -165.0 5.55 -162.95 5.5 -160.35 4.95 -159.55 4.55 -158.9 3.35 -158.45 2.05 -158.0 1.6 -157.45 0.15 -155.65 -0.05 -153.2 L-0.05 -148.3 Q-0.05 -147.05 1.05 -146.3 2.1 -145.65 3.5 -145.65 6.7 -145.65 8.1 -151.15 9.05 -154.55 12.55 -158.05 13.05 -158.55 13.45 -160.1 13.85 -161.4 14.65 -161.85 13.85 -162.5 12.6 -162.9 11.05 -163.4 10.45 -163.75" fill="#635239" fill-rule="evenodd" stroke="none"/>
    <path d="M9.8 -170.75 Q9.8 -169.45 12.0 -169.45 14.85 -169.45 14.85 -170.8 14.85 -172.9 13.15 -173.65 12.0 -174.15 10.9 -173.1 9.8 -172.1 9.8 -170.75" fill="#635239" fill-rule="evenodd" stroke="none"/>
    <path d="M21.85 -161.2 Q22.45 -160.35 22.45 -159.75 L21.95 -158.6 Q21.4 -157.95 21.4 -157.45 L21.8 -156.2 26.0 -158.25 Q28.1 -159.5 28.1 -161.55 28.1 -163.1 26.55 -164.0 25.2 -164.75 23.3 -164.75 22.45 -164.75 21.8 -164.1 21.2 -163.45 21.2 -162.6 21.2 -162.0 21.85 -161.2" fill="#635239" fill-rule="evenodd" stroke="none"/>
    <path d="M-20.2 -168.6 Q-18.35 -168.6 -16.9 -169.95 -15.3 -171.35 -16.1 -172.8 L-21.1 -172.8 Q-23.55 -172.8 -25.35 -170.7 L-22.8 -169.4 Q-21.45 -168.6 -20.2 -168.6" fill="#846b4a" fill-rule="evenodd" stroke="none"/>
    <path d="M-21.85 -161.5 L-21.75 -158.15 -18.4 -158.15 -18.2 -156.8 Q-19.15 -156.7 -20.45 -155.6 -21.7 -154.5 -22.7 -154.5 -23.3 -154.5 -24.1 -155.25 -24.95 -155.95 -25.55 -155.95 -31.0 -155.95 -31.0 -152.8 -31.0 -151.75 -29.35 -151.75 -28.55 -151.75 -27.45 -152.4 -26.3 -153.05 -25.55 -153.05 -23.9 -153.05 -21.9 -149.6 L-20.45 -147.55 Q-19.6 -146.8 -18.6 -147.35 L-18.6 -150.35 Q-18.6 -152.2 -17.25 -153.55 -15.9 -154.9 -14.0 -154.9 -12.6 -154.9 -11.95 -153.2 L-11.05 -149.85 -10.0 -149.85 -10.0 -152.95 Q-10.0 -156.1 -13.55 -158.05 L-15.25 -158.55 Q-16.25 -158.75 -16.25 -159.45 -16.25 -160.45 -14.9 -161.6 -13.55 -162.8 -13.55 -163.75 -13.55 -164.25 -14.25 -165.2 L-15.25 -166.5 -17.3 -166.65 Q-19.25 -166.65 -20.55 -165.05 -21.85 -163.55 -21.85 -161.5" fill="#846b4a" fill-rule="evenodd" stroke="none"/>
    <path d="M2.85 -171.0 Q2.85 -172.1 0.4 -172.45 -2.05 -172.75 -2.05 -173.85 L-1.6 -175.1 Q-1.15 -175.85 -1.15 -176.35 -1.15 -177.4 -2.3 -177.75 -3.35 -178.05 -4.8 -177.75 -8.5 -176.9 -8.5 -174.7 -8.5 -173.7 -6.85 -173.2 -4.95 -172.65 -4.5 -171.95 L-3.5 -169.1 Q-2.95 -167.55 -1.75 -167.55 0.1 -167.55 1.4 -168.45 2.85 -169.4 2.85 -171.0" fill="#846b4a" fill-rule="evenodd" stroke="none"/>
    <path d="M6.85 -161.0 Q6.85 -160.75 7.2 -160.45 L7.5 -159.85 7.0 -157.9 Q6.45 -156.75 6.45 -155.95 3.7 -155.95 1.8 -154.95 -0.5 -153.75 -0.5 -151.6 L-0.5 -150.3 Q2.95 -151.05 4.55 -151.95 6.8 -153.15 7.95 -155.55 8.3 -156.2 9.9 -156.9 11.3 -157.5 11.3 -158.4 11.3 -158.95 10.6 -159.3 L9.4 -159.75 10.2 -161.65 10.0 -162.95 7.9 -162.6 Q6.85 -162.05 6.85 -161.0" fill="#846b4a" fill-rule="evenodd" stroke="none"/>
    <path d="M24.15 -160.3 Q25.3 -162.5 26.45 -162.25 24.8 -163.75 23.3 -163.75 22.1 -163.75 21.85 -162.15 L21.8 -159.15 21.8 -157.85 Q22.85 -157.95 24.15 -160.3" fill="#846b4a" fill-rule="evenodd" stroke="none"/>
    <path d="M-20.9 -170.9 Q-18.6 -170.9 -18.6 -172.3 -18.6 -172.55 -19.2 -172.7 L-19.9 -173.0 Q-22.35 -173.0 -22.85 -171.3 L-20.9 -170.9" fill="#ad946b" fill-rule="evenodd" stroke="none"/>
    <path d="M-16.5 -164.8 Q-16.9 -164.8 -17.55 -165.1 L-18.6 -165.4 Q-19.9 -165.4 -20.35 -163.7 L-20.9 -160.5 Q-18.7 -162.7 -15.25 -162.7 L-15.05 -164.0 Q-15.05 -164.8 -16.5 -164.8" fill="#ad946b" fill-rule="evenodd" stroke="none"/>
    <path d="M-13.15 -156.6 Q-14.75 -158.05 -16.95 -158.05 -18.95 -158.05 -20.4 -156.8 -21.95 -155.45 -21.95 -153.55 -21.95 -152.85 -21.55 -152.1 L-20.9 -150.7 Q-19.25 -153.7 -17.75 -155.05 -15.75 -156.85 -13.15 -156.6" fill="#ad946b" fill-rule="evenodd" stroke="none"/>
    <path d="M-6.2 -176.0 Q-5.45 -174.7 -4.9 -174.7 L-2.85 -174.7 Q-2.9 -175.75 -4.15 -176.2 -5.35 -176.7 -6.2 -176.0" fill="#ad946b" fill-rule="evenodd" stroke="none"/>
    <path d="M23.9 -160.4 L24.2 -161.15 24.35 -161.95 Q24.35 -163.05 22.65 -163.05 L21.8 -162.9 21.8 -160.6 23.9 -160.4" fill="#ad946b" fill-rule="evenodd" stroke="none"/>
    <path d="M-28.5 -138.9 L-27.15 -138.5 Q-25.8 -138.5 -25.8 -140.05 -25.8 -140.9 -27.05 -140.3 -28.3 -139.75 -28.5 -138.9" fill="#635239" fill-rule="evenodd" stroke="none"/>
    <path d="M-14.6 -134.7 L-15.9 -133.6 -14.6 -133.0 -13.0 -133.5 -13.75 -134.1 -14.6 -134.7" fill="#635239" fill-rule="evenodd" stroke="none"/>
    <path d="M-21.15 -133.65 L-21.3 -133.0 -21.1 -132.7 -20.8 -132.35 Q-20.35 -132.35 -19.25 -133.0 -19.45 -133.4 -20.05 -133.45 L-21.15 -133.65" fill="#635239" fill-rule="evenodd" stroke="none"/>
    <path d="M-15.4 -130.5 Q-15.25 -129.85 -14.3 -129.85 -13.35 -129.85 -13.15 -130.5 -14.3 -131.4 -15.4 -130.5" fill="#635239" fill-rule="evenodd" stroke="none"/>
    <path d="M-10.4 -133.85 L-10.55 -131.75 -9.55 -131.75 -9.35 -133.0 -10.4 -133.85" fill="#635239" fill-rule="evenodd" stroke="none"/>
    <path d="M-12.3 -125.2 L-11.5 -124.8 -10.2 -124.8 -9.8 -125.6 Q-10.6 -126.2 -11.2 -126.2 -11.8 -126.2 -12.3 -125.2" fill="#635239" fill-rule="evenodd" stroke="none"/>
    <path d="M-18.85 -126.05 L-19.45 -125.5 -18.05 -124.6 -16.75 -124.6 Q-16.05 -124.65 -15.9 -125.25 L-16.1 -126.05 -18.85 -126.05" fill="#635239" fill-rule="evenodd" stroke="none"/>
    <path d="M-14.6 -121.2 L-14.6 -118.7 Q-13.75 -119.8 -14.6 -121.2" fill="#635239" fill-rule="evenodd" stroke="none"/>
    <path d="M-9.15 -121.2 Q-9.4 -120.4 -10.2 -119.3 L-9.65 -119.05 -9.15 -118.9 Q-7.65 -118.9 -7.65 -120.05 L-8.35 -120.65 -9.15 -121.2" fill="#635239" fill-rule="evenodd" stroke="none"/>
    <path d="M15.9 -141.5 Q15.9 -141.15 16.2 -140.85 L16.75 -140.35 Q18.05 -141.75 17.4 -142.5 L16.5 -142.4 Q15.9 -142.0 15.9 -141.5" fill="#635239" fill-rule="evenodd" stroke="none"/>
    <path d="M14.65 -150.5 Q14.8 -149.8 15.7 -148.8 16.3 -150.1 16.35 -150.85 L15.5 -150.7 14.65 -150.5" fill="#635239" fill-rule="evenodd" stroke="none"/>
    <path d="M12.75 -134.9 Q13.7 -134.9 14.0 -136.6 L12.75 -137.2 11.75 -135.3 12.75 -134.9" fill="#635239" fill-rule="evenodd" stroke="none"/>
    <path d="M7.3 -129.85 Q8.45 -128.6 9.5 -128.6 10.2 -128.6 10.2 -129.65 10.2 -130.7 8.65 -130.7 L7.95 -130.35 7.3 -129.85" fill="#635239" fill-rule="evenodd" stroke="none"/>
    <path d="M8.1 -122.5 L10.2 -122.5 10.2 -124.2 Q9.4 -124.25 8.75 -123.75 8.1 -123.25 8.1 -122.5" fill="#635239" fill-rule="evenodd" stroke="none"/>
    <path d="M12.75 -127.95 L12.75 -126.9 14.0 -126.7 14.65 -127.95 12.75 -127.95" fill="#635239" fill-rule="evenodd" stroke="none"/>
    <path d="M0.1 -115.55 Q0.1 -113.65 1.3 -113.65 L1.75 -113.8 2.2 -114.05 2.2 -116.15 0.35 -115.95 0.1 -115.55" fill="#635239" fill-rule="evenodd" stroke="none"/>
    <path d="M-7.25 -104.15 Q-7.25 -103.35 -6.65 -102.8 -6.1 -102.25 -5.3 -102.25 -4.3 -102.25 -4.3 -103.3 -4.3 -104.2 -5.75 -104.65 -7.25 -105.05 -7.25 -104.15" fill="#635239" fill-rule="evenodd" stroke="none"/>
    <path d="M-7.05 -97.65 Q-6.65 -96.6 -6.15 -96.6 -5.9 -96.6 -4.8 -97.45 L-5.85 -97.75 -7.05 -97.65" fill="#635239" fill-rule="evenodd" stroke="none"/>
    <path d="M0.75 -108.35 Q1.55 -107.3 2.1 -107.3 2.55 -107.3 2.9 -107.8 L3.5 -108.75 Q2.85 -109.65 2.0 -109.65 L1.35 -109.1 0.75 -108.35" fill="#635239" fill-rule="evenodd" stroke="none"/>
    <path d="M-16.3 -111.55 L-14.2 -111.55 Q-13.9 -112.1 -15.1 -112.1 -16.3 -112.15 -16.3 -111.55 Z" fill="none" stroke="#000000" stroke-linecap="round" stroke-linejoin="round" stroke-width="1.0"/>
    <path d="M-12.7 -105.65 Q-11.6 -105.5 -10.85 -105.65 L-11.25 -107.1 -12.0 -106.4 -12.7 -105.65" fill="#635239" fill-rule="evenodd" stroke="none"/>
  </g>
</svg>
