<?xml version="1.0" encoding="UTF-8" standalone="no"?>
<svg xmlns:xlink="http://www.w3.org/1999/xlink" height="74.6px" width="62.95px" xmlns="http://www.w3.org/2000/svg">
  <g transform="matrix(1.0, 0.0, 0.0, 1.0, 35.0, 179.35)">
    <path d="M1.7 -167.8 L2.85 -165.35 Q2.1 -164.8 0.7 -164.7 L-1.55 -164.2 -3.7 -162.6 Q-4.85 -161.7 -6.05 -161.7 -8.45 -161.7 -10.8 -163.8 -8.9 -164.0 -6.2 -166.15 -3.7 -168.2 -1.65 -168.2 L1.7 -167.8 M16.05 -167.65 Q12.2 -167.65 12.2 -169.85 L12.2 -171.6 14.85 -171.6 Q15.55 -169.9 17.7 -167.65 L16.05 -167.65 M17.5 -175.1 Q16.0 -176.9 13.75 -176.9 L12.05 -176.45 Q11.0 -176.0 10.3 -176.0 8.4 -176.0 5.45 -176.85 2.5 -177.65 0.6 -177.65 L-4.75 -177.7 Q-7.6 -177.35 -7.6 -175.25 -7.6 -174.25 -6.4 -173.2 -5.1 -172.0 -4.9 -171.15 L-7.75 -171.95 -10.65 -172.35 Q-10.65 -173.15 -10.05 -174.1 -11.3 -174.25 -12.25 -173.05 L-13.85 -170.7 Q-15.75 -172.75 -19.4 -172.75 -19.4 -174.05 -17.4 -174.85 -18.35 -175.6 -20.35 -175.6 -25.7 -175.6 -29.1 -169.9 L-26.35 -170.45 Q-25.7 -170.45 -25.55 -169.65 L-25.5 -168.1 Q-25.5 -165.75 -26.35 -164.1 -27.35 -162.15 -29.2 -162.15 -30.1 -162.15 -30.55 -163.15 L-31.0 -165.2 -30.25 -167.45 Q-33.3 -167.2 -33.3 -162.15 -33.3 -161.15 -32.35 -160.35 L-30.65 -158.9 Q-35.0 -156.95 -35.0 -153.75 -35.0 -151.8 -34.05 -150.4 -33.05 -148.8 -31.3 -148.8 -29.65 -148.8 -27.8 -151.1 -25.95 -153.35 -24.35 -153.35 -22.65 -153.35 -21.55 -151.9 -20.55 -150.55 -20.55 -148.7 -20.55 -147.1 -22.85 -147.1 -23.55 -147.1 -24.25 -147.45 L-25.7 -148.05 Q-25.7 -145.05 -24.45 -142.9 -23.05 -140.4 -20.55 -140.4 -18.85 -140.4 -17.7 -142.05 L-15.8 -145.35 Q-14.0 -142.7 -12.05 -142.7 -7.9 -142.7 -5.5 -148.05 -3.85 -146.4 -3.35 -144.25 -3.0 -142.85 -3.0 -139.75 -3.0 -138.25 -4.35 -136.05 -5.7 -133.85 -5.7 -132.3 -5.7 -131.0 -5.1 -129.8 L-3.6 -127.45 Q-2.6 -128.6 -2.35 -130.3 L-1.85 -133.55 -0.4 -138.9 Q0.4 -141.75 0.4 -144.3 L-0.05 -146.2 -0.55 -148.05 -0.15 -149.75 Q0.25 -148.5 2.3 -146.55 4.05 -144.95 4.05 -143.3 4.05 -142.55 3.65 -141.35 L3.25 -139.35 Q3.25 -138.3 3.8 -136.65 4.3 -135.05 4.3 -133.95 L4.1 -130.15 Q4.05 -128.15 5.1 -126.7 L5.1 -132.55 Q5.1 -135.15 7.25 -138.9 9.35 -142.6 9.35 -145.2 9.35 -146.0 8.3 -146.6 7.0 -147.3 6.7 -147.85 L8.55 -148.7 10.4 -149.2 Q12.05 -149.2 13.3 -147.15 14.95 -144.45 15.85 -143.85 L13.75 -148.15 Q12.8 -150.35 12.8 -152.6 12.8 -157.75 15.75 -157.75 17.6 -157.75 18.9 -156.3 20.2 -154.9 20.2 -153.0 20.2 -151.6 19.2 -150.15 L23.0 -154.55 Q24.75 -156.95 24.75 -159.65 24.75 -160.45 24.2 -161.4 23.55 -162.45 23.4 -163.1 27.95 -164.2 27.95 -167.8 27.95 -170.3 24.85 -171.1 L19.2 -170.85 Q18.8 -173.45 17.5 -175.1" fill="#312110" fill-rule="evenodd" stroke="none"/>
    <path d="M-23.55 -171.0 Q-24.15 -170.15 -24.15 -168.95 -24.15 -168.15 -23.75 -166.9 -23.4 -165.65 -23.4 -164.85 -23.4 -163.95 -24.4 -163.2 L-26.05 -161.7 Q-26.7 -160.65 -29.95 -157.9 -32.35 -155.9 -32.35 -153.65 -32.35 -152.75 -31.55 -152.2 -30.85 -151.65 -29.85 -151.65 -28.15 -151.65 -25.85 -153.65 -23.6 -155.65 -21.85 -155.65 -19.85 -155.65 -18.65 -153.7 -17.55 -152.0 -17.55 -149.65 -17.55 -147.1 -18.6 -145.4 -19.75 -143.4 -21.95 -143.1 L-20.9 -142.5 Q-20.35 -142.15 -19.8 -142.15 -18.5 -142.15 -17.6 -143.3 -17.1 -144.0 -16.35 -145.85 L-15.1 -148.4 Q-14.25 -149.55 -12.95 -149.55 -10.35 -149.55 -10.35 -144.6 L-8.7 -144.6 Q-7.85 -144.6 -7.3 -145.5 L-5.35 -149.5 Q-4.8 -150.65 -4.8 -151.85 -4.8 -154.25 -6.3 -156.1 -7.35 -157.4 -9.95 -159.1 L-12.9 -160.45 Q-14.5 -161.25 -14.5 -162.55 -14.5 -164.7 -11.3 -165.85 L-8.6 -166.8 Q-7.1 -167.5 -6.35 -168.5 -7.25 -169.65 -9.0 -169.65 -10.15 -169.65 -11.65 -168.95 -13.1 -168.2 -14.3 -168.2 -17.05 -171.95 -21.85 -171.95 -22.9 -171.95 -23.55 -171.0" fill="#4a3929" fill-rule="evenodd" stroke="none"/>
    <path d="M2.25 -176.35 L-0.45 -176.7 Q-2.0 -176.7 -3.05 -176.15 -4.35 -175.45 -4.35 -174.2 -4.35 -172.6 -2.75 -171.7 L0.6 -170.45 Q2.25 -169.95 4.35 -167.3 L6.05 -165.8 Q7.05 -165.0 7.05 -164.05 7.05 -162.45 4.95 -162.05 L1.0 -161.35 Q-3.8 -159.9 -3.8 -156.5 -3.8 -155.45 -3.25 -154.35 L-2.25 -152.25 -0.75 -153.35 Q0.1 -153.95 0.9 -153.95 2.25 -153.95 3.75 -152.05 5.25 -150.15 6.55 -150.15 11.05 -150.15 11.05 -152.4 11.05 -154.0 10.25 -156.4 11.05 -156.75 11.8 -158.55 12.45 -160.05 13.45 -160.05 17.55 -160.05 20.3 -157.55 L21.1 -157.75 Q19.95 -160.4 19.95 -162.05 19.95 -163.65 22.7 -164.95 25.45 -166.3 25.45 -167.85 25.45 -169.7 22.05 -169.7 19.75 -169.7 19.75 -168.4 L20.3 -165.4 16.9 -164.85 13.45 -164.25 Q12.55 -164.25 11.75 -164.95 L10.25 -166.3 Q7.7 -168.85 6.65 -170.6 5.25 -172.9 4.95 -175.8 L2.25 -176.35" fill="#4a3929" fill-rule="evenodd" stroke="none"/>
    <path d="M13.15 -175.4 Q12.05 -175.4 11.2 -174.85 10.3 -174.25 10.3 -173.35 L10.9 -171.6 Q11.85 -172.2 13.75 -172.45 15.6 -172.7 16.55 -173.35 15.65 -175.4 13.15 -175.4" fill="#4a3929" fill-rule="evenodd" stroke="none"/>
    <path d="M6.25 -161.5 L0.7 -159.8 Q-2.05 -158.45 -2.05 -155.9 L-2.05 -154.7 -0.35 -156.1 Q0.55 -156.8 1.55 -156.8 2.9 -156.8 4.5 -154.9 6.1 -153.0 7.45 -153.0 L8.55 -153.0 8.4 -155.05 Q8.3 -156.15 8.75 -157.0 L10.15 -158.3 Q11.05 -158.95 11.05 -159.65 11.05 -161.05 9.4 -161.5 7.95 -161.95 6.25 -161.5" fill="#635239" fill-rule="evenodd" stroke="none"/>
    <path d="M5.3 -169.9 Q4.45 -171.5 3.65 -174.3 L4.35 -173.9 Q2.65 -175.25 1.15 -175.25 L-2.25 -175.25 -2.45 -173.7 Q-2.45 -172.85 -1.25 -172.6 L1.0 -172.2 3.1 -170.6 Q4.25 -169.65 5.3 -169.9" fill="#635239" fill-rule="evenodd" stroke="none"/>
    <path d="M23.4 -168.75 Q20.75 -168.75 20.75 -166.9 20.75 -166.25 21.25 -165.8 21.7 -165.35 22.35 -165.35 23.15 -165.35 23.75 -165.95 24.35 -166.55 24.35 -167.35 L23.95 -168.1 23.4 -168.75" fill="#635239" fill-rule="evenodd" stroke="none"/>
    <path d="M-24.35 -162.35 Q-29.5 -159.85 -29.5 -156.45 L-29.5 -152.4 -26.95 -155.2 Q-25.6 -156.8 -23.95 -156.8 -21.4 -156.8 -18.15 -153.95 -14.9 -151.1 -12.4 -151.1 -11.0 -151.1 -9.95 -151.85 -8.8 -152.7 -8.8 -153.95 -8.8 -155.4 -9.85 -156.55 L-12.1 -158.4 Q-15.4 -160.65 -15.4 -162.8 -15.4 -164.85 -12.35 -165.95 -8.55 -167.3 -7.65 -168.55 L-10.0 -168.65 -12.55 -168.05 Q-13.95 -168.05 -15.7 -169.75 -17.5 -171.4 -18.9 -171.4 -20.05 -171.4 -20.9 -170.85 -21.85 -170.25 -21.85 -169.25 -21.85 -168.35 -21.2 -167.1 -20.55 -165.85 -20.55 -165.0 -20.55 -163.9 -21.85 -163.3 L-24.35 -162.35" fill="#635239" fill-rule="evenodd" stroke="none"/>
    <path d="M-14.5 -166.65 L-16.55 -169.15 Q-17.8 -170.25 -19.35 -170.25 -20.2 -170.25 -20.85 -169.65 -21.5 -169.0 -21.5 -168.15 -21.5 -166.65 -20.6 -165.55 -19.7 -164.4 -18.3 -164.4 -16.1 -164.4 -14.5 -166.65" fill="#846b4a" fill-rule="evenodd" stroke="none"/>
    <path d="M-18.9 -158.35 Q-18.9 -160.75 -20.0 -160.95 -21.35 -161.2 -22.55 -160.15 L-24.4 -157.75 -23.45 -157.0 -20.2 -157.0 Q-18.9 -157.0 -18.9 -158.35" fill="#846b4a" fill-rule="evenodd" stroke="none"/>
    <path d="M6.6 -161.15 Q2.55 -161.15 -1.1 -157.95 -0.3 -157.9 0.8 -158.45 L2.7 -159.1 7.0 -159.15 Q9.3 -159.4 9.9 -161.1 L8.25 -161.05 6.6 -161.15" fill="#846b4a" fill-rule="evenodd" stroke="none"/>
    <path d="M0.55 -175.4 Q-1.55 -175.4 -1.9 -173.15 L0.9 -173.35 4.5 -172.95 Q4.3 -175.4 0.55 -175.4" fill="#846b4a" fill-rule="evenodd" stroke="none"/>
    <path d="M22.85 -169.35 L21.7 -169.35 21.5 -168.35 22.45 -167.45 24.15 -167.45 Q24.15 -168.2 22.85 -169.35" fill="#846b4a" fill-rule="evenodd" stroke="none"/>
    <path d="M-33.15 -153.8 Q-33.15 -152.25 -30.85 -152.25 -29.55 -152.25 -29.55 -153.8 -29.55 -154.9 -31.35 -154.9 -33.15 -154.9 -33.15 -153.8" fill="#846b4a" fill-rule="evenodd" stroke="none"/>
    <path d="M-21.3 -168.35 Q-21.3 -167.95 -20.7 -167.45 -20.15 -166.95 -20.15 -166.5 L-20.35 -165.9 -20.75 -165.35 -18.3 -166.9 Q-17.1 -167.9 -17.35 -169.15 L-20.9 -169.15 -21.3 -168.35" fill="#ad946b" fill-rule="evenodd" stroke="none"/>
    <path d="M-21.75 -160.1 Q-22.35 -159.25 -22.4 -158.5 L-20.8 -158.9 Q-20.0 -159.25 -20.0 -159.95 -20.0 -160.35 -20.3 -160.75 L-20.8 -161.5 -21.75 -160.1" fill="#ad946b" fill-rule="evenodd" stroke="none"/>
    <path d="M6.65 -161.15 L5.45 -161.3 Q3.05 -161.3 -0.75 -159.65 L-0.65 -159.2 Q-0.65 -158.9 -0.45 -158.9 L3.75 -159.05 Q5.9 -159.4 6.65 -161.15" fill="#ad946b" fill-rule="evenodd" stroke="none"/>
    <path d="M3.05 -174.85 L1.05 -175.25 Q0.45 -175.25 -0.95 -174.65 -0.1 -173.35 1.35 -173.35 L3.05 -173.35 3.05 -174.85" fill="#ad946b" fill-rule="evenodd" stroke="none"/>
    <path d="M20.75 -175.6 Q21.55 -174.5 22.65 -175.25 L22.45 -176.0 Q21.6 -176.05 20.75 -175.6" fill="#4a3929" fill-rule="evenodd" stroke="none"/>
    <path d="M-11.8 -178.65 Q-11.05 -177.9 -10.3 -177.9 -9.8 -177.9 -8.6 -178.65 -9.05 -179.4 -10.05 -179.35 -11.05 -179.3 -11.8 -178.65" fill="#4a3929" fill-rule="evenodd" stroke="none"/>
    <path d="M-31.45 -146.1 L-31.65 -145.25 Q-31.65 -143.85 -29.8 -143.85 -28.8 -143.85 -28.8 -145.15 -28.8 -145.75 -29.75 -145.9 L-31.45 -146.1" fill="#4a3929" fill-rule="evenodd" stroke="none"/>
    <path d="M-31.05 -138.45 Q-31.05 -137.35 -30.4 -137.35 -29.05 -137.35 -28.4 -138.45 -28.85 -138.85 -29.65 -138.7 L-31.05 -138.45" fill="#4a3929" fill-rule="evenodd" stroke="none"/>
    <path d="M-23.8 -135.8 L-24.6 -135.05 -23.85 -134.45 Q-23.4 -134.1 -22.95 -134.1 -21.75 -134.1 -21.75 -135.15 -21.75 -135.6 -22.5 -135.7 L-23.8 -135.8" fill="#4a3929" fill-rule="evenodd" stroke="none"/>
    <path d="M-18.1 -137.7 Q-16.95 -137.45 -15.85 -137.7 -16.1 -138.3 -17.0 -138.3 -17.85 -138.3 -18.1 -137.7" fill="#4a3929" fill-rule="evenodd" stroke="none"/>
    <path d="M-8.4 -139.8 Q-10.95 -139.0 -11.95 -138.1 -10.35 -136.7 -9.55 -136.35 L-8.8 -136.95 -9.75 -137.9 -8.4 -139.8" fill="#4a3929" fill-rule="evenodd" stroke="none"/>
    <path d="M-6.3 -142.3 Q-5.4 -141.85 -4.8 -142.3 L-6.3 -142.3" fill="#4a3929" fill-rule="evenodd" stroke="none"/>
    <path d="M-10.85 -130.85 L-11.2 -130.55 -11.45 -130.2 Q-11.45 -129.15 -9.75 -129.15 -9.2 -129.15 -8.85 -129.7 L-8.4 -130.85 -9.55 -131.0 -10.85 -130.85" fill="#4a3929" fill-rule="evenodd" stroke="none"/>
    <path d="M-9.55 -120.55 Q-8.25 -119.65 -7.65 -119.65 -6.5 -119.65 -6.5 -121.0 L-6.5 -122.1 Q-8.55 -122.1 -9.55 -120.55" fill="#4a3929" fill-rule="evenodd" stroke="none"/>
    <path d="M11.6 -135.45 L13.45 -135.45 13.65 -136.5 Q13.65 -138.0 12.0 -139.25 L11.4 -137.65 Q11.05 -136.8 11.05 -136.05 L11.6 -135.45" fill="#4a3929" fill-rule="evenodd" stroke="none"/>
    <path d="M17.8 -141.85 Q16.0 -141.45 16.0 -140.3 16.0 -139.6 16.95 -138.7 17.8 -137.85 17.7 -137.15 19.8 -137.15 19.8 -138.45 L19.45 -139.65 18.85 -140.75 20.0 -141.15 Q19.55 -142.25 17.8 -141.85" fill="#4a3929" fill-rule="evenodd" stroke="none"/>
    <path d="M17.2 -152.45 L16.2 -152.75 15.4 -150.9 Q16.35 -150.15 16.75 -150.15 17.9 -150.15 17.9 -151.95 17.9 -152.25 17.2 -152.45" fill="#4a3929" fill-rule="evenodd" stroke="none"/>
    <path d="M11.4 -143.05 L12.2 -142.85 13.1 -143.8 12.2 -143.85 11.4 -143.05" fill="#4a3929" fill-rule="evenodd" stroke="none"/>
    <path d="M2.25 -131.8 L1.4 -131.0 Q0.95 -130.5 0.95 -130.0 L1.1 -129.55 1.3 -129.15 Q2.85 -129.5 2.85 -130.85 L2.25 -131.8" fill="#4a3929" fill-rule="evenodd" stroke="none"/>
    <path d="M2.1 -122.0 L-1.15 -122.3 -1.15 -120.55 0.3 -120.55 Q1.15 -120.55 2.1 -122.0" fill="#4a3929" fill-rule="evenodd" stroke="none"/>
    <path d="M-9.55 -122.85 L-8.45 -122.85 Q-7.8 -122.85 -6.85 -124.0 L-8.45 -124.15 Q-9.55 -123.7 -9.55 -122.85" fill="#4a3929" fill-rule="evenodd" stroke="none"/>
    <path d="M-17.9 -127.55 Q-16.35 -126.75 -15.65 -126.7 L-15.45 -127.55 Q-15.45 -128.25 -16.5 -128.2 -17.6 -128.15 -17.9 -127.55" fill="#4a3929" fill-rule="evenodd" stroke="none"/>
    <path d="M-6.95 -113.15 L-6.4 -113.7 Q-6.1 -114.0 -6.1 -114.35 L-6.1 -115.4 -7.6 -115.9 -8.8 -115.8 Q-9.3 -115.15 -8.55 -114.25 -7.9 -113.45 -6.95 -113.15" fill="#4a3929" fill-rule="evenodd" stroke="none"/>
    <path d="M-1.9 -114.1 L-2.5 -112.95 -1.35 -112.55 Q-0.8 -113.4 -0.6 -114.45 L-1.9 -114.1" fill="#4a3929" fill-rule="evenodd" stroke="none"/>
    <path d="M-8.4 -105.15 L-7.15 -104.75 Q-6.3 -104.75 -5.55 -105.7 -6.0 -106.35 -7.05 -106.15 -8.15 -105.95 -8.4 -105.15" fill="#4a3929" fill-rule="evenodd" stroke="none"/>
    <path d="M-3.65 -107.8 L-2.7 -107.4 -2.2 -107.55 -1.75 -107.8 Q-1.9 -108.3 -2.6 -108.3 -3.35 -108.25 -3.65 -107.8" fill="#4a3929" fill-rule="evenodd" stroke="none"/>
    <path d="M-11.7 -111.65 Q-12.25 -112.75 -13.25 -112.75 -13.85 -112.75 -12.95 -112.05 -12.05 -111.35 -11.7 -111.65" fill="#4a3929" fill-rule="evenodd" stroke="none"/>
    <path d="M-14.5 -121.35 L-15.05 -119.75 Q-15.05 -118.5 -14.0 -118.5 -12.8 -118.5 -12.8 -119.55 -12.8 -120.15 -13.35 -120.6 L-14.5 -121.35" fill="#4a3929" fill-rule="evenodd" stroke="none"/>
    <path d="M9.75 -125.9 L9.75 -124.75 Q10.75 -124.85 11.2 -125.5 L11.2 -126.6 Q10.3 -126.6 9.75 -125.9" fill="#4a3929" fill-rule="evenodd" stroke="none"/>
  </g>
</svg>
