<?xml version="1.0" encoding="UTF-8" standalone="no"?>
<svg xmlns:xlink="http://www.w3.org/1999/xlink" height="25.75px" width="149.95px" xmlns="http://www.w3.org/2000/svg">
  <g transform="matrix(1.0, 0.0, 0.0, 1.0, -14.0, -16.4)">
    <path d="M163.95 39.0 L159.8 39.0 159.8 34.5 163.95 34.5 163.95 39.0 M141.85 23.75 Q141.35 23.75 141.2 24.1 141.05 24.45 141.05 25.85 L141.05 34.05 Q141.05 35.35 141.2 35.75 141.35 36.1 141.85 36.1 142.35 36.1 142.5 35.75 L142.65 34.25 142.65 25.85 142.5 24.1 Q142.35 23.75 141.85 23.75 M146.9 22.55 Q147.65 23.4 147.9 24.35 148.2 25.3 148.2 27.25 L148.2 31.65 147.95 35.25 Q147.7 36.4 146.9 37.4 146.1 38.4 144.8 38.85 L141.9 39.35 138.8 38.95 Q137.55 38.5 136.85 37.7 136.1 36.9 135.8 35.75 135.5 34.6 135.5 32.25 L135.5 27.65 Q135.5 25.1 136.05 23.65 136.6 22.25 138.05 21.4 139.45 20.55 141.65 20.55 143.55 20.55 144.85 21.1 146.2 21.65 146.9 22.55 M128.2 22.0 L128.2 16.85 133.7 16.85 133.7 39.0 128.2 39.0 128.2 37.7 126.5 38.9 124.7 39.35 Q123.4 39.35 122.45 38.65 121.5 37.95 121.25 37.1 120.95 36.2 120.95 34.2 L120.95 25.7 Q120.95 23.6 121.25 22.75 121.5 21.85 122.45 21.2 123.4 20.55 124.75 20.55 L126.65 20.9 Q127.5 21.25 128.2 22.0 M126.65 24.05 Q126.5 24.35 126.5 25.4 L126.5 34.3 Q126.5 35.4 126.65 35.75 L127.3 36.1 Q127.8 36.1 128.0 35.75 128.2 35.35 128.2 33.8 L128.2 25.4 128.0 24.1 Q127.85 23.75 127.35 23.75 126.85 23.75 126.65 24.05 M158.8 34.5 L158.8 39.0 154.65 39.0 154.65 34.5 158.8 34.5 M153.65 39.0 L149.5 39.0 149.5 34.5 153.65 34.5 153.65 39.0 M104.3 23.95 Q104.6 25.4 104.6 29.9 L104.6 39.0 99.2 39.0 99.2 37.4 97.9 38.85 Q97.1 39.35 96.0 39.35 94.55 39.35 93.35 38.5 92.15 37.7 92.15 34.95 L92.15 33.45 Q92.15 31.45 92.8 30.7 93.4 29.95 95.95 28.95 98.7 27.9 98.9 27.55 L99.05 26.05 Q99.05 24.6 98.85 24.2 98.65 23.75 98.15 23.75 97.6 23.75 97.45 24.1 97.3 24.45 97.3 26.0 L97.3 27.9 92.15 27.9 92.15 26.65 Q92.15 24.55 92.65 23.45 93.1 22.3 94.55 21.4 96.05 20.55 98.35 20.55 101.2 20.55 102.6 21.55 104.0 22.5 104.3 23.95 M117.8 21.2 Q118.7 21.85 118.95 22.9 119.25 23.9 119.25 26.3 L119.25 39.0 113.7 39.0 113.7 26.45 113.6 24.15 Q113.45 23.75 112.9 23.75 112.3 23.75 112.15 24.2 112.0 24.7 112.0 26.75 L112.0 39.0 106.5 39.0 106.5 20.85 112.1 20.85 112.0 22.55 Q112.6 21.55 113.5 21.05 114.35 20.55 115.5 20.55 116.9 20.55 117.8 21.2 M84.9 22.2 L85.3 20.85 90.45 20.85 90.45 34.85 90.3 38.5 Q90.2 39.3 89.4 40.25 88.6 41.15 87.2 41.65 L83.6 42.15 Q80.95 42.15 79.35 41.25 77.8 40.35 77.7 37.7 L83.1 37.7 Q83.1 38.9 83.95 38.9 84.6 38.9 84.8 38.55 L85.0 37.0 85.0 35.65 83.5 36.6 81.85 36.95 Q80.35 36.95 79.4 36.35 78.45 35.75 78.1 34.75 77.7 33.8 77.7 31.95 L77.7 25.4 Q77.7 22.8 78.65 21.65 79.6 20.55 81.5 20.55 L83.4 20.95 Q84.25 21.4 84.9 22.2 M83.45 24.15 L83.25 25.65 83.25 31.75 Q83.25 33.0 83.4 33.35 83.55 33.7 84.0 33.7 84.55 33.7 84.75 33.25 L84.9 31.3 84.9 25.65 84.75 24.1 Q84.6 23.75 84.1 23.75 83.65 23.75 83.45 24.15 M97.3 33.9 L97.5 35.7 Q97.7 36.1 98.25 36.1 98.75 36.1 98.9 35.8 L99.05 34.1 99.05 30.35 Q97.75 31.35 97.55 32.0 97.3 32.65 97.3 33.9 M66.15 21.25 Q67.65 20.55 69.55 20.55 71.85 20.55 73.35 21.4 74.9 22.3 75.5 23.75 76.1 25.2 76.1 27.85 L76.1 30.25 68.95 30.25 68.95 34.15 Q68.95 35.4 69.1 35.75 69.3 36.1 69.8 36.1 70.45 36.1 70.65 35.65 L70.85 33.8 70.85 31.45 76.1 31.45 76.1 32.75 75.9 35.35 74.9 37.3 Q74.1 38.3 72.9 38.8 71.7 39.35 69.9 39.35 68.15 39.35 66.8 38.8 65.5 38.3 64.75 37.45 64.0 36.55 63.7 35.5 63.4 34.45 63.4 32.4 L63.4 27.1 Q63.4 24.75 64.05 23.35 64.7 22.0 66.15 21.25 M69.8 23.75 Q69.2 23.75 69.1 24.1 68.95 24.45 68.95 25.95 L68.95 27.3 70.55 27.3 70.55 25.95 70.4 24.15 Q70.25 23.75 69.8 23.75 M49.1 20.85 L48.9 23.25 Q50.1 20.7 52.4 20.55 L52.4 26.9 50.15 27.3 Q49.45 27.75 49.25 28.45 49.1 29.2 49.1 31.85 L49.1 39.0 43.6 39.0 43.6 20.85 49.1 20.85 M59.1 20.85 L58.9 23.25 Q60.1 20.7 62.4 20.55 L62.4 26.9 60.15 27.3 Q59.45 27.75 59.25 28.45 59.1 29.2 59.1 31.85 L59.1 39.0 53.6 39.0 53.6 20.85 59.1 20.85 M41.7 39.0 L36.3 39.0 36.3 37.4 35.0 38.85 Q34.2 39.35 33.1 39.35 31.65 39.35 30.45 38.5 29.25 37.7 29.25 34.95 L29.25 33.45 Q29.25 31.45 29.9 30.7 30.5 29.95 33.05 28.95 35.8 27.9 36.0 27.55 L36.15 26.05 Q36.15 24.6 35.95 24.2 35.75 23.75 35.25 23.75 34.7 23.75 34.55 24.1 34.4 24.45 34.4 26.0 L34.4 27.9 29.25 27.9 29.25 26.65 Q29.25 24.55 29.75 23.45 30.2 22.3 31.65 21.4 33.15 20.55 35.45 20.55 38.3 20.55 39.7 21.55 41.1 22.5 41.4 23.95 41.7 25.4 41.7 29.9 L41.7 39.0 M24.9 17.4 Q26.55 18.35 27.05 19.85 27.6 21.3 27.6 24.4 L27.6 26.5 21.85 26.5 21.85 22.65 21.65 20.55 Q21.45 20.15 20.85 20.15 20.1 20.15 19.95 20.65 19.75 21.15 19.75 22.85 L19.75 33.1 19.95 35.25 Q20.1 35.7 20.8 35.7 21.45 35.7 21.65 35.25 21.85 34.75 21.85 32.9 L21.85 30.15 27.6 30.15 27.6 31.0 Q27.6 34.4 27.1 35.85 26.6 37.3 24.95 38.4 23.3 39.45 20.85 39.45 18.35 39.45 16.7 38.55 15.05 37.65 14.5 36.0 14.0 34.4 14.0 31.15 L14.0 24.65 Q14.0 22.3 14.15 21.1 14.3 19.9 15.15 18.8 15.95 17.65 17.4 17.05 18.8 16.4 20.7 16.4 23.25 16.4 24.9 17.4 M34.6 35.7 Q34.8 36.1 35.35 36.1 35.85 36.1 36.0 35.8 L36.15 34.1 36.15 30.35 Q34.85 31.35 34.65 32.0 34.4 32.65 34.4 33.9 34.4 35.3 34.6 35.7" fill="#ffffff" fill-rule="evenodd" stroke="none"/>
  </g>
</svg>
