<?xml version="1.0" encoding="UTF-8" standalone="no"?>
<svg xmlns:xlink="http://www.w3.org/1999/xlink" height="50.8px" width="175.6px" xmlns="http://www.w3.org/2000/svg">
  <g transform="matrix(1.0, 0.0, 0.0, 1.0, -11.25, -139.55)">
    <path d="M17.75 145.05 L185.85 145.1 M17.75 155.05 L185.75 155.05 M17.75 165.05 L185.75 165.05 M17.75 175.05 L185.75 175.05 M17.75 185.05 L185.75 185.05" fill="none" stroke="#ffffff" stroke-linecap="round" stroke-linejoin="round" stroke-width="2.0"/>
    <path d="M16.65 140.55 Q18.45 140.55 19.75 141.85 21.05 143.15 21.05 144.95 21.05 146.4 20.2 147.55 L19.75 148.05 Q18.45 149.35 16.65 149.35 14.85 149.35 13.55 148.05 12.25 146.75 12.25 144.95 12.25 143.15 13.55 141.85 14.85 140.55 16.65 140.55" fill="#009900" fill-rule="evenodd" stroke="none"/>
    <path d="M16.65 140.55 Q18.45 140.55 19.75 141.85 21.05 143.15 21.05 144.95 21.05 146.4 20.2 147.55 L19.75 148.05 Q18.45 149.35 16.65 149.35 14.85 149.35 13.55 148.05 12.25 146.75 12.25 144.95 12.25 143.15 13.55 141.85 14.85 140.55 16.65 140.55 Z" fill="none" stroke="#ffffff" stroke-linecap="round" stroke-linejoin="round" stroke-width="2.0"/>
    <path d="M19.75 158.05 Q18.45 159.35 16.65 159.35 14.85 159.35 13.55 158.05 12.25 156.75 12.25 154.95 12.25 153.15 13.55 151.85 14.85 150.55 16.65 150.55 18.45 150.55 19.75 151.85 21.05 153.15 21.05 154.95 21.05 156.4 20.2 157.55 L19.75 158.05" fill="#ff0000" fill-rule="evenodd" stroke="none"/>
    <path d="M19.75 158.05 Q18.45 159.35 16.65 159.35 14.85 159.35 13.55 158.05 12.25 156.75 12.25 154.95 12.25 153.15 13.55 151.85 14.85 150.55 16.65 150.55 18.45 150.55 19.75 151.85 21.05 153.15 21.05 154.95 21.05 156.4 20.2 157.55 L19.75 158.05 Z" fill="none" stroke="#ffffff" stroke-linecap="round" stroke-linejoin="round" stroke-width="2.0"/>
    <path d="M12.25 164.95 Q12.25 163.15 13.55 161.85 14.85 160.55 16.65 160.55 18.45 160.55 19.75 161.85 21.05 163.15 21.05 164.95 21.05 166.4 20.2 167.55 L19.75 168.05 Q18.45 169.35 16.65 169.35 14.85 169.35 13.55 168.05 12.25 166.75 12.25 164.95" fill="#ffff00" fill-rule="evenodd" stroke="none"/>
    <path d="M12.25 164.95 Q12.25 163.15 13.55 161.85 14.85 160.55 16.65 160.55 18.45 160.55 19.75 161.85 21.05 163.15 21.05 164.95 21.05 166.4 20.2 167.55 L19.75 168.05 Q18.45 169.35 16.65 169.35 14.85 169.35 13.55 168.05 12.25 166.75 12.25 164.95 Z" fill="none" stroke="#ffffff" stroke-linecap="round" stroke-linejoin="round" stroke-width="2.0"/>
    <path d="M19.75 171.85 Q21.05 173.15 21.05 174.95 21.05 176.4 20.2 177.55 L19.75 178.05 Q18.45 179.35 16.65 179.35 14.85 179.35 13.55 178.05 12.25 176.75 12.25 174.95 12.25 173.15 13.55 171.85 14.85 170.55 16.65 170.55 18.45 170.55 19.75 171.85" fill="#0000ff" fill-rule="evenodd" stroke="none"/>
    <path d="M19.75 171.85 Q21.05 173.15 21.05 174.95 21.05 176.4 20.2 177.55 L19.75 178.05 Q18.45 179.35 16.65 179.35 14.85 179.35 13.55 178.05 12.25 176.75 12.25 174.95 12.25 173.15 13.55 171.85 14.85 170.55 16.65 170.55 18.45 170.55 19.75 171.85 Z" fill="none" stroke="#ffffff" stroke-linecap="round" stroke-linejoin="round" stroke-width="2.0"/>
    <path d="M19.75 188.05 Q18.45 189.35 16.65 189.35 14.85 189.35 13.55 188.05 12.25 186.75 12.25 184.95 12.25 183.15 13.55 181.85 14.85 180.55 16.65 180.55 18.45 180.55 19.75 181.85 21.05 183.15 21.05 184.95 21.05 186.4 20.2 187.55 L19.75 188.05" fill="#ff6600" fill-rule="evenodd" stroke="none"/>
    <path d="M19.75 188.05 Q18.45 189.35 16.65 189.35 14.85 189.35 13.55 188.05 12.25 186.75 12.25 184.95 12.25 183.15 13.55 181.85 14.85 180.55 16.65 180.55 18.45 180.55 19.75 181.85 21.05 183.15 21.05 184.95 21.05 186.4 20.2 187.55 L19.75 188.05 Z" fill="none" stroke="#ffffff" stroke-linecap="round" stroke-linejoin="round" stroke-width="2.0"/>
  </g>
</svg>
