<?xml version="1.0" encoding="UTF-8" standalone="no"?>
<svg xmlns:xlink="http://www.w3.org/1999/xlink" height="56.6px" width="175.6px" xmlns="http://www.w3.org/2000/svg">
  <g transform="matrix(1.0, 0.0, 0.0, 1.0, -306.2, -134.4)">
    <path d="M312.7 145.7 L480.8 145.75 M312.7 155.7 L480.7 155.7 M312.7 165.7 L480.7 165.7 M312.7 175.7 L480.7 175.7 M312.7 185.7 L480.7 185.7" fill="none" stroke="#ffffff" stroke-linecap="round" stroke-linejoin="round" stroke-width="2.0"/>
    <path d="M316.0 145.6 Q316.0 147.05 315.15 148.2 L314.7 148.7 Q313.4 150.0 311.6 150.0 309.8 150.0 308.5 148.7 307.2 147.4 307.2 145.6 307.2 143.8 308.5 142.5 309.8 141.2 311.6 141.2 313.4 141.2 314.7 142.5 316.0 143.8 316.0 145.6" fill="#009900" fill-rule="evenodd" stroke="none"/>
    <path d="M316.0 145.6 Q316.0 147.05 315.15 148.2 L314.7 148.7 Q313.4 150.0 311.6 150.0 309.8 150.0 308.5 148.7 307.2 147.4 307.2 145.6 307.2 143.8 308.5 142.5 309.8 141.2 311.6 141.2 313.4 141.2 314.7 142.5 316.0 143.8 316.0 145.6 Z" fill="none" stroke="#ffffff" stroke-linecap="round" stroke-linejoin="round" stroke-width="2.0"/>
    <path d="M315.15 158.2 L314.7 158.7 Q313.4 160.0 311.6 160.0 309.8 160.0 308.5 158.7 307.2 157.4 307.2 155.6 307.2 153.8 308.5 152.5 309.8 151.2 311.6 151.2 313.4 151.2 314.7 152.5 316.0 153.8 316.0 155.6 316.0 157.05 315.15 158.2" fill="#ff0000" fill-rule="evenodd" stroke="none"/>
    <path d="M315.15 158.2 L314.7 158.7 Q313.4 160.0 311.6 160.0 309.8 160.0 308.5 158.7 307.2 157.4 307.2 155.6 307.2 153.8 308.5 152.5 309.8 151.2 311.6 151.2 313.4 151.2 314.7 152.5 316.0 153.8 316.0 155.6 316.0 157.05 315.15 158.2 Z" fill="none" stroke="#ffffff" stroke-linecap="round" stroke-linejoin="round" stroke-width="2.0"/>
    <path d="M308.5 168.7 Q307.2 167.4 307.2 165.6 307.2 163.8 308.5 162.5 309.8 161.2 311.6 161.2 313.4 161.2 314.7 162.5 316.0 163.8 316.0 165.6 316.0 167.05 315.15 168.2 L314.7 168.7 Q313.4 170.0 311.6 170.0 309.8 170.0 308.5 168.7" fill="#ffff00" fill-rule="evenodd" stroke="none"/>
    <path d="M308.5 168.7 Q307.2 167.4 307.2 165.6 307.2 163.8 308.5 162.5 309.8 161.2 311.6 161.2 313.4 161.2 314.7 162.5 316.0 163.8 316.0 165.6 316.0 167.05 315.15 168.2 L314.7 168.7 Q313.4 170.0 311.6 170.0 309.8 170.0 308.5 168.7 Z" fill="none" stroke="#ffffff" stroke-linecap="round" stroke-linejoin="round" stroke-width="2.0"/>
    <path d="M314.7 172.5 Q316.0 173.8 316.0 175.6 316.0 177.05 315.15 178.2 L314.7 178.7 Q313.4 180.0 311.6 180.0 309.8 180.0 308.5 178.7 307.2 177.4 307.2 175.6 307.2 173.8 308.5 172.5 309.8 171.2 311.6 171.2 313.4 171.2 314.7 172.5" fill="#0000ff" fill-rule="evenodd" stroke="none"/>
    <path d="M314.7 172.5 Q316.0 173.8 316.0 175.6 316.0 177.05 315.15 178.2 L314.7 178.7 Q313.4 180.0 311.6 180.0 309.8 180.0 308.5 178.7 307.2 177.4 307.2 175.6 307.2 173.8 308.5 172.5 309.8 171.2 311.6 171.2 313.4 171.2 314.7 172.5 Z" fill="none" stroke="#ffffff" stroke-linecap="round" stroke-linejoin="round" stroke-width="2.0"/>
    <path d="M316.0 185.6 Q316.0 187.05 315.15 188.2 L314.7 188.7 Q313.4 190.0 311.6 190.0 309.8 190.0 308.5 188.7 307.2 187.4 307.2 185.6 307.2 183.8 308.5 182.5 309.8 181.2 311.6 181.2 313.4 181.2 314.7 182.5 316.0 183.8 316.0 185.6" fill="#ff6600" fill-rule="evenodd" stroke="none"/>
    <path d="M316.0 185.6 Q316.0 187.05 315.15 188.2 L314.7 188.7 Q313.4 190.0 311.6 190.0 309.8 190.0 308.5 188.7 307.2 187.4 307.2 185.6 307.2 183.8 308.5 182.5 309.8 181.2 311.6 181.2 313.4 181.2 314.7 182.5 316.0 183.8 316.0 185.6 Z" fill="none" stroke="#ffffff" stroke-linecap="round" stroke-linejoin="round" stroke-width="2.0"/>
    <path d="M373.3 183.3 Q367.2 179.7 369.35 174.6 379.25 149.9 397.95 136.7 405.95 133.5 412.85 138.2 428.75 151.65 428.75 172.2 426.8 182.3 416.9 185.0 395.35 189.15 373.3 183.3" fill="url(#gradient0)" fill-rule="evenodd" stroke="none"/>
    <path d="M373.3 183.3 Q395.35 189.15 416.9 185.0 426.8 182.3 428.75 172.2 428.75 151.65 412.85 138.2 405.95 133.5 397.95 136.7 379.25 149.9 369.35 174.6 367.2 179.7 373.3 183.3 Z" fill="none" stroke="#666666" stroke-linecap="round" stroke-linejoin="round" stroke-width="2.0"/>
  </g>
  <defs>
    <linearGradient gradientTransform="matrix(-0.0457, -0.041, 0.025, -0.0278, 397.7, 165.5)" gradientUnits="userSpaceOnUse" id="gradient0" spreadMethod="pad" x1="-819.2" x2="819.2">
      <stop offset="0.0" stop-color="#ffffff"/>
      <stop offset="1.0" stop-color="#000000"/>
    </linearGradient>
  </defs>
</svg>
