<?xml version="1.0" encoding="UTF-8" standalone="no"?>
<svg xmlns:xlink="http://www.w3.org/1999/xlink" height="252.0px" width="682.95px" xmlns="http://www.w3.org/2000/svg">
  <g transform="matrix(1.0, 0.0, 0.0, 1.0, 1.0, -45.3)">
    <path d="M671.95 45.3 Q681.95 45.3 681.95 55.3 L681.95 287.3 Q681.95 297.3 671.95 297.3 L9.0 297.3 Q-1.0 297.3 -1.0 287.3 L-1.0 55.3 Q-1.0 45.3 9.0 45.3 L671.95 45.3" fill="#333333" fill-opacity="0.9019608" fill-rule="evenodd" stroke="none"/>
    <path d="M245.45 224.5 L245.45 234.05 Q245.45 236.65 244.8 238.6 242.85 244.1 235.45 244.1 L188.25 244.1 Q180.85 244.1 178.95 238.6 178.25 236.65 178.25 234.05 L178.25 224.5 Q178.4 214.8 188.25 214.8 L235.45 214.8 Q245.3 214.8 245.45 224.5 M75.45 234.1 Q75.45 236.7 74.8 238.65 72.85 244.1 65.45 244.1 L18.25 244.1 Q10.85 244.1 8.95 238.65 8.25 236.7 8.25 234.1 L8.25 224.55 Q8.4 214.8 18.25 214.8 L65.45 214.8 Q75.3 214.8 75.45 224.55 L75.45 234.1 M160.45 234.1 Q160.45 236.7 159.8 238.65 157.85 244.15 150.45 244.15 L103.25 244.15 Q95.85 244.15 93.95 238.65 93.25 236.7 93.25 234.1 L93.25 224.55 Q93.4 214.8 103.25 214.8 L150.45 214.8 Q160.3 214.8 160.45 224.55 L160.45 234.1 M584.85 238.6 Q582.9 244.1 575.5 244.1 L528.3 244.1 Q520.9 244.1 519.0 238.6 518.3 236.65 518.3 234.05 L518.3 224.5 Q518.45 214.8 528.3 214.8 L575.5 214.8 Q585.35 214.8 585.5 224.5 L585.5 234.05 Q585.5 236.65 584.85 238.6 M330.45 224.5 L330.45 234.05 Q330.45 236.65 329.8 238.6 327.85 244.1 320.45 244.1 L273.25 244.1 Q265.85 244.1 263.95 238.6 263.25 236.65 263.25 234.05 L263.25 224.5 Q263.4 214.8 273.25 214.8 L320.45 214.8 Q330.3 214.8 330.45 224.5 M433.25 274.05 L433.25 264.5 Q433.4 254.8 443.2 254.8 L490.35 254.8 Q500.2 254.8 500.35 264.5 L500.35 274.05 Q500.35 276.65 499.7 278.6 497.75 284.1 490.35 284.1 L443.2 284.1 Q435.85 284.1 433.95 278.6 433.25 276.65 433.25 274.05 M415.45 234.05 Q415.45 236.65 414.8 238.6 412.85 244.1 405.45 244.1 L358.25 244.1 Q350.85 244.1 348.95 238.6 348.25 236.65 348.25 234.05 L348.25 224.5 Q348.4 214.8 358.25 214.8 L405.45 214.8 Q415.3 214.8 415.45 224.5 L415.45 234.05 M433.25 234.05 L433.25 224.5 Q433.4 214.8 443.25 214.8 L490.4 214.8 Q500.25 214.8 500.4 224.5 L500.4 234.05 Q500.4 236.65 499.75 238.6 497.8 244.1 490.4 244.1 L443.25 244.1 Q435.85 244.1 433.95 238.6 433.25 236.65 433.25 234.05 M660.5 214.8 Q670.35 214.8 670.5 224.5 L670.5 234.05 Q670.5 236.65 669.85 238.6 667.9 244.1 660.5 244.1 L613.3 244.1 Q605.9 244.1 604.0 238.6 603.3 236.65 603.3 234.05 L603.3 224.5 Q603.45 214.8 613.3 214.8 L660.5 214.8" fill="#ffffff" fill-rule="evenodd" stroke="none"/>
  </g>
</svg>
