<?xml version="1.0" encoding="UTF-8" standalone="no"?>
<svg xmlns:xlink="http://www.w3.org/1999/xlink" height="29.4px" width="662.25px" xmlns="http://www.w3.org/2000/svg">
  <g transform="matrix(1.0, 0.0, 0.0, 1.0, -8.25, -95.1)">
    <path d="M18.25 95.15 L65.45 95.15 Q75.3 95.15 75.45 104.9 L75.45 114.45 Q75.45 117.05 74.8 119.0 L73.55 121.3 Q71.1 124.45 65.45 124.45 L18.25 124.45 Q12.6 124.45 10.2 121.3 9.4 120.3 8.95 119.0 8.25 117.05 8.25 114.45 L8.25 104.9 Q8.4 95.15 18.25 95.15 M103.25 95.15 L150.45 95.15 Q160.3 95.15 160.45 104.9 L160.45 114.45 Q160.45 117.05 159.8 119.0 L158.6 121.3 Q156.1 124.5 150.45 124.5 L103.25 124.5 Q97.6 124.5 95.15 121.3 94.4 120.3 93.95 119.0 93.25 117.05 93.25 114.45 L93.25 104.9 Q93.4 95.15 103.25 95.15 M188.25 95.15 L235.45 95.15 Q245.3 95.15 245.45 104.85 L245.45 114.4 Q245.45 117.0 244.8 118.95 244.35 120.3 243.55 121.3 241.05 124.45 235.45 124.45 L188.25 124.45 Q182.65 124.45 180.2 121.3 179.4 120.3 178.95 118.95 178.25 117.0 178.25 114.4 L178.25 104.85 Q178.4 95.15 188.25 95.15 M348.95 118.95 Q348.25 117.0 348.25 114.4 L348.25 104.85 Q348.4 95.15 358.25 95.15 L405.45 95.15 Q415.3 95.15 415.45 104.85 L415.45 114.4 Q415.45 117.0 414.8 118.95 414.35 120.3 413.55 121.3 411.05 124.45 405.45 124.45 L358.25 124.45 Q352.65 124.45 350.2 121.3 349.4 120.3 348.95 118.95 M329.8 118.95 L328.55 121.3 Q326.05 124.45 320.45 124.45 L273.25 124.45 Q267.65 124.45 265.2 121.3 264.4 120.3 263.95 118.95 263.25 117.0 263.25 114.4 L263.25 104.85 Q263.4 95.15 273.25 95.15 L320.45 95.15 Q330.3 95.15 330.45 104.85 L330.45 114.4 Q330.45 117.0 329.8 118.95 M519.0 119.0 Q518.3 117.05 518.3 114.45 L518.3 104.9 Q518.45 95.2 528.3 95.2 L575.5 95.2 Q585.35 95.2 585.5 104.9 L585.5 114.45 Q585.5 117.05 584.85 119.0 584.4 120.35 583.6 121.35 581.1 124.5 575.5 124.5 L528.3 124.5 Q522.7 124.5 520.25 121.35 519.45 120.35 519.0 119.0 M669.85 118.9 Q669.4 120.25 668.6 121.25 666.1 124.4 660.5 124.4 L613.3 124.4 Q607.7 124.4 605.25 121.25 604.45 120.25 604.0 118.9 603.3 116.95 603.3 114.35 L603.3 104.8 Q603.45 95.1 613.3 95.1 L660.5 95.1 Q670.35 95.1 670.5 104.8 L670.5 114.35 Q670.5 116.95 669.85 118.9" fill="#ffffff" fill-rule="evenodd" stroke="none"/>
  </g>
</svg>
