<?xml version="1.0" encoding="UTF-8" standalone="no"?>
<svg xmlns:xlink="http://www.w3.org/1999/xlink" height="154.75px" width="208.7px" xmlns="http://www.w3.org/2000/svg">
  <g transform="matrix(1.0, 0.0, 0.0, 1.0, 101.85, 77.75)">
    <path d="M44.25 -59.45 Q47.15 -62.75 51.75 -62.75 L57.05 -51.45 56.1 -51.0 Q57.05 -50.3 56.95 -50.45 L58.0 -50.6 Q59.7 -50.6 58.0 -49.25 56.3 -47.9 55.75 -47.9 54.0 -47.9 53.55 -48.95 L48.15 -54.05 Q46.8 -53.15 44.45 -48.2 42.1 -43.15 39.25 -43.15 37.85 -43.15 35.65 -44.45 L35.65 -47.85 Q38.0 -49.25 40.8 -53.65 43.1 -58.1 44.25 -59.45 M30.6 -29.35 Q30.6 -25.0 25.55 -25.0 L23.8 -25.0 Q21.25 -25.0 20.3 -23.7 12.65 -20.85 7.45 -13.65 7.45 -11.75 9.2 -10.05 L12.1 -9.8 Q15.65 -9.8 21.8 -11.25 29.45 -13.05 32.25 -13.35 22.85 -4.3 12.4 -4.3 7.95 -4.3 4.3 -6.05 0.85 -8.7 0.85 -11.65 0.85 -13.3 1.75 -15.15 12.3 -30.0 29.75 -32.55 L30.6 -29.35 M35.05 -22.9 Q39.15 -32.9 40.3 -34.65 44.85 -41.6 52.35 -40.95 56.6 -37.4 57.8 -31.5 L58.95 -21.95 Q60.2 -19.6 60.2 -18.35 60.2 -16.5 58.15 -16.7 L52.55 -15.95 Q47.4 -14.9 45.25 -14.9 L40.75 -15.2 40.55 -14.55 Q40.55 -13.95 41.45 -12.85 L42.9 -10.6 Q45.15 -8.5 48.2 -8.5 50.65 -8.5 55.45 -10.55 60.95 -13.0 64.5 -13.35 63.35 -8.5 58.1 -6.25 L49.95 -2.75 47.4 -2.55 Q40.2 -2.55 35.6 -8.75 35.45 -10.45 34.0 -13.7 32.6 -16.95 32.6 -18.55 32.6 -21.2 35.05 -22.9 M48.1 -33.05 L47.1 -33.0 43.75 -27.15 Q42.15 -23.9 42.25 -22.65 L49.2 -22.65 Q50.35 -23.9 50.35 -26.5 L50.35 -31.4 Q50.1 -33.05 48.1 -33.05 M88.05 29.7 Q87.15 35.95 87.15 39.5 87.15 48.25 91.8 51.6 92.35 56.45 87.4 56.45 85.3 56.45 83.35 55.55 81.55 54.75 81.45 51.45 81.45 50.05 80.9 50.05 L80.8 50.05 Q80.2 52.05 77.4 53.45 73.55 55.3 72.7 56.45 64.95 56.45 62.9 51.15 L62.7 46.4 Q62.7 31.25 72.0 26.7 72.0 30.05 70.35 35.45 68.8 40.85 68.8 43.4 68.8 47.5 71.2 49.85 74.65 48.95 77.25 45.1 79.85 41.3 80.6 37.1 79.75 36.4 79.75 35.05 79.75 33.6 83.35 29.7 L88.05 29.7 M49.8 20.85 Q53.7 20.85 56.85 24.8 L61.35 31.1 Q62.1 36.05 62.1 38.85 62.1 46.9 57.15 50.85 50.35 58.0 42.45 58.0 39.65 58.0 36.7 57.0 32.45 52.75 32.45 46.05 32.45 38.7 40.1 29.7 L47.25 21.3 49.8 20.85 M45.85 31.25 Q39.65 39.1 39.65 44.95 39.65 47.9 40.9 50.1 41.95 51.1 43.35 51.1 L45.75 50.5 48.45 49.75 Q55.5 45.8 55.5 37.15 L52.4 31.7 Q50.35 28.65 48.7 28.65 47.35 28.65 45.85 31.25 M7.1 23.5 L7.1 28.4 7.1 33.4 Q7.1 43.2 9.55 49.15 10.55 47.6 13.75 40.7 16.7 34.55 21.0 33.1 24.25 36.95 26.7 45.2 29.15 53.45 31.9 57.3 L30.45 60.35 Q29.7 62.0 27.45 62.0 L24.7 60.9 Q23.9 58.75 21.95 51.0 20.55 45.35 19.35 42.85 19.4 43.45 14.45 52.2 10.85 58.45 5.8 60.45 3.75 54.55 1.6 38.7 L1.6 34.75 1.35 29.35 1.1 23.8 Q1.1 16.25 5.8 11.6 7.1 17.3 7.1 23.5 M-59.05 -45.75 Q-57.7 -47.95 -56.1 -47.95 -54.05 -47.95 -52.8 -45.85 -51.55 -43.75 -51.75 -41.75 -52.25 -37.85 -52.25 -33.65 -52.25 -22.95 -49.25 -14.15 -47.15 -17.7 -43.45 -28.05 -39.9 -40.35 -34.35 -45.4 L-30.65 -45.25 Q-31.3 -41.15 -33.9 -35.9 L-38.0 -27.15 -42.3 -14.7 Q-45.15 -7.95 -49.4 -3.2 -52.35 -2.85 -54.45 -4.9 L-57.5 -9.25 -55.9 -9.2 Q-57.1 -14.6 -57.75 -26.35 -58.65 -41.45 -59.05 -45.75 M-1.1 -32.5 Q-0.35 -27.55 -0.35 -24.75 -0.35 -16.7 -5.3 -12.75 -12.1 -5.6 -20.0 -5.6 -22.8 -5.6 -25.75 -6.6 -30.0 -10.85 -30.0 -17.55 -30.0 -24.9 -22.35 -33.9 L-15.2 -42.3 -12.65 -42.75 Q-8.75 -42.75 -5.6 -38.8 L-1.1 -32.5 M-10.05 -31.9 Q-12.1 -34.95 -13.75 -34.95 -15.1 -34.95 -16.6 -32.35 -22.8 -24.5 -22.8 -18.65 -22.8 -15.7 -21.55 -13.5 -20.5 -12.5 -19.1 -12.5 L-16.7 -13.1 -14.0 -13.85 Q-6.95 -17.8 -6.95 -26.45 L-10.05 -31.9 M-10.1 10.15 Q-9.3 10.15 -8.25 10.9 L-6.35 11.95 Q-7.35 23.7 -7.35 31.15 -7.35 48.1 -2.9 56.95 L-1.55 56.95 Q-0.35 58.1 -0.35 59.2 -0.35 62.05 -4.3 62.7 -8.3 62.9 -9.35 58.9 -10.9 53.0 -11.55 52.15 -13.25 44.15 -13.25 33.0 -13.25 25.3 -12.2 11.15 -11.05 10.15 -10.1 10.15 M-38.75 42.8 Q-39.6 41.9 -40.8 42.15 -29.45 26.0 -17.8 24.75 L-14.4 30.6 Q-14.0 32.75 -14.0 34.85 -14.0 37.25 -14.95 41.9 -15.95 46.5 -15.95 48.8 -15.95 51.1 -15.05 53.55 -18.0 57.35 -23.6 58.1 L-32.35 58.2 Q-37.2 57.05 -37.2 52.05 -37.2 49.85 -35.5 48.35 -33.9 44.85 -29.45 42.85 L-22.1 40.0 Q-18.9 38.4 -18.9 36.25 -18.9 34.25 -21.0 31.25 -24.65 31.8 -29.2 35.8 -35.85 41.65 -38.75 42.8 M-23.15 48.0 Q-24.3 48.0 -28.95 50.75 L-28.95 51.3 Q-28.95 51.75 -28.25 52.45 -27.95 51.15 -23.55 49.65 -22.35 48.85 -22.45 48.05 L-23.15 48.0 M-48.05 23.2 L-54.5 22.5 Q-59.3 22.5 -64.75 24.2 L-75.6 27.9 Q-76.9 33.3 -76.9 37.0 -76.9 40.75 -75.95 42.65 -70.7 42.35 -59.55 38.3 -49.2 34.45 -40.3 34.9 -43.0 38.2 -48.05 40.35 L-75.35 49.0 Q-76.25 49.75 -76.25 51.3 -76.25 52.35 -75.45 54.6 -74.65 56.8 -74.65 58.0 -74.65 61.1 -80.3 61.25 -80.95 59.3 -81.55 53.5 -82.0 49.1 -83.8 46.55 -83.8 44.1 -83.05 40.05 -82.25 35.95 -82.25 34.0 -82.25 28.6 -86.85 27.45 -85.1 21.35 -79.9 21.35 L-77.05 21.55 -74.2 21.75 Q-72.05 21.75 -70.45 21.0 -68.15 20.55 -62.25 18.55 -57.0 16.75 -53.7 16.75 -51.6 16.75 -49.2 17.55 L-48.05 20.4 -48.05 23.2" fill="#000000" fill-rule="evenodd" stroke="none"/>
    <path d="M44.25 -59.45 Q47.15 -62.75 51.75 -62.75 L57.05 -51.45 56.1 -51.0 Q57.05 -50.3 56.95 -50.45 L58.0 -50.6 Q59.7 -50.6 58.0 -49.25 56.3 -47.9 55.75 -47.9 54.0 -47.9 53.55 -48.95 L48.15 -54.05 Q46.8 -53.15 44.45 -48.2 42.1 -43.15 39.25 -43.15 37.85 -43.15 35.65 -44.45 L35.65 -47.85 Q38.0 -49.25 40.8 -53.65 43.1 -58.1 44.25 -59.45 M30.6 -29.35 Q30.6 -25.0 25.55 -25.0 L23.8 -25.0 Q21.25 -25.0 20.3 -23.7 12.65 -20.85 7.45 -13.65 7.45 -11.75 9.2 -10.05 L12.1 -9.8 Q15.65 -9.8 21.8 -11.25 29.45 -13.05 32.25 -13.35 22.85 -4.3 12.4 -4.3 7.95 -4.3 4.3 -6.05 0.85 -8.7 0.85 -11.65 0.85 -13.3 1.75 -15.15 12.3 -30.0 29.75 -32.55 L30.6 -29.35 M35.05 -22.9 Q39.15 -32.9 40.3 -34.65 44.85 -41.6 52.35 -40.95 56.6 -37.4 57.8 -31.5 L58.95 -21.95 Q60.2 -19.6 60.2 -18.35 60.2 -16.5 58.15 -16.7 L52.55 -15.95 Q47.4 -14.9 45.25 -14.9 L40.75 -15.2 40.55 -14.55 Q40.55 -13.95 41.45 -12.85 L42.9 -10.6 Q45.15 -8.5 48.2 -8.5 50.65 -8.5 55.45 -10.55 60.95 -13.0 64.5 -13.35 63.35 -8.5 58.1 -6.25 L49.95 -2.75 47.4 -2.55 Q40.2 -2.55 35.6 -8.75 35.45 -10.45 34.0 -13.7 32.6 -16.95 32.6 -18.55 32.6 -21.2 35.05 -22.9 M48.1 -33.05 L47.1 -33.0 43.75 -27.15 Q42.15 -23.9 42.25 -22.65 L49.2 -22.65 Q50.35 -23.9 50.35 -26.5 L50.35 -31.4 Q50.1 -33.05 48.1 -33.05 M88.05 29.7 Q87.15 35.95 87.15 39.5 87.15 48.25 91.8 51.6 92.35 56.45 87.4 56.45 85.3 56.45 83.35 55.55 81.55 54.75 81.45 51.45 81.45 50.05 80.9 50.05 L80.8 50.05 Q80.2 52.05 77.4 53.45 73.55 55.3 72.7 56.45 64.95 56.45 62.9 51.15 L62.7 46.4 Q62.7 31.25 72.0 26.7 72.0 30.05 70.35 35.45 68.8 40.85 68.8 43.4 68.8 47.5 71.2 49.85 74.65 48.95 77.25 45.1 79.85 41.3 80.6 37.1 79.75 36.4 79.75 35.05 79.75 33.6 83.35 29.7 L88.05 29.7 M49.8 20.85 Q53.7 20.85 56.85 24.8 L61.35 31.1 Q62.1 36.05 62.1 38.85 62.1 46.9 57.15 50.85 50.35 58.0 42.45 58.0 39.65 58.0 36.7 57.0 32.45 52.75 32.45 46.05 32.45 38.7 40.1 29.7 L47.25 21.3 49.8 20.85 M45.85 31.25 Q39.65 39.1 39.65 44.95 39.65 47.9 40.9 50.1 41.95 51.1 43.35 51.1 L45.75 50.5 48.45 49.75 Q55.5 45.8 55.5 37.15 L52.4 31.7 Q50.35 28.65 48.7 28.65 47.35 28.65 45.85 31.25 M7.1 23.5 L7.1 28.4 7.1 33.4 Q7.1 43.2 9.55 49.15 10.55 47.6 13.75 40.7 16.7 34.55 21.0 33.1 24.25 36.95 26.7 45.2 29.15 53.45 31.9 57.3 L30.45 60.35 Q29.7 62.0 27.45 62.0 L24.7 60.9 Q23.9 58.75 21.95 51.0 20.55 45.35 19.35 42.85 19.4 43.45 14.45 52.2 10.85 58.45 5.8 60.45 3.75 54.55 1.6 38.7 L1.6 34.75 1.35 29.35 1.1 23.8 Q1.1 16.25 5.8 11.6 7.1 17.3 7.1 23.5 M-59.05 -45.75 Q-57.7 -47.95 -56.1 -47.95 -54.05 -47.95 -52.8 -45.85 -51.55 -43.75 -51.75 -41.75 -52.25 -37.85 -52.25 -33.65 -52.25 -22.95 -49.25 -14.15 -47.15 -17.7 -43.45 -28.05 -39.9 -40.35 -34.35 -45.4 L-30.65 -45.25 Q-31.3 -41.15 -33.9 -35.9 L-38.0 -27.15 -42.3 -14.7 Q-45.15 -7.95 -49.4 -3.2 -52.35 -2.85 -54.45 -4.9 L-57.5 -9.25 -55.9 -9.2 Q-57.1 -14.6 -57.75 -26.35 -58.65 -41.45 -59.05 -45.75 M-1.1 -32.5 Q-0.35 -27.55 -0.35 -24.75 -0.35 -16.7 -5.3 -12.75 -12.1 -5.6 -20.0 -5.6 -22.8 -5.6 -25.75 -6.6 -30.0 -10.85 -30.0 -17.55 -30.0 -24.9 -22.35 -33.9 L-15.2 -42.3 -12.65 -42.75 Q-8.75 -42.75 -5.6 -38.8 L-1.1 -32.5 M-10.05 -31.9 Q-12.1 -34.95 -13.75 -34.95 -15.1 -34.95 -16.6 -32.35 -22.8 -24.5 -22.8 -18.65 -22.8 -15.7 -21.55 -13.5 -20.5 -12.5 -19.1 -12.5 L-16.7 -13.1 -14.0 -13.85 Q-6.95 -17.8 -6.95 -26.45 L-10.05 -31.9 M-38.75 42.8 Q-39.6 41.9 -40.8 42.15 -29.45 26.0 -17.8 24.75 L-14.4 30.6 Q-14.0 32.75 -14.0 34.85 -14.0 37.25 -14.95 41.9 -15.95 46.5 -15.95 48.8 -15.95 51.1 -15.05 53.55 -18.0 57.35 -23.6 58.1 L-32.35 58.2 Q-37.2 57.05 -37.2 52.05 -37.2 49.85 -35.5 48.35 -33.9 44.85 -29.45 42.85 L-22.1 40.0 Q-18.9 38.4 -18.9 36.25 -18.9 34.25 -21.0 31.25 -24.65 31.8 -29.2 35.8 -35.85 41.65 -38.75 42.8 M-23.15 48.0 Q-24.3 48.0 -28.95 50.75 L-28.95 51.3 Q-28.95 51.75 -28.25 52.45 -27.95 51.15 -23.55 49.65 -22.35 48.85 -22.45 48.05 L-23.15 48.0 M-48.05 23.2 L-54.5 22.5 Q-59.3 22.5 -64.75 24.2 L-75.6 27.9 Q-76.9 33.3 -76.9 37.0 -76.9 40.75 -75.95 42.65 -70.7 42.35 -59.55 38.3 -49.2 34.45 -40.3 34.9 -43.0 38.2 -48.05 40.35 L-75.35 49.0 Q-76.25 49.75 -76.25 51.3 -76.25 52.35 -75.45 54.6 -74.65 56.8 -74.65 58.0 -74.65 61.1 -80.3 61.25 -80.95 59.3 -81.55 53.5 -82.0 49.1 -83.8 46.55 -83.8 44.1 -83.05 40.05 -82.25 35.95 -82.25 34.0 -82.25 28.6 -86.85 27.45 -85.1 21.35 -79.9 21.35 L-77.05 21.55 -74.2 21.75 Q-72.05 21.75 -70.45 21.0 -68.15 20.55 -62.25 18.55 -57.0 16.75 -53.7 16.75 -51.6 16.75 -49.2 17.55 L-48.05 20.4 -48.05 23.2" fill="none" stroke="#000000" stroke-linecap="round" stroke-linejoin="round" stroke-width="30.0"/>
    <path d="M58.05 -51.4 L57.1 -50.95 Q58.05 -50.25 57.95 -50.4 L59.0 -50.55 Q60.7 -50.55 59.0 -49.2 57.3 -47.85 56.75 -47.85 55.0 -47.85 54.55 -48.9 L49.15 -54.0 Q47.8 -53.1 45.45 -48.15 43.1 -43.1 40.25 -43.1 38.85 -43.1 36.65 -44.4 L36.65 -47.8 Q39.0 -49.2 41.8 -53.6 44.1 -58.05 45.25 -59.4 48.15 -62.7 52.75 -62.7 L58.05 -51.4 M31.6 -29.3 Q31.6 -24.95 26.55 -24.95 L24.8 -24.95 Q22.25 -24.95 21.3 -23.65 13.65 -20.8 8.45 -13.6 8.45 -11.7 10.2 -10.0 L13.1 -9.75 Q16.65 -9.75 22.8 -11.2 L33.25 -13.3 Q23.85 -4.25 13.4 -4.25 8.95 -4.25 5.3 -6.0 1.85 -8.65 1.85 -11.6 1.85 -13.25 2.75 -15.1 13.3 -29.95 30.75 -32.5 L31.6 -29.3 M36.05 -22.85 Q40.15 -32.85 41.3 -34.6 45.85 -41.55 53.35 -40.9 57.6 -37.35 58.8 -31.45 L59.95 -21.9 Q61.2 -19.55 61.2 -18.3 61.2 -16.45 59.15 -16.65 L53.55 -15.9 Q48.4 -14.85 46.25 -14.85 L41.75 -15.15 41.55 -14.5 Q41.55 -13.9 42.45 -12.8 L43.9 -10.55 Q46.15 -8.45 49.2 -8.45 51.65 -8.45 56.45 -10.5 61.95 -12.95 65.5 -13.3 64.35 -8.45 59.1 -6.2 L50.95 -2.7 48.4 -2.5 Q41.2 -2.5 36.6 -8.7 36.45 -10.4 35.0 -13.65 33.6 -16.9 33.6 -18.5 33.6 -21.15 36.05 -22.85 M48.1 -32.95 L44.75 -27.1 Q43.15 -23.85 43.25 -22.6 L50.2 -22.6 Q51.35 -23.85 51.35 -26.45 L51.35 -31.35 Q51.1 -33.0 49.1 -33.0 L48.1 -32.95 M89.05 29.75 Q88.15 36.0 88.15 39.55 88.15 48.3 92.8 51.65 93.35 56.5 88.4 56.5 86.3 56.5 84.35 55.6 82.55 54.8 82.45 51.5 82.45 50.1 81.9 50.1 L81.8 50.1 Q81.2 52.1 78.4 53.5 74.55 55.35 73.7 56.5 65.95 56.5 63.9 51.2 L63.7 46.45 Q63.7 31.3 73.0 26.75 73.0 30.1 71.35 35.5 69.8 40.9 69.8 43.45 69.8 47.55 72.2 49.9 75.65 49.0 78.25 45.15 80.85 41.35 81.6 37.15 80.75 36.45 80.75 35.1 80.75 33.65 84.35 29.75 L89.05 29.75 M50.8 20.9 Q54.7 20.9 57.85 24.85 L62.35 31.15 Q63.1 36.1 63.1 38.9 63.1 46.95 58.15 50.9 51.35 58.05 43.45 58.05 40.65 58.05 37.7 57.05 33.45 52.8 33.45 46.1 33.45 38.75 41.1 29.75 L48.25 21.35 50.8 20.9 M53.4 31.75 Q51.35 28.7 49.7 28.7 48.35 28.7 46.85 31.3 40.65 39.15 40.65 45.0 40.65 47.95 41.9 50.15 42.95 51.15 44.35 51.15 L46.75 50.55 49.45 49.8 Q56.5 45.85 56.5 37.2 L53.4 31.75 M8.1 23.55 L8.1 28.45 8.1 33.45 Q8.1 43.25 10.55 49.2 11.55 47.65 14.75 40.75 17.7 34.6 22.0 33.15 25.25 37.0 27.7 45.25 30.15 53.5 32.9 57.35 L31.45 60.4 Q30.7 62.05 28.45 62.05 L25.7 60.95 Q24.9 58.8 22.95 51.05 21.55 45.4 20.35 42.9 20.4 43.5 15.45 52.25 11.85 58.5 6.8 60.5 4.75 54.6 2.6 38.75 L2.6 34.8 2.35 29.4 2.1 23.85 Q2.1 16.3 6.8 11.65 8.1 17.35 8.1 23.55 M-51.25 -33.6 Q-51.25 -22.9 -48.25 -14.1 -46.15 -17.65 -42.45 -28.0 -38.9 -40.3 -33.35 -45.35 L-29.65 -45.2 Q-30.3 -41.1 -32.9 -35.85 L-37.0 -27.1 Q-39.95 -18.05 -41.3 -14.65 -44.15 -7.9 -48.4 -3.15 -51.35 -2.8 -53.45 -4.85 L-56.5 -9.2 -54.9 -9.15 Q-56.1 -14.55 -56.75 -26.3 -57.65 -41.4 -58.05 -45.7 -56.7 -47.9 -55.1 -47.9 -53.05 -47.9 -51.8 -45.8 -50.55 -43.7 -50.75 -41.7 -51.25 -37.8 -51.25 -33.6 M-9.05 -31.85 Q-11.1 -34.9 -12.75 -34.9 -14.1 -34.9 -15.6 -32.3 -21.8 -24.45 -21.8 -18.6 -21.8 -15.65 -20.55 -13.45 -19.5 -12.45 -18.1 -12.45 L-15.7 -13.05 -13.0 -13.8 Q-5.95 -17.75 -5.95 -26.4 L-9.05 -31.85 M-0.1 -32.45 Q0.65 -27.5 0.65 -24.7 0.65 -16.65 -4.3 -12.7 -11.1 -5.55 -19.0 -5.55 -21.8 -5.55 -24.75 -6.55 -29.0 -10.8 -29.0 -17.5 -29.0 -24.85 -21.35 -33.85 -19.2 -36.2 -14.2 -42.25 L-11.65 -42.7 Q-7.75 -42.7 -4.6 -38.75 L-0.1 -32.45 M-7.25 10.95 Q-6.2 11.65 -5.35 12.0 -6.35 23.75 -6.35 31.2 -6.35 48.15 -1.9 57.0 L-0.55 57.0 Q0.65 58.15 0.65 59.25 0.65 62.1 -3.3 62.75 -7.3 62.95 -8.35 58.95 -9.9 53.05 -10.55 52.2 -12.25 44.2 -12.25 33.05 -12.25 25.35 -11.2 11.2 -10.05 10.2 -9.1 10.2 -8.3 10.2 -7.25 10.95 M-21.1 40.05 Q-17.9 38.45 -17.9 36.3 -17.9 34.3 -20.0 31.3 -23.65 31.85 -28.2 35.85 -34.85 41.7 -37.75 42.85 -38.6 41.95 -39.8 42.2 -28.45 26.05 -16.8 24.8 L-13.4 30.65 Q-13.0 32.8 -13.0 34.9 -13.0 37.3 -13.95 41.95 -14.95 46.55 -14.95 48.85 -14.95 51.15 -14.05 53.6 -17.0 57.4 -22.6 58.15 L-31.35 58.25 Q-36.2 57.1 -36.2 52.1 -36.2 49.9 -34.5 48.4 -32.9 44.9 -28.45 42.9 L-21.1 40.05 M-22.15 48.05 Q-23.3 48.05 -27.95 50.8 L-27.95 51.35 Q-27.95 51.8 -27.25 52.5 -26.95 51.2 -22.55 49.7 -21.35 48.9 -21.45 48.1 L-22.15 48.05 M-47.05 20.45 L-47.05 23.25 -53.5 22.55 Q-58.3 22.55 -63.75 24.25 -68.0 25.55 -74.6 27.95 -75.9 33.35 -75.9 37.05 -75.9 40.8 -74.95 42.7 -69.7 42.4 -58.55 38.35 -48.2 34.5 -39.3 34.95 -42.0 38.25 -47.05 40.4 L-74.35 49.05 Q-75.25 49.8 -75.25 51.35 -75.25 52.4 -74.45 54.65 -73.65 56.85 -73.65 58.05 -73.65 61.15 -79.3 61.3 -79.95 59.35 -80.55 53.55 -81.0 49.15 -82.8 46.6 -82.8 44.15 -82.05 40.1 -81.25 36.0 -81.25 34.05 -81.25 28.65 -85.85 27.5 -84.1 21.4 -78.9 21.4 L-76.05 21.6 -73.2 21.8 Q-71.05 21.8 -69.45 21.05 -67.15 20.6 -61.25 18.6 -56.0 16.8 -52.7 16.8 -50.6 16.8 -48.2 17.6 L-47.05 20.45" fill="#000000" fill-rule="evenodd" stroke="none"/>
    <path d="M58.05 -51.4 L57.1 -50.95 Q58.05 -50.25 57.95 -50.4 L59.0 -50.55 Q60.7 -50.55 59.0 -49.2 57.3 -47.85 56.75 -47.85 55.0 -47.85 54.55 -48.9 L49.15 -54.0 Q47.8 -53.1 45.45 -48.15 43.1 -43.1 40.25 -43.1 38.85 -43.1 36.65 -44.4 L36.65 -47.8 Q39.0 -49.2 41.8 -53.6 44.1 -58.05 45.25 -59.4 48.15 -62.7 52.75 -62.7 L58.05 -51.4 M31.6 -29.3 Q31.6 -24.95 26.55 -24.95 L24.8 -24.95 Q22.25 -24.95 21.3 -23.65 13.65 -20.8 8.45 -13.6 8.45 -11.7 10.2 -10.0 L13.1 -9.75 Q16.65 -9.75 22.8 -11.2 L33.25 -13.3 Q23.85 -4.25 13.4 -4.25 8.95 -4.25 5.3 -6.0 1.85 -8.65 1.85 -11.6 1.85 -13.25 2.75 -15.1 13.3 -29.95 30.75 -32.5 L31.6 -29.3 M36.05 -22.85 Q40.15 -32.85 41.3 -34.6 45.85 -41.55 53.35 -40.9 57.6 -37.35 58.8 -31.45 L59.95 -21.9 Q61.2 -19.55 61.2 -18.3 61.2 -16.45 59.15 -16.65 L53.55 -15.9 Q48.4 -14.85 46.25 -14.85 L41.75 -15.15 41.55 -14.5 Q41.55 -13.9 42.45 -12.8 L43.9 -10.55 Q46.15 -8.45 49.2 -8.45 51.65 -8.45 56.45 -10.5 61.95 -12.95 65.5 -13.3 64.35 -8.45 59.1 -6.2 L50.95 -2.7 48.4 -2.5 Q41.2 -2.5 36.6 -8.7 36.45 -10.4 35.0 -13.65 33.6 -16.9 33.6 -18.5 33.6 -21.15 36.05 -22.85 M48.1 -32.95 L44.75 -27.1 Q43.15 -23.85 43.25 -22.6 L50.2 -22.6 Q51.35 -23.85 51.35 -26.45 L51.35 -31.35 Q51.1 -33.0 49.1 -33.0 L48.1 -32.95 M89.05 29.75 Q88.15 36.0 88.15 39.55 88.15 48.3 92.8 51.65 93.35 56.5 88.4 56.5 86.3 56.5 84.35 55.6 82.55 54.8 82.45 51.5 82.45 50.1 81.9 50.1 L81.8 50.1 Q81.2 52.1 78.4 53.5 74.55 55.35 73.7 56.5 65.95 56.5 63.9 51.2 L63.7 46.45 Q63.7 31.3 73.0 26.75 73.0 30.1 71.35 35.5 69.8 40.9 69.8 43.45 69.8 47.55 72.2 49.9 75.65 49.0 78.25 45.15 80.85 41.35 81.6 37.15 80.75 36.45 80.75 35.1 80.75 33.65 84.35 29.75 L89.05 29.75 M50.8 20.9 Q54.7 20.9 57.85 24.85 L62.35 31.15 Q63.1 36.1 63.1 38.9 63.1 46.95 58.15 50.9 51.35 58.05 43.45 58.05 40.65 58.05 37.7 57.05 33.45 52.8 33.45 46.1 33.45 38.75 41.1 29.75 L48.25 21.35 50.8 20.9 M53.4 31.75 Q51.35 28.7 49.7 28.7 48.35 28.7 46.85 31.3 40.65 39.15 40.65 45.0 40.65 47.95 41.9 50.15 42.95 51.15 44.35 51.15 L46.75 50.55 49.45 49.8 Q56.5 45.85 56.5 37.2 L53.4 31.75 M8.1 23.55 L8.1 28.45 8.1 33.45 Q8.1 43.25 10.55 49.2 11.55 47.65 14.75 40.75 17.7 34.6 22.0 33.15 25.25 37.0 27.7 45.25 30.15 53.5 32.9 57.35 L31.45 60.4 Q30.7 62.05 28.45 62.05 L25.7 60.95 Q24.9 58.8 22.95 51.05 21.55 45.4 20.35 42.9 20.4 43.5 15.45 52.25 11.85 58.5 6.8 60.5 4.75 54.6 2.6 38.75 L2.6 34.8 2.35 29.4 2.1 23.85 Q2.1 16.3 6.8 11.65 8.1 17.35 8.1 23.55 M-51.25 -33.6 Q-51.25 -22.9 -48.25 -14.1 -46.15 -17.65 -42.45 -28.0 -38.9 -40.3 -33.35 -45.35 L-29.65 -45.2 Q-30.3 -41.1 -32.9 -35.85 L-37.0 -27.1 Q-39.95 -18.05 -41.3 -14.65 -44.15 -7.9 -48.4 -3.15 -51.35 -2.8 -53.45 -4.85 L-56.5 -9.2 -54.9 -9.15 Q-56.1 -14.55 -56.75 -26.3 -57.65 -41.4 -58.05 -45.7 -56.7 -47.9 -55.1 -47.9 -53.05 -47.9 -51.8 -45.8 -50.55 -43.7 -50.75 -41.7 -51.25 -37.8 -51.25 -33.6 M-9.05 -31.85 Q-11.1 -34.9 -12.75 -34.9 -14.1 -34.9 -15.6 -32.3 -21.8 -24.45 -21.8 -18.6 -21.8 -15.65 -20.55 -13.45 -19.5 -12.45 -18.1 -12.45 L-15.7 -13.05 -13.0 -13.8 Q-5.95 -17.75 -5.95 -26.4 L-9.05 -31.85 M-0.1 -32.45 Q0.65 -27.5 0.65 -24.7 0.65 -16.65 -4.3 -12.7 -11.1 -5.55 -19.0 -5.55 -21.8 -5.55 -24.75 -6.55 -29.0 -10.8 -29.0 -17.5 -29.0 -24.85 -21.35 -33.85 -19.2 -36.2 -14.2 -42.25 L-11.65 -42.7 Q-7.75 -42.7 -4.6 -38.75 L-0.1 -32.45 M-7.25 10.95 Q-6.2 11.65 -5.35 12.0 -6.35 23.75 -6.35 31.2 -6.35 48.15 -1.9 57.0 L-0.55 57.0 Q0.65 58.15 0.65 59.25 0.65 62.1 -3.3 62.75 -7.3 62.95 -8.35 58.95 -9.9 53.05 -10.55 52.2 -12.25 44.2 -12.25 33.05 -12.25 25.35 -11.2 11.2 -10.05 10.2 -9.1 10.2 -8.3 10.2 -7.25 10.95 M-21.1 40.05 Q-17.9 38.45 -17.9 36.3 -17.9 34.3 -20.0 31.3 -23.65 31.85 -28.2 35.85 -34.85 41.7 -37.75 42.85 -38.6 41.95 -39.8 42.2 -28.45 26.05 -16.8 24.8 L-13.4 30.65 Q-13.0 32.8 -13.0 34.9 -13.0 37.3 -13.95 41.95 -14.95 46.55 -14.95 48.85 -14.95 51.15 -14.05 53.6 -17.0 57.4 -22.6 58.15 L-31.35 58.25 Q-36.2 57.1 -36.2 52.1 -36.2 49.9 -34.5 48.4 -32.9 44.9 -28.45 42.9 L-21.1 40.05 M-22.15 48.05 Q-23.3 48.05 -27.95 50.8 L-27.95 51.35 Q-27.95 51.8 -27.25 52.5 -26.95 51.2 -22.55 49.7 -21.35 48.9 -21.45 48.1 L-22.15 48.05 M-47.05 20.45 L-47.05 23.25 -53.5 22.55 Q-58.3 22.55 -63.75 24.25 -68.0 25.55 -74.6 27.95 -75.9 33.35 -75.9 37.05 -75.9 40.8 -74.95 42.7 -69.7 42.4 -58.55 38.35 -48.2 34.5 -39.3 34.95 -42.0 38.25 -47.05 40.4 L-74.35 49.05 Q-75.25 49.8 -75.25 51.35 -75.25 52.4 -74.45 54.65 -73.65 56.85 -73.65 58.05 -73.65 61.15 -79.3 61.3 -79.95 59.35 -80.55 53.55 -81.0 49.15 -82.8 46.6 -82.8 44.15 -82.05 40.1 -81.25 36.0 -81.25 34.05 -81.25 28.65 -85.85 27.5 -84.1 21.4 -78.9 21.4 L-76.05 21.6 -73.2 21.8 Q-71.05 21.8 -69.45 21.05 -67.15 20.6 -61.25 18.6 -56.0 16.8 -52.7 16.8 -50.6 16.8 -48.2 17.6 L-47.05 20.45" fill="none" stroke="#666666" stroke-linecap="round" stroke-linejoin="round" stroke-width="9.0"/>
    <path d="M58.4 -51.3 L57.45 -50.85 58.3 -50.3 59.35 -50.45 Q61.05 -50.45 59.35 -49.1 57.65 -47.75 57.1 -47.75 55.35 -47.75 54.9 -48.8 L49.5 -53.9 Q48.15 -53.0 45.8 -48.05 43.45 -43.0 40.6 -43.0 39.2 -43.0 37.0 -44.3 L37.0 -47.7 Q39.35 -49.1 42.15 -53.5 44.45 -57.95 45.6 -59.3 48.5 -62.6 53.1 -62.6 L58.4 -51.3 M25.15 -24.85 Q22.6 -24.85 21.65 -23.55 14.0 -20.7 8.8 -13.5 8.8 -11.6 10.55 -9.9 L13.45 -9.65 Q17.0 -9.65 23.15 -11.1 L33.6 -13.2 Q24.2 -4.15 13.75 -4.15 9.3 -4.15 5.65 -5.9 2.2 -8.55 2.2 -11.5 2.2 -13.15 3.1 -15.0 13.65 -29.85 31.1 -32.4 L31.95 -29.2 Q31.95 -24.85 26.9 -24.85 L25.15 -24.85 M35.35 -13.55 Q33.95 -16.8 33.95 -18.4 33.95 -21.05 36.4 -22.75 40.5 -32.75 41.65 -34.5 46.2 -41.45 53.7 -40.8 57.95 -37.25 59.15 -31.35 L60.3 -21.8 Q61.55 -19.45 61.55 -18.2 61.55 -16.35 59.5 -16.55 L53.9 -15.8 46.6 -14.75 42.1 -15.05 41.9 -14.4 Q41.9 -13.8 42.8 -12.7 L44.25 -10.45 Q46.5 -8.35 49.55 -8.35 52.0 -8.35 56.8 -10.4 62.3 -12.85 65.85 -13.2 64.7 -8.35 59.45 -6.1 L51.3 -2.6 48.75 -2.4 Q41.55 -2.4 36.95 -8.6 36.8 -10.3 35.35 -13.55 M1.0 -24.6 Q1.0 -16.55 -3.95 -12.6 -10.75 -5.45 -18.65 -5.45 -21.45 -5.45 -24.4 -6.45 -28.65 -10.7 -28.65 -17.4 -28.65 -24.75 -21.0 -33.75 L-13.85 -42.15 -11.3 -42.6 Q-7.4 -42.6 -4.25 -38.65 L0.25 -32.35 Q1.0 -27.4 1.0 -24.6 M45.1 -27.0 Q43.5 -23.75 43.6 -22.5 L50.55 -22.5 Q51.7 -23.75 51.7 -26.35 L51.7 -31.25 Q51.45 -32.9 49.45 -32.9 L48.45 -32.85 45.1 -27.0 M88.5 39.65 Q88.5 48.4 93.15 51.75 93.7 56.6 88.75 56.6 86.65 56.6 84.7 55.7 82.9 54.9 82.8 51.6 82.8 50.2 82.25 50.2 L82.15 50.2 Q81.55 52.2 78.75 53.6 74.9 55.45 74.05 56.6 66.3 56.6 64.25 51.3 L64.05 46.55 Q64.05 31.4 73.35 26.85 73.35 30.2 71.7 35.6 70.15 41.0 70.15 43.55 70.15 47.65 72.55 50.0 76.0 49.1 78.6 45.25 81.2 41.45 81.95 37.25 81.1 36.55 81.1 35.2 81.1 33.75 84.7 29.85 L89.4 29.85 Q88.5 36.1 88.5 39.65 M51.15 21.0 Q55.05 21.0 58.2 24.95 L62.7 31.25 Q63.45 36.2 63.45 39.0 63.45 47.05 58.5 51.0 51.7 58.15 43.8 58.15 41.0 58.15 38.05 57.15 33.8 52.9 33.8 46.2 33.8 38.85 41.45 29.85 L48.6 21.45 51.15 21.0 M47.2 31.4 Q41.0 39.25 41.0 45.1 41.0 48.05 42.25 50.25 43.3 51.25 44.7 51.25 L47.1 50.65 49.8 49.9 Q56.85 45.95 56.85 37.3 L53.75 31.85 Q51.7 28.8 50.05 28.8 48.7 28.8 47.2 31.4 M8.45 23.65 L8.45 28.55 8.45 33.55 Q8.45 43.35 10.9 49.3 L15.1 40.85 Q18.05 34.7 22.35 33.25 25.6 37.1 28.05 45.35 30.5 53.6 33.25 57.45 L31.8 60.5 Q31.05 62.15 28.8 62.15 L26.05 61.05 Q25.25 58.9 23.3 51.15 21.9 45.5 20.7 43.0 20.75 43.6 15.8 52.35 12.2 58.6 7.15 60.6 5.1 54.7 2.95 38.85 L2.95 34.9 2.7 29.5 2.45 23.95 Q2.45 16.4 7.15 11.75 8.45 17.45 8.45 23.65 M-50.9 -33.5 Q-50.9 -22.8 -47.9 -14.0 -45.8 -17.55 -42.1 -27.9 -38.55 -40.2 -33.0 -45.25 L-29.3 -45.1 Q-29.95 -41.0 -32.55 -35.75 L-36.65 -27.0 Q-39.6 -17.95 -40.95 -14.55 -43.8 -7.8 -48.05 -3.05 -51.0 -2.7 -53.1 -4.75 L-56.15 -9.1 -54.55 -9.05 Q-55.75 -14.45 -56.4 -26.2 -57.3 -41.3 -57.7 -45.6 -56.35 -47.8 -54.75 -47.8 -52.7 -47.8 -51.45 -45.7 -50.2 -43.6 -50.4 -41.6 -50.9 -37.7 -50.9 -33.5 M-15.25 -32.2 Q-21.45 -24.35 -21.45 -18.5 -21.45 -15.55 -20.2 -13.35 -19.15 -12.35 -17.75 -12.35 L-15.35 -12.95 -12.65 -13.7 Q-5.6 -17.65 -5.6 -26.3 L-8.7 -31.75 Q-10.75 -34.8 -12.4 -34.8 -13.75 -34.8 -15.25 -32.2 M-6.9 11.05 L-5.0 12.1 Q-6.0 23.85 -6.0 31.3 -6.0 48.25 -1.55 57.1 L-0.2 57.1 Q1.0 58.25 1.0 59.35 1.0 62.2 -2.95 62.85 -6.95 63.05 -8.0 59.05 -9.55 53.15 -10.2 52.3 -11.9 44.3 -11.9 33.15 -11.9 25.45 -10.85 11.3 -9.7 10.3 -8.75 10.3 -7.95 10.3 -6.9 11.05 M-37.4 42.95 Q-38.25 42.05 -39.45 42.3 -28.1 26.15 -16.45 24.9 L-13.05 30.75 Q-12.65 32.9 -12.65 35.0 -12.65 37.4 -13.6 42.05 -14.6 46.65 -14.6 48.95 -14.6 51.25 -13.7 53.7 -16.65 57.5 -22.25 58.25 L-31.0 58.35 Q-35.85 57.2 -35.85 52.2 -35.85 50.0 -34.15 48.5 -32.55 45.0 -28.1 43.0 L-20.75 40.15 Q-17.55 38.55 -17.55 36.4 -17.55 34.4 -19.65 31.4 -23.3 31.95 -27.85 35.95 -34.5 41.8 -37.4 42.95 M-21.8 48.15 Q-22.95 48.15 -27.6 50.9 L-27.6 51.45 -26.9 52.6 Q-26.6 51.3 -22.2 49.8 -21.0 49.0 -21.1 48.2 L-21.8 48.15 M-47.85 17.7 L-46.7 20.55 -46.7 23.35 -53.15 22.65 Q-57.95 22.65 -63.4 24.35 -67.65 25.65 -74.25 28.05 -75.55 33.45 -75.55 37.15 -75.55 40.9 -74.6 42.8 -69.35 42.5 -58.2 38.45 -47.85 34.6 -38.95 35.05 -41.65 38.35 -46.7 40.5 L-74.0 49.15 Q-74.9 49.9 -74.9 51.45 -74.9 52.5 -74.1 54.75 -73.3 56.95 -73.3 58.15 -73.3 61.25 -78.95 61.4 -79.6 59.45 -80.2 53.65 -80.65 49.25 -82.45 46.7 -82.45 44.25 -81.7 40.2 -80.9 36.1 -80.9 34.15 -80.9 28.75 -85.5 27.6 -83.75 21.5 -78.55 21.5 L-75.7 21.7 -72.85 21.9 Q-70.7 21.9 -69.1 21.15 -66.8 20.7 -60.9 18.7 -55.65 16.9 -52.35 16.9 -50.25 16.9 -47.85 17.7" fill="#ffffff" fill-rule="evenodd" stroke="none"/>
  </g>
</svg>
