<?xml version="1.0" encoding="UTF-8" standalone="no"?>
<svg xmlns:xlink="http://www.w3.org/1999/xlink" height="47.85px" width="87.4px" xmlns="http://www.w3.org/2000/svg">
  <g transform="matrix(1.0, 0.0, 0.0, 1.0, 0.0, -1.15)">
    <path d="M31.45 19.0 L31.45 3.85 Q31.45 1.45 33.9 1.2 L33.9 1.15 84.3 1.15 Q87.4 1.15 87.4 3.85 L87.35 23.7 Q87.25 19.95 83.7 19.2 L31.45 19.2 31.45 19.0" fill="#666666" fill-rule="evenodd" stroke="none"/>
    <path d="M87.35 23.7 L87.35 44.0 Q87.35 49.0 81.6 49.0 L4.55 49.0 4.55 48.9 Q0.0 48.45 0.0 44.0 L0.0 23.95 Q0.0 19.5 4.55 19.05 L4.55 19.0 31.45 19.0 31.45 19.2 83.7 19.2 Q87.25 19.95 87.35 23.7" fill="#333333" fill-rule="evenodd" stroke="none"/>
  </g>
</svg>
