<?xml version="1.0" encoding="UTF-8" standalone="no"?>
<svg xmlns:xlink="http://www.w3.org/1999/xlink" height="18.0px" width="25.0px" xmlns="http://www.w3.org/2000/svg">
  <g transform="matrix(1.0, 0.0, 0.0, 1.0, -44.5, -408.5)">
    <path d="M45.0 417.5 Q45.0 414.0 48.5 411.5 52.05 409.0 57.0 409.0 61.95 409.0 65.45 411.5 69.0 414.0 69.0 417.5 69.0 421.0 65.45 423.5 61.95 426.0 57.0 426.0 52.05 426.0 48.5 423.5 45.0 421.0 45.0 417.5" fill="#ffffff" fill-rule="evenodd" stroke="none"/>
    <path d="M45.0 417.5 Q45.0 414.0 48.5 411.5 52.05 409.0 57.0 409.0 61.95 409.0 65.45 411.5 69.0 414.0 69.0 417.5 69.0 421.0 65.45 423.5 61.95 426.0 57.0 426.0 52.05 426.0 48.5 423.5 45.0 421.0 45.0 417.5 Z" fill="none" stroke="#ff0000" stroke-linecap="round" stroke-linejoin="round" stroke-width="1.0"/>
  </g>
</svg>
