<?xml version="1.0" encoding="UTF-8" standalone="no"?>
<svg xmlns:xlink="http://www.w3.org/1999/xlink" height="319.2px" width="68.95px" xmlns="http://www.w3.org/2000/svg">
  <g transform="matrix(1.0, 0.0, 0.0, 1.0, 0.0, 0.0)">
    <path d="M17.95 0.0 Q28.95 49.55 32.6 99.15 L50.85 148.6 Q44.0 163.25 48.05 177.85 60.3 202.85 55.0 245.4 50.25 202.15 43.15 182.75 37.8 163.05 43.15 151.4 L34.1 128.3 Q35.35 170.15 31.35 212.0 60.85 260.25 68.95 319.2 55.2 262.25 25.7 214.0 30.55 162.9 27.65 111.85 L0.0 41.4 6.95 29.55 24.85 78.15 Q20.75 40.05 12.3 2.05 L17.95 0.0" fill="#ffffff" fill-rule="evenodd" stroke="none"/>
  </g>
</svg>
