<?xml version="1.0" encoding="UTF-8" standalone="no"?>
<svg xmlns:xlink="http://www.w3.org/1999/xlink" height="364.95px" width="674.05px" xmlns="http://www.w3.org/2000/svg">
  <g transform="matrix(1.0, 0.0, 0.0, 1.0, -1453.65, 453.0)">
    <path d="M1792.15 -450.5 L2115.2 -450.5 Q2125.2 -450.5 2125.2 -440.5 L2125.2 -290.5 1792.15 -290.5 1792.15 -450.5 1792.15 -290.5 2125.2 -290.5 2125.2 -100.55 Q2125.2 -90.55 2115.2 -90.55 L1792.15 -90.55 1466.15 -90.55 Q1456.15 -90.55 1456.15 -100.55 L1456.15 -223.5 1456.15 -440.5 Q1456.15 -450.5 1466.15 -450.5 L1792.15 -450.5 M1792.15 -223.5 L1792.15 -90.55 1792.15 -223.5 1456.15 -223.5 1792.15 -223.5 1792.15 -290.5 1792.15 -223.5" fill="#333333" fill-opacity="0.9019608" fill-rule="evenodd" stroke="none"/>
    <path d="M2125.2 -290.5 L2125.2 -440.5 Q2125.2 -450.5 2115.2 -450.5 L1792.15 -450.5 1792.15 -290.5 2125.2 -290.5 2125.2 -100.55 Q2125.2 -90.55 2115.2 -90.55 L1792.15 -90.55 1466.15 -90.55 Q1456.15 -90.55 1456.15 -100.55 L1456.15 -223.5 1456.15 -440.5 Q1456.15 -450.5 1466.15 -450.5 L1792.15 -450.5 M1456.15 -223.5 L1792.15 -223.5 1792.15 -290.5 M1792.15 -90.55 L1792.15 -223.5" fill="none" stroke="#202020" stroke-linecap="round" stroke-linejoin="round" stroke-width="5.0"/>
  </g>
</svg>
